<svg xmlns="http://www.w3.org/2000/svg" width="26" height="93" fill="none"><path fill="#fff" fill-rule="evenodd" d="M17.21.037c-.079.08-.501.185-.95.264-.766.106-3.566 1.347-4.728 2.087-2.008 1.294-4.49 4.78-5.045 7.105-.212.977-.238 1.03-.634 3.143-.29 1.611-.132 6.207.29 8.426.264 1.294.159 3.116-.29 4.437-.027.132-.053.29-.027.396 0 .106-.105.502-.237.846-.212.607-.793 4.094-.925 5.705-.026.37-.132 1.188-.211 1.849-.555 3.54-1.004 14.606-1.004 24.115 0 4.992.396 7.449 1.347 8.479.66.686 1.136.317 2.166-1.69.819-1.612.977-1.77 2.668-2.563 1.479-.74 1.77-.977 1.77-1.532 0-.37.132-.66.29-.66.185 0 .238-.264.185-.66-.08-.397-.026-.66.159-.66.37 0 1.109-1.639 1.347-2.986.105-.528.29-.977.449-.977.132 0 .21-.158.184-.343-.105-.793.053-1.506.423-1.876.211-.21.396-.554.396-.74 0-.184.185-.633.423-.95.238-.343.29-.581.106-.581-.159 0-.08-.29.158-.66.238-.37.45-1.136.476-1.717 0-.555.052-.978.132-.925.237.264 1.109-1.849 1.082-2.615-.079-1.162-.026-1.479.212-1.452.502.079.607-.053.317-.423-.185-.211-.238-.607-.132-.845a5.92 5.92 0 0 0 .29-1.136c.08-.343.238-.766.396-.95.133-.16.133-.397.027-.503-.106-.132-.053-.132.132-.026.449.264 1.004-.819.634-1.268-.211-.264-.185-.449.08-.66.21-.185.316-.502.237-.713-.08-.238.026-.37.317-.37.37 0 .396-.08.158-.37-.211-.264-.238-.423-.026-.555.158-.079.211-.29.132-.422-.106-.132-.08-.238.053-.238.105 0 .237-.264.237-.608.053-.766.212-1.294.476-1.743.132-.211.105-.422-.106-.555-.237-.158-.237-.237 0-.396.159-.105.238-.343.185-.502-.08-.184-.026-.501.106-.713.211-.317.29-.317.528.027.211.317.238.185.132-.476-.08-.502-.026-.845.132-.845.159 0 .211-.29.106-.766-.132-.581-.053-.845.317-1.056.29-.159.343-.291.132-.291-.212 0-.264-.132-.132-.343.105-.159.158-.581.105-.925-.026-.317.08-.58.238-.58.159 0 .211-.133.132-.265-.105-.159 0-.555.238-.898.211-.344.317-.872.238-1.189-.08-.29-.053-.766.026-1.003.159-.397.211-.397.45-.08.184.29.21.185.078-.343-.105-.423-.026-.872.159-1.11.264-.316.264-.396 0-.396-.238 0-.212-.158.105-.501.291-.317.37-.555.185-.687-.422-.264-.343-.925.106-.925.317 0 .37-.105.132-.501-.211-.423-.158-.581.159-.766.316-.159.396-.476.316-.951-.079-.37-.026-.687.106-.687s.159-.132.08-.264c-.106-.159-.08-.423.052-.608s.264-.74.29-1.241c.027-.502-.026-.766-.105-.608-.08.185-.264.344-.37.344-.132 0-.026-.502.264-1.11.344-.792.423-1.241.238-1.584-.158-.265-.158-.634-.053-.82.29-.448.29-1.769 0-1.769-.132 0-.185-.396-.105-.872.132-.633-.027-1.162-.555-2.06-.845-1.452-2.034-2.879-2.377-2.879-.132 0-.555-.237-.951-.554-.476-.37-1.215-.582-2.35-.66-.899-.08-1.691-.08-1.77-.027Zm0 6.92c1.268.66 1.69 2.562 1.321 5.996-.158 1.505-.37 3.143-.502 3.592-.158.475-.264.924-.264.977 0 1.215-2.14 10.883-2.668 12.15-.132.29-.316 1.057-.422 1.69a9.636 9.636 0 0 1-.555 2.088c-.211.501-.317 1.082-.238 1.267.08.212.053.37-.079.37s-.475.951-.792 2.113c-.317 1.136-.845 2.853-1.189 3.804-.343.95-.607 1.743-.554 1.796.052.053-.053.211-.238.37-.238.21-.396.184-.634-.08-.238-.237-.264-.343-.027-.343.238 0 .238-.08 0-.37-.237-.29-.237-.396.027-.475.264-.106.264-.212-.027-.555-.37-.475-.21-1.77.212-1.77.158 0 .158-.317.026-.792-.132-.475-.132-.792.027-.792.237 0 .21-.74-.08-1.189-.079-.159-.105-.872-.053-1.585.159-1.928.212-2.35.45-2.72.132-.159.158-.423.052-.555-.079-.132-.026-.317.133-.423.132-.079.264-.29.264-.422 0-.159-.106-.185-.264-.106-.133.08-.265.053-.265-.08 0-.131.423-.58.925-.95.528-.396.871-.819.792-.95-.343-.556-.528-4.412-.343-7.66.026-.529-.027-1.137-.132-1.4-.08-.238-.053-.45.079-.45.159 0 .264-.211.264-.475s.08-.581.211-.687c.106-.106.212-.449.238-.766.027-.317.159-1.056.29-1.637.265-1.242-.079-1.796-1.082-1.717-1.374.132-1.506.026-1.506-.925 0-.554.132-.924.344-.924.21 0 .21-.08-.053-.238-.317-.211-.317-.317-.08-.634.185-.211.37-.74.423-1.188.08-.45.238-1.057.423-1.348.158-.316.211-.554.132-.554-.08 0 .105-.238.422-.555 1.242-1.241 3.54-1.664 4.992-.898ZM7.41 73.149c-.184.105-.422.158-.528.079-.184-.106-2.297.95-3.539 1.822-1.188.82-2.8 2.562-2.641 2.853.105.132.053.238-.106.238-.66 0-.819 5.124-.238 7.791.66 3.064 2.615 5.68 4.464 6.05 1.85.343 3.857-1.084 5.019-3.567.528-1.056.871-1.4 1.98-1.954 1.004-.502 1.454-.898 1.665-1.453.132-.449.449-.792.66-.792.238 0 .317-.185.238-.555-.08-.317-.027-.634.132-.74.37-.237.634-4.833.29-5.07-.132-.08-.316-.424-.37-.793-.079-.344-.237-.66-.396-.713-.132-.053-.264-.212-.264-.37 0-.132-.475-.713-1.056-1.268-.581-.555-1.057-.95-1.057-.898 0 .08-.343-.053-.766-.29-.898-.45-2.984-.687-3.486-.37Zm-.158 4.358c.106.105-.079.396-.396.66-.607.555-1.03.687-.528.185.238-.238.185-.37-.159-.634-.396-.317-.396-.343.238-.37.37 0 .766.08.845.159Zm-.396 1.584c.872.238 1.796 2.299 1.48 3.25-.397 1.135-1.19.897-1.903-.582-.317-.686-.686-1.241-.818-1.241-.344 0-.555-.713-.397-1.189.185-.422.66-.502 1.638-.237Z" clip-rule="evenodd"/></svg>