<svg xmlns="http://www.w3.org/2000/svg" width="135" height="104" fill="none" viewBox="0 0 135 104"><path fill="#fff" d="M73.81 10.01c.11 3.74-.99 6.38-2.42 8.58-4.29 6.16-12.65 10.45-17.6 15.07-.22 0-.55 0-.55-.22-3.96 3.19-8.58 4.29-12.98 7.15 11.55-.11 25.96.77 26.4 13.42-1.21 4.18-3.52 8.47-5.5 11-2.42.77-2.97 3.19-4.62 4.73-.66-.11-.66.44-1.43.22-2.97 3.85-8.03 5.5-12.1 8.25-6.93 2.97-17.93 8.47-29.37 7.15-2.86-.33-4.4-1.43-5.83-3.52 0-.55.88-.22.88-.88-.33-.88-.55-.11-1.43-.22-.99-1.65-1.43-2.31-.77-4.4.99.55 1.1-.77 1.32-1.65 1.21.77.66-.99 1.1-1.65.55-.11.55.33.88.55 1.21-7.26 4.29-14.96 7.37-19.8-.55-1.43-1.76-1.32-1.87-2.53-3.19.44-4.84-.88-5.28-4.07 2.2-1.1 5.17-1.76 6.93-1.43.33-.22.33-.88.55-1.32.66-.11 1.32-.11 1.65.22.22-1.65 1.43-.77 2.2-1.65.88.44-.55.77-.55 1.1.44.66 1.76 0 1.32-1.1.33-.11.66.33.88.33 2.31-1.1 5.83-9.24 7.37-11.88 3.74-6.27 8.69-12.54 11.55-18.15-13.31 5.83-26.4 14.3-33.55 27.28-.22 1.76-.44 3.52-.77 5.17-.11 1.1.22 2.64-.33 3.3-.22.11-.55 0-.55.33-6.71-2.86-4.62-13.75.33-17.05.66.22-.22 1.98.77 1.87.44 0-.22-1.32 0-2.2.44 0 .22.66.88.55-.11.33 0 .55.22.55.44-.11.22-.66-.22-.55v-1.87c.55.11.55.77 1.1 1.1.99.22.33-1.1 1.32-.88v.55c1.43-1.76 2.97-3.41 4.95-4.62.11-.66-.22-.88-.77-.88 1.76-.44 2.53-1.98 3.85-2.97.44 0 .66.22.77.55-.33-.11-.44 0-.55.22.33 0 .44 0 .55-.22.22-.22.77-.22.88-.55-.33-.99-1.32-.88-1.65 0-.33-.11-.88 0-.88-.33s0-.77.33-.77c0 .33.55.22.55 0 .99 0 1.43-.55 1.65-1.43.44 0 .55-.22.55-.77 1.43.66-.99 1.65 0 2.75 8.03-6.16 18.37-10.23 28.05-14.85-3.96-.22-9.02 3.08-13.2 4.4-.22-.88.66-.55.55-1.43C46.31 6.82 62.92 0 72.71 8.14c.33.66.55 1.43 1.1 1.87m-16.17-4.4c-.22.11-.55 0-.55.33.22-.11.55 0 .55-.33m4.62.33c-.44.33-1.54 0-1.87.55.55-.22 2.09.44 1.87-.55m3.85 0c-.22 0-.55 0-.55.22.22 0 .55 0 .55-.22m-11.33.33c-1.76.33-3.96.22-4.84 1.32 1.76-.22 3.41-.66 4.84-1.32m.66 20.24c5.5-4.84 12.98-9.13 13.97-17.6-7.48-3.3-17.71.44-24.97 3.3.99.33 1.43 1.1 2.97.88-.22 1.1 1.32.44 1.1 1.65-5.94 7.48-10.67 16.28-16.17 24.2 1.21-.66 3.08-.88 2.42-1.98.55 0 .33.77 1.1.55.44-.88 1.98-.55 1.98-1.87.33.44 1.32.22 2.2.22.55-.99.66-.99.55-1.65.55-.11.33.55.77.55 0-1.32 1.65-2.31 2.53-1.87-.11.55-.88.55-1.1 1.1 1.76.66 1.65-1.54 2.75-1.98-.44.99 0 .99-.33 1.98-.66-.11-1.32-.11-1.32.55.88.11 1.43 1.43.77 2.2 1.43-.11 2.2-.99 3.08-1.65.77-.77 1.87-1.21 3.3-1.43v-2.2c-1.65.77-2.64 0-3.63 1.43.22.44 1.32-.11 1.1.77 0 .99-1.98.11-1.87 1.1-.77-.33-1.21.88-1.43 0-.22-1.21 1.76-.33 1.65-1.32.11-1.32-1.1.33-1.1-.88 2.2-.44 1.43-2.31 4.4-2.2.22-.66.22-1.43.55-1.87 1.1.77 1.1-1.43 2.53-1.1-.22.22-.33.44-.33.77h-.55c0 .44.22.77.55.88v-.88c.99-.99 1.1-.99 2.53-1.65m-22-12.1c-.99-.11-.77-.77-1.65-.22.33-1.87 2.64-1.76 4.07-2.53-.33 1.98-2.75.88-2.42 2.75m-6.93 3.63c-1.76-.55-2.31 1.65-3.85 1.65.33-2.09 1.98-1.32 2.53-3.08.33.11.22.44.22.88.33-.88 1.87-.55 1.65-1.98 1.21.33 2.86-.44 3.08-1.87.55 0 1.1.33 1.65.55-1.21 1.32-3.52 1.43-4.18 3.3-.33-.44-1.43-.55-1.1.55m41.58.77c.44.11.44-.22.55-.55-.33.11-.55.22-.55.55h-.33c-.11.88-.99.99-1.1 1.98-.88.22-.77.11-1.32-.33-.33.66-.77 1.1-1.1 1.65 0-.44-.22-.66-.55-.77-2.42 2.42-5.39 4.4-8.03 6.6-.55.11-.33-.55-.77-.55-.33 1.76-1.87 2.31-3.3 2.97.99 1.1-.88 2.53.22 2.75 1.21-.77 2.09-2.64 3.63-2.2.22-.44 0-1.32.55-1.65v.88c3.74-2.86 7.37-5.5 10.67-9.35.66-.44 1.21-.99 1.43-1.98m-48.95 2.2c.33.11.11.66 0 .88h-.55c0-.44.44-.55.55-.88m-1.43 1.98c0 .22-.33.22-.55.22 0-.22.33-.22.55-.22m-3.3 2.2v.55h-.55v-.55zm.33 1.1c-.33.22-.11.99-.88.77.33-.22.11-.99.88-.77m44.22.22c0-.22.33-.22.55-.22 0 .22-.33.22-.55.22m-46.42 1.1c-1.1-.11-1.21.66-1.43 1.43-.55-.77.44-2.09 1.43-2.2zm.22.55c0-.11 0-.33-.22-.22v-.33c.33 0 .88 0 .77.55zm-.55.88c0 .22-.33.22-.55.22 0-.22.33-.22.55-.22m-2.75 1.65c-.33-.11-.55-.44-.55-.88.33.11.55.33.55.88m36.85 1.1v-.88h.88c-.33.22-.11.99-.88.88m-13.2 1.65c-.22 0-.55 0-.55.22.22 0 .55 0 .55-.22M5.39 35.86c.44-.33 2.2-1.76.77-2.2 0 .99-.99.99-.77 2.2m42.35-.77c-.33 0-.44-.55 0-.55zm-18.48.22c-.22.11-.55 0-.55.33.22-.11.55 0 .55-.33m13.75 1.65c0-.77-.44-.55 0-1.1-1.76.11-2.2 3.08-3.85 1.65 1.1 1.21-1.65 1.1-.55 2.2 1.21-1.21 2.97-1.87 4.4-2.75m-13.2-.55c-.22.11-.55 0-.55.33.22-.11.55-.11.55-.33m4.4 4.73c-.33-.11-.33-.44-.22-.88-1.43.22-.33 1.21-1.43 1.65 1.54.33 3.52-.99 4.95-1.65-.22-.66-.33-1.32-1.1-1.32.11.77 0 1.43-.77 1.32-.55 0-.22-.77-.55-.77-.11.22-.33.22-.55.22-.11.55.33.55.55.88-.44 0-.22.66-.88.55m-8.47-.88v.55c.66.44.77-.88.22-.77 0 .11 0 .33-.22.22m-22.55.88c-.55.44 0 .77.55 1.1 0-.66-.11-1.1-.55-1.1m28.27.55c-.22.55 1.1.55.88 0-.11-.22-.77-.33-.88 0m20.13 2.75c-11.22-.77-21.56 3.3-27.28 7.15-1.98 2.97-2.97 6.82-5.5 9.35-.22 2.75-1.98 3.96-2.42 6.6 1.43.44.55-1.54 1.87-1.1.22 1.76-2.86 1.87-1.87 3.52.66-1.21 1.54-2.2 2.97-2.75-.33.44-.44 1.1.55.88.77.11-.22-1.54.55-1.43.11 3.52-3.52 4.73-5.17 7.7.99.55.66 4.4 0 4.95-1.87.44-2.09-.77-3.3-.77v2.42c.66.77.55-.55 1.65-.22.44.33.99.55 1.1 1.32-1.54.33-2.64-.77-2.75.33 2.75 1.21 3.85 1.43 7.37 1.32 0-.66 0-1.32.33-1.65-2.2-.55-3.52.88-4.73-.22 1.87-.55 4.29-2.42 6.05-.55 0 .44-.66 1.76 0 2.2.44-.22.44-.88 1.1-.88.33.99-.99.44-.77 1.43 1.43 0 .99-1.43 2.2-.33.22-.99-.77-.77-.55-1.65.33.11.44.44.77.55v-1.32c-.77-.55-1.65.99-2.42-.33.66-1.1 2.75-1.54 3.85-.77 0-.33-.11-.77.22-.88 1.54.88 3.19-1.87 5.5-.77-.11-.66.11-1.1.55-1.1 0 .44 0 .88.55.77.88-.11.88-1.1 1.43-1.65 8.25-2.09 17.27-8.47 24.2-14.52.11-.88.11-.55 0-1.43.44-.11.44-.77 1.32-.55 1.1-3.19 3.85-6.6 3.3-9.9-.66-3.96-6.27-5.5-10.67-5.72m-32.78.55h-1.1c0 .33.11.55.33.77h.55c-.11-.33.11-.55.22-.77m-4.95 1.87c.22 0 .55 0 .55-.22-.22 0-.55 0-.55.22m3.85 6.6v.55h.55v-.55zm1.43 1.1c-.33-.55.77-.88 0-1.1-.33.55-.99.88 0 1.1m.77-.77c.22.55-1.1 1.32 0 1.87.11-.66.66-.99.88-1.65-.44 0-.66-.11-.88-.22m-1.65 2.2c-.11-.88 1.1-1.1 0-1.43-.33.44-.99 1.21 0 1.43m14.63.22c-.88-.33.33-.88.77-.77.11.55-.77.22-.77.77m-17.93 2.75c-.11.44.22.55.55.55v.55c1.21-.44 1.98-2.75 1.98-3.52-.22.33-.44.66-.88.77-.11-.99.88-.99.88-1.87-.66 0-2.09 1.76-.88 1.87-.22.88-.33 1.87-1.1 2.2v-.55zm15.95-2.97c0 .22-.33.22-.55.22 0-.22.33-.22.55-.22m-12.32.77c-.33.77-.22.99.55 1.43-.22-.55.33-1.65-.55-1.43m-.33 1.1c-2.09 1.65-2.64 4.73-3.85 7.15 1.21.11.66-1.54 1.98-1.32-.77-1.54.55-2.53 1.1-3.63v.55h.55c.11-.44-.22-.55-.55-.55.22-.77.88-1.1.77-2.2m11.33.55c-.11.33-.44.22-.55.33 0-.33.33-.22.55-.33m-1.43 1.43c-.66-.11 0-1.1.55-.88-.11.33-.44.44-.55.88m31.9 1.1h.88c0-.55-.33-.66-.88-.55zm-44.55 0c-.88 0-1.1.77-1.1 1.65.88-.11.88-.99 1.1-1.65m43.78 3.85c-.22-1.21 2.09-2.64.77-3.08-.44.66-2.42 2.2-.77 3.08m-36.3-2.53c0-.22.33-.22.55-.22 0 .22-.33.22-.55.22m-9.9 1.43c.22.66-.88 1.21 0 1.65.22-.22.55-1.54 0-1.65m44 3.52c.11-.99 2.2-1.32 1.32-2.42-1.1 0-.88 1.21-1.65 1.65-1.1-.99 1.1-1.54.33-2.2-3.3 2.2-6.27 4.73-9.68 6.82.55.88.66 2.09 1.65 2.53.77-.99 1.98-2.75 3.3-2.2.22-.77.44-1.43 1.65-1.1.11-.99.88-1.43 1.65-1.65.22-.88-.77-.55-.55-1.43.77-.22.55.55 1.1.55.88-.55-.88-.88 0-1.32.55 0 .22.88.88.77m-37.4-2.42c.55.11.55.44.22.77h-.55v-.55c.22.11.22-.11.33-.22m1.1 1.87c0-.33.44-.44.55-.77.22 0 .22.22.55.22v.55zm-6.93 1.43c0-.55.33-1.43-.55-1.1-.11.55.11.99.55 1.1m-.22.77h-.55v.55h.55zm39.27.88c0-.33.33-.22.55-.33 0 .33-.33.22-.55.33m-6.82 5.17c1.54 0 1.76-1.76 1.1-2.75h-.88c.22 1.21-.44 1.54-.22 2.75m-2.75-.22c.11-.11.44-.11.55-.33-.22.11-.55 0-.55.33m-1.1 2.2c.77.33.77-2.31 0-1.98zm2.75-1.1v-.55h-.55v.55zm-4.4 1.65c.88.33.66-1.65.22-1.65-.33.33-.33.88-.22 1.65m-1.65-.33c.55.11 1.43-.77.77-1.1-.11.55-1.1.22-.77 1.1m4.07 0c.44 0 .66-.22.88-.55-.44 0-.99 0-.88.55m-3.3 1.1c.66-1.98-1.87.77-2.42-.77-.11.44.11.99-.33 1.1.11-.55-.22-.55-.55-.55 0 .44.33.55.33 1.1-.33-.11-.33.11-.33.22-.77-.11-.11-1.54-1.1-1.32v1.87c.55 0 .88-.11 1.1-.55.22.11.22-.11.33-.22 1.43.22 1.65-.88 2.97-.88m-7.15 2.75c-.33-1.21.77-1.1.55-2.2-1.1.11-.88 1.43-1.87 1.65 0-1.21-.77 0-1.43-.22-.11.44-.11 1.1-.55 1.32-.88.33-.22-.88-1.1-.55v-.22c-.55-.33-1.32-.44-1.87-.55q.165 1.155 1.32 1.32c.11 1.1-1.76.22-1.32 1.65 1.21.11 1.32-.99 2.2-1.32-.11.66-.55.77.22 1.1.88-1.1 2.64-1.21 3.85-1.98m1.1-.55c.66-.11 1.21-.22 1.43-.77-.99.44-.88-.11-1.43-.55-.22.22-.33.55-.22 1.1.22-.11.22.11.22.22m-5.17 0c.22 0 .55 0 .55-.22-.22 0-.55 0-.55.22m-3.85 1.65c.22-.44.88-.66 1.32-.22-.11-1.54-1.21-.22-1.65-1.1.11.33-.33 1.43.33 1.32m3.3-.77c0-.22 0-.33.22-.33 0 .22 0 .33-.22.33m0 0c-.11.11-.11.33-.33.22 0-.11 0-.33.33-.22m-8.58 2.97c.55.55.66 0 1.43 0 0-.55-.22-.88-.88-.77.22-.55.44-.99.55-1.65-.66-.11-1.1 1.43-.55 1.65-.11.33-.44.44-.55.77m5.5-1.1h.88c-.11-.55-.22-.88-.55-1.1-.11.44-.44.55-.33 1.1m-1.1.33h.88c0-.55-.33-.66-.88-.55zm74.869-21.12c3.08-1.87 4.4-5.5 7.48-7.48-.22 2.31-2.97 3.41-3.08 5.61-.66.55-1.98.66-2.42 1.65 0 .88.88-.66.77.22-2.2 2.97-5.83 8.36-10.12 5.28-.99-2.64-2.31-4.73-3.08-7.48 1.32-4.07 2.75-7.7 3.3-12.32-.77 0-.44 1.1-.55 1.87-2.31 1.43-3.19 4.4-5.72 5.83-.22.88.22 1.21.22 1.87-.33 0-.55-.11-.77-.22-3.08 5.06-6.6 9.68-11.33 13.09-3.52-.11-3.08-2.75-4.95-4.29.11-1.43.11-1.98.33-3.63.55.22.22.88.77.22.11-.44-.22-.55-.77-.44-.11-1.1.44-1.43.22-2.53 1.43.99 1.76-3.3 2.53-4.73.33.11.33.44.77.33 0-.33.11-.77-.22-.77v-.33h.55c-.11-.33-.55-.33-.55 0-.33 0-.33-.22-.55-.33.11-.22 2.42-1.87 1.1-2.75.11-.55.44-.99.22-1.87.33 0 .33-.22.55-.22.11.11.22.22.55.22.55-.33.11-1.43.77-1.65-1.32-.11.33-3.3 1.43-3.85.99-3.96 1.98-11 6.38-11.55 1.21.44.99.88 2.42.88-.55.66 1.1 1.32.88 1.87-3.19 9.57-7.92 17.49-11 27.28 2.31-1.32 2.97-4.18 5.17-5.5.11.44-.33.55-.22.99.66-.11 1.1-.66 1.32-1.32-.22-.77-.33.66-1.1.33.88-1.21 1.65-2.31 2.75-3.08 0 .44.33.55.33 1.1.33-.11.66-.44.77-.88 0-.33-.66-.22-1.1-.22 5.5-7.37 11.77-14.08 17.05-21.67.66.11.99.44 1.1 1.1.55 0 .44-.77 1.1-.66.11.99 1.32.88 1.65 1.43-.77 6.93-4.95 10.34-6.27 16.83-1.87 3.74-3.96 8.69-3.85 13.42.99-.33 1.21-1.54 2.42-1.65 3.96-5.28 8.36-10.12 12.98-14.85-.66 2.53-3.52 4.84-4.4 7.37-.44 0-.22-.44-.55-.44-.22.55-.22 1.54-.88 2.42h-.55c0-.22-.22-.22-.22-.55-.33.11-.44.44-.88.55.11.66.99.11 1.1 0-.88 2.2-3.08 3.19-3.85 5.5m-21.45.22c6.6-5.5 11.22-12.98 17.05-19.14-.44-1.32.88-2.75 1.43-3.85-1.76 1.43-3.3 3.08-4.4 5.17-1.32-.88-1.65 1.87-.88 2.42-1.1.11-.88 1.54-1.87 1.76v-.88c-.66-.22-1.1.99-.55 1.1 0-.22.33-.22.55-.22-3.63 4.62-7.7 8.91-11.33 13.64m20.9-21.12c-.44-.88-1.21.33-1.1 1.1.99.22.22-1.21 1.1-1.1.11.88 1.54-.44.55-.55-.11.22-.22.44-.55.55m-4.4 1.1c-.55 1.1-1.1 2.31-2.42 2.75v-.55c1.21-.11 1.65-2.53 2.42-2.2m-3.52 19.8c3.08-2.42 2.31-8.69 5.17-11.33-.11-3.41 3.19-6.27 1.65-7.92 0 1.43-.11.33-.55 0-.88.77.11 1.76-1.1 2.2 0 .22 0 .55-.22.55 0-.11 0-.44.11-.55-1.87.33-6.6 13.42-5.06 15.95zm.22-15.95c.44-.22 0-1.32.88-1.1 0 .66-.11 1.21-.88 1.1m-.77 0c-.77-.11-1.1 1.1-.33 1.1 0-.55.33-.55.33-1.1m4.4 1.43h.22c.11.44 0 .77-.22 1.1-.66-.11-.11-.99 0-1.1m-20.35.22c.44.11.22.55 0 .88h-.33c0-.44.11-.66.33-.88m.55 1.98c-.11 1.54-2.09 2.97-.88 4.07 0-1.43 2.09-3.3.88-4.07m11.22.55c.22.77-.77.44-.55 1.32.88.11 1.65-1.21.55-1.32m7.48.22c.66 0 .11.88 0 1.1h-.33c0-.44.11-.88.33-1.1m-8.8 1.32v.66c.66.33.77-.99.22-.88 0 .22 0 .33-.22.22m8.25.88c-.66-.11 0-.99.22-1.1.11.44 0 .88-.22 1.1m-.55 1.1c.77.22-.33.55 0 1.1-.66 0-.11-.88 0-1.1m-15.4.55c-.22.11-.55 0-.55.22.22 0 .55 0 .55-.22m-5.5.22c.66.33-.44 1.21-.55 1.76-.22-.99.33-1.21.55-1.76m4.95.66c-.22 0-.55 0-.55.22.22-.11.55 0 .55-.22m-4.4 2.09c1.1.33 1.43-.33 1.32-1.32-.77.11-1.54.33-1.32 1.32m-1.43.33c-.55-.11-.11-1.21 0-1.32h.33c.22.77-.44.66-.33 1.32m4.73-.77c0 .99-1.54 2.31-.33 2.97-.55-1.43 1.76-2.53.33-2.97m16.17 1.32h-.22c-.33-.33-.33-.99 0-1.32h.22zm-18.7.88c0-.55.33-.66.33-1.1-1.1-.11-.88.77-.33 1.1m6.6-.66c-.22.11-.55.11-.55.33.22-.11.55 0 .55-.33m12.43 0c.33.11.22.55.22.88-.33.22-.66.33-1.32.22-.33-.99 1.21-.22 1.1-1.1m8.8.33c-.55.11-1.43-.33-1.1.55.66.11.99-.11 1.1-.55m-29.48 2.42c1.32.22.66-1.54 1.1-2.09-1.43.22-.22 1.32-1.1 2.09m21.78-.99c.22-.11.55 0 .55-.33-.22.11-.55 0-.55.33m-22.55 1.32c0-.33.11-.55.22-.77-.33-.11-.33-.44-.77-.33-.11.66.11.99.55 1.1m11-.55v-.55h-.55v.55zm9.57-.55c0 .22 0 .55-.22.55 0-.22 0-.55.22-.55m-16.5.77c.44-.66-.88-.77-.77-.22.11 0 .33 0 .22.22zm17.38 1.76c.77.33.66-1.43.22-1.43.11.66-.44.55-.22 1.43m7.15 0v-.66h-.55v.66zm34.508-32.78c1.65 7.59-2.86 15.84-3.63 22.55-7.37 18.37-14.08 39.38-30.47 50.05h-2.75c-6.71-3.08-6.71-12.87-3.3-19.47.11 2.31-.33 6.27.77 9.57 0 .99-.88-.55-.77.33-.11 1.76 1.76 2.31 1.87 4.62 1.65-.44 2.86-1.32 4.18-2.2 13.86-13.42 21.67-33 27.72-54.45-2.31 1.32-1.76 4.51-3.52 5.83-.77.22.11-1.32-.55-1.1-.88.44.33 1.1 0 1.87-4.95 5.72-6.27 15.07-13.53 18.48-2.42-1.65-3.08-3.52-4.62-5.83-.44-8.14 2.31-17.16 5.5-23.65 1.76-.11 4.07-.22 5.5 1.43-2.2 7.26-5.39 13.53-6.6 21.67 7.81-9.24 12.98-21.23 20.02-31.35.55-.11.55.44.55.88 2.2-.88 1.87 1.21 3.63.77m-18.7 24.2c.33-.11.55-.33.55-.77 5.17-7.26 9.46-15.29 13.97-23.1-5.39 6.93-9.35 15.29-13.97 23.1h-.33c-.11.22-.33.44-.22.77h-.33c-.44.44-.44 1.1.55.88.11-.44-.22-.55-.22-.88m11.55-15.4c.77-.22.88-2.31 1.54-1.21-.33-1.32 1.32-2.09.33-3.19-.44 1.76-1.76 2.53-1.87 4.4-.33 0-.33.11-.33.33h-.22c-1.1 2.2-2.64 3.85-3.3 6.27h-.33c-.22.22-.44.77 0 .88.11-.22.33-.44.33-.88 1.43-1.76 2.75-3.74 3.52-6.27.22 0 .22-.11.33-.33m3.52 4.4c-.55-1.54.33-3.85 0-5.5-.55 1.54-.77 4.4-.77 6.05.11-.33.33-.55.77-.55m-2.97-2.75c.77-.11 1.32-2.31.55-2.42 0 1.1-.66 1.32-.55 2.42m1.32 6.38c.88.44.77-1.43.22-1.43-.22.33-.33.77-.22 1.43m-7.92 2.2c1.21-.11.99-1.76 1.54-2.53-1.1.22-1.21 1.54-1.54 2.53-.33 0-.22.33-.33.55-.22-.11-.22.11-.22.22h-.33c-.22.33-.33.66-.22 1.1h.77c.11-.55-.22-.66-.22-1.1.22.11.22-.11.22-.22h.33zm7.7-1.98c.22.77-.88 1.54 0 1.98 0-.44 1.21-1.98 0-1.98m.22 5.28c-.11-1.43.66-1.98.55-3.3-.55.55-1.21 2.42-.55 3.3m-1.65.55c.77-.33 1.32-2.31.88-3.63-.33 1.21-.99 2.09-.88 3.63-1.54 2.64-2.31 6.16-3.52 9.02-.33.77-.55 1.87.55 1.98.33-4.29 2.64-6.71 2.97-11m-1.1-2.53c-.11.66-.44 1.1-.22 1.98.66.11 1.21-2.09.22-1.98m-7.15 3.08c.11-.99.77-.66.33-1.65-.66.11-1.32 1.43-.33 1.65m8.58 2.2c1.21.33 1.1-2.42.22-2.53.66 1.1-.33 1.32-.22 2.53m-9.9-1.1c.88.22.33-.88.77-1.1-.77-.11-.66.55-.77 1.1-.44.22-.55.55-.55 1.1h.55c.22 0 .22-.11.22-.33-.33 0-.22-.44-.22-.77m7.15.22c-.66 1.54-1.87 4.07-1.65 5.94.11-.11.44-.11.77-.11-.44-1.65 1.21-3.74.88-5.83m1.1 7.48c.11-2.75 2.42-4.18 1.1-6.38-.44 1.43.33 2.64-1.1 3.08.55 1.1-.22 1.98-.88 2.75.22 0 .33 0 .33.22.22 0 .22.22.55.33m-10.78-3.3c.22-.11.55 0 .55-.33-.22.11-.55 0-.55.33m5.28 14.3c.33.11-.11.22 0 .55.88-.88 2.64-3.63 1.87-4.95 0 .66-.11 1.1-.55 1.32-.22-2.2 1.32-3.52 1.65-6.27-4.29 7.7-7.04 17.16-12.65 23.65 0-1.76 1.65-1.87 1.65-3.63 4.07-5.94 7.7-13.75 9.9-21.12-.22.22-.55.33-.55 0 0-.88 1.1-1.87.33-2.53-.11 1.98-2.09 3.41-1.43 5.28-.88-.22-.55.66-1.1.77-4.18 10.67-9.9 19.8-16.17 28.38-.33-.11-.33.11-.33.22-.22 0-.22.11-.22.33h-.33c-.11.22-.33.44-.22.77.33-.11.55-.33.55-.77.22 0 .22-.11.22-.33.22.11.22-.11.33-.22 3.85-3.19 5.72-8.36 9.02-12.1v1.32c-1.21.88-1.87 2.2-2.42 3.63a12.6 12.6 0 0 0-3.08 4.95c-1.32.66-1.98 1.76-2.75 2.97 1.1.22.66-1.1 1.65-1.1-.77 1.54-2.09 2.53-2.97 3.85-1.1.88-3.3 2.09-3.08 3.3.22-.88.88-1.1 1.65-.77-.33-.77-.11-1.32.88-1.43-.11.44-.11.77.22.88.99-.66.33-1.54 1.1-1.98.33.11.22.55.55.55.22-.22.33-.55.33-1.1 1.1.11-.11-.33.22-1.1 1.76-.33 2.09-2.09 3.08-2.2-.33-.22.11-1.21.44-1.1 0 .44 0 .77.33.88v-1.65c.66.11.44-.55.88-.55.22 0 .11.55.55.55-.44-.88 1.1-1.21.55-1.98-.11.22-.99.88-.88.33.22-.44.22-1.1 1.1-.88.88-1.87 2.75-5.28 4.73-7.15 0 .77-.44.88-.55 1.43 1.54-.33 1.1-1.76 2.2-3.08-.55-.22-.99.88-1.1 0 .88-.66.66-2.64 1.87-2.97 0 .88-.88.77-.55 1.87.77-.44 1.21-1.32.88-2.2.55-.44.44.22 1.1-.22-.33-1.43 2.42-3.08.55-3.63.22.77.11 1.32-.55 1.65.11-1.21.11-3.19 1.65-3.85.33 1.1-.77.55-.55 1.43m3.85-6.93c-.22-1.32 1.65-2.31.77-3.85-.22.77-.11 1.87-1.1 1.98.11.55-.33 1.76.33 1.87m-4.18-.22c1.1-.22 0 .99 0 1.32-.77-.22.11-.88 0-1.32m3.3 2.42c.22-.44.44-.99.55-1.65-.33 0-.33-.33-.77-.22.11.55-.44 1.76.22 1.87m-3.85-.55c.33.22.11 2.2-.88 1.98.22-.77.77-1.21.88-1.98m2.2 2.2c0 .33-.44.44-.55 0zm-3.85 1.65c.22-.55 0-1.65 1.1-1.32-.44.44-.44 1.1-1.1 1.32m2.75-1.1c.33.11.55.44.55.88-.33-.11-.55-.33-.55-.88m-2.75 1.1c-.66 3.63-2.64 6.05-4.07 8.8.33-2.75 2.75-5.94 4.07-8.8m0 5.5c-.22-1.1.66-1.32 1.43-1.65-.44.66-.66 1.54-1.43 1.65m-4.62 3.63c0 .88-.33 1.43-.88 1.65.22-.66.22-1.54.88-1.65m2.75.77c0 .66-.11 1.1-.55 1.1-.11-.55 0-.99.55-1.1m-2.53 4.73c.22-.11.55 0 .55-.33-.22.11-.55 0-.55.33m-2.75 1.1c-.88 2.31-2.31 4.07-3.85 5.72v-.77h.33c.55-1.98 2.42-2.75 2.75-4.95zm-17.82 2.2c.77.44.77-1.21.22-1.1.11.55-.33.55-.22 1.1m13.97 3.52c-.33.44-.22 1.21-1.1 1.1.33-.33.22-1.21 1.1-1.1m-5.5 4.95c-.66 0-.88.44-1.1.88.88.22.88-.44 1.1-.88 1.1-.33 1.87-1.1 2.2-2.2h-.22c-.44.99-1.65 1.21-1.98 2.2"/></svg>