<svg xmlns="http://www.w3.org/2000/svg" width="165" height="40" fill="none" viewBox="0 0 165 40"><path fill="#F4793A" d="M156.573 22.08c.08-.4.32-1.08.88-1.28-.08.36-.24.64-.6.8 0 .16.16.16.2.28-.4 1.04-1.12 1.8-1.68 2.72-.2.16-.2-.08-.4-.12-.04 1.08-1.04 1.2-1.32 2.08-.2.12-.24 1.04-.8.72.08.32.08.2 0 .52-1.2.92-2.16 1.76-3.88 2-2.44-.6-3.56-4.32-2-6.72.56-.88.96-1.92 1.4-2.88.48-.64.96-1.32 1.4-2.04-.64.52-1.08 1.24-1.4 2.04-.36.28-.52.72-.72 1.16h-.08c1.08-2.64 2.6-4.92 5-6.28.88.36 1.8.68 2.2 1.48-.16.48-.08 1.2-.2 1.72-1.72 2.4-2.92 5.2-5.8 6.6-.44.12-.4-.2-.72-.2-.36 1.08-.72 2.48-.08 3.48.72.08 1.24-.12 1.6-.36 2.44-1.68 4.4-4.56 6.48-6.32-.08-.16-.08-.24.12-.28 0-.08 0-.12.08-.12 0 .04 0 .12-.08.12.76-.04 1.08-1.32 1.6-1.92-.08 1.92-2.28 2.52-3 4.08.4-.04 1.04-.72 1.4-1.4.2 0 .2.12.4.12Zm-3.32-5.4c-1.8 1.4-3.44 3.56-4.2 5.68 1.28-1.56 3.16-3.08 3.92-4.88v.2c.32-.12.84-.92.4-1.2.04.4-.04.68-.32.8-.08-.36.24-.28.2-.6Zm-2.48.08c-.04.16-.16.2-.2.32.2.08.44-.24.2-.32Zm-.2.4c-.2 0-.28.08-.32.24.2 0 .28-.08.32-.24Zm2.4.32c0-.08 0-.2.08-.2 0 .08 0 .2-.08.2Zm.6-.08c0 .12-.04.28.08.28 0-.08.04-.12.12-.12-.04-.12-.04-.2-.2-.16Zm-3.92.68c.4-.04.4-.44.6-.6-.36.04-.52.28-.6.6Zm3.52.08c.2.08.4-.36.2-.36-.08.12-.16.24-.2.36Zm-4.2 2.2c-.04.08-.24.4 0 .44 0-.08.24-.4 0-.44Zm7.48.52c0 .08 0 .12-.08.08 0-.04 0-.12.08-.08Zm-.08.08c0 .08-.04.12-.12.12 0-.04.04-.12.12-.12Zm-7.72.32c-.48 0-.56.92-.08 1.08-.32-.4-.08-.68.08-1.08Zm-1.2.08h.12c-.04.44-.2.68-.4.92-.2-.28.2-.6.28-.92Zm-.28.92c-.04.08 0 .2-.12.2.04-.08 0-.2.12-.2Zm-.12.2c.08.32-.08.36-.08.6-.16 0-.08.24-.32.2.04-.36.28-.44.32-.8h.08Zm.6.28c.08.28-.4.52-.08.72.04-.36 1.08-.72.28-1 0 .2.16.2.2.28-.12.04-.08.2-.2.2 0-.08 0-.2-.2-.2Zm4.92 4.24c1.24-1.52 2.96-2.84 3.8-4.4-1.48 1.36-2.84 2.88-4.2 4.4-.28.04-.48.2-.52.48.24-.12.48-.2.52-.48h.4Zm2.08-3.52c-.32-.04-.64.4-.4.6.08-.28.36-.32.4-.6Zm-.8.52v.28c.32.16.32-.44 0-.28Zm-6.68.36c0-.08.16-.2 0-.28-.04.12-.2.24 0 .28Zm-.32-.16c0 .08-.16.2 0 .28.04-.12.2-.24 0-.28Zm7 .16c-.16.04-.32 0-.28.24.16 0 .24-.08.28-.24Zm-7 1.04c-.04-.2.32-.44 0-.52.08.16-.28.4 0 .52Zm4.92 3.08v-.2h-.2v.2h.2Zm-.6.2c.16 0 .24-.08.28-.2-.16 0-.24.08-.28.2Z"/><path fill="#F4793A" d="M158.558 8.72c-3.6.6-8.92.92-12.72 2.2-2.32 5.12-4.88 10.36-6.28 16.6.48-.04.28-.76.4-1.2.4-1.52 1-2.84 1.4-4.4.32-.12.16-.76.48-.88-.64 2.48-2.08 5.2-2 8.48.88.08.8-.8 1.52-.88.96-1.64 2.6-2.6 3.4-4.4.12-.04.2-.16.4-.12 1.04-1.64 2.32-3.04 3.68-4.4-.08 1.36-1.52 2.2-2 3.2-.2.04-.2-.12-.28-.2-.2-.04-.2.52.04.44-.16.2-.88.16-.56.76-1.72.68-1.92 2.88-3.6 3.6.6.6 1.08-.92 1.72-.68.24-.36-.32-.44.08-.6.04.08 0 .2.12.2.52-.36.68-1.04 1.28-1.32-.2.2.08.2 0 .52.28.08.2-.2.4-.2-.4.76-1.04 1.28-1.4 2.08-1.6 1.04-1.84 3.36-4.2 3.6-3.32-.96-2.8-5.28-1.6-7.6-.16 1.36-.88 2.64-.6 4.12.2-1.04.36-2.48.8-3.72.16 0 .24.08.32.12-.04.16.08.16.2.2-.12.28-.12.6 0 .88.44-.44.12-1.36.68-1.48-.08-.36.28-.6-.08-.72-.16.48-.44.88-.6 1.28 0-.12-.08-.16-.2-.16 0-.2-.44-.4-.12-.6 0 .4.24.08.32 0-.08-.2-.2 0-.32 0 .28-.8.32-1.76.8-2.32v.52c.24-.08.48-.56 0-.52-.04-.36.16-.48.28-.76 0 .12.04.16.12.16.16-.2.68-.36.4-.68-.32-.04-.24.36-.4.48h-.08c.2-.72.36-1.48.8-2v.52c-.28-.04-.28.2-.32.4.28.04.28-.2.32-.4.2-.08.04-.48.28-.52-.08-.16-.16 0-.28 0 .36-1.08.64-2.24 1.28-3.08-.08.32.2.16.32.08.04-.2-.2-.24-.2-.08h-.12c-.04-.52.48-.88.2-1.32-1.16 2.88-2.48 5.6-3.4 8.72h-.08c.88-3.8 2.76-7.44 4.2-11-2.96.6-5.2 1.44-8.4 1.88-1.6-.04-1.44-1.36-1.72-2.6.76-.04 1.6-.16 2.32-.2.36.32-.36.4-.2.8 2.72-.52 5.84-1.2 8.8-2.08.72-1.56 1.56-2.96 2-4.8.84-.64 2.08-.08 2.4.88-.28 1.28-1.16 2-1.4 3.32 1.56-.48 3.2-.64 4.68-.8-1.12.6-3 .44-4.28 1.08 4.24-.44 7.64-1.44 12.08-1.2-.04.36-.64 0-1.08.12-.12.36.4.12.6.2-.52.28-1 .12-1.12-.2-.36.08.04.32-.4.4-.12-.12-.12-.36-.28-.4-1.2.28-3.04-.04-3.92.6.12.16.2.32.52.28.36-.2.6-.52 1.2-.48-.04.36-.68.08-.8.28 1.28.12 2.64-.12 4-.2 1.4-.04 2.76.16 4.4.2-.16-.28-.52-.28-.92-.28v-.32c.36 0 .2-.56.72-.4.48 0-.32.4.08.6.2 0 .08-.32.2-.4.28-.04.08.4.32.4.32 0-.24-.32.08-.28.76.16 1.36.52 1.52 1.28-2.04-.32-4.16-.16-6.2-.6Zm-.32-1.2c-.6.08-1.08.08-1.68 0 .4-.04 1.52-.48 1.68 0Zm1.4-.2c.44.36-1.12.52-1.08.12.24-.32.8.24 1.08-.12Zm2.2.4c-.12.16-.12.28 0 .4-.16 0-.24.12-.2.32-.72.08-3-.2-1.28-.2.24-.04.2.16.48.08.24 0-.04-.24-.2-.2.08-.12.24-.2.52-.2-.04.2.08.24.08.4.12-.12.24-.28.4-.4-.04-.24-.48-.04-.4-.4-.24.32-.48.16-.68-.08-.12 0-.12.16-.12.28-.24.04-.2-.16-.48-.08.16-.12.24-.36.6-.32.36.24.44.16 1 .12-.08.28.2.2.28.28Zm-5.4-.2c-.12.32-.68.2-1.08.2 0-.4.8 0 .8-.4.12.04.16.2.28.2Zm-1.6.12c-.12.08-.84.32-.68 0 .2-.24.36.04.68 0Zm-1.8.4c.12-.28.64-.4.92-.2-.36.12-.4.16-.92.2Zm-.08-.2c-.12.32-.88.32-1.12.2.08-.32 1-.28 1.12-.2Zm7.6.08c-.2.32-.36.12-.72.12.04-.24.52-.04.72-.12Zm-3.8.52c.04-.24.48-.04.68-.12-.04.24-.48.04-.68.12Zm-.6-.12c-.04.12-.2.08-.32.12.04-.12.2-.08.32-.12Zm-.8.2c0-.12.16-.08.28-.08 0 .12-.16.08-.28.08Zm-2.92.32c-2.48.36-4.8.2-6.28 1.48 1.64-.44 2.96-.52 4.6-1v.32c.36-.12.76-.4 1-.12.08-.24.4-.32.6-.48.2.52.44-.16.8-.12-.12.32-.12.32.28.32 0-.44-.24-.24-.08-.72-.36.04-.96-.16-.92.32Zm-5.48.28v.2c.16-.04.6.16.48-.2h-.48Zm-3.12.8c-.24 0-.32.16-.4.32.28.04.44-.04.4-.32Zm-.6.2c-.16.12-.52 0-.48.32.28 0 .52 0 .48-.32Zm-.68.32c0-.12-.2-.12-.2 0 .12 0 .16.12.2 0Zm-1.12 1.2c.64-.64 1.8-.16 2.2-.92-.76.36-2.4.2-2.2.92Zm3.2.4c-.04-.36.56-.68.12-.8-.04.2-.4.6-.12.8Zm-3.4-.52v-.2h-.2c0 .08 0 .12-.08.12v.2h.2c0-.08 0-.12.08-.12Zm-.48.12v-.2h-.2v.2h.2Zm3.6.6c.08-.04.2 0 .2-.12-.08.04-.2 0-.2.12Zm.08.4c.04-.2 0-.32-.2-.32-.04.16.12.2.12.32h.08Zm-1.28-.2v.2h.2v-.2h-.2Zm1.8.88c-.04-.16.08-.2.08-.4.24.04.04.36 0 .4h-.08Zm-1 1c-.56-.12.68-1.08.08-1.28.08.28-.2.2-.28.28.16.84-.44.92-.52 1.52.44.04.48-.36.72-.52Zm-1.2-.8c0 .12-.04.28.08.32 0-.08.04-.12.12-.12-.04-.12-.04-.24-.2-.2Zm1.68.8c.24.04.04.36 0 .4h-.08c-.04-.16.08-.2.08-.4Zm-.2.72c.04-.12 0-.28.12-.32-.04.12 0 .28-.12.32Zm-1.2.48c.32 0 .4-.28.4-.6-.36-.04-.28.36-.4.6Zm-.68 0c0 .16-.04.24-.12.32h.32c0-.16 0-.36-.2-.32Zm.68 1c-.12-.56.12-.36.12-.88-.68-.16-.6.84-.12.88Zm.8-.8c.28.16-.04.56-.08.72h-.12c0-.32.28-.32.2-.72Zm-.6.32c.08-.04.2 0 .2-.12-.08.04-.2 0-.2.12Zm-.88 0c-.2-.04-.2.08-.2.2h.2v-.2Zm1.2.4h.08c-.32 1.4-1.16 3.16-1.8 4.6.44-1.68 1.2-3 1.72-4.6Zm-.8 1c-.08-.36.12-.4.08-.72-.12 0-.16-.16-.28-.2-.36.64-.32.96-.52 1.72.48.12.16-.84.6-.4.08-.32-.32-.16-.28-.4.2-.16.12 0 .4 0Zm-.8-.32c-.24-.08-.44.4-.2.4 0-.2.28-.12.2-.4Zm0 1.92c.24-.12-.12-.48-.2-.2.12 0 .08.16.2.2Zm-.6.4c.12-.2.52.2.6-.2-.36.04-.2-.44-.52-.4-.08.52-.8 1.6-.08 2-.4-.56.72-1.08 0-1.4Zm-.6.2h.2c0-.08 0-.12.08-.12v-.2h-.2c0 .08 0 .12-.08.12v.2Zm0 1.8c.28 0 .36-.24.48-.4-.28-.28-.48.08-.48.4Zm6.6 0v.2h.28v-.32h-.2c0 .08 0 .12-.08.12Zm-6.6.4c.24-.12-.2-.56-.32-.32.2.04.08.36.32.32Zm-1 .4c.24.08.2-.2.28-.32h-.28v.32Zm.68.4c-.04-.64.2.08.4-.2-.04-.24-.08-.44-.28-.52-.24.16-.88.64-.12.72Zm-1.48.4c.12-.08 0-.4.2-.4-.04.16.08.48-.2.4Zm-.12.08c.28.04.2.32 0 .4v-.4Zm7.6.8c.36-.04.44-.32.72-.48h.08c-.16.36-.32.72-.68.88 0-.16-.12-.2-.12-.4Zm-.4.52c.08-.36.2-.04.52-.12-.24.4-.4.84-.8 1v-.48c.32.32.24-.36.6-.32-.04-.12-.16-.08-.32-.08Zm-7-.12c.04.2-.12.24-.08.4.28.16.28-.4.08-.4Zm-.2.92v.2h.2v-.2h-.2Zm.6.8c-.24-.4.32-.64-.08-.8-.28.16-.52.8.08.8Zm6.72-.72c0 .08-.04.12-.12.12 0-.08.04-.12.12-.12Zm-.6.32c-.08 0-.2 0-.2.08.08 0 .2 0 .2-.08Zm-.32.2c-.08.12-.12.28-.08.48.28.16.24-.52.08-.48Zm-6.28 1.68c.36-.12.24-.76.28-1.2-.12.04-.28 0-.28.12.08.08-.08.72 0 1.08Zm5.8-1.2c.08.32-.28.2-.2.52.32-.04.48-.2.48-.52h-.28Zm-5.12 1.32c.04.24-.16.2-.08.48.28.16.24-.52.08-.48Z"/><path fill="#F4793A" d="M136.668 25.68c1.4-.92 2.72-1.96 3.6-3.44.16.76-.48 1.08-.72 1.64-.08 0-.12-.12-.2-.12.08.52-.2 1.08-.6.8.2.84-1 1.04-1.2 1.8.8-.32 1.12-1.16 1.8-1.6-.56 1.08-1.28 1.48-1.8 2.52-.4-.44-1 .36-1.48.48-1.64-.44-2.64-1.88-2.52-3.8-1.56 1.72-2.64 3.96-4.2 5.68-.88.36-1.76.24-2.08-.28-.24 0-.04-.36-.12-.52-.12-.12-.36-.12-.48-.28-.56-1.64.4-3.44 1.08-5 1.24-2.76 3.24-6.96 5-8.2 1.04.08 2.52.24 2.52 1.72.56 0 .04-1.08.8-.92.36 0 .04.08.08.28.6 0 1.08.08 1.52.4-.16 2.8-2.4 5.08-2.12 7.52-.08 0-.12-.08-.2-.08-.04.8-.32 1.16-.08 2.16.44-.16.76-.48 1.08-.76.16 0 .08.24.32.16v-.16Zm-8.2-3.2c-.4.92-.88 1.72-1.12 2.8.52-.76 1.04-2.04 1.2-2.8.32-.2.48-.48.52-.92 1-1.6 1.96-3.32 3-4.88-1.28 1.32-2.24 3.04-3 4.88h-.12c-.04.36-.48.36-.4.92h-.08Zm4.08-5.72c-.08.04-.2 0-.2.08.08 0 .2 0 .2-.08Zm3.32 2c-.08.04-.2 0-.2.08.08 0 .2 0 .2-.08Zm-2.8 3.48c.12-.84 1.04-1.16 1.2-2.16-1.16.2-1.24 2-2.12 2.16.44-.64.92-1.2 1.2-2-.24.04-.48.04-.48-.16.2-.32.32-.68.28-1.24-.6.52-1.6 1.48-1.4 2.12-.2-.04-.24.08-.4.12-1 1.68-1.8 3.76-2.68 5.28.04.48-.16.64-.2 1 .48.12.12-.6.48-.6 0 .24-.16.32.12.4a.45.45 0 0 0 0-.72c.08 0 .04-.16.2-.16v.16c1.04-.12 1.44-1.76 2.08-2.4.08-.04.36 0 .4-.08.2-.24.4-1.44.72-.92.04-.32.28-.24.08-.56.12-.12.36-.12.52-.24Zm.2-3.16c-.16.44.52.32.4 0h-.4Zm2.6.28c-.08.04-.2 0-.2.12.08-.04.2-.04.2-.12Zm-4.92.12c-.48-.04-.4.52-.6.76.36-.08.4-.52.6-.76Zm5.32 0c0 .12-.04.2-.12.28h.32c0-.16-.08-.24-.2-.28Zm-1.32.68c.04-.16.16-.16.2-.32-.04 0-.12 0-.08-.08h-.2c0 .16-.04.36.08.4Zm-5.4 1.4c.36-.2 1.08-.92.6-1.32 0 .64-.48.8-.6 1.32Zm11.12-.6c0 .08-.04.12-.12.12 0-.08.04-.12.12-.12Zm-.12.12c0 .08-.08.12-.2.16.04-.08.04-.2.2-.16Zm.2 0c.44.08-.24.64-.2.96-.28-.28.24-.6.2-.96Zm-.4.16c-.4 1.24-1.8 2.32-2.68 3.44.32-1.32 1.8-2.32 2.68-3.44Zm-11.08 1c.24.08.4-.4.2-.48-.04.2-.24.24-.2.48Zm5.2-.28c-.16-.04-.2.08-.2.2h-.12c.04.08-.04.08-.08.08v.24c.2.04.2-.16.2-.32h.2v-.2Zm-.4 3.6c.36-.76.76-2.72.8-3.6-.52 1.16-.72 2.16-.8 3.6Zm-5.4-2.12c.24-.12.6-.64.4-.88-.08.36-.48.4-.4.88Zm2.48.2c.08-.44.52-.56.6-1h.12c-.12.48-.36.8-.72 1Zm2-.6v-.16h-.2v.16h.2Zm.92-.08c-.28.68-.64 1.4-.12 2-.2-.8.52-1.68.12-2Zm-4.92.6c-.24-.04-.24.2-.28.4.24.04.24-.2.28-.4Zm-.88.6c.32.04.56-.52.2-.6 0 .28-.24.32-.2.6Zm4.08-.28c.08-.04.2-.04.2-.12-.08.04-.2 0-.2.12Zm.52.48c.08-.16.24-.28.28-.48-.24-.08-.52.4-.28.48Zm-.92-.08c.2 0 .28-.08.32-.24-.2 0-.28.08-.32.24Zm-4.48 1.76c.32-.36 1.08-1.36.68-1.76-.16.52-.48 1.04-.68 1.76Zm1.4-1.68c0-.08-.2-.12-.2 0 .12 0 .16.16.2 0Zm2.8.32c.08-.04.2 0 .2-.12-.08.04-.2 0-.2.12Zm-1.32 0c.24.12-.16.48-.28.6 0-.32.2-.4.28-.6Zm4.4.08c.08-.04.2 0 .2-.08-.08 0-.2 0-.2.08Zm2.32.4c-.04.12-.12.2-.32.2.04-.12.12-.2.32-.2Zm-.32.2c0 .12-.12.12-.08.32-.2.04-.16-.48.08-.32Zm-9.68.4c0 .16-.04.36.08.4.08-.08.24-.48-.08-.4Zm2.28.4c0-.12.2-.12.2 0h-.2Zm-2.2 1c.28-.08.52-.76.32-1-.08.36-.36.52-.32 1Zm2.2-1c0 .08 0 .12-.08.12 0-.08 0-.12.08-.12Zm-1.68 1.12c.12-.08.44-.72 0-.72.12.32-.24.6 0 .72Zm10.08-.52c-.08.04-.2 0-.2.08.08 0 .2 0 .2-.08Zm-10.68 1.32c.04-.16.36-.8 0-.72.12.32-.44.72 0 .72Zm.4-.24c.08-.04.24-.48-.12-.4.04.16-.04.4.12.4Zm-.12.32c.24.04.4-.04.4-.2-.16.04-.48-.12-.4.2Z"/><path fill="#F4793A" d="M126.471 16.2c.48-1.4 4.44-1.24 3.2 1.08-.4-.2-.4-.76-.8-1-2.88 1.2-3.8 4.32-5.72 6.52.24.48-.32 1-.6 1.28a38.64 38.64 0 0 1-3 6.2c-1.08.4-1.36-.68-2-1.08.44-2.52 1.04-4.96 2.12-7.12.48-1.84 1.16-4.32 2.08-6.08.48.24.68-.24 1-.4 2.44.88-.04 3.72-.48 5.4.96-.56.52-1.92 1.68-2.32-.08-.52.68-.92 1.04-1.4-1.28 2.6-3 4.64-3.84 7.6-.12.08-.24.16-.28.32.2 0 .32-.08.28-.32 1.96-3.2 3.4-6.56 6-8.88-.16-.28-.56.08-.68.2Zm-.4.4c-.24.04-.2-.16-.2-.32.12.04.2.16.2.32Zm-.32.08c-.08.24-.2.44-.4.6.08-.28 0-.68.4-.6Zm-5.68 6.92c.08-.12.36-.04.28-.32h-.28v.32c-.2.2-.44.36-.4.8.4 0 .32-.52.4-.8Zm-1.12 3.8c.12-.96 1-2.2.72-2.92-.24 1-.92 2-.72 2.92Zm-.4-1.2c.36-.24.32-.88.52-1.32-.52.2-.48.88-.52 1.32Z"/><path fill="#F4793A" d="M121.187 20.6c-.08.12-.24.4.08.32-.24.48-.84.6-.8 1.4-.64.44-1.2 1-1.8 1.48-.92.24-1.76.56-2.6.92-1.24 1.2-2.36 4.76-4.48 4.8-.56 0-1.2-.2-1.32-.8-.28 0-.2.16-.4 0-1-.96-.88-2.4-.68-3.6.52-3.24 2.12-6.76 3.88-9.12.2-.08.48-.12.52-.4 2.84-.44 3.88 2.8 3 4.4.16.08.32 0 .28-.2.28.6.2 1.68.12 2.6 1.36-.52 2.88-1.8 3.88-2.8.2 0 .24.12.4.12.12.24-.44.32-.28.68-.16 0-.12-.16-.2-.2-.16.08-.24.28-.2.52-.28-.04-.44.04-.4.28.08.28.44-.08.4-.28.28.08.28-.16.6-.12Zm-5.32.52c.84-.8.36-2.16.4-3.6-.12 0-.24-.2-.28 0 .24 1.08-.12 2.52-.12 3.6Zm-.68.8c-.12.08-.24.68-.4.4.32-1.36.8-2.6.2-4.4-1.56.76-2.32 4.4-.4 5.28.12-.36.92-1.08.6-1.28Zm1.6-1.52c0-.04 0-.12.08-.08 0-.12-.04-.24-.2-.2 0 .12 0 .28.12.28Zm-1.12 1.2h.32c0-.2-.04-.36-.2-.4-.04.16-.16.2-.12.4Zm3.6.2v-.2h-.2v.2h.2Zm-9.08.12c0 .16-.04.32.2.28 0-.16-.08-.24-.2-.28Zm.68 6.2c1.2-1.24 2.4-2.48 3.12-4.2-.88-.44-1.28-1.28-1.92-1.92-.56 1.6-1.68 3.92-1.2 6.12Zm-1.28-4.32c.28.16.28-.44 0-.28v.28Zm-.12.8c.28.16.28-.4.12-.4 0 .2-.12.24-.12.4Zm5.6.32c.04-.16.16-.2.12-.4-.32.04-.32-.2-.52 0 0 .24.16.4.4.4Zm-.8.08c-.04-.16.28-.4 0-.48-.08.2-.32.4 0 .48Zm-.4 1.2c.36-.2.48-.64.92-.8-.28-.8-1.2.48-.92.8Z"/><path fill="#F4793A" d="M109.251 17.28c.04.8-.08 1.08-.08 1.68-.6.92-.44 2.04-1 3-.88 1.48-1.88 3.76-3.32 4.8.08.36-.2.4-.2.68h-.4c-.12.28-.12.68-.28.92-.2-.28-.16-.6 0-1 .08 0 .08-.04.08-.08.48-.12.6-.64.92-.92-.04-.08-.12-.08-.12-.2-.4-.04-.2.56-.6.6.04-.28.2-.32-.2-.32.04-.08.08-.16.2-.16 0 .08.12.04.2.08 0-.08-.12-.08-.2-.08.36-.32.8-.48.72-1.24.16.08.04.32.28.12.12-.32-.32-.08-.2-.4.4 0 .64-.24.72-.6.12 0 .08.2.08.28.28.04.24-.28.52-.28-.04-.12-.16-.2-.32-.2-.04-.84.96-1.52 1-2.6-.48.48-.8 1.12-1.28 1.6-.24-.48.48-.84.8-1.08-.32-.24-.12-.4-.12-.8-.88 1.64-2.08 2.96-2.8 4.76-1.44.92-1.48 3.2-3.08 3.92.04.08.08.16.08.32-.36.2-.56.04-1 .28.04.28 1.12.24 1-.28.08.04.16.08.32.08.08-.16.08-.24-.12-.32.16-.36.72-.4.92-.76.12 0 0 .28.2.28.12 0 .08-.16.08-.28.48.16.76-.68.52-.52.2-.72 1-1.2 1.4-2.04-.12.32.12.32.2.56-.12 0-.08.08-.12.2-.08-.04-.08 0-.08.08-.36 0-.28.4-.52.48 0 .12.16.16.2 0 .36.2-.28.48-.4.24 0 .28-.16.4-.2.68-1.32.92-2.72 3.16-4.6 1.8-.16 0-.08.32-.2.4-.44-.24-.44-.96-1-1.12-.28-1.2.36-2.96 1-4.96.4-1.28 1.08-3.04 1.6-4.4.32-.8.6-1.56.8-2.24 1.4-4.2 3-8.32 4.32-12.48.16-.16.48-.08.6-.32.04.32.4.44.6.12.4.04.48.44.88.48.32 1.4-.36 1.72-.8 2.8-.6 1.44-.92 2.68-1.2 3.72-.36 1.32-1.16 2.48-1.48 3.72h-.12c-.08-.32.16-.28.12-.52-.44.08-.4.52-.52.92.08.2.32-.24.32-.4h.08c.04.72-.48.92-.48 1.56-.16 0-.12-.2-.2-.28-.16.08-.2.2-.2.4s.24-.16.4.12c-.08.36-.36.48-.4.88.76-.36 1.28-1.84 2.4-2.2-1.04 1.2-2.32 2.16-3 3.72.04.08.08.16.2.16 1.16-1.8 2.52-3.44 4.4-4.6-.32-.56-.44.4-1 .24.52-.8 1.4-.72 2.28-.72-.04.16-.12.16 0 .28.68-.08.8.44 1.2.6-.04.4.04.64.2.84Zm-5.4-4.24c-.08.04-.2.04-.2.12.08-.04.2 0 .2-.12Zm-.12.32c-.2-.08-.44.24-.16.28 0-.12.16-.16.16-.28Zm-4.36 10.6c.12-.12 0-.16 0-.32.2-.2 1.08-1.28 1.2-1.68 0-.16-.2-.36-.12-.48 0-.08.28 0 .32 0l.28-.84c.24-.76.68-2.44 1.12-3.56 0-.08.28-.16.28-.24 0-.04-.16-.16-.08-.28 0-.04.24-.04.28-.12.08-.16-.08-.48 0-.68.08-.32.64-.84.6-1.48-1.56 2.88-2.88 6.24-3.88 9.36-.16.04-.16.32 0 .32Zm7.88-7.68v-.24h-.2v.24h.2Zm-.48-.12c0 .24-.32.12-.32.28.12.16.36.16.52 0 0-.16-.08-.24-.2-.28Zm-1.2.12c-.16.2-.2.52-.6.48.16-.2.24-.48.6-.48Zm-2.8 9.48c1.88-2.32 3.88-5.04 4.28-8.48-.24.16-.68.8-.88.4-.56 1.12-2.52 1.24-2.44 2.68-.08-.08-.2-.12-.36-.12v.32h-.12c-1.32 2.32-3.2 5.28-3.68 8.4.92-.76 1.92-1.48 2.68-2.4.08 0 .12.12.2.12-.08-.28-.16-.48.12-.64.12.04 0 .32.2.32.08-.28.08-.32 0-.6Zm2.48-8.4c-.32-.04-.56.44-.2.48 0-.24.16-.28.2-.48Zm-.6.48c.08.48-.8.36-.8 1 .32 0 .28-.48.52-.08.12-.24.76-.64.28-.92Zm-2.28 1.12c.04-.16.28-.6.08-.72-.04.16-.2.12-.28.2-.04.28.04.44.2.52Zm5.28 1.2c.44-.2.28-1 .52-1.4h-.32c-.16.36-.24.8-.2 1.4Zm-5.4 1.2c-.2.04-.2.28-.4.12.08.72-.72 1.2-.88 2 .8-.44.8-1.68 1.6-2.12-.12-.28.12-.28.08-.48.32-.04.32-.36.4-.64h.12c.12-.48.56-.72.8-1.16-.72-.32-.72.88-1.32 1-.08.28.16.24.12.48-.24.16-.2-.08-.4.08 0 .28 0 .52-.2.32-.04.2.12.2.08.4Zm6-2.28c.08-.04.2-.04.2-.12-.08.04-.2 0-.2.12Zm-6.68 1.28c.28-.32.64-.6.68-1.2-.12 0-.12-.12-.28-.08-.04.52-.48.68-.4 1.28Zm2.6-.68c0-.08 0-.12.08-.12 0 .08 0 .12-.08.12Zm-.12.28c-.16-.04-.08-.2 0-.28h.12c0 .12-.08.2-.12.28Zm-1.2.2c.12 0 .12-.08.2-.08v.16c-.08 0-.2 0-.2-.08Zm5 .4c.08-.04.2 0 .2-.08-.08 0-.2 0-.2.08Zm-4.48 0c.08 0 .12.16 0 .2v-.2Zm-1.92.6c0 .12-.16.24 0 .32 0-.12.16-.24 0-.32Zm-.68 1.08c.32 0 .4-.28.48-.6-.36.04-.44.32-.48.6Zm1.4 0c-.28-.04-.2.24-.32.32.24 0 .32-.08.32-.32Zm3.88.8c0 .12-.12.08-.2.12 0-.08.12-.08.2-.12Zm.52.32c.08-.12.36-.04.28-.32-.2 0-.32.12-.28.32h-.12c-.04.24.04.36.2.4.04-.2-.08-.28-.08-.4Zm-6.64.4c-.32-.04-.52.52-.28.68-.12-.4.36-.32.28-.68Zm6.12.2c0 .04-.08.12-.08 0h.08Zm-.48 1.08c.24.16.28-.32.08-.28 0 .08 0 .12-.08.12v.16Zm-6.4.32c-.12-.2.28-.32 0-.4-.04.08-.28.4 0 .4Zm5.96.68v-.2h-.16v.2h.16Zm-3.96 2.12c.24.08.4-.44.16-.48.08.28-.24.16-.16.48Zm-.72.6c.24 0 .32-.16.4-.32-.2.08-.44.04-.4.32Zm-.08.2v-.2h-.2v.2h.2Zm2.08.68c0-.24.16-.36.4-.4-.08.2-.2.32-.4.4Zm-.68-.16c-.32-.08-.44.12-.52.28.32.04.4-.12.52-.28Z"/><path fill="#F4793A" d="M96.239 25.68c1.4-.92 2.72-1.96 3.6-3.44.16.76-.48 1.08-.72 1.64-.08 0-.12-.12-.2-.12.08.52-.2 1.08-.6.8.2.84-1 1.04-1.2 1.8.8-.32 1.12-1.16 1.8-1.6-.56 1.08-1.28 1.48-1.8 2.52-.4-.44-1 .36-1.48.48-1.64-.44-2.64-1.88-2.52-3.8-1.56 1.72-2.64 3.96-4.2 5.68-.88.36-1.76.24-2.08-.28-.24 0-.04-.36-.12-.52-.12-.12-.36-.12-.48-.28-.56-1.64.4-3.44 1.08-5 1.24-2.76 3.24-6.96 5-8.2 1.04.08 2.52.24 2.52 1.72.56 0 .04-1.08.8-.92.36 0 .04.08.08.28.6 0 1.08.08 1.52.4-.16 2.8-2.4 5.08-2.12 7.52-.08 0-.12-.08-.2-.08-.04.8-.32 1.16-.08 2.16.44-.16.76-.48 1.08-.76.16 0 .08.24.32.16v-.16Zm-8.2-3.2c-.4.92-.88 1.72-1.12 2.8.52-.76 1.04-2.04 1.2-2.8.32-.2.48-.48.52-.92 1-1.6 1.96-3.32 3-4.88-1.28 1.32-2.24 3.04-3 4.88h-.12c-.04.36-.48.36-.4.92h-.08Zm4.08-5.72c-.08.04-.2 0-.2.08.08 0 .2 0 .2-.08Zm3.32 2c-.08.04-.2 0-.2.08.08 0 .2 0 .2-.08Zm-2.8 3.48c.12-.84 1.04-1.16 1.2-2.16-1.16.2-1.24 2-2.12 2.16.44-.64.92-1.2 1.2-2-.24.04-.48.04-.48-.16.2-.32.32-.68.28-1.24-.6.52-1.6 1.48-1.4 2.12-.2-.04-.24.08-.4.12-1 1.68-1.8 3.76-2.68 5.28.04.48-.16.64-.2 1 .48.12.12-.6.48-.6 0 .24-.16.32.12.4a.45.45 0 0 0 0-.72c.08 0 .04-.16.2-.16v.16c1.04-.12 1.44-1.76 2.08-2.4.08-.04.36 0 .4-.08.2-.24.4-1.44.72-.92.04-.32.28-.24.08-.56.12-.12.36-.12.52-.24Zm.2-3.16c-.16.44.52.32.4 0h-.4Zm2.6.28c-.08.04-.2 0-.2.12.08-.04.2-.04.2-.12Zm-4.92.12c-.48-.04-.4.52-.6.76.36-.08.4-.52.6-.76Zm5.32 0c0 .12-.04.2-.12.28h.32c0-.16-.08-.24-.2-.28Zm-1.32.68c.04-.16.16-.16.2-.32-.04 0-.12 0-.08-.08h-.2c0 .16-.04.36.08.4Zm-5.4 1.4c.36-.2 1.08-.92.6-1.32 0 .64-.48.8-.6 1.32Zm11.12-.6c0 .08-.04.12-.12.12 0-.08.04-.12.12-.12Zm-.12.12c0 .08-.08.12-.2.16.04-.08.04-.2.2-.16Zm.2 0c.44.08-.24.64-.2.96-.28-.28.24-.6.2-.96Zm-.4.16c-.4 1.24-1.8 2.32-2.68 3.44.32-1.32 1.8-2.32 2.68-3.44Zm-11.08 1c.24.08.4-.4.2-.48-.04.2-.24.24-.2.48Zm5.2-.28c-.16-.04-.2.08-.2.2h-.12c.04.08-.04.08-.08.08v.24c.2.04.2-.16.2-.32h.2v-.2Zm-.4 3.6c.36-.76.76-2.72.8-3.6-.52 1.16-.72 2.16-.8 3.6Zm-5.4-2.12c.24-.12.6-.64.4-.88-.08.36-.48.4-.4.88Zm2.48.2c.08-.44.52-.56.6-1h.12c-.12.48-.36.8-.72 1Zm2-.6v-.16h-.2v.16h.2Zm.92-.08c-.28.68-.64 1.4-.12 2-.2-.8.52-1.68.12-2Zm-4.92.6c-.24-.04-.24.2-.28.4.24.04.24-.2.28-.4Zm-.88.6c.32.04.56-.52.2-.6 0 .28-.24.32-.2.6Zm4.08-.28c.08-.04.2-.04.2-.12-.08.04-.2 0-.2.12Zm.52.48c.08-.16.24-.28.28-.48-.24-.08-.52.4-.28.48Zm-.92-.08c.2 0 .28-.08.32-.24-.2 0-.28.08-.32.24Zm-4.48 1.76c.32-.36 1.08-1.36.68-1.76-.16.52-.48 1.04-.68 1.76Zm1.4-1.68c0-.08-.2-.12-.2 0 .12 0 .16.16.2 0Zm2.8.32c.08-.04.2 0 .2-.12-.08.04-.2 0-.2.12Zm-1.32 0c.24.12-.16.48-.28.6 0-.32.2-.4.28-.6Zm4.4.08c.08-.04.2 0 .2-.08-.08 0-.2 0-.2.08Zm2.32.4c-.04.12-.12.2-.32.2.04-.12.12-.2.32-.2Zm-.32.2c0 .12-.12.12-.08.32-.2.04-.16-.48.08-.32Zm-9.68.4c0 .16-.04.36.08.4.08-.08.24-.48-.08-.4Zm2.28.4c0-.12.2-.12.2 0h-.2Zm-2.2 1c.28-.08.52-.76.32-1-.08.36-.36.52-.32 1Zm2.2-1c0 .08 0 .12-.08.12 0-.08 0-.12.08-.12Zm-1.68 1.12c.12-.08.44-.72 0-.72.12.32-.24.6 0 .72Zm10.08-.52c-.08.04-.2 0-.2.08.08 0 .2 0 .2-.08Zm-10.68 1.32c.04-.16.36-.8 0-.72.12.32-.44.72 0 .72Zm.4-.24c.08-.04.24-.48-.12-.4.04.16-.04.4.12.4Zm-.12.32c.24.04.4-.04.4-.2-.16.04-.48-.12-.4.2Z"/><path fill="#F4793A" d="M83.925 31.16c.12.72.68 1 1 1.52.76-.16.96-.8 1.6-1l-.6 1.68c-.8.12-.92-.08-1.68-.08-.4-.4-.84-.72-1.32-1-2.4-5.04.16-11.4 1.4-16.6v-.32c.24 0 .04-.36.12-.48-.24-.04-.04.32-.12.48-.32.48-.56 1.08-1.08 1.4-.08.4-.28.68-.2 1.2-.24.16-.28.52-.6.6-.32 1.28-1.2 1.92-1.52 3.2-.68.32-.52 1.28-1.28 1.72-.4 1.48-1.64 2.16-1.92 3.8-.88.88-1.48 3.24-3 3.48-.96.16-1.4-.56-2.2-1-.08-.36-.16-.68-.4-.88-.24-2.08.28-3.4.4-5.52 1.64-5.24 3.08-10.68 5-15.6.36-.2.8-.32 1.32-.4.56.24.96.64 1 1.4-1.52 4.4-2.84 8.4-4.4 12.6-.52 2.6-1.56 5-1.32 7.52.4-.12 1-.8 1.12-1.52 4.76-6.88 8-15.24 12.6-22.28.68.36 1.28.16 1.68.8-2.08 8.88-5.96 15.64-5.6 25.28Zm-2.88-12.28c1.68-3.72 3.76-7.56 5.8-11.2-.04-.12 0-.32-.12-.32-.68 1.2-1.32 2.4-2.08 3.52-1.04 2.72-2.64 4.92-3.72 7.6-1.28 2.32-3.08 4.68-3.88 7.2 1.08-1.76 1.84-3.8 3.2-5.32.12-.64.24-1.28.8-1.48Zm4.8-8.6c.08-.04.2-.04.2-.12-.08.04-.2 0-.2.12Zm.88 1c.08-.4.48-.4.4-.92-1.08.2-.08 1.92-1.08 1.72-.12 1.12-.76 2.32-.4 3.48-.04-.16.08-.2.2-.2-.08-.48-.12-.8.28-1-.12.32-.12.8 0 1.12-.12-.12-.16-.04-.28 0 .36.72-.56 1.08 0 1.68.4-1.36.44-2.44.88-3.8-.08-.04-.16-.12-.28-.08-.04-.8.68-1.72.48-2.16.04.16-.2.36-.2.16Zm-1.28-.32c.24.16.28-.32.08-.28 0 .04 0 .12-.08.08v.2Zm-.4 1.2c.04-.28.52-.68.28-.88-.12.2-.48.68-.28.88Zm1.8.92c.08-.08.24-.6-.12-.52.08.16-.12.52.12.52Zm-1.6.08c-.12.08-.24.64 0 .72 0-.2.24-.6 0-.72Zm.88 1.2c-.12-.24.08-.88.32-1.08 0 .44 0 .92-.32 1.08Zm-1.6-.4c.04-.12.2-.24 0-.28 0 .08-.16.2 0 .28Zm.92 0c-.08.04-.2 0-.2.12.08-.04.2-.04.2-.12Zm-.52.32c-.2 1.16-.88 2.36-.8 3.48.36-.96.92-2.72.8-3.48Zm-.88.6c-.12-.2.28-.36 0-.4-.04.04-.28.36 0 .4Zm-11.12 10.88c-.04-.72.68-1.92.32-2.6.48-.4.6-1.16.68-2-.16.04-.2-.08-.2-.2.92-.6.4-2.08 1.2-2.68-.12-.8.48-1.08.2-1.8.32-.04.56-.76.2-.8-.12.2-.24.4-.2.8h-.08c-.2 1.16-.88 1.84-.92 3.2-.4.64-.56 1.56-.68 2.48-.32.48-.48 1.12-.52 1.92-.08.44-.6 1.48 0 1.68Zm12.6-8.08c-.44-.44-.32-1.36.2-1.72-.92-.4-.32 1.84-.8 2.12-.12-.28.32-.44-.08-.4-.24.96-.8 1.4-.6 2.6.44-.08.12-.88.4-1.12.32.6-.08 1.24-.4 1.52.24.04.4.16.48.4.28-.48.08-1.96.6-2.2.12-.4-.2-1.16.2-1.2Zm-3.08.48c.04-.04.24-.48 0-.48.04.16-.32.4 0 .48Zm-.4-.08c.04-.08.16-.28 0-.32-.08.08-.12.16-.12.32h.12Zm1.88-.12c-.76 2.72-1.64 6.2-1.6 9.12.28-3.16 1.36-6.44 1.6-9.12Zm.72.72c.16.08.28.44 0 .48-.08-.04-.24-.48 0-.48Zm-3.72 1.48c.08-.04.2 0 .2-.08-.08 0-.2 0-.2.08Zm2.32 7.12c-.48-.36-.16-1.36.08-1.8-.16-1.24.32-2.84.8-4 .16.2.32.44.4.68 0-.4-.04-.84.2-1-.28-.08-.2.28-.48.2-.52-.16.16-1.04-.32-1.08-.52 3.56-2.2 7.76-.8 11.2-.16-1.32-.72-3.36.12-4.2Zm.6-2.8c-.2-.84.72-2 .2-2.2.2.52-.8 1.56-.2 2.2Zm-9.92.08c.12 0 .16.16.2 0 0-.08-.16-.12-.2 0Zm9.72.12c-.04.32 0 .56.4.48 0-.32-.32-.28-.4-.48Zm-9.92 1.4c.28.16.28-.44.12-.4-.04.12-.16.16-.12.4Zm2.92.2c0-.16.44-.64 0-.6 0 .16-.28.48 0 .6Zm7.08.2c0-.16.28-.6-.08-.6.04.16-.12.56.08.6Zm-11 1c.04-.72 0-1 .12-1.52h-.32c.32.68-.36 1.24.2 1.52Zm9.4.48c.32.16.28-.52.12-.48.08.28-.16.24-.12.48Zm0 .4c0 .12 0 .72.12.4 0-.12 0-.72-.12-.4Z"/><path fill="#F4793A" d="M73.883 20.6c-.08.12-.24.4.08.32-.24.48-.84.6-.8 1.4-.64.44-1.2 1-1.8 1.48-.92.24-1.76.56-2.6.92-1.24 1.2-2.36 4.76-4.48 4.8-.56 0-1.2-.2-1.32-.8-.28 0-.2.16-.4 0-1-.96-.88-2.4-.68-3.6.52-3.24 2.12-6.76 3.88-9.12.2-.08.48-.12.52-.4 2.84-.44 3.88 2.8 3 4.4.16.08.32 0 .28-.2.28.6.2 1.68.12 2.6 1.36-.52 2.88-1.8 3.88-2.8.2 0 .24.12.4.12.12.24-.44.32-.28.68-.16 0-.12-.16-.2-.2-.16.08-.24.28-.2.52-.28-.04-.44.04-.4.28.08.28.44-.08.4-.28.28.08.28-.16.6-.12Zm-5.32.52c.84-.8.36-2.16.4-3.6-.12 0-.24-.2-.28 0 .24 1.08-.12 2.52-.12 3.6Zm-.68.8c-.12.08-.24.68-.4.4.32-1.36.8-2.6.2-4.4-1.56.76-2.32 4.4-.4 5.28.12-.36.92-1.08.6-1.28Zm1.6-1.52c0-.04 0-.12.08-.08 0-.12-.04-.24-.2-.2 0 .12 0 .28.12.28Zm-1.12 1.2h.32c0-.2-.04-.36-.2-.4-.04.16-.16.2-.12.4Zm3.6.2v-.2h-.2v.2h.2Zm-9.08.12c0 .16-.04.32.2.28 0-.16-.08-.24-.2-.28Zm.68 6.2c1.2-1.24 2.4-2.48 3.12-4.2-.88-.44-1.28-1.28-1.92-1.92-.56 1.6-1.68 3.92-1.2 6.12Zm-1.28-4.32c.28.16.28-.44 0-.28v.28Zm-.12.8c.28.16.28-.4.12-.4 0 .2-.12.24-.12.4Zm5.6.32c.04-.16.16-.2.12-.4-.32.04-.32-.2-.52 0 0 .24.16.4.4.4Zm-.8.08c-.04-.16.28-.4 0-.48-.08.2-.32.4 0 .48Zm-.4 1.2c.36-.2.48-.64.92-.8-.28-.8-1.2.48-.92.8Z"/><path fill="#F4793A" d="M63.878 20.4c.44.84-.52 1.68-.68 2.4h-.2c-.64 1.32-1.8 2.16-2.52 3.4.68-.32 1.4-1.48 2.12-2.12-1.12 1.72-2.4 3.28-3.92 4.6-.28.92-1.4 1.68-2.48 2.12-1.16.16-1.52-.48-2.2-.8-.16-.4-.28-.8-.6-1-.16-.92-.28-1.96-.32-2.72 1.12-4.08 3.2-7.68 5.72-10.68l.88-.28c1.16.08 2.12.4 2.4 1.4-.04 1.24-.8 2.56-.88 3.8-.56.36-1.04.4-1.8.28-.12-.92-.12-1.72.2-2.4-2.32 2.64-4.68 6.68-4.8 10.8.4 0 .48-.32.88-.32 3.16-2.4 5.56-5.56 8.2-8.48Zm-10.48 7.2c.76-3.88 2.88-6.8 4.6-10-.16 0-.24-.04-.32-.12-1.76 3.12-4.36 6-4.28 10.12Zm4.2-7.08h.2c-.04-.12 0-.32-.12-.32 0 .12-.16.08-.2.2.08 0 .12 0 .12.12Zm6 .88v-.2h-.2v.2h.2Zm-1.2 1.28c.48-.24.76-.68 1-1.16-.52.2-.72.76-1 1.16-.32.08-.44.4-.72.52.32.24.64-.2.72-.52Zm-6.2-.08c.24.16.28-.36.08-.32 0 .08 0 .12-.08.12v.2Zm2.6 4.12c1.2-1.08 2.84-2.24 3.4-3.32-1.24 1-2.44 2.04-3.4 3.32Zm-4.92-.12c.28.08.2-.2.32-.32-.24 0-.32.08-.32.32Zm6.2.12c.28.04.2-.24.32-.32-.24-.04-.32.08-.32.32Z"/><path fill="#F4793A" d="M37.692 24.44c.36 0 .56-.2.68-.4.12.88-1.32 1.44-1.92 2.28-.32.52-.28 1.08-.68 1.6 0 .08.08.12.12.2.12.2.32-.08.56.12 0 .32-.56.12-.88.16.16.28 1 .48 1 0 .36.28 1 .24 1.2-.16-.24.08-.6.08-1 .08 2-.6 4.12-1 5.4-2.32-.88-.76-1.88-1.44-3-1.96-.64-1.16-1.28-2.28-1.2-3.52.08-1.36 1.28-2.6 2-3.2 1.28-1.08 2.44-2.6 3.6-3 1 0 2.16-.16 2.32.72h.4c.28 2.64-2.2 3.32-2.2 5.96-.36.08-.48-.04-.72-.08v-.4c-1.28-.08-.76-1.44-.88-2.28-1.28.92-2.44 1.96-3.2 3.4 0 .28-.08.64.08.76 1.48 1.12 3.36 1.8 4.52 3.2-.04.56.2.72 0 1.12 0 .12.12.12.28.12.08.28-.16.28-.08.6h-.12v-.32c-.08-.12-.32.08-.4-.2-.16.28-.04.56 0 .8.24.04.16-.2.32-.2-.04.32-.08.6-.4.6.04-.08.12-.16 0-.2-.16.04-.12.2 0 .2-.24.6-1.2.48-1.52 1-.48.08.12-.28-.2-.28-.28.12-.4.44-.28.68-.24-.04-.4.04-.4.2-.16 0-.12-.24-.12-.4-1.52.84-4.68 1.88-6.2.4.08-1.04-.96-2.32-.08-2.88-.04-.16-.04-.24-.2-.24 1.08-.8 2-1.76 3.28-2.4 0 .12-.08.12-.08.24Zm3.28-7.12c.08-.04.2 0 .2-.12-.08.04-.2 0-.2.12Zm.92-.12c-.2 0-.28.08-.32.24.16 0 .24-.08.32-.24Zm-1.32.24v.16h.2v-.16h-.2Zm-2 3.48c.52-1.24 1.44-2.12 2.2-3.08-.32.04-.2.04-.52 0-.52.88-1.96 1.96-1.68 3.08Zm.8-.28c0 .08 0 .28.12.28 0-.08 0-.12.08-.12 0-.12-.04-.2-.2-.16Zm-1.08 3.16c.08.04.08.12.08.24-.16-.04-.2.12-.4.08-.04-.24.28-.12.32-.32Zm-.32.32c0 .08-.08.12-.2.08.04-.04.08-.08.2-.08Zm6 3.32c0 .04 0 .08-.08.08 0-.08 0-.12.08-.08Zm-3.72.28v.2h.32c0-.2-.08-.24-.32-.2Zm1.44.2c.08-.04.2 0 .2-.08-.08 0-.2 0-.2.08Zm-.6.08c-.28.08-.6.12-.72.32.2.04.44.04.4.28-.56 0-1.28-.48-1.48.24 0-.2-.08-.28-.2-.32 0-.28.48-.08.6-.28-.36-.32-.48.2-.92.08-.2 1-.64 1.4-2 1.32-.04.72 1-.24 1.12.36.4-.28.52.12 1.08-.2-.12-.04-.2-.12-.2-.28.68.04 2-.56 2.8-1.2-.28-.32-.6.44-.48-.32Zm-2.24.52h.24c0 .08-.2.12-.24 0Zm-1.28.4c-.36.36-1.16-.16-1.2.4.36.28.92-.08 1.32-.08-.04-.12 0-.32-.12-.32Zm-1 .8c-.12-.12-.48-.16-.52.08.16.16.44.08.52-.08Z"/><path fill="#F4793A" d="M36.38 5.72c1 .8-.12 1.88-.2 3-.76.84-.88 2.32-1.52 3.28-.04.68-.28 1.32-.2 1.8-.8.16-1.36-.76-1.6-1.48.08-.52.52-1.04.4-1.4.32-.08.16-.32 0-.4-.04-.28.2-.28.4-.32-.12-.28-.12-.4 0-.68.12 0 .08.16.2.2.12-.32.08-.28-.2-.4.56-1.28.92-2.24 1.32-3.8.72-.08.72.44 1.4.2ZM35.26 6.8c.28.16.28-.44 0-.28v.28Zm-.6 1.4c.4.12.32-.28.4-.48-.28 0-.44.16-.4.48Zm-.68 2.12c.4-.36.64-1.4.68-1.8-.32.44-.8 1.24-.68 1.8Zm.28.48c.12-.16.48-.4.12-.48-.08.12-.16.24-.12.48h-.08c-.04.08-.12.12-.12.2.08.08.16.12.32.12 0-.16-.12-.2-.12-.32Zm.4-.48c0 .16 0 .32.2.28 0-.16-.08-.24-.2-.28Zm-1.28 2.4c.12-.6.4-1.56.68-2.32-.6.56-1 1.52-.68 2.32Z"/><path fill="#F4793A" d="M41.761 8.72c-3.6.6-8.92.92-12.72 2.2-2.32 5.12-4.88 10.36-6.28 16.6.48-.04.28-.76.4-1.2.4-1.52 1-2.84 1.4-4.4.32-.12.16-.76.48-.88-.64 2.48-2.08 5.2-2 8.48.88.08.8-.8 1.52-.88.96-1.64 2.6-2.6 3.4-4.4.12-.04.2-.16.4-.12 1.04-1.64 2.32-3.04 3.68-4.4-.08 1.36-1.52 2.2-2 3.2-.2.04-.2-.12-.28-.2-.2-.04-.2.52.04.44-.16.2-.88.16-.56.76-1.72.68-1.92 2.88-3.6 3.6.6.6 1.08-.92 1.72-.68.24-.36-.32-.44.08-.6.04.08 0 .2.12.2.52-.36.68-1.04 1.28-1.32-.2.2.08.2 0 .52.28.08.2-.2.4-.2-.4.76-1.04 1.28-1.4 2.08-1.6 1.04-1.84 3.36-4.2 3.6-3.32-.96-2.8-5.28-1.6-7.6-.16 1.36-.88 2.64-.6 4.12.2-1.04.36-2.48.8-3.72.16 0 .24.08.32.12-.04.16.08.16.2.2-.12.28-.12.6 0 .88.44-.44.12-1.36.68-1.48-.08-.36.28-.6-.08-.72-.16.48-.44.88-.6 1.28 0-.12-.08-.16-.2-.16 0-.2-.44-.4-.12-.6 0 .4.24.08.32 0-.08-.2-.2 0-.32 0 .28-.8.32-1.76.8-2.32v.52c.24-.08.48-.56 0-.52-.04-.36.16-.48.28-.76 0 .12.04.16.12.16.16-.2.68-.36.4-.68-.32-.04-.24.36-.4.48h-.08c.2-.72.36-1.48.8-2v.52c-.28-.04-.28.2-.32.4.28.04.28-.2.32-.4.2-.08.04-.48.28-.52-.08-.16-.16 0-.28 0 .36-1.08.64-2.24 1.28-3.08-.08.32.2.16.32.08.04-.2-.2-.24-.2-.08h-.12c-.04-.52.48-.88.2-1.32-1.16 2.88-2.48 5.6-3.4 8.72h-.08c.88-3.8 2.76-7.44 4.2-11-2.96.6-5.2 1.44-8.4 1.88-1.6-.04-1.44-1.36-1.72-2.6.76-.04 1.6-.16 2.32-.2.36.32-.36.4-.2.8 2.72-.52 5.84-1.2 8.8-2.08.72-1.56 1.56-2.96 2-4.8.84-.64 2.08-.08 2.4.88-.28 1.28-1.16 2-1.4 3.32 1.56-.48 3.2-.64 4.68-.8-1.12.6-3 .44-4.28 1.08 4.24-.44 7.64-1.44 12.08-1.2-.04.36-.64 0-1.08.12-.12.36.4.12.6.2-.52.28-1 .12-1.12-.2-.36.08.04.32-.4.4-.12-.12-.12-.36-.28-.4-1.2.28-3.04-.04-3.92.6.12.16.2.32.52.28.36-.2.6-.52 1.2-.48-.04.36-.68.08-.8.28 1.28.12 2.64-.12 4-.2 1.4-.04 2.76.16 4.4.2-.16-.28-.52-.28-.92-.28v-.32c.36 0 .2-.56.72-.4.48 0-.32.4.08.6.2 0 .08-.32.2-.4.28-.04.08.4.32.4.32 0-.24-.32.08-.28.76.16 1.36.52 1.52 1.28-2.04-.32-4.16-.16-6.2-.6Zm-.32-1.2c-.6.08-1.08.08-1.68 0 .4-.04 1.52-.48 1.68 0Zm1.4-.2c.44.36-1.12.52-1.08.12.24-.32.8.24 1.08-.12Zm2.2.4c-.12.16-.12.28 0 .4-.16 0-.24.12-.2.32-.72.08-3-.2-1.28-.2.24-.04.2.16.48.08.24 0-.04-.24-.2-.2.08-.12.24-.2.52-.2-.04.2.08.24.08.4.12-.12.24-.28.4-.4-.04-.24-.48-.04-.4-.4-.24.32-.48.16-.68-.08-.12 0-.12.16-.12.28-.24.04-.2-.16-.48-.08.16-.12.24-.36.6-.32.36.24.44.16 1 .12-.08.28.2.2.28.28Zm-5.4-.2c-.12.32-.68.2-1.08.2 0-.4.8 0 .8-.4.12.04.16.2.28.2Zm-1.6.12c-.12.08-.84.32-.68 0 .2-.24.36.04.68 0Zm-1.8.4c.12-.28.64-.4.92-.2-.36.12-.4.16-.92.2Zm-.08-.2c-.12.32-.88.32-1.12.2.08-.32 1-.28 1.12-.2Zm7.6.08c-.2.32-.36.12-.72.12.04-.24.52-.04.72-.12Zm-3.8.52c.04-.24.48-.04.68-.12-.04.24-.48.04-.68.12Zm-.6-.12c-.04.12-.2.08-.32.12.04-.12.2-.08.32-.12Zm-.8.2c0-.12.16-.08.28-.08 0 .12-.16.08-.28.08Zm-2.92.32c-2.48.36-4.8.2-6.28 1.48 1.64-.44 2.96-.52 4.6-1v.32c.36-.12.76-.4 1-.12.08-.24.4-.32.6-.48.2.52.44-.16.8-.12-.12.32-.12.32.28.32 0-.44-.24-.24-.08-.72-.36.04-.96-.16-.92.32Zm-5.48.28v.2c.16-.04.6.16.48-.2h-.48Zm-3.12.8c-.24 0-.32.16-.4.32.28.04.44-.04.4-.32Zm-.6.2c-.16.12-.52 0-.48.32.28 0 .52 0 .48-.32Zm-.68.32c0-.12-.2-.12-.2 0 .12 0 .16.12.2 0Zm-1.12 1.2c.64-.64 1.8-.16 2.2-.92-.76.36-2.4.2-2.2.92Zm3.2.4c-.04-.36.56-.68.12-.8-.04.2-.4.6-.12.8Zm-3.4-.52v-.2h-.2c0 .08 0 .12-.08.12v.2h.2c0-.08 0-.12.08-.12Zm-.48.12v-.2h-.2v.2h.2Zm3.6.6c.08-.04.2 0 .2-.12-.08.04-.2 0-.2.12Zm.08.4c.04-.2 0-.32-.2-.32-.04.16.12.2.12.32h.08Zm-1.28-.2v.2h.2v-.2h-.2Zm1.8.88c-.04-.16.08-.2.08-.4.24.04.04.36 0 .4h-.08Zm-1 1c-.56-.12.68-1.08.08-1.28.08.28-.2.2-.28.28.16.84-.44.92-.52 1.52.44.04.48-.36.72-.52Zm-1.2-.8c0 .12-.04.28.08.32 0-.08.04-.12.12-.12-.04-.12-.04-.24-.2-.2Zm1.68.8c.24.04.04.36 0 .4h-.08c-.04-.16.08-.2.08-.4Zm-.2.72c.04-.12 0-.28.12-.32-.04.12 0 .28-.12.32Zm-1.2.48c.32 0 .4-.28.4-.6-.36-.04-.28.36-.4.6Zm-.68 0c0 .16-.04.24-.12.32h.32c0-.16 0-.36-.2-.32Zm.68 1c-.12-.56.12-.36.12-.88-.68-.16-.6.84-.12.88Zm.8-.8c.28.16-.04.56-.08.72h-.12c0-.32.28-.32.2-.72Zm-.6.32c.08-.04.2 0 .2-.12-.08.04-.2 0-.2.12Zm-.88 0c-.2-.04-.2.08-.2.2h.2v-.2Zm1.2.4h.08c-.32 1.4-1.16 3.16-1.8 4.6.44-1.68 1.2-3 1.72-4.6Zm-.8 1c-.08-.36.12-.4.08-.72-.12 0-.16-.16-.28-.2-.36.64-.32.96-.52 1.72.48.12.16-.84.6-.4.08-.32-.32-.16-.28-.4.2-.16.12 0 .4 0Zm-.8-.32c-.24-.08-.44.4-.2.4 0-.2.28-.12.2-.4Zm0 1.92c.24-.12-.12-.48-.2-.2.12 0 .08.16.2.2Zm-.6.4c.12-.2.52.2.6-.2-.36.04-.2-.44-.52-.4-.08.52-.8 1.6-.08 2-.4-.56.72-1.08 0-1.4Zm-.6.2h.2c0-.08 0-.12.08-.12v-.2h-.2c0 .08 0 .12-.08.12v.2Zm0 1.8c.28 0 .36-.24.48-.4-.28-.28-.48.08-.48.4Zm6.6 0v.2h.28v-.32h-.2c0 .08 0 .12-.08.12Zm-6.6.4c.24-.12-.2-.56-.32-.32.2.04.08.36.32.32Zm-1 .4c.24.08.2-.2.28-.32h-.28v.32Zm.68.4c-.04-.64.2.08.4-.2-.04-.24-.08-.44-.28-.52-.24.16-.88.64-.12.72Zm-1.48.4c.12-.08 0-.4.2-.4-.04.16.08.48-.2.4Zm-.12.08c.28.04.2.32 0 .4v-.4Zm7.6.8c.36-.04.44-.32.72-.48h.08c-.16.36-.32.72-.68.88 0-.16-.12-.2-.12-.4Zm-.4.52c.08-.36.2-.04.52-.12-.24.4-.4.84-.8 1v-.48c.32.32.24-.36.6-.32-.04-.12-.16-.08-.32-.08Zm-7-.12c.04.2-.12.24-.08.4.28.16.28-.4.08-.4Zm-.2.92v.2h.2v-.2h-.2Zm.6.8c-.24-.4.32-.64-.08-.8-.28.16-.52.8.08.8Zm6.72-.72c0 .08-.04.12-.12.12 0-.08.04-.12.12-.12Zm-.6.32c-.08 0-.2 0-.2.08.08 0 .2 0 .2-.08Zm-.32.2a.62.62 0 0 0-.08.48c.28.16.24-.52.08-.48Zm-6.28 1.68c.36-.12.24-.76.28-1.2-.12.04-.28 0-.28.12.08.08-.08.72 0 1.08Zm5.8-1.2c.08.32-.28.2-.2.52.32-.04.48-.2.48-.52h-.28Zm-5.12 1.32c.04.24-.16.2-.08.48.28.16.24-.52.08-.48Z"/><path fill="#F4793A" d="M22.745 22.08c.08-.4.32-1.08.88-1.28-.08.36-.24.64-.6.8 0 .16.16.16.2.28-.4 1.04-1.12 1.8-1.68 2.72-.2.16-.2-.08-.4-.12-.04 1.08-1.04 1.2-1.32 2.08-.2.12-.24 1.04-.8.72.08.32.08.2 0 .52-1.2.92-2.16 1.76-3.88 2-2.44-.6-3.56-4.32-2-6.72.56-.88.96-1.92 1.4-2.88.48-.64.96-1.32 1.4-2.04-.64.52-1.08 1.24-1.4 2.04-.36.28-.52.72-.72 1.16h-.08c1.08-2.64 2.6-4.92 5-6.28.88.36 1.8.68 2.2 1.48-.16.48-.08 1.2-.2 1.72-1.72 2.4-2.92 5.2-5.8 6.6-.44.12-.4-.2-.72-.2-.36 1.08-.72 2.48-.08 3.48.72.08 1.24-.12 1.6-.36 2.44-1.68 4.4-4.56 6.48-6.32-.08-.16-.08-.24.12-.28 0-.08 0-.12.08-.12 0 .04 0 .12-.08.12.76-.04 1.08-1.32 1.6-1.92-.08 1.92-2.28 2.52-3 4.08.4-.04 1.04-.72 1.4-1.4.2 0 .2.12.4.12Zm-3.32-5.4c-1.8 1.4-3.44 3.56-4.2 5.68 1.28-1.56 3.16-3.08 3.92-4.88v.2c.32-.12.84-.92.4-1.2.04.4-.04.68-.32.8-.08-.36.24-.28.2-.6Zm-2.48.08c-.04.16-.16.2-.2.32.2.08.44-.24.2-.32Zm-.2.4c-.2 0-.28.08-.32.24.2 0 .28-.08.32-.24Zm2.4.32c0-.08 0-.2.08-.2 0 .08 0 .2-.08.2Zm.6-.08c0 .12-.04.28.08.28 0-.08.04-.12.12-.12-.04-.12-.04-.2-.2-.16Zm-3.92.68c.4-.04.4-.44.6-.6-.36.04-.52.28-.6.6Zm3.52.08c.2.08.4-.36.2-.36-.08.12-.16.24-.2.36Zm-4.2 2.2c-.04.08-.24.4 0 .44 0-.08.24-.4 0-.44Zm7.48.52c0 .08 0 .12-.08.08 0-.04 0-.12.08-.08Zm-.08.08c0 .08-.04.12-.12.12 0-.04.04-.12.12-.12Zm-7.72.32c-.48 0-.56.92-.08 1.08-.32-.4-.08-.68.08-1.08Zm-1.2.08h.12c-.04.44-.2.68-.4.92-.2-.28.2-.6.28-.92Zm-.28.92c-.04.08 0 .2-.12.2.04-.08 0-.2.12-.2Zm-.12.2c.08.32-.08.36-.08.6-.16 0-.08.24-.32.2.04-.36.28-.44.32-.8h.08Zm.6.28c.08.28-.4.52-.08.72.04-.36 1.08-.72.28-1 0 .2.16.2.2.28-.12.04-.08.2-.2.2 0-.08 0-.2-.2-.2Zm4.92 4.24c1.24-1.52 2.96-2.84 3.8-4.4-1.48 1.36-2.84 2.88-4.2 4.4-.28.04-.48.2-.52.48.24-.12.48-.2.52-.48h.4Zm2.08-3.52c-.32-.04-.64.4-.4.6.08-.28.36-.32.4-.6Zm-.8.52v.28c.32.16.32-.44 0-.28Zm-6.68.36c0-.08.16-.2 0-.28-.04.12-.2.24 0 .28Zm-.32-.16c0 .08-.16.2 0 .28.04-.12.2-.24 0-.28Zm7 .16c-.16.04-.32 0-.28.24.16 0 .24-.08.28-.24Zm-7 1.04c-.04-.2.32-.44 0-.52.08.16-.28.4 0 .52Zm4.92 3.08v-.2h-.2v.2h.2Zm-.6.2c.16 0 .24-.08.28-.2-.16 0-.24.08-.28.2Z"/><path fill="#F4793A" d="M15.385 32.6c-1.08.24-2.12.6-3.52.8-.04-.64-1.12-.12-1.48.08.44.12.92-.12 1.48-.08-2.36.68-5.28 2.76-8.4 2.68-2.92-.08-4.52-3.32-2.68-5.88.08.4-.32.28-.2.68.4-.04.16-.72.48-.8-.08-.28-.12-.12-.4-.08 1.12-2.88 2.4-5.64 4-8 .44 0-.16.48-.28.6-.56 1.32-1.24 2.48-2 3.6-.28 1.32-1.04 2.16-1.32 3.48.28-.2.32-.6.52-.88h.08c-.08.52-.28.96-.6 1.28-.12.84-.4 1.6-.68 2.32.44-.08.48-.6.48-1.12 3.28-7.56 7.48-14.12 11.4-21 0-.12 0-.24-.2-.2.76-.56 1.08-1.52 1.52-2.4-1.16.76-1.16 2.16-2.32 3 1.04-2 2.12-4 3.52-5.68.72.04 1.36.44 1.4 1 .04.6-.76 1.08-1.12 1.6-.8 1.16-1.64 3.04-2.4 3.68-3.48 6.6-7.44 12.68-10.6 19.6-.16.96-.48 1.72-.6 2.72.12.48.36.88.72 1.08 5-.2 8.72-3.48 13.2-3.28.64.2 1.28.4 1.68.8 0 .12-.16.2 0 .28-.12.2-.32.36-.6.4-.16-.16-.16-.08-.08-.4l-1 .12c-.08-.36.36-.16.4-.4-1.24 0-2.24.28-3.52.6-.04-.28.2-.2.2-.4-.24-.04-.4.04-.48.2.48.2-.24.2-.12.6.6-.2.72-.24 1.4-.2.52-.56 1.4-.48 2.12-.4Zm-4.2-21.92h.08c.04.12.16.16.12.32-1.92 2.6-3.44 5.64-5.2 8.4 1.4-3.16 3.36-5.8 5-8.72Zm.2.72c.04-.08 0-.2.08-.2 0 .08 0 .2-.08.2Zm-.12 0h.12c0 .24-.16.28-.2.48h-.12c0-.24.16-.28.2-.48Zm-.28.48h.08c-.08.36-.2.68-.48.8.08-.32.24-.52.4-.8Zm-.52.8h.12c-.2.6-.52 1.04-.92 1.4.2-.56.6-.88.8-1.4Zm-.88 1.4h.08c.04.16-.04.24-.08.32-.16-.04-.08-.24 0-.32Zm-.32.8c.04-.12 0-.28.12-.28-.04.12 0 .28-.12.28Zm-.2.52h-.08c0-.16.04-.24.08-.32.16.04.08.24 0 .32Zm.52-.12c0 .12 0 .28.08.32.04-.08.04-.12.12-.12 0-.12-.04-.24-.2-.2Zm-1 .92c-.2-.08 0-.2 0-.32.16.08 0 .2 0 .32Zm.48.08c.08 0 .2 0 .2-.08-.08 0-.2 0-.2.08Zm-.28.4c.08 0 .2 0 .2-.08-.08 0-.2 0-.2.08Zm-.72.12h.12c0 .16-.08.24-.2.28 0-.12.04-.2.08-.28Zm-.2.48c.04-.08.04-.2.12-.2-.04.08 0 .2-.12.2Zm-.08 0h.08c.04.2-.08.28-.2.32 0-.16.08-.24.12-.32Zm.48.32c.08 0 .12 0 .12.08h.2c.16-.24-.36-.28-.32-.08Zm-.6 0c.08.32-.12.4-.28.48-.08-.32.16-.28.2-.48h.08Zm-.4.48h.12c0 .2-.08.28-.2.32 0-.16.04-.24.08-.32Zm-.2.52c.04-.08 0-.2.12-.2-.04.08 0 .2-.12.2Zm-.08 0h.08c-.12.56-.44 1-.8 1.4.12-.6.52-.88.72-1.4Zm-1 .8h.2c0 .12-.04.24-.2.2v-.2Zm-1.2 2.4c.24-.72.6-1.28 1-1.8-.16.76-.52 1.36-1 1.8Zm1.4-1.6c0-.08 0-.2.08-.2 0 .08 0 .2-.08.2Zm-.12 0h.12c.04.32-.12.4-.32.48 0-.24.16-.28.2-.48Zm.6.28c0 .16-.24.08-.2.32.24.08.48-.28.2-.32Zm.6 0c-.16 0-.24.08-.28.2.16 0 .24-.08.28-.2Zm-1.48.2h.08c.04.36-.16.44-.28.6-.04-.32.12-.36.2-.6Zm-.32.6h.12c-.16.52-.4.92-.72 1.32.08-.6.44-.84.6-1.32Zm.72 0c-.28.76-1.12 1.44-1 2.2.24-.72 1.04-1.48 1-2.2Zm-1.4 1.32h.08c-.08.44-.28.76-.6 1 .08-.44.4-.64.52-1Zm1.08.2c-.24-.04-.24.2-.28.4.24 0 .32-.16.28-.4Zm-.88.88c-.28-.04-.28.2-.32.4.28.04.36-.12.32-.4Zm-.92.52h-.08c0-.16.04-.24.08-.32.16.04.08.24 0 .32Zm-.2 0h.12c-.04.28-.2.44-.32.68h-.08c.04-.28.2-.44.28-.68Zm.6.2c-.04.2-.32.44 0 .48.08-.04.24-.48 0-.48Zm-1 .48h.12c.04.32-.16.4-.2.6h-.12c.04-.24.12-.4.2-.6Zm.6.32c0 .2-.24.12-.2.4.24.08.44-.4.2-.4Zm-.88.28h.08c-.24 1-1.08 2.24-1.6 3.32.32-1.28 1.04-2.2 1.52-3.32Zm.4 1c.08-.12.08-.36.28-.4.08-.08.12-.2.12-.4-.24.08-.68.52-.4.8Zm.48-.2c.04-.16-.08-.16-.2-.2 0 .16 0 .28.12.32-.04-.08.04-.12.08-.12Zm-.88.6c-.24.8-.8 1.28-1 2.12.44-.52 1.08-1.4 1-2.12Zm-1 2.32c-.44.36-.52 1-.72 1.6.4-.4.56-.96.72-1.6Zm-1 2.2v.28c.28.16.28-.44 0-.28Zm12.88.68c.12 0 .32.04.32-.08-.12 0-.28-.04-.32.08Zm-.48.12c.08-.04.2 0 .2-.12-.08.04-.2 0-.2.12Zm-.52.08c-.12.04-.32 0-.28.2.16 0 .24-.08.28-.2Zm-12.6.2c-.04.08-.2.48 0 .52.08-.08.24-.48 0-.52Zm10.72.4c.08 0 .2 0 .2-.08-.08 0-.2 0-.2.08Zm-.72 0c0 .16-.16.16-.2.32.2.16.48-.08.6-.2-.16 0-.28-.04-.4-.12Zm-1.08.6c-.08-.2-.48.04-.52.2h.52v-.2Zm-1.72.72c.08-.04.2 0 .2-.12-.08.04-.2 0-.2.12Z"/></svg>