<svg xmlns="http://www.w3.org/2000/svg" width="155" height="143" fill="none" viewBox="0 0 155 143"><path fill="#F4793A" fill-rule="evenodd" d="M43.417 2.874c.43.03.263.218-.554.551-1.216.517-1.268.824-.323 2.222.274.396.128.62-.572.838-1.166.443-1.461.012-.589-.862l.637-.645-1.16-.024c-1.428-.008-2.122.3-.99.433.736.083.57.272-1.047 1.205-1.342.775-2.13 1-2.538.772-.57-.273-.604-.253-.344.198.24.416.172.456-.29.214-.406-.228-.544-.148-.57.283.003.322-.405.65-.947.824-.561.14-.865.407-.745.615.1.174.544.149.992-.11.55-.317.679-.253.455.154-.238.461-.198.53.28.485.425-.06.465.01.19.169-.221.173-.328.466-.228.64.48.832-.099 1.814-1.125 1.944-.582.105-1.428.547-1.953.989-.642.556-.869.64-.645.234.218-.496.09-.56-.616-.431-1.178.264-1.1-.475.087-.883.576-.194 1.081-.67 1.21-1.161.269-1.126.054-1.418-.577-.684-.284.303-1.08.993-1.762 1.48-1.207.928-1.764 1.712-.835 1.175.275-.159.697.015.917.396.22.382.366.714.332.734 0 0-.691.075-1.51.085-1.778.101-4.12 1.13-3.456 1.486.258.13.284.253.031.214-.232-.005-1.445.834-2.681 1.872-1.202 1.017-2.498 1.95-2.794 2.075-.295.124-.476.367-.376.54.1.174.593.075 1.164-.209.536-.263 1.485-.765 2.11-1.033.64-.323 1.047-.65.864-.73-.149-.099.175-.332.751-.526 1.03-.363 1.05-.328.025.679-.65.7-.757.992-.304.823.37-.074.805.044.985.356.22.382.487.367.923-.07.485-.511.648-.467.831.168.229.793.85.757.656-.055-.036-.303.121-.348.48-.045.412.316.374.57-.108.847-.344.2-.665.755-.692 1.186-.009.7-.078.739-.2.209-.123-.53-.355-.536-1.155.065-.6.393-1.282.88-1.538 1.073-.447.258-.407.327.22.381.594.074.614.109-.003.233-.404.095-1.255.448-1.84.786-1.018.541-1.073.526-.762-.208.17-.421.743-.938 1.285-1.112.556-.229.86-.497.72-.74-.12-.207.02-.52.33-.699.275-.159.313-.412.11-.526-.224-.148-.166-.366.143-.545.31-.179.348-.432.144-.546-.258-.128-.504-.078-.616.125a.426.426 0 0 1-.542.174c-.203-.114-.78.08-1.256.448-.51.387-.668.432-.384.129.25-.283.385-.685.285-.858-.26-.451-.668-.123-1.168.998-.296.68-.517.853-.628.501-.203-.67-3.454.375-3.67 1.194-.115.436.014.5.393.282.31-.179.734-.239.937-.125.183.08-.135.402-.76.67-.625.269-1.405.904-1.781 1.445-.356.575-.964 1.111-1.403 1.226-.507.154-.55.318-.198.53.386.194.303.288-.279.393-1.539.195-2.904 1.168-2.22 1.559.407.227.338.267-.24.139-1.05-.227-1.47.155-.52.53.565.184.625.288.25.273-.356.02-.488.19-.328.467.18.312.077.371-.384.129-.536-.292-.639-.232-.674.343-.032.342-.227.64-.425.615-.676.02-1.617 1.49-1.297 2.044.18.312.432.352.544.148.127-.258.02-.52-.202-.669-.278-.163-.23-.238.057-.218.608.02.893 1.15.342 1.467-.206.12-.215.263-.017.288.163.044.453-.17.614-.447.476-.923 1.013-1.186 1.107-.547.056.338-.064.685-.285.859-.206.119-.924.625-1.606 1.112-.732.56-1.205.695-1.221.427.037-.252.292-.446.559-.461.41-.006.39-.04-.12-.208-.674-.213-3.665 1.838-3.364 2.358.08.139-.047.397-.322.556-.379.218-2.158 3.096-2.018 3.339.02.034.35-.11.748-.294.399-.183.58-.427.356-.575-.238-.094-.146-.332.198-.53.379-.22.637-.09.78.474.137.476.4.694.675.535.241-.139.691-.075.975.178.377.336.314.465-.302.59-.439.114-1.004.487-1.193.874-.37.63-.296.68.481.277.502-.243 1.19-.64 1.514-.874.359-.253.59-.249.533-.03-.037.252-.783.868-1.609 1.345-.806.511-1.65 1.276-1.799 1.732-.295.68-.33.7-.192.065.234-1.106-.159-1.388-.676-.535-.258.427-.645.789-.877.784-.232-.005-.496.333-.557.784-.118.67-.03.665.745-.06l.858-.82-.489 1.3c-.261.66-.646 1.345-.818 1.444-.516.298-.6 1.503-.246 2.594.255.654.643.584 1.164-.21.912-1.36 1.208-2.039.508-1.265-.895 1.072-1.468.478-.747-.817.56-1.017.698-1.097.594-.482-.098.705-.058.774.28.486.221-.174.554-.551.715-.829.106-.292.484-.511.717-.506.266-.015.324-.234.163-.511-.2-.347.015-.61.778-.958.694-.308 1.047-.65 1.004-1.042-.057-.337.242-.694.626-.824.837-.298 1.796-2.054 1.26-2.346-.46-.243 1.065-1.494 1.61-1.346.272.075 1.135-.655 1.947-1.633.812-.977 1.788-1.91 2.192-2.005.384-.13.835-.62.978-1.166.13-.491.491-.977.772-1.047 1.02-.22 2.676-1.961 2.224-2.348-.393-.282-.255-.361.688-.397 1.298-.056 1.72-.438 1.26-1.236-.28-.485-.192-.49.55-.318.98.267 1.433.098 1.462-.567-.017-.267-.294-.43-.63-.376-.37.075-.75-.029-.85-.202-.12-.208.174-.332.673-.343 1.12-.046 1.43-.224.895-.516-.224-.149-.166-.367.11-.526.309-.179.45-.491.35-.665-.12-.208-.063-.426.109-.526.482-.278.842.902.491 1.567-.175.332-.192.62-.029.664.436.119 1.24-1.826.833-2.053-.387-.193 1.034-1.707 1.524-1.574.163.045.137.476-.102.938-.184.476-.21.907-.026.986.197.025.461-.313.556-.784.15-.456.423-.937.63-1.056.24-.14.149-.457-.23-.794-.472-.42-.483-.599.064-.684.39-.04.722.138.794.42.022.358.427.263 1.247-.303.682-.486 2.48-1.663 4.038-2.701 1.523-1.018 2.759-2.056 2.728-2.269-.072-.282.238-.461.88-.462 1.585-.036 5.878-2.931 6.21-4.186.143-.545.539-1.052.909-1.126.602-.07.642-.001.346.679-.267.57-.207.674.157.51.295-.124 1.353-.596 2.342-1.029 1.024-.452 2.033-.85 2.28-.9.246-.05.585-.337.76-.67.253-.515.213-.585-.195-.257-.869.64-1.396.76-1.576.448-.12-.208.15-.457.568-.606.418-.149.688-.397.568-.605-.28-.486-1.46.333-1.606 1.112-.098.704-1.228 1.45-1.916 1.291-.218-.06-.556-.327-.77-.619-.29-.342-.206-.436.244-.372.613.109 1.419-.403 3.478-2.24.422-.382.703-.452.72-.184-.01.7 2.857.34 3.981-.495.717-.506.824-.799.437-.992-.461-.242-1.393-.028-3.036.782-.192.064-.224-.149-.048-.481.19-.387.178-.566-.097-.407-.241.14-.485-.044-.542-.38-.022-.358.044-.72.25-.84.173-.098.287.02.304.288-.003.233.235.327.51.168.31-.179.45-.491.33-.7-.16-.277.032-.341.537-.263.667.124.747.262.523.67-.14.312.258.128.94-.359 1.14-.888 1.194-.874.998-.02-.23.872-.21.907.707.747.548-.084.995-.343 1.096-.725.23-.872.62-.913.86.06.157.51.346.678.506.4.092-.238.01-.699-.26-1.006-.248-.273-.538-.614-.618-.753-.094-.084-.458.08-.791.457-.588.57-.663.521-.544-.148.12-.903 1.827-2.397 2.363-2.105.183.08.023.357-.356.575-.413.239-.642.556-.522.765.1.173.682.068 1.232-.25 1.033-.596 1.637-.343 1.14.545-.16.277-.215.263-.217-.06-.003-.322-.172-.456-.378-.336-.207.119-.184.476.065.748.269.307.292.664.05.803-.206.12-.42.383-.478.6-.144.546.665-.198 1.064-.937 1.283-2.545 2.264-3.389 1.942-1.723-.104.615-.087.883.074.605.175-.332.413-.238.673.213.26.45.214.847-.164 1.066-.482.278-.557.228-.353-.213.224-.407.144-.546-.524-.669-.613-.108-.716-.049-.416.471.22.382.129.62-.241.695-.335.055-.737.472-.975.933-.204.549-.08.71.369.48.55-.317.625-.268.372.248-.35.665-1.276.413-1.252-.34.023-.199-.195-.258-.395-.05-.953.735-1.431.78-1.525.14-.089-.55-.226-.47-1.018.542-.494.655-.984 1.077-1.104.869-.1-.174-.422-.173-.731.005-.276.16-.333.378-.11.526.74.406 1.503 1.491 1.039 1.482-.252-.04-.33.144-.23.317.12.208.53.203.943-.036.448-.258.992-.11 1.633.445.96.787 1.404.762 4.214-.49.522-.209 1.055-.24 1.224-.106.209.204-.233.551-1.099.958-1.683.741-1.887 1.738-.334 1.488.582-.104 1.107.01 1.103.242-.035.575.925 1.363 1.338 1.124.137-.08.066-.362-.197-.58-.298-.198-.37-.48-.163-.6.447-.258.825.634.64 1.666-.118.67.002.877.586 1.095.367.158.69.48.673.768-.026.431.521.346 1.184-.175.138-.08.32 0 .441.208.12.208-.13.49-.534.585-.857.264-.652 1.81.273 2.063.381.104.356-.02-.062-.427-.391-.36-.32-.447.215-.263.476.188 1.152.168 1.496-.03.433-.204.361.068-.216.818-.981 1.399-1.153 1.498-1.138.888.023-.753-.62-.197-.76.67-.17.977.637 1.343 1.337.57.534-.586.554-.552.504.633-.052.863-.29 1.324-.784 1.424-.404.095-.751.526-.846.998-.127.813-.038.808.75.029.657-.611.85-.676.734-.24-.086.328-.447.814-.84 1.087-.379.219-.574.517-.39.596.148.099.096.406-.119.67-.347.431-.287.535.57.827.53.202 1.063.172 1.175-.031.126-.258.22-.174.189.168-.012.377-.199.53-.525.442-.762-.207-1.609.79-1.673 2.03-.041 1.04-.001 1.11.678.857.749-.294.734-.24.429 1.14-.181.798-.566 1.483-.902 1.538-.581.104-.395 2.494.204 2.657.198.025.19.168-.017.288-.172.099-.552.873-.822 1.676-.264.893-.276 1.27.008.967.416-.471.49-.422.447.297.013.5-.328 1.022-.678 1.131-.384.13-.731.561-.792 1.012-.17.977.408 2.216.91 1.973.206-.12.114.119-.199.53-.347.432-.45 1.047-.25 1.394.28.486.231.56-.21.352-.427-.262-.545-.148-.456.402.082.461-.113.76-.537.819-.424.06-.502.243-.293.447.244.183.214.847-.033 1.452s-.227 1.195-.004 1.344c.278.163.229.238-.058.218-.32 0-.473.135-.392.273.1.174-.084.65-.397 1.062-.327.466-.451 1.046-.29 1.324.16.277.084.783-.18 1.12-.264.338-.31.735-.107.849.204.113.246.505.111.907-.212.585-.316.645-.536.263-.22-.381-.29-.342-.29.214-.046.396.12.763.269.862.183.08.031.213-.304.268-.37.075-.57.283-.45.491.12.209-.056.54-.365.72-.517.298-.591.248-.304-.288.617-1.235-.166-.366-.984 1.077-.482.834-1.203 1.573-1.724 1.782-.508.154-.777.403-.594.482.203.114.042.391-.37.63-.482.278-.734.239-.722-.138.017-.288-.184-.08-.485.51-.529 1.231-1.742 2.07-1.724 1.227.032-.342-.057-.337-.232-.005-.224.407-.09.56.564.739.727.227.968.088 1.319-.577.525-.997.732-1.116.992-.665.1.173-.006.466-.282.625-.24.139-.513.62-.594 1.037-.09.56-.31.734-.972.7-.485-.044-.871-.237-.883-.416.024-.198-.125-.297-.332-.178-.206.12-.43-.03-.501-.312-.086-.228-.146-.332-.135-.153-.003.233-.218.496-.493.655-.31.178-.313.411-.055.54.278.163.106.263-.57.283-.82.011-.97-.088-.731-.55.238-.46.198-.53-.146-.331-.55.317-1.036 1.94-.736 2.46.12.208-.02.52-.33.7-.31.178-.706.684-.855 1.14-.15.457-.434.76-.652.7-.163-.044-.154-.188.12-.347.345-.199.265-.338-.374-.57-.584-.218-.645-.322-.215-.292.697.014 1.77-1.068 1.49-1.554-.281-.485-1.39.294-1.807 1.321-.184.476-.801 1.156-1.386 1.494-.55.318-1.202 1.017-1.386 1.494-.184.476-.551.873-.749.848-.232-.004-.27.248-.11.526.18.312.527.436.788.331.207-.119.184.08-.115.437-.278.392-1.055.794-1.686.973-.65.145-1.256.448-1.333.631-.112.204-.33.144-.47-.098-.215-.293-.318-.233-.387.362-.081.417-.343 1.076-.64 1.434-.431.526-.406.65.147.654.608.02.614.108.132.386-.344.2-.52.531-.4.74.1.173.299.198.39-.04.113-.204.394-.273.597-.16.238.094-.095.472-.715.83-.639.322-1.44.923-1.827 1.285-.436.437-.648.467-.65.145.017-.288-.146-.332-.361-.07-.215.263-.207.675.062.982.483.6.45.62-.981.844-1.253.215-1.469 1.033-.274 1.037 1.052-.007.694.247-.702.451-.582.105-1.276.413-1.491.676-.362.487-.287.536.45.62.736.083.707.192-.429.848-1.342.775-2.103 2-1.438 2.356.203.114.499-.01.625-.268.16-.278.212-.03.137.476-.075.506-.024.754.137.476.127-.258.476-.368.68-.254.332.178.042.392-.83.71-1.029.363-1.381.706-1.583 1.469-.144.546-.362 1.042-.465 1.101-.393.274-2.079 3.235-1.749 3.091.207-.119.175.223-.023.754-.184.476-.207.674-.012.377.21-.353.353-.343.34.034-.017.288-.232.551-.484.511-.267.015-.594.482-.718 1.062-.276 1.27.372 1.358 1.35.192.416-.471.711-.596 1.05-.328.526.435.32 1.11-.26.982-.51-.168-1.803.532-1.623.844.08.139-.19.387-.608.536-.453.169-.62.358-.361.487.223.148.131.386-.233.55-1.181.497-1.293.701-.526.997.585.218.645.322.266.54-.378.219-.338.288.235.327.75.029.716.049-.82 1.122-.649.467-.129 1.924.67 1.878.425-.06.273.074-.338.288-.768.259-1.032.596-1.007 1.275.014.501-.219 1.052-.563 1.251-.354.235-.26.396.28.485.791.098.763.208-.236 1.339-.617.68-.933 1.325-.784 1.424.184.079.235.327.109.585-.127.258-.055.54.182.634.204.114.448-.258.551-.873l.165-1.066.455.708c.275.397.312.699.08.695-.198-.025-.34.287-.262.659.103.496-.201.764-1.059 1.028-.734.238-1.092.492-.952.734.12.209.668.124 1.218-.194.585-.338 1.236-.482 1.514-.319.278.163.263.218-.058.218-.32 0-.682.487-.875 1.107-.192.62-.588 1.126-.924 1.181-.335.055-.482.278-.341.521.12.208.022.357-.244.372-.233-.005-.284.303-.064.684.3.52.518.58.865.148.299-.357.422-.382.41-.005-.024.753.507.401.771-.492.179-.565.233-.551.247-.05-.006.466.24.416 1.035-.274.594-.481.903-.66.688-.397-.669.987-.874 2.539-.373 3.407.26.451.285 1.13.096 1.517-.322.555-.27.803.32 1.11.555.327.695.569.566 1.06-.1.382-.37.631-.534.586-.435-.118-.658 1.721-.251 1.949.203.114.091.317-.253.516-.447.258-.421.382.163.6.401.138.825.078.952-.18.146-.223.22-.174.203.114-.015.61-1.015.864-2.316.597-.505-.079-.86-.058-.76.115.08.139.63.376 1.19.47.81.133 1.154.49 1.362 1.248.177.545.142 1.12-.079 1.294-.206.119.012.179.47.099.543-.067.653.178.332.733-.44.67-.402.972.253 1.473.433.351.748.817.704.981-.077.183.086.228.293.108.24-.139.333-.377.252-.516-.1-.173.37-.63 1.025-1.007 1.376-.795 1.464-.245.11.907-.946.824-1.417 1.836-.873 1.984.198.025.536-.263.795-.69.614-1.002 1.509-1.518 1.77-1.068.1.174-.136.402-.526.442-.404.095-.576.194-.338.288.218.059.383.426.317.788-.095.471.148.655.825.634 1.708-.061 5.328-2.613 5.446-3.838.075-.506.207-.675.45-.491.23.237.554.004 1.056-.795 1.318-2.009 2.623-3.642 3.174-3.96.31-.179.514-.62.457-.957-.023-.357.147-.779.387-.918.792-.457 1.616-2.366 1.1-2.624-.203-.114-.174-.223.113-.203.266-.015.811-.422 1.242-.948.694-.864.688-.953-.126-.853-.71.04-.676.02.161-.278 1.345-.452 2.365-3.215 1.239-3.259-.608-.019-.613-.108-.097-.406.31-.179.665-.199.785.009.1.173.372.248.579.128.206-.119.17-.421-.128-.619-.358-.302-.212-.526.605-.859.59-.248.964-.556.78-.635-.46-.243.37-2.063 1.126-2.5.516-.298.574-.516.196-.853-.358-.302-.326-.644.061-1.007.319-.322.528-.675.448-.813-.08-.139.29-.769.784-1.424.494-.655.864-1.285.784-1.424-.08-.139.09-.56.408-.883.318-.323.428-.848.267-1.126-.16-.277-.074-.604.167-.744.276-.158.577-.749.701-1.329.11-.526.308-1.056.465-1.101.798-.368.712-.596-.231-.56-.602.07-1.275-.143-1.539-.361-.283-.252-.126-.297.424-.06.55.238 1.063.173 1.362-.184.23-.318.51-.388.61-.214.321.555.826.078.706-.685-.062-.427-.191-.491-.4-.139-.19.387-.23.318-.127-.297.084-.65.004-.788-.42-.728-.281.069-.037-.303.517-.854 1.03-.918 1.788-2.466 1.507-2.951-.08-.139-.533.03-1.009.397-.51.388-.668.432-.384.13.25-.283.336-.611.133-.724-.184-.08-.132-.387.063-.685.215-.263.565-.372.769-.258.257.128.613.108.82-.011.24-.139.126-.258-.304-.287-.608-.02-.614-.109-.097-.407.344-.198.416-.471.212-.585-.223-.149-.131-.387.213-.585.379-.219.726-.651.826-1.032.101-.382.253-.516.353-.343.1.173.241-.139.296-.68.035-.575.483-1.388 1.023-1.885.828-.71.852-.908.259-1.537-.802-.832-.678-1.412.305-1.379.376.015.783-.313 1.041-.74.526-.996.17-1.532-.515-.812-.505.476-.58.427-.555-.327.006-.466.204-.996.445-1.136.826-.476 2.663-3.572 2.403-4.023-.24-.416-.06-.66.689-.953.103-.06.224-.407.215-.818-.008-.412.222-.73.488-.744.341.034.35-.11.067-.362-.318-.233-.232-.56.25-.838 2.136-1.465 3.034-2.215 2.796-2.309-.148-.099.342-.52 1.1-.958.908-.571 1.367-.65 1.37-.329-.032.343.249.273.768-.258.54-.496.8-.6.803-.279-.004.233.234.327.51.168.275-.158.519-.53.536-.818-.017-.268.425-.615.933-.77.753-.204.817-.333.364-.719-.507-.401-.458-.475.21-.352.593.074.957-.09 1.554-.805.518-.638.675-.606.47.099-.158.6-.431 1.081-.609 1.091-.198-.024-.31.179-.327.467-.018.842 2.63-1.01 2.971-2.086.4-1.294 1.318-2.01 1.718-1.316.16.278.177.546.04.625-.192.065-.536.263-.792.457-.427.293-.353.343.255.362.464.01 1.261-.359 1.84-.786 1.16-.854 2.349-.939 2.33-.096-.017.287.161.277.425-.06.284-.303.545-.407.645-.234.1.174.47.099.829-.154.358-.254.533-.586.29-.77-.244-.182.02-.52.66-.843.605-.303 1.118-.368 1.298-.055.16.277.461.242.849-.12.318-.323.771-.492.974-.378.204.114.166.367-.075.506-.22.173-.765.58-1.227.893-.462.313-1.038.507-1.316.344-.292-.109-.28.07.103.496.343.356.435.673.183.634-.233-.005-.29.213-.13.49.2.348.501.313.888-.05.319-.322.385-.684.107-.847-.297-.199-.229-.238.261-.105.416.084.918-.16 1.554-.805.485-.51 1.002-.809 1.17-.675.115.119.603-.07.99-.433.441-.347 1.106-.546 1.617-.378.796.188.836.257.354.535-.31.179-.43.526-.31.734.16.278-.052.308-.424.06-.407-.228-.9-.128-1.253.215-.387.362-.688.397-.848.12-.235-.328-.332-.179-.416.47-.099.705-.3.914-.804.835-.415-.084-.76.114-.969.467-.287.535-.192.62.598.718.594.074.986.356 1.069.817.082.461.286.575.664.356.482-.278.522-.208.197.58-.232.55-.201.764.129.62.344-.199.464.01.383.981-.03.665.159 1.388.402 1.572.21.203.254.917.033 1.646-.207.674-.276 1.27-.168 1.299.273.074 1.306-1.633 1.355-2.262.032-.343.156-.367.276-.16.12.209-.007 1.022-.332 1.81-.27.804-.337 1.721-.19 2.054.22.381.084.783-.329 1.021-.86.497-.68.81.452.942.54.088.634.25.28.486-.344.198-.61.769-.631 1.29-.02.52-.22 1.05-.46 1.19-.241.139-.367.397-.247.605.1.173-.093.793-.449 1.369-.37.63-.402.972-.127.813.413-.238.439-.115.117.441-.21.352-.582.66-.814.655-.267.016-.456.402-.483.834-.023.754-.058.774-.186.154-.097-.407-.366-.714-.598-.719-.41.006-.347.432.088 1.106.06.104-.47.457-1.16.854-.707.363-1.316.899-1.319 1.132-.003.233-.488.744-1.053 1.117-.599.392-1 .809-.92.947.1.174-.012.377-.219.496-.172.1-.34-.034-.343-.356-.003-.322-.057-.337-.253-.04-.126.258-.069.595.134.709.238.094-.026.432-.556.784-.63.394-.505.477.372.248.774-.17 1.422-.081 1.676.281.28.485.35.446.281-.07-.085-.783.893-1.394 1.764-1.157.544.148.556.327.16.833-.264.337-.546.962-.627 1.379-.063.684-.201.764-.82.566-.619-.198-.639-.233-.071-.283.355-.02.206-.119-.298-.198-.559-.093-1.215-.038-1.456.101-.241.139-.464-.01-.541-.381-.023-.357-.266-.54-.507-.401-.207.119-.195.297.028.446.223.148.106.262-.23.317-.37.075-.59.249-.47.457.12.208.796.188 1.496-.031 1.084-.348 1.158-.299.693.247-.381.451-.889.606-1.63.433-.6-.163-1.147-.078-1.17.12-.078.184-.221.174-.341-.034-.14-.243-.757-.118-1.445.279-.688.397-1.124.834-1.004 1.042.1.174.51.168.888-.05.379-.219.789-.224.909-.016.1.173-.095.471-.425.615-.364.164-.89.606-1.153.943-.244.372-.818.889-1.265 1.147-.428.293-.795.69-.852.908-.058.218-.574.516-1.096.725-.542.174-.694.308-.338.288.335-.055.948.054 1.37.227.386.193 1.18.058 1.75-.225.792-.457 1.05-.884.98-1.722-.097-.961-.013-1.056.39-.595.344.357.822.312 1.58-.126 2.34-1.351 3.56-1.778 3.919-1.476.243.183.142.565-.202.764-2.225 1.469-2.73 1.946-2.991 2.606-.17.421-.047.952.162 1.155.338.267.294.431-.287.536-.44.114-.778.402-.795.69-.003.233-.282.625-.611.769-.482.278-.522.208-.057-.337.41-.561.301-.591-.762-.208-1.38.473-2.788 1.609-2.527 2.06.2.347-.376.541-1.881.716-.938.125-.822-.311.187-.709.137-.079.2-.208.12-.347-.1-.174.612-.769 1.54-1.306.944-.591 1.741-.958 1.822-.82.16.278 2.121-.855 2.216-1.326.13-.491-1.481-.023-3.31.941-.743.382-1.374.561-1.351.363-.028-.446-1.732.815-2.117 1.5-.16.277-.897.749-1.68 1.062-.769.259-1.554.805-1.71 1.172-.218.496-.06.451.597-.159l.892-.839-.317 1.2c-.192.62-.474 1.245-.611 1.325-.118.114-.68.809-1.237 1.593-.85 1.23-.858 1.374-.07 1.15.473-.134.854-.031.837.257.022.357-.253.516-.84.531-.91.016-1.802.855-1.854 1.718-.032.342-.135.401-.315.089-.34-.589-.817-.222-1.09.814-.15.457-.428.849-.715.829-.266.015-.22.174.043.392.412.317.286.575-.368.952-.826.477-.82.566-.15 1.012.63.376.676.535.194.813-.447.258-.422.382.163.599 1.005.391.415.64-.832.388-.816-.222-.954-.143-.645.234.773.941.841 1.457.205 1.546-.335.055-.516.299-.376.541.14.243.05.804-.188 1.265-.272.481-.279.947-.02 1.076.223.148.156.51-.162.833-.319.323-.571.838-.514 1.176.14.798 1.289.643 1.573-.215.204-.442.485-.511 1.213-.284.53.203.854.525.742.728-.127.258-.325.233-.465-.009-.16-.278-.283-.253-.447.258-.155.367-.425.615-.643.556-.217-.06-.137.079.2.347.284.252.823.311 1.133.132.412-.238.745-.06 1.13.688.321.555.493 1.011.364.947-.109-.03-.339.288-.474.69-.247.605-.301.59-.315.089.046-.396-.14-.243-.54.497-.505 1.031-.66 1.954-.15 1.011.512-.942.602.486.153 1.854-.324.789-.382 1.563-.199 1.642.203.114.255.361.128.619-.413.794.197 1.136.888.505.402-.417.49-.344.264.218-.219.496-.25.838-.113.759.172-.099.258.129.206.436-.09 1.116.552 1.67 1.506 1.258.729-.328.777-.403.204-.442-.395-.049-.599-.163-.426-.262.172-.099-.017-.268-.364-.391-.788-.332-.678-.857.27-1.359.64-.323.66-.288.043.391-.401.417-.528.675-.301.591.728-.328 1.627.91 1.228 1.65-.356.575-.336.61.234.327.344-.199.631-.18.593.073a.454.454 0 0 0 .439.441c.232.005.358-.253.321-.555-.12-.764 1.89-1.971 2.974-1.764.45.064 1.37-.328 2.308-1.008 1.282-.879 1.511-1.197 1.094-1.603-.364-.391-.198-.58 1.136-1.211 1.21-.606 1.445-.834 1.087-1.137-.358-.302-.192-.49.729-.883 1.456-.656 3.502-2.993 3.024-3.503-.154-.189-.111-.352.175-.333.233.005.413-.238.376-.541-.037-.302.34-.843.904-1.215.993-.666 2.858-3.315 2.882-4.069.023-.198.612-1.324 1.398-2.426.732-1.116 1.252-2.202 1.152-2.376-.1-.173.06-.451.336-.61.275-.159.436-.437.316-.645-.1-.173.21-.908.683-1.597.474-.69.701-1.33.498-1.444-.204-.113-.043-.391.37-.63.379-.218.783-.868.873-1.428.123-.581.39-1.151.632-1.29.24-.139.347-.432.227-.64-.1-.173.244-.927.772-1.602.626-.824.74-1.26.366-1.275-.717-.049-.467-.887.644-2.222.611-.769.614-1.002.038-1.363-.521-.347-.567-.506-.05-.804.344-.198.63-.179.627.054-.003.233.218.06.511-.387.238-.461.442-.903.382-1.007-.06-.104-.247.05-.373.308-.161.278-.149-.099.038-.808.273-1.037.724-1.528 1.894-2.204 1.878-1.038 5.352-3.922 4.862-4.055-.198-.025-.803.278-1.348.685-.579.427-.874.552-.694.308.147-.223.144-.545-.094-.639-.481-.277-.254-.362 1.6-.646 2.368-.35 3.79-.986 4.095-1.809.212-.585.267-.571.261-.105-.007.466.206.437.868-.085 1.83-1.519 2.227-2.58.92-2.38-.336.054-.669.431-.715.828-.081.417-.339.843-.545.963-.207.119-.117-.442.153-1.245.304-.823.345-1.31.05-1.185-.276.159-.453.169-.445.025.064-.129.935-.447 2.025-.706 1.054-.24 2.049-.582 2.236-.736.186-.154.527-.12.716.049.507.4-.038.808-1.213.839-.588.015-.774.17-.726.65.109.585 1.006.39 1.938-.379.78-.635.975-.933 1.128-1.622.115-.437.178-.566.195-.298.048.481 1.235.629 1.725.207.104-.06.817-.333 1.606-.557 1.344-.453 1.749-1.103.6-.948-.424.06-.465-.01-.155-.188.221-.174.204-.442-.059-.66-.264-.217-.375-.57-.249-.827.161-.278.296-.124.378.337.134.708.169.688.488-.19.497-1.443 5.377-3.798 5.347-2.578.011.178-.41.56-.892.839-.447.258-.817.333-.848.12.023-.199-.166-.367-.453-.387-.232-.004-.384.13-.284.303.1.173-.207.675-.717 1.062-.663.521-.944.59-1.007.164-.042-.391-.22-.381-.518-.024-.25.283-.227.64.03.769.224.148.175.223-.112.203-.321 0-.453.17-.352.343.12.208.495.222.839.023.344-.198.946-.268 1.307-.2.599.164.614.11.187-.153-.427-.262-.398-.371.149-.456.425-.06 1.138-.334 1.586-.592.516-.298.946-.269 1.146.078.24.416.521.347 1.213-.284.774-.724.952-.734 1.292-.145.221.382.255.917.108 1.14-.161.278.011.179.419-.149.387-.362 1.135-.655 1.634-.666.676-.02.995-.343 1.446-1.39.31-.734.789-1.334 1.09-1.37.281-.069.229.239-.138.636s-.482.833-.239 1.016c.264.218.252.595.037.858-.695.863 1.018 1.447 1.931.643.525-.442.771-.492.759-.115-.017.288.22.381.53.203.413-.239.416-.472.058-.774-.432-.352-.349-.446.219-.496.424-.06 1.33-.398 2.038-.76.86-.497 1.285-.557 1.342-.22.037.302-.153.69-.428.848-.276.16-.353.343-.15.457.149.098-.327.466-1.09.814-1.127.511-1.376.794-1.345 1.563.03.768.09.872.403.46.646-.788 2.296-.632 2.476.236.128.62.292.664.782.242.339-.288.838-.854 1.028-1.24.256-.457.16-.57-.29-.342-.639.323-2.877.181-3.097-.2-.06-.104.249-.283.688-.398.438-.114.785.01.782.243-.018.287.298.197.705-.13.407-.328 1.038-.507 1.35-.364.401.139.697.015.921-.392.272-.481.172-.655-.372-.803-.925-.252-.997-.534-.171-1.011.482-.278.754-.204.911.306.209.759.776.708.78-.08-.017-.268.178-.565.384-.684.62-.358-.145 1.656-1.083 2.891-.689.953-.712 1.151-.107 1.404.638.232.624.286-.23.317-1.373.006-1.711.294-.525.442.623.072.712.252.266.54-.516.298-.545.407-.026.431.805.044.397.927-.402.973-.321 0-.118.114.386.193.559.093 1.244-.071 1.508-.408.353-.343.62-.358.82-.011.18.312.197.58.059.66-.974.377-1.124.833-.241.694.76-.115 1.049-.329 1.041-.74.026-.432.247-.606.766-.581.894.038 1.323.623.704.98-.895.517.188 1.28 1.306.912 1.049-.329 1.104-.314.332.178l-.82.566 1.141-.011c1.372-.006 2.445-.533 2.144-1.053-.1-.174-.298-.198-.389.04-.112.203-.393.273-.597.159-.535-.292.666-1.31 1.32-1.132.435.119.538.06.358-.253-.14-.243.001-.555.276-.714.551-.318.345-1.31-.744-3.594-.618-1.309-.861-1.492-1.541-1.238-.512.172-.529.09-.051-.248.909-.571.723-.973-.738-1.517-1.135-.455-2.706.082-2.793.965-.017.288-.235.228-.435-.118-.22-.382-.111-.908.208-1.23.318-.323.384-.685.127-.814-.224-.148-.175-.222.146-.223.286.02.55.238.547.47-.038.254.18.313.49.134.275-.159.782-.313 1.152-.388.37-.075.571-.283.451-.491-.12-.208-.461-.243-.771-.064-.275.16-.513.065-.51-.168-.017-.268.419-.704.901-.982.516-.298.786-.547.657-.611-.272-.074-5.921 2.54-7.779 3.612-.929.537-1.093.492-1.416-.385-.328-.966-.147-1.765.472-2.122.227-.085.169.133-.055.54-.189.387-.215.818-.012.932.238.094.519.025.631-.179.092-.238.433-.204.716.049.467.332.556.327.576-.194.041-.486.09-.56.31-.179.14.243.372.248.484.044.127-.258.075-.505-.128-.62-.387-.192 1.185-.73 1.941-.611.287.02 1.129-.19 1.932-.468 1.153-.388 1.353-.597 1.113-1.013-.16-.277-.337-.822-.394-1.16-.097-.406-.464-.564-1.08-.44l-.932.214.68-.808.646-.79-1.519-.325c-.96-.232-1.386-.495-1.171-.757.215-.263-.286-.575-1.449-.921-1-.302-1.774-.688-1.716-.906.077-.183-.301-.52-.845-.668-.51-.169-.773-.386-.601-.486.172-.099-.209-.203-.803-.276-.573-.04-1.068-.262-1.045-.46-.031-.214-.696-.57-1.533-.827a46.976 46.976 0 0 1-3.119-1.112c-1.338-.57-1.659-.569-1.852.051-.218.496-.405.65-.737.472-.258-.129-.303-.287-.111-.352.748-.293.751-.526-.011-.734-.436-.118-.92-.163-1.058-.083-.137.08-.963 0-1.834-.236-1.048-.227-1.527-.182-1.47.155.12.763-.712 1.151-1.333.631-.453-.386-.438-.44.229-.318.559.094.697.015.537-.263-.261-.45-1.998-.28-2.305.22-.097.15.008.412.212.526.237.094.042.392-.385.685-.447.258-1.096.725-1.523 1.018-.51.387-.743.382-.84-.024-.099-.73-1.18-.614-1.579.125-.141.313-.626.824-1.067 1.171-.462.313-1.001.81-1.196 1.107-.216.263-.692.63-1.09.814-.419.15-.511.388-.253.516.719.372-.084.65-.961.324-.401-.139-.982-.034-1.287.234-.284.303-.668.432-.871.318-.516-.257-1.323 1.365-.87 1.751.243.184.117.441-.213.586-.35.11-.78.08-.969-.089-.209-.203-.567.05-1.144.8-.479.6-.89 1.16-.973 1.255-.083.094-.645.234-1.281.324-.883.14-1.104.313-.944.59.12.209.057.338-.16.279-.218-.06-.576-.362-.736-.64-.181-.311-.567-.504-.903-.45-.315.09-.378.219-.175.333.204.114.077.372-.267.57-.344.199-.671.11-.708-.192-.037-.303.153-.69.428-.849.31-.178.327-.466.01-.699-.264-.218-.335-.5-.129-.62.172-.099.523-.763.744-1.493.351-1.22.325-1.344-.431-1.462-.702-.103-.84-.024-.881.462.023.357-.247.605-.533.586-.321 0-.64.323-.795.69-.184.476-.336.61-.476.367-.12-.208.029-.664.382-1.007.382-.451.394-.828.03-1.22-.303-.287-.34-.59-.079-.693.226-.085.184-.477-.146-.888-.369-.48-.448-1.174-.221-1.814.212-.586.173-1.21-.065-1.304-.427-.263-.108-.585 1.225-1.216.605-.303.663-.521.305-.824-.284-.252-.355-.535-.114-.674.206-.119.175-.332-.028-.446-.224-.148-.235-.327-.029-.446.207-.12.176-.332-.082-.461-.224-.149-.697-.014-.981.288-.72.74-.766.581-.343-.912l.317-1.2-.981.844c-.54.496-1.076.76-1.19.641-.08-.139-.41-.55-.773-.941-.404-.461-.406-.783-.062-.982.275-.159.582-.105.667.123.072.283.645.322 1.261.197.877-.229.995-.343.52-.53-.347-.124-.596-.397-.519-.58.024-.199-.38-.66-.901-1.006-.854-.525-.954-.698-.681-1.18.238-.46.04-.485-.717-.048-.949.502-1.003.487-.475-.188.674-.898.429-2.514-.465-2.553-.32 0-.685.164-.831.388-.092.238-.187.154-.19-.169.012-.377-.136-.476-.372-.247-.255.193-.84.531-1.362.74-.811.422-.831.387-.352-.213.278-.392.774-.725 1.055-.794.267-.016.413-.239.293-.447a.443.443 0 0 0-.599-.163c-.206.12-.45-.064-.472-.42-.057-.338-.435-.675-.816-.779-.381-.103-.76-.44-.816-.777-.057-.337-.22-.382-.347-.124-.146.224-.407.328-.665.2-.203-.114-.166-.367.11-.526.31-.18.47-.457.35-.665-.22-.382-2.378-.94-2.79-.701-.139.08-.496-.223-.777-.709-.36-.624-.801-.832-1.561-.717-1.184.175-1.61-.087-.521-.346.37-.075.037-.253-.848-.436-.831-.168-1.828-.147-2.138.032-.31.179-.788.224-.992.11-.223-.148-.235-.327-.028-.446.206-.12.175-.332-.028-.446-.61-.342-1.686.418-1.91 1.38-.144.546-.33.7-.47.457-.141-.243-.442-.208-.657.055-.195.298-.545.407-.749.293-.386-.193.099-.704 1.22-1.305.26-.104.298-.357.09-.56-.19-.169-1.24.16-2.415.746-1.155.62-2.293.954-2.606.81-.46-.242-.473.135-.009.7.1.173.022.357-.15.456-.206.12-.444.025-.564-.183-.16-.277-.347-.123-.545.407-.198.53-.301.59-.304.268.032-.342-.34-.59-.894-.594-.484-.044-.965-.321-1.002-.623-.037-.303-.26-.451-.467-.332-.344.198-.256.749.228 1.348.08.139-.106.293-.442.348-.478.045-.613-.109-.658-.823-.045-.714-.105-.818-.295-.43-.175.332-.318.322-.395-.05-.057-.337.135-.957.428-1.404.942-1.468.922-2.058.019-1.398-.476.368-.846.442-.823.244.003-.233.336-.61.75-.849.412-.238.926-.858 1.11-1.334.339-.844.319-.878-.807-1.477-.848-.436-.963-.554-.424-.495.416.083.8-.046.857-.264.058-.218.253-.516.425-.615.152-.134.442-.348.594-.482.206-.12.144-.545-.096-.962-.24-.416-.499-.545-.64-.232-.16.278-.324.233-.38-.104-.057-.337.18-.798.588-1.126.697-.541 2.215-2.759 1.7-2.46-.138.079-.27-.308-.324-.878-.036-.858-.056-.893-.289-.342-.339.843-1.598 2.08-1.563 1.504.003-.233.198-.53.473-.69.448-.258.326-1.9-.164-2.032-.163-.045-.148-.655.004-1.344.162-.833.426-1.17.821-1.122.396.05.562-.139.5-.565-.058-.337-.3-.52-.562-.416-.24.139-.183-.08.095-.471.46-.635.405-.65-.42-.173-.572.283-1.085.348-1.205.14-.1-.174.032-.343.299-.358.252.04.559-.461.683-1.041.104-.615.44-1.226.68-1.365.365-.164.39-.04.118.441-.483.834-.246 1.483.443 1.086.24-.14.482-.834.546-1.518.038-.808-.048-1.036-.223-.704-.195.298-.238-.094-.09-.872.207-1.785.061-2.117-1.048-1.893-.848.12-.868.085-.658-.823.164-.51.115-.991-.082-1.016-.381-.104-.214-1.403.2-1.641.171-.1.469.098.684.39.3.521.369.481.235-.228-.048-.48.081-.971.356-1.13.241-.14.356-.576.205-.997-.117-.441-.32-.555-.481-.277-.127.258-.359.253-.533.03-.14-.243-.198-.025-.13.49.088.551-.021 1.077-.227 1.196-.448.258-.788-.331-.501-.867.126-.258.075-.506-.129-.62-.203-.114-.254-.361-.142-.565.112-.203-.06-.66-.383-.981-.324-.322-.435-.674-.297-.753.172-.1.123-.58-.157-1.066-.246-.506-.317-1.344-.138-1.91.163-.51.2-.763.06-.45-.126.258-.585.337-1.06.15-.456-.154-.59-.307-.27-.308.786.01.724-.972-.073-1.16-.415-.084-.504-.079-.26.105.223.148.22.381-.021.52-.276.16-.534.03-.59-.307-.037-.302.152-.689.427-.848.31-.179.279-.392-.019-.59-.332-.178-.263-.218.35-.11.45.065.822.312.819.545-.003.233.215.293.49.134.86-.497-.385-1.86-1.34-1.447-1.167.443-1.601-.787-.514-1.368.845-.442.812-.977-.057-.892-.444.025-.484-.044-.24-.416.376-.541.05-1.185-.406-.783-.167.188-.562.139-.791-.099-.304-.287-.29-.342.077-.183.367.158.628.054.832-.388.273-.481.178-.565-.541-.381-.966.234-1.98-.568-1.764-1.387.158-.6-.633-1.253-.905-.772-.098.149-.542.174-.998.02-.727-.227-.713-.281-.077-.371.459-.08.605-.303.405-.65-.16-.277-.378-.337-.524-.114-.112.204-.404.095-.625-.286-.24-.417-.572-.595-.759-.44-.166.188-.673-.213-1.122-.833-.51-.723-1.18-1.169-1.808-1.223-.553-.004-1.103-.241-1.263-.519-.46-.798-2.865-1.306-3.794-.77-.481.279-1.098.403-1.301.29-.224-.15-.579-.129-.751-.03-.206.12-.195.298.008.412.238.094.037.302-.401.417-.789.224-1.66-.569-1.005-.946.206-.12.444-.025.564.183.16.277.298.198.447-.259.184-.476.445-.58.97-.467.395.05.28-.07-.284-.252-.748-.262-1.295-.177-2.012.33-.51.386-.93.536-.926.302.003-.233-.26-.45-.547-.47-.356.02-.37.075-.092.238.61.342.128.62-1.411.815-1.361.185-1.608.234-2.233.503-.364.164-.404.094-.2-.347.21-.352-.195-.258-1.124.279-.998.576-1.248.859-.783.868Zm1.564.484c.12.209.057.337-.14.313-.545-.148-1.322 2.798-.806 3.055.257.129-.081.417-.864.73-1.428.547-2.05 1.137-1.77 1.623.12.208.298.198.376.014.112-.203.61-.214 1.106.01.856.29.897.36.5.866-.25.283-.599.393-.768.259-.189-.168-.702-.104-1.184.175-.585.337-.676.575-.319.878.318.232.3.52-.043.718-.31.18-.631.18-.731.006-.12-.208-.69.075-1.354.597l-1.118.923.302-1.146c.158-.6.695-1.418 1.206-1.806.51-.387.768-.814.574-1.071-.19-.169-.034-.536.31-.734.379-.219.691-.63.694-.864.035-.575.05-.63-1.502 1.053-1.269 1.38-3.015 2.249-3.68 1.893-.183-.08.121-.348.663-.522.686-.242.668-.54-.056-.892-.868-.47-.963-.554-.435-.674.355-.02.736.084.877.326.12.209.252.04.264-.337.014-.61.103-.615.384-.13.26.452.636.466 1.393.03.585-.339.932-.77.832-.944-.14-.243.155-.367.811-.422 1.728-.027 2.75-.801 3.215-2.458.5-1.676.882-2.128 1.263-1.469Zm2.996-1.406c.33-.144.671-.11.777.153.117.441.295.431 1.545-.106.295-.124.355-.02.117.442-.224.406-.608.536-1.187.407-.416-.084-1.038-.048-1.313.11-.413.24-.373.309.18.313.465.01.146.332-.92.948-.895.516-1.698.795-1.798.621-.12-.208-.347-.123-.493.1-.161.278-.172.1.012-.377.184-.476.688-.952 1.161-1.087.542-.174.674-.342.396-.506-.257-.128-.18-.312.204-.441.384-.13.975-.378 1.32-.577Zm-21.7 15.581c.114.674-.405 1.205-.685.72-.22-.382-.062-.982.282-1.18.172-.1.347.123.404.46ZM46.567 5.31c.06.104.022.357-.124.58-.112.204-.324.234-.424.06-.12-.208-.049-.48.123-.58.207-.119.385-.129.425-.06ZM30.52 15.268c.204.114.31.376.198.58-.112.203-.33.144-.49-.134-.34-.59-.278-.718.293-.446Zm6.507-3.433c.435.119.59.307.398.371-.748.294-1.165.765-.798.924.814.455-3.658 3.915-4.796 3.693-.415-.084-.765.026-.842.21-.023.198-.496.332-1.03.362-1.284.002-1.593.18-2.345 1.262-.503.799-.695.864-.915.482-.14-.243.02-.52.376-.54.37-.076.467-.224.21-.353-.258-.129-.28-.486-.031-.768.778-.958 2.013-1.44 2.54-1.005.338.268.762.208 1.115-.135.319-.322.6-.392.562-.14-.006.467.117.442 1.602-.323 1.176-.586.712-1.151-.638-.788-.774.17-.725.095.327-.466.689-.397 1.285-.557 1.296-.378-.024.753 1.683-.74 1.859-1.628.262-1.215.193-1.176 1.11-.78Zm8.947-5.166c.04.07-.23.318-.643.556-.378.219-.7.22-.682-.068.012-.377 1.145-.8 1.325-.488Zm1.41.852c.744.495.73.55.07.282-.53-.202-1.16-.023-1.912.503-1.006.72-1.06.705-.444.025 1.096-1.28 1.446-1.39 2.285-.81Zm1.48-1.41c-.176.333-.454.725-.66.844-.173.1-.204-.114-.029-.446.175-.333.488-.745.66-.844.207-.12.203.114.028.446Zm4.648-2.36c-.264.338-.204.442.225.471.287.02.072.283-.533.586-.984.521-1.038.507-.762-.208.19-.387.585-.893.88-1.017.413-.238.488-.189.19.168ZM17.887 25.013c-.094-.639.815-1.21 1.116-.69.1.174.002.322-.264.338-.233-.005-.385.129-.285.302.3.52 1.494.202 2.18-.518.484-.51.573-.516.45.064-.145.546-.607.859-2.198 1.361-1.66.542-2.018.796-2.039 1.316.023.357-.476.923-1.116 1.246-.62.358-.955.412-.774.17.167-.19.164-.512-.02-.59-.203-.115-.254-.363-.128-.62.112-.204.305-.268.425-.06.12.208.4.138.616-.125.195-.298.247-.605.064-.684-.556-.327.293-1.002 1.222-.983.642 0 .848-.12.751-.526Zm5.549-3.342c.1.173-.135.402-.574.516-.404.095-.757.437-.74.705-.03.665-.614 1.002-.895.517-.1-.174.032-.342.264-.338.267-.015.365-.164.265-.337-.12-.208.158-.6.64-.879.481-.278.94-.357 1.04-.184Zm-3.049 2.269c-.003.233-.144.545-.35.665-.172.1-.41.005-.51-.168-.12-.209.04-.486.35-.665.276-.159.493-.1.51.168Zm24.518-13.878c.453.386.438.44-.23.318-.865-.148-1.054-.317-.606-.575.172-.1.553.004.836.257Zm13.057-7.584c.338.267.266.54-.182.798-.378.218-.788.224-.908.016-.1-.174.032-.342.264-.338.266-.015.364-.164.264-.337-.32-.555-.02-.59.562-.14Zm-25.6 15.103c.278.164.229.238-.058.219-.32 0-.722.417-.975.933-.422.937-1.604 1.434-1.614.7.023-.198.293-.446.648-.466.335-.055.536-.264.436-.437-.26-.451 1.027-1.24 1.563-.949ZM13.609 29.287c.1.173-.026.431-.267.57-.24.14-.683 1.042-.996 2.01-.55 1.75-.53 1.785.388 1.625 1.218-.194 1.264-.036.088.55-.57.284-1.23.572-1.47.711-.296.124-.554-.004-.59-.307-.052-.248.192-.62.576-.75.35-.108.462-.312.258-.426a.429.429 0 0 1-.094-.64c.181-.242-.229-.237-.894-.038-1.241.393-2.023.15-1.128-.366.24-.139.834-.62 1.325-1.042.572-.546.746-.509.524.113-.319.878-.299.913.131.387.284-.303.672-.665.844-.765.172-.099.13-.49-.071-.838-.28-.485-.188-.723.408-.882.438-.115.868-.086.969.088Zm27.022-15.185c.519.024.579.129.269.307-.24.14-.264.338-.04.486.61.342-.38.774-2.028.94-1.278.09-1.333.075-.441-.208.576-.194 1.052-.562 1.035-.83.035-.575.31-.734 1.205-.695ZM29.699 20.6c.06.104.023.357-.124.58-.112.203-.324.233-.424.06-.12-.208-.048-.481.124-.58.207-.12.384-.13.424-.06Zm2.53-1.183c.572.04.578.128-.041.486-.448.258-.892.284-.992.11-.26-.45.118-.67 1.032-.596Zm-15.114 9.743c.226-.084.513-.065.613.109.16.277-1.54 1.305-2.802 1.664-1.33.398-1.08-.44.328-1.022.748-.293 1.6-.646 1.86-.75ZM61.19 3.62c.1.174.028.447-.179.566-.172.1-.34-.034-.338-.267-.017-.268.075-.506.179-.566.068-.04.217.06.337.268ZM19.112 28.885c-.038.253-.233.551-.46.636-.31.178-.315.09-.085-.228.166-.189.109-.526-.094-.64-.278-.163-.23-.238.092-.238.286.02.55.237.547.47Zm1.571-1.092c-.2.209-.614.447-.86.497-.301.035-.169-.134.313-.412.482-.278.694-.308.547-.085ZM6.771 37.628c.057.337.246.506.418.407a.4.4 0 0 0 .144-.546.4.4 0 0 1 .144-.545c.207-.12.484.044.645.321.16.278.06.66-.216.818-.275.16-.436.437-.336.61.2.348-2.854 1.972-3.398 1.824-.544-.149-.113-1.23.741-1.816.428-.293.617-.68.463-.868-.155-.188.026-.431.499-.566.473-.134.84.024.896.361Zm8.581-5.879c-.043.164-.332.377-.633.412-.336.055-.293-.108.086-.327.358-.253.625-.268.547-.085ZM56.015 9.198c-.044.163-.333.377-.634.412-.336.055-.292-.109.086-.327.359-.254.625-.269.548-.085Zm1.592.93c.06.104-.166.189-.433.204-.32 0-.117.114.387.193.756.118.87.237.492.456-.653.377-1.742.08-2.083-.509-.22-.381-.048-.48.629-.501.498-.01.948.053 1.008.157Zm-45.383 25.74c-.043.163-.333.377-.633.412-.336.055-.293-.109.086-.328.358-.253.625-.268.547-.084Zm49.41-28.064c.188.168.116.441-.193.62a.614.614 0 0 1-.817-.223c-.3-.52.517-.853 1.01-.397Zm1.284 1.987c.28.485.329.966.122 1.085-.172.1-.34-.034-.338-.267-.017-.268-.166-.367-.372-.248-.24.14-.307-.054-.232-.56.205-.996.24-1.016.82-.01Zm1.247.251c.263.218.309.377.042.392a.762.762 0 0 1-.664-.356c-.28-.486.02-.52.622-.036Zm-2.875 2.492c.22.382-.353.898-.74.705-.203-.114-.166-.367.11-.526.31-.178.59-.248.63-.179Zm4.206-.901c-.201.208-.683.486-1.033.596-.404.094-.237-.094.313-.412.585-.338.866-.408.72-.184Zm2.365-1.227c.1.173.028.446-.178.565-.172.1-.341-.034-.338-.268-.017-.267.075-.505.178-.565.07-.04.218.06.338.268Zm-3.385 2.879c.1.173.132.386.063.426-.103.06-.375-.014-.579-.128-.223-.149-.234-.327-.062-.427.206-.119.458-.08.578.129Zm2.439 3.587c.209.203.137.476-.173.654a.63.63 0 0 1-.871-.237c-.34-.59.477-.922 1.044-.417Zm.367 13.986c.24.417-.414.794-.792.457-.318-.232-.275-.396.15-.456.3-.035.622-.035.642 0Zm6.19-2.787c.08.138.023.357-.15.456-.206.12-.493.1-.676.02-.203-.113-.146-.332.13-.49.275-.16.596-.16.696.014Zm-6.17 11.563c.04.07-.165.511-.457.958-.537.818-.557.784-.218-.06.382-1.006.514-1.175.674-.898Zm-2.569 3.102c.203.114.235.327.063.426-.207.12-.479.045-.58-.128-.12-.208-.13-.387-.062-.426.103-.06.356-.02.58.128Zm1.884 7.237c.258.129.112.352-.341.52-1.078.438-1.683.186-.788-.33.378-.22.926-.304 1.13-.19Zm4.953 5.002c.1.174.029.447-.178.566-.172.1-.341-.034-.338-.267-.017-.268.075-.506.178-.566.07-.04.218.06.338.267Zm-12.724 7.763c.543-.067.604.145.183.635-.45.49-.835.62-1.222.427-.515-.257-.598-.163-.633.412-.012.377-.144.546-.264.338-.48-.833.294-1.557 1.936-1.812Zm14.157-7.665c.1.174.028.446-.178.566-.172.099-.341-.035-.338-.268-.017-.268.075-.506.178-.565.07-.04.218.06.338.267Zm-1.15 1.266c.475.188.52.346.211.525a.546.546 0 0 1-.762-.207c-.14-.243-.226-.471-.192-.491.07-.04.396.05.743.173Zm-13.886 8.85c-.038.252-.354.897-.736 1.349-.562.694-.55.873-.032.897.573.04.579.128.063.426-.379.219-1.124.28-1.703.15-.974-.177-1.008-.157-.462.314.473.42.375.57-.703 1.007-.694.308-1.482.532-1.768.512-.84-.023-.51-.723.623-1.145.59-.249 1.115-.69 1.098-.959.032-.342.376-.54 1.081-.67.76-.115 1.256-.447 1.69-1.207.795-1.245.843-1.32.849-.675Zm17.458-9.895c.04.07-.25.283-.614.447-.379.218-.72.184-.697-.014.018-.288 1.17-.676 1.31-.433ZM44.568 73.849c-.003.233-.204.441-.456.402-.232-.005-.441-.208-.404-.46.003-.234.204-.442.456-.403.233.005.441.208.404.46Zm26.368-14.807c.203.114.234.327.062.426-.206.12-.478.045-.579-.128-.12-.208-.131-.387-.062-.427.103-.06.355-.02.579.129ZM52.037 70.415c.54.06.456.153-.361.486-.61.214-1.227.339-1.39.294-.525-.113 1.035-.829 1.751-.78ZM79.303 54.86c.04.069-.19.386-.508.71-.319.322-.6.391-.562.139-.008-.412.91-1.127 1.07-.85ZM40.39 78.296c.16.277.102.495-.13.49-.232-.004-.407-.227-.403-.46.049-.63.192-.62.533-.03Zm8.12-4.69c.078.373-.014.61-.157.601-.164-.044-.399.184-.554.55-.12.348-.287.537-.367.398-.08-.139-.247.05-.402.417-.135.402-.597.715-1.179.82-.794.134-.888.05-.541-.382.25-.283.614-.447.871-.318.278.163.514-.065.677-.576.184-.476.555-1.106.873-1.429.339-.288.623-.59.637-.645.035-.02.12.208.143.565Zm6.14-3.035c.338-.288.998-.576 1.477-.621.705-.13.71-.04-.164.51-.53.353-1.317.9-1.71 1.173-.392.273-.94.358-1.149.155-.263-.218-.255-.362-.023-.357.267-.016.344-.2.204-.442-.2-.347-.131-.386.256-.194.277.164.805.044 1.109-.224Zm18.462-10.936c-.017.287.235.327.544.148.31-.179.562-.14.56.093-.038.253.116.442.314.466.212-.03.054.015-.26.105-.336.054-.996.343-1.443.601-.6.392-.708.363-.504-.079.238-.461.13-.49-.456-.153-.447.258-.711.596-.611.769.1.173 0 .555-.25.838-.382.452-.436.437-.318-.233.118-.669-.005-.644-.903.105-.918.715-1.007.72-.67.11.203-.441.728-.883 1.167-.997.404-.095.762-.348.771-.492-.011-.179.46-.635 1.024-1.008.6-.392 1.038-.506 1.035-.273Zm8.075-4.292c-.043.163-.379.218-.76.114-.51-.168-.495-.222.107-.292.404-.095.696.014.653.178Zm-2.168 1.806c-.004.233-.179.566-.35.665-.207.12-.342-.034-.339-.267-.017-.268.179-.566.35-.665.207-.12.322 0 .339.268ZM43.26 78.26c.123-.026.59-.25 1.052-.562.6-.393.743-.383.519.024-.17.422-.104.615.251.595.287.02.599.163.72.37.3.521-.73.884-1.69.652-.673-.212-.934-.108-1.063.383-.087.327-.468.779-.847.997-.585.338-.66.289-.386-.193.155-.367.479-.6.657-.61.197.024.275-.16.175-.333-.12-.208-.6-.162-1.08.116-.483.278-.941.358-1.041.184-.14-.243 2.076-1.569 2.733-1.624Zm6.365-3.121c-.247.605-.74 1.26-1.12 1.478l-.667.433.848-.12c.479-.045.946-.269 1.058-.472.132-.17.261-.105.312.143.037.303-.02.52-.163.51-.144-.009-.388.363-.557.785-.164.51-.385.684-.717.506-.224-.148-.539-.059-.651.145-.092.238-.37.075-.59-.307-.44-.763-.291-1.22.724-2.083.388-.363.666-.755.635-.968-.046-.158.218-.496.63-.734.655-.378.675-.343.258.684Zm2.054-1.926c-.043.164-.333.377-.634.412-.335.055-.292-.109.087-.327.358-.253.625-.269.547-.085Zm27.77-14.923c.1.174-.179.566-.66.844-.483.278-.78.635-.66.844.1.173.027.446-.18.565-.79.457-.534-.847.31-1.612.47-.456.891-.839.94-.913.035-.02.13.064.25.272Zm4.516-2.746c-.2.209-.614.447-.86.497-.301.035-.17-.134.313-.412.481-.278.693-.308.547-.085Zm-28.92 17.299c-.004.233-.214.585-.42.704-.24.14-.287-.02-.097-.406.413-.794.551-.874.516-.298Zm20.818-12.02c.573.039.51.168-.212.585-.551.318-1.064.383-1.164.21-.26-.451.428-.849 1.376-.795ZM51.296 75.33c-.373.307-.508.709-.305.823.238.094.215.292.043.391-.413.239-.742-.172-.599-.718.024-.198.43-.526.81-.744.462-.206.48-.123.05.248Zm-11.414 7.33c-.046.396.03.768.214.847.163.044-.014.054-.321 0-.524-.113-.605-.252-.332-.733.463-.868.586-.893.439-.115Zm3.633-1.497c.524.114-1.145.8-1.807.766-.539-.06-.42-.174.436-.437.665-.2 1.262-.358 1.37-.329Zm10.41-6.287c.718.37.448 1.174-.314.967-.722-.138-.954-.698-.403-1.016.172-.1.493-.1.716.049ZM75.542 62.81c.256-.749.31-.734.163.045-.049.63-.402.972-1.136 1.21-1.384.384-1.725.35-1.74-.151.038-.253.546-.407 1.208-.373.968.088 1.21-.051 1.505-.73Zm7.353-4.43c.263.218.404.46.3.52-.103.06-.553-.004-.988-.122-.708-.193-.748-.262-.335-.5.275-.16.725-.096 1.023.102Zm-43.54 25.832c.08.139.742.173 1.467.078.903-.105 1.23-.017 1.006.39-.141.313-.669.432-1.227.339-.817-.223-.886-.183-.433.203.412.317.3.52-.537.82-.748.292-.866.407-.382.45.45.065.18.313-.872.874-.895.517-1.434 1.013-1.377 1.35.071.283-.075.506-.273.481-.232-.004-.433.204-.416.472-.017.288.097.406.25.272.401-.417 3.116-1.198 3.448-1.02.461.243-2.738 1.535-4.415 1.81-.582.104-.57.283.007.967.539.614.55.792.1.728-.613-.108-1.674.597-1.853 1.162-.043.164.258.129.671-.109 1.101-.636 1.45.365.506 1.511-.534.586-.692 1.186-.472 1.568.38.659.242 1.849-.24 2.127-.138.079-.441-.208-.612-.664-.267-.54-.728-.783-1.493-.757-.622.035-.914-.073-.639-.232.276-.159.259-.427-.08-.694-.263-.218-.308-.377-.042-.392.464.009 1.036-1.385.796-1.801-.06-.104-.396-.049-.725.095-.379.219-.508.154-.293-.109.167-.188.144-.545-.114-.674-.243-.183-.1-.173.336-.055.822.312.994.213 2.268-1.078 1.274-1.29 1.394-1.638.457-1.513-.76.115-.78.08-.086-.228.399-.183 1.061-.705 1.512-1.196.588-.57.64-.878.184-1.031-.42-.174-.403-.461.056-1.096.362-.487.52-1.087.38-1.33-.18-.312-.057-.337.384-.129.407.228.564.183.384-.13-.12-.207-.103-.495.035-.574.172-.1.45.064.63.376.2.347.04.625-.433.759-.439.115-.62.358-.42.704.16.278.049.481-.272.482-.445.025-.425.06.085.228s.731-.006 1.076-.76c.233-.55.772-1.047 1.142-1.122.527-.12.507-.154-.032-.213-.88-.093-1.122-1.387-.239-1.527.336-.055.717.05.797.188Zm7.413-4.882c-.2.209-.613.447-.86.497-.301.035-.169-.134.313-.412.481-.278.694-.308.547-.085Zm24.894-14.418c-.043.163-.332.377-.633.412-.336.055-.293-.11.086-.328.358-.253.625-.268.547-.084Zm10.326-5.083c-.451 1.047-.859 1.374-1.119.923-.1-.173.104-.615.511-.942.373-.308.726-.65.83-.71.082-.095-.038.253-.222.729ZM42.965 82.914c.132.387.243.739.283.808-.014.055-.3.035-.716-.049-.851-.202-.974-.733-.251-1.15.24-.139.573.04.684.391Zm43.047-25.177c.1.174.028.447-.178.566-.172.1-.341-.035-.338-.268-.017-.267.075-.505.178-.565.069-.04.218.06.338.267ZM51.14 78.795c.204.114.27.308.063.427-.172.1-.547.085-.75-.03-.224-.148-.27-.306-.064-.426.173-.099.528-.12.751.03Zm2.065-1.192c-.689.953-1.24 1.27-.86.497.175-.332.577-.75.852-.908.344-.199.335-.055.008.411Zm2.065-1.192c-.003.233-.213.586-.42.705-.24.139-.286-.02-.096-.407.413-.793.55-.873.516-.298ZM35.015 88.614c.1.173.111.352.043.392-.07.04-.319.322-.534.585a.616.616 0 0 1-.868.086c-.338-.268-.232-.56.353-.898.447-.258.906-.338 1.006-.165ZM45.4 82.758c-.101.382-.307.501-.688.397-.327-.089-.304-.287.143-.545.448-.259.631-.18.545.148Zm4.436-2.885c-.2.208-.682.486-1.032.596-.404.094-.238-.094.313-.412.585-.338.866-.408.72-.184ZM80.58 62.076c-.043.164-.332.377-.633.413-.336.054-.293-.11.086-.328.358-.253.625-.268.547-.085Zm-10.811 6.705c-.043.163-.333.377-.634.412-.335.055-.292-.109.086-.327.359-.254.625-.269.548-.085Zm14.592-7.547c-.06.452-.255.75-.364.72-.327-.09-.033-1.646.294-1.557.108.03.131.386.07.837Zm2.797-2.308c.1.174.132.387.063.426-.104.06-.376-.014-.58-.128-.222-.148-.234-.327-.062-.426.207-.12.459-.08.58.128Zm-46.71 28.448c-.012.377.146.332.493-.1.382-.451.47-.456.341.035-.187.709-1.213.839-1.203.14.037-.253.095-.471.198-.531.103-.06.169.134.171.456Zm2.27-.756c.204.67.083 1.016-.57 1.394-.551.318-.698.248-.442-.208.224-.407.471-1.012.449-1.369.032-.897.195-.853.564.183Zm3.259-2.066c-.253.516-.144.546.564.183.502-.243 1.121-.601 1.377-.795.407-.327.427-.293.16.278-.155.367-.709.918-1.225 1.216-.723.417-1.064.383-1.364-.138-.24-.416-.16-.832.219-1.051.481-.278.556-.229.269.307Zm41.508-23.549c-.002-.322.179-.565.397-.506.217.06.338.268.314.466-.163.51-2.085 1.713-2.079 1.246.023-.198-.16-.277-.332-.178a.443.443 0 0 1-.599-.163c-.14-.242.299-.357 1.015-.308 1.037.048 1.264-.036 1.284-.557ZM44.923 85.67c-.115.436-.39.595-1.032.596-.731.005-.682-.069.192-.62.723-.417.955-.413.84.024Zm13.648-6.4c-.164.51-.218.496-.292-.109-.097-.406.01-.7.173-.655.163.045.22.382.12.764Zm12.782-7.981c-.175.332-.453.724-.66.844-.172.099-.203-.114-.028-.447.175-.332.488-.744.66-.843.206-.12.203.114.028.446Zm6.699-4.053c-.043.164-.333.378-.634.413-.335.055-.292-.11.086-.328.359-.253.626-.268.548-.085Zm10.867-4.701c.117.441.116.996-.01 1.254s-.275.16-.338-.267c-.088-.55-.306-.61-.911-.306-.495.254-.52.13-.077-.372 1.033-1.152 1.102-1.191 1.336-.31Zm-3.665 1.838c.06.104.023.357-.124.58-.112.204-.324.234-.424.06-.12-.208-.048-.48.124-.58.207-.12.384-.13.424-.06Zm6.873-2.719c-.003.233-.577.75-1.265 1.147-1.156.62-1.245.626-.934-.108.338-.844 2.242-1.758 2.199-1.039ZM39.979 91.807c.177.545-.747 1.726-1.39 1.727-.32 0 .386-1.24 1.17-2.109.014-.054.134.154.22.382Zm7.212-4.118c.128.065-.196.298-.677.576-.482.278-1.044.418-1.247.304-.333-.178 1.434-1.013 1.924-.88Zm2.676-1.96c.06.103.022.356-.124.58-.112.203-.324.233-.425.06-.12-.209-.048-.481.124-.58.207-.12.385-.13.425-.06ZM78.72 69.346c-.004.233-.282.625-.592.804-.516.298-.556.228-.269-.307.428-.849.876-1.107.86-.497Zm5.161-2.98c.258.128.539.059.651-.145.092-.238.605-.303 1.095-.17.837.258.822.312-.167.744-.59.249-1.31.433-1.651.399-.341-.034-.705.13-.832.387-.112.204-.304.268-.424.06-.18-.312.156-.922.7-1.33.118-.113.425-.06.628.055ZM64.52 77.73c.06.104.022.357-.124.58-.112.203-.324.233-.424.06-.12-.208-.049-.481.123-.58.207-.12.385-.13.425-.06ZM36.106 94.875c.204.114.235.327.063.426-.206.12-.479.046-.579-.128-.12-.208-.131-.386-.062-.426.103-.06.355-.02.578.128Zm15.662-7.284c.604.252.673.212.433-.204-.2-.347-.152-.421.235-.228.258.128 1.012-.076 1.625-.523.772-.491 1.491-.675 2.11-.478.926.252.891.272-.296.68-.68.253-1.37.328-1.553.25-.184-.08-.493.099-.634.411-.195.298-.603.626-.938.68-.335.055-.62.358-.666.755-.055.54-.109.526-.217-.06-.083-.46-.34-.59-.72-.37-.309.178-.421.382-.223.406.435.119.148 1.21-.498 1.999-.563.695.096 1.517.698.892.215-.263 1.021-.775 1.778-1.212.777-.402 1.185-.73.904-.66-.814.1-.764-1.085.038-1.364.385-.13.614-.447.494-.655-.14-.243.18-.243.657-.055.658.267.836.257.616-.125-.24-.416-.172-.456.33-.144.773.386.758.996-.025 1.31-.35.109-.49.421-.301.59.194.257-.015.61-.463.868-.447.258-.96.878-1.179 1.374-.325.789-.304.824.266.541.31-.179.705-.13.866.147.16.278.595.396.98.267.438-.114.395.049-.179.566-.726.65-.903.66-1.086.025-.163-.599-.286-.574-.883.14-1.042 1.295-1.128 1.623-.466 1.657 1.017.014.53.758-1.094 1.602-.791.457-1.218.75-.917.715.69-.075 1.251.896.526.991-.281.07-.637.646-.775 1.28-.156.923-.15 1.012.146.332.15-.456.468-.779.61-.769.164.045.026.679-.304 1.379-.543 1.285-2.777 2.898-2.745 2.001.003-.233-.315-.466-.656-.5-.484-.044-.367-.159.367-.397.823-.244.955-.413.597-.715-.263-.218-.788-.331-1.137-.222-.404.095.043-.164.963-.556 1.285-.557 1.706-.939 1.81-1.554.095-.471-.002-.877-.185-.957-.198-.024-.31-.376-.263-.773.13-.491.015-.61-.26-.451-.345.199-.256.749.228 1.349.254.361-1.073 1.082-1.5.819-.387-.193-1.792.711-2.157 1.43-.146.224-.138.635.002.878.12.208-.288 1.091-.948 1.935-.64.878-1.088 1.691-.987 1.865.1.173.002.322-.23.317-.232-.004-.393.274-.316.645.057.337-.138.635-.425.616-.32 0-.37.074-.092.238.685.391.102 1.051-.964 1.111-.874-.004-.888.051-.164.511 1.037.604 1.243 1.04.427.818-.762-.208-1.422.081-.886.373.203.113.082.461-.285.858-.353.342-.835 1.175-1.008 1.83-.227.64-.557 1.339-.744 1.493-1.609 1.346-1.816 2.575-.392 2.262.336-.055.344-.199.012-.377-.332-.178-.289-.342.15-.456 1.152-.388 1.025.425-.168 1.299-.786.546-1.17.675-1.138.333.024-.754-1.327.165-1.454.978-.08.417.045.714.223.704.197.025.163.045-.098.149-.28.07-.496.333-.5.566-.023.753-.742.938-.856.263-.023-.357-.272-.629-.504-.634-.805-.044-.86-.614-.105-1.373.422-.382.557-.784.334-.933-.204-.113-.306-.609-.197-1.135.11-.525.11-1.081-.024-1.234-.599-.719-.538-1.17.133-1.835.402-.417.626-.824.443-.903-.333-.178.01-1.81.913-4.458.255-.749.34-1.399.176-1.443-.163-.045.233-.551.875-1.107 1.27-1.057 1.912-2.491 1.47-3.254-.14-.243.05-.629.394-.828.792-.457.673-1.776-.187-1.834-.41.005-.367-.159.15-.457.412-.238.972-.7 1.256-1.003.43-.526.45-.491.151.422-.212.585.003.322.534-.586.497-.888.898-1.305.88-1.017-.005.466.221.381.844-.209 1.127-1.067 1.704-2.372 1.077-2.426-.267.015-.599-.163-.74-.406-.12-.208.147-.223.588-.015.734.316.857.291 1.879-1.038.577-.75 1.317-1.454 1.578-1.559.295-.124.909-.571 1.394-1.082.754-.76.748-.849.003-.788-.547.084-.395-.05.476-.368.714-.273 1.672-.364 2.093-.19ZM33.03 98.13c.071.282-.104.615-.35.665-.35.109-1.65 4.374-1.45 4.721.04.07.339-.288.7-.774.362-.486.531-.908.402-.972-.36-.069.048-1.508.495-1.766.207-.119.539.059.72.371.28.486.23.56-.23.318-.72-.371-.714.273-.01 1.254.375.57.351.768-.265.893-.404.095-.64.323-.52.531a.443.443 0 0 1-.157.6c-.207.119-.445.581-.56 1.017-.15.456-.147.779-.01.699.104-.059.218.06.2.347-.017.288-.395.506-1.086.581-.863.175-1 .254-.643.556.358.302.157.511-.812.978-1.47.71-2.276.667-1.003-.068.55-.318.818-.889.827-1.588-.073-1.16 1.083-1.781 1.26-.68.082.461.185.401.541-.175.6-.947.58-.982-.819-1.099-1.071-.029-1.175.031-1.376.794-.15.457-.33.7-.45.492-.12-.209-.496-.223-.806-.044-.516.298-.51.387.097.406.519.025.456.154-.287.536-.935.447-1.01.398-.664-.356.204-.442.434-1.315.538-1.93.103-.614.195-.853.218-.496.048.481.191.491.662.034.333-.377.648-.466.61-.213 0 .555 1.067-.061 1.322-.81.141-.312.509-1.265.828-2.143.305-.823.432-1.636.194-1.73-.203-.114.13-.491.714-.829.723-.417 1.113-.457 1.17-.12Zm24.798-12.837c-.15.456-.184.476-.198-.025-.014-.5-.192-.49-.794.135-.588.57-.835.62-1.075.204-.18-.312-.177-.545.035-.575.198.025.57-.283.869-.64.646-.79 1.47-.156 1.163.9ZM91.818 63.82c.06.104.022.357-.124.58-.112.204-.324.234-.424.06-.12-.208-.048-.48.124-.58.206-.12.384-.13.424-.06ZM38.092 95.533c.1.173.074.604-.081.971-.199.531-.37.631-.723.418-.258-.129-.335-.501-.194-.813.399-.739.777-.958.998-.576Zm2.437-.945c.203.114.309.377.197.58-.112.203-.33.144-.49-.133-.34-.59-.277-.719.293-.447Zm23.42-13.475c-.003.233-.144.545-.35.665-.172.099-.41.005-.51-.169-.12-.208.04-.485.35-.664.275-.16.493-.1.51.168ZM36.672 97.046c.06.104.022.357-.124.58-.112.204-.324.234-.424.06-.12-.208-.049-.48.123-.58.207-.119.385-.129.425-.06Zm-7.939 5.323a.4.4 0 0 1-.144.546c-.172.099-.444.025-.544-.148a.4.4 0 0 1 .144-.546c.206-.119.424-.06.544.148Zm70.779-39.846c.94-.358 1.696.316.904.773-.791.457-2.419.101-2.82-.592-.28-.486-.21-.526.448-.259.387.193 1.083.208 1.468.078ZM38.589 97.188c.06.104-.13.491-.448.814-.554.551-.99.432-.817-.223.135-.401 1.085-.903 1.265-.591Zm-2.872 3.37c-.081.416-1.465.244-1.725-.207-.26-.451-.138-.476.733-.239.545.149.986.356.992.446Zm3.16-1.362c-.202.208-.64.323-1.001.254-.505-.079-.725.095-.815.655-.08.417-.388.918-.697 1.096-.344.199-.313-.143.1-.937.546-.962.885-1.25 1.719-1.315.547-.085.86.058.693.247ZM94.48 68.433c.06.104-.2.209-.57.284-.459.08-.556.228-.219.496.676.534.438.996-.525.997-1.155.065-1.367-.46-.483-1.155.711-.596 1.637-.9 1.797-.622ZM28.5 107.13c-.003.233-.281.625-.611.769-.482.278-.488.189-.077-.372.472-.612.702-.745.688-.397Zm70.888-40.928c.204.114.166.367-.143.546-.31.178-.548.085-.545-.148-.017-.268.075-.506.144-.546.069-.04.32 0 .544.148Zm-65.842 38.939c.1.174.132.387.063.426-.103.06-.376-.014-.579-.128-.223-.148-.235-.327-.063-.426.207-.119.459-.08.58.128Zm-6.564 4.206c.203.114-.047.397-.528.675-.654.378-.797.368-.608-.019.4-.739.675-.898 1.136-.656Zm3.503-1.005c.622-.59 1.104-.869 1.067-.616-.003.233-.199.531-.44.67-.24.139-.64.878-.875 1.662-.236.784-.635 1.523-.91 1.682-.276.159-.505.476-.489.744a.933.933 0 0 1-.419.704c-.206.12-.189-.168.03-.664.184-.476.21-.908.026-.987-.197-.024-.237-.649-.084-1.338.118-.67.39-1.151.594-1.037.204.114.857-.264 1.5-.82Zm28.61-16.564c.204.113.14.243-.195.297-.335.055-.64.323-.657.611.017.268-.192.62-.399.739-.24.139-.243-.183-.06-.659.432-1.082.756-1.315 1.311-.988Zm-23.899 14.075c-.043.164-.333.378-.633.413-.336.054-.293-.109.086-.328.358-.253.625-.268.547-.085Zm67.667-38.003c.24.416-.523 1.32-.93 1.092-.203-.114-.323-.322-.266-.54.13-.492.996-.9 1.196-.552Zm-76.174 44.487c.376.015.619.198.596.396-.078.184-.502.244-.992.111-.96-.233-.73-.55.396-.507Zm.537 1.725c.06.104.023.357-.124.581-.112.203-.324.233-.424.059-.12-.208-.048-.48.124-.58.207-.119.384-.129.424-.06Zm28.843-16.56c-.043.164-.333.378-.634.413-.335.055-.292-.109.087-.328.358-.253.624-.268.547-.085Zm-7.827 5.676c.258.128.865.147 1.378.083.726-.095.8-.046.284.252-.324.233-.416.472-.193.62.352.213.206.436-.542.729-.138.08-.284.303-.287.536-.003.233-.374.863-.75 1.404-.41.561-.626 1.379-.509 1.82.143.565-.018.843-.497.888-.848.12-2.763.856-1.984.776.267-.015.694.247.914.629.34.589 1.031.514 1.88-.161.138-.08.301-.035.401.138.32.555-1.093 1.603-1.944 1.401-.831-.168-2.265.845-1.965 1.365.1.174-.104.615-.437.992-.367.397-.683 1.042-.729 1.439-.055.54-.207.674-.54.496-.277-.163-.308-.376-.067-.515.344-.199.284-.303-.206-.437-1.198-.326-1.309-1.233-.324-2.865 1.028-1.796 1.797-2.61 3.021-3.271.467-.223 1.044-.972 1.306-1.632.261-.66.7-1.33.941-1.469.448-.258.36-.808-.145-1.442-.134-.154-.016-.268.27-.249.232.005.64-.322.85-.675.37-.63.35-.664-.359-.302-.447.258-.891.284-.992.11-.26-.451.67-.987 1.225-.66Zm-19.762 12.658c-.043.164-.379.219-.76.115-.51-.168-.495-.223.107-.293.404-.094.696.014.653.178Zm17.562-10.509c.1.173.062.426-.11.525-.206.12-.547.085-.75-.029-.224-.148-.167-.366.109-.525.31-.179.63-.179.75.029Zm-14.517 9.028c.06.105.023.357-.124.581-.112.203-.324.233-.424.06-.12-.209-.048-.481.124-.581.206-.119.384-.129.424-.06ZM97.34 78.947c-.176.332-.557.784-.833.943-.447.258-.467.223-.2-.347.175-.333.557-.784.832-.943.448-.258.468-.224.2.347Zm2.442-.856c-.023.199-.252.516-.528.675-.275.16-.562.14-.642.001-.08-.139.15-.456.494-.655.378-.219.665-.199.676-.02ZM34.646 115.79c.22.382-.353.898-.74.705-.203-.114-.166-.367.11-.526.31-.179.59-.248.63-.179Zm17.843-10.024c-.004.233-.213.586-.42.705-.24.139-.286-.02-.097-.407.414-.793.551-.873.517-.298Zm1.925.554c.04.069-.16.278-.436.437-.276.158-.596.159-.717-.049-.1-.174.101-.382.436-.437.356-.02.677-.021.717.049Zm41.742-24.655c.04.07-.19.387-.508.71-.319.322-.668.432-.768.258-.1-.173.13-.49.508-.71.378-.218.728-.327.768-.258Zm3.905-1.977a.4.4 0 0 1-.143.545c-.172.1-.445.025-.545-.148a.4.4 0 0 1 .144-.545c.207-.12.424-.06.544.148ZM49.149 109.36c-.043.163-.333.377-.634.412-.335.055-.292-.109.086-.328.359-.253.626-.268.548-.084Zm-3.121 3.097c.04.069-.101.381-.35.664-.216.263-.374.308-.39.04.006-.466.58-.982.74-.704Zm51.754-29.326c-.043.164-.332.377-.633.412-.336.055-.293-.109.086-.327.358-.253.625-.269.547-.085Zm1.44-.924c.04.07-.101.382-.35.665-.216.263-.373.308-.39.04.006-.466.58-.982.74-.705Zm5.166-1.78c-.003.233-.272.481-.628.501-.863.175-.914-.073-.054-.57.379-.218.7-.219.682.069ZM41.523 117.37c1.41-.26 1.43-.225.928.574-.356.575-.646.789-.923.626-.258-.129-.505-.079-.617.124-.077.184-.424.06-.748-.262-.667-.678-.632-.698 1.36-1.062Zm56.455-32.549c.585.218.645.322.163.6-.31.18-.69.075-.85-.202-.161-.278-.233-.56-.164-.6.07-.04.45.064.851.203Zm3.026-1.515c.223.149.062.427-.385.685-.62.357-.728.328-.476-.188.414-.794.379-.774.861-.497Zm-61.149 36.738c.12.208.023.357-.23.317-.232-.004-.432.204-.47.457.017.268-.253.516-.588.571-.355.02-.613-.109-.61-.342.003-.233.17-.421.401-.417.233.005.4-.183.417-.471 0-.555.78-.635 1.08-.115Zm11.297-7.216c-.044.164-.333.377-.634.412-.336.055-.293-.108.086-.327.358-.253.625-.268.547-.085Zm-9.591 6.832c.063-.129.315-.089.599.163.412.317.28.486-.655.933-.88.462-1.06.705-.766 1.136.34.483.083.569-.768.259-.748-.262-.863-.381-.438-.441.335-.055.662-.521.683-1.042.069-.595.319-.878.68-.809.36.069.622-.035.665-.199Zm7.809-4.832c.203.114-.115.437-.68.809-.668.432-.9.427-.691.075.33-.699.984-1.077 1.37-.884Zm47.897-26.867c.439-.115.115.119-.717.506-1.388.616-1.52.785-1.173 1.464.24.416.237.65.048.48-.264-.217-.834.066-1.83.965-.814.655-1.669 1.241-1.97 1.276-.28.07-.387.362-.227.64.16.277.412.317.524.113.147-.223.325-.233.445-.025.34.59-1.426.869-2.861.449-.728-.227-1.384-.172-1.53.051-.161.278-.236.229-.218-.059.012-.377.356-.575 1.06-.705.603-.07 1.406-.349 1.799-.622.722-.417.702-.452-.132-.386-.69.075-.608-.02.284-.303 2.813-.93 3.805-1.596 3.576-2.389-.182-.634.004-.788.99-.987.616-.125 1.494-.354 1.932-.468Zm32.067-19.162c.203.114.235.327.063.427-.207.12-.479.045-.579-.129-.12-.208-.132-.386-.063-.426.103-.06.356-.02.579.128ZM99.252 86.63c.223.15.106.264-.23.319-.76.114-1.003-.069-.521-.347a.755.755 0 0 1 .75.029Zm16.225-9.089c1.316-.899 1.915-.736.891.272-.789.779-2.535 1.093-2.875.504-.2-.347-.132-.387.255-.194.278.163 1.026-.13 1.729-.582Zm5.798-3.625c.017.267-.459.635-.981.843-1.536.518-1.696.24-.286-.574.757-.437 1.285-.557 1.267-.27Zm4.99-2.881c.1.173.132.386.063.426-.103.06-.376-.014-.579-.128-.223-.149-.235-.327-.063-.426.207-.12.459-.08.579.128Zm-98.217 57.168c.1.174.131.387.062.426-.103.06-.375-.014-.578-.128-.224-.148-.235-.327-.063-.426.206-.119.458-.08.579.128Zm10.323-5.96c-.267.57-.247.605.2.347.448-.259.488-.189.2.347-.272.481-.137.634.814 1.01.766.267.819.36.16.278-.539-.059-1.355-.282-1.797-.489-.42-.173-1.083-.207-1.392-.029-.605.303.746-1.171 1.635-1.776.427-.293.447-.259.18.312Zm7.387-4.45c-.043.163-.332.377-.633.412-.336.055-.292-.109.086-.327.358-.254.625-.269.547-.085Zm55.26-31.442c-.044.164-.333.378-.634.413-.336.054-.292-.11.086-.328.359-.253.625-.268.548-.085Zm9.228-5.235c.203.114.145.332-.13.491-.275.16-.596.16-.696-.014-.08-.139-.023-.357.149-.456.207-.12.493-.1.677-.02Zm2.185-.984c.119.764 1.724.762 2.424-.012.416-.472.436-.437.203.114-.232.55-.158.6.496.222.413-.238.657-.61.557-.784-.24-.416 1.953-1.544 2.558-1.291.203.114 1.06-.15 1.817-.587 1.583-.914 1.638-.9 1.37.226-.144.546-.35.665-.579.427-.433-.351-2.721.692-2.481 1.109.101.173-.086.327-.387.362-.335.055-1.193.874-1.951 1.866-.743.938-1.561 1.826-1.801 1.965-.64.323.623-1.7 1.291-2.133.31-.179.588-.57.586-.893.012-.377-.544-.148-2.13.999-1.262.913-2.335 1.44-2.538 1.326-.258-.128-1.021.22-1.752.78l-1.345 1.008 1.007-1.275c.729-.883 1.274-1.29 1.861-1.306.465.01 1.13-.19 1.454-.423.413-.238.209-.352-.693-.247-.711.04-1.092-.063-.817-.222.393-.273.353-.343-.106-.263-.479.045-.519-.024-.28-.486.462-.868 1.122-1.156 1.236-.482Zm10.942-6.318c.044-.163.316-.09.599.163.731.55.174.779-1.29.468-1.117-.188-1.137-.222-.303-.288.533-.03.986-.199.994-.343ZM98.229 89.07c.091.318.304.288.588-.015.195-.298.476-.368.576-.194.12.208-.11.526-.488.744-.379.219-.788.224-.889.05-.12-.207-.51-.167-.922.071-.38.219-.7.219-.677.02.015-.61 1.635-1.22 1.812-.676Zm10.361-6.213c-.184.476-.551.873-.783.869-.662-.034-.412-.873.38-1.33.495-.255.629-.101.403.461Zm12.626-7.058c.599.163 1.399.117 1.743-.081.378-.219.837-.299 1.02-.22.407.228-1.024 1.008-1.809.999-.341-.034-.857.264-1.176.586-.381.452-.594.482-.596.16.032-.343-.146-.333-.375-.015-.48.6-.594.482-.745-.495-.165-.922.632-1.29 1.938-.934Zm-75.2 43.232c-.044.164-.334.377-.635.412-.335.055-.292-.109.087-.327.358-.253.625-.268.547-.085Zm83.209-47.718c-.046.397.046.714.209.759.129.064-.141.312-.623.59-1.135.656-1.361.185-.397-.926.639-.8.909-.942.811-.423Zm-91.773 53.31c.1.173.131.386.062.426-.103.06-.375-.014-.579-.128-.223-.149-.234-.327-.062-.427.206-.119.459-.079.579.129Zm57.352-32.188c.011.179-.45.492-.973.701-.507.154-.971.144-.948-.054-.011-.178.45-.491.972-.7.508-.154.972-.145.949.053Zm2.598-1.777c.094.64-1.057 2.46-1.513 2.307-.163-.045-.1-.174.141-.313.275-.159.258-.426-.08-.694-.377-.336-.314-.465.268-.57.438-.115.777-.403.794-.69.01-.7.276-.714.39-.04Zm-58.861 34.261c.1.174-.041.486-.35.665-.276.159-.514.065-.51-.168a.754.754 0 0 1 .35-.665c.172-.099.39-.04.51.168Zm87.672-50.479c.215-.263.482-.278.602-.07.12.208.461.243.736.084.276-.16.869-.085 1.31.122.59.307.891.272 1.026-.13.135-.401.362-.486.674-.343.203.114.269.308.063.427-.172.1-.491.422-.741.705-.298.357-.53.352-.75-.03-.161-.277-.739-.405-1.267-.286-1.104.314-1.646 1.043-1.07 1.405.237.094.146.332-.164.51-.31.18-.562.14-.525-.113a.453.453 0 0 0-.438-.44c-.252-.04-.555-.328-.687-.714-.111-.352-.243-.739-.303-.843-.005-.089.227-.084.554.005.326.089.799-.046.98-.289Zm1.454-.978c.1.173.131.386.063.426-.104.06-.376-.014-.579-.128-.224-.149-.235-.327-.063-.426.207-.12.459-.08.579.128Zm3.461-1.952c.12.208.47.099.872-.318.465-.546.553-.551.478-.045-.1.381-.542.729-1.035.829-.843.209-1.499-.291-.879-.65.206-.118.444-.024.564.184ZM35.3 127.253a.4.4 0 0 1-.144.545c-.172.1-.445.025-.545-.148a.4.4 0 0 1 .144-.545c.207-.12.424-.06.544.148Zm71.98-41.42c.1.174.258.129.384-.129.112-.203.68-.253 1.333-.076 1.035.282 1.221.128.588-.57-.134-.154.256-.194.889-.05l1.157.256-1.006.72c-.58.427-1.437.69-1.887.626-.702-.103-.736-.083-.209.353.432.351.443.53.108.585-.281.07-.613-.109-.685-.392-.091-.317-.303-.287-.567.05-.25.284-.568.606-.671.666-.138.08.1.173.475.188.553.004.559.093-.046.396-.556.23-.828.155-.971-.41-.132-.387.058-.774.359-.809.301-.035.57-.283.574-.516.017-.288-.304-.287-.682-.069-.413.239-.803.279-.903.105-.1-.173.218-.496.72-.74.482-.277.96-.322 1.04-.184Zm-77.822 45.209c.203.114.275.396.148.654-.112.203-.304.268-.424.06-.1-.173-.516-.257-.865-.148-.562.14-.548.085.017-.287.413-.239.886-.373 1.124-.279Zm4.766-2.474c-.081.416-.01.699.162.599.172-.099.17.134-.006.467-.273.481-.055.54.94.197 1.536-.517 2.27-.201 1.1.475-.482.278-.975.378-1.075.204-.1-.173-.653-.178-1.25-.018l-1.049.328.497-1.443c.56-1.573.874-1.985.68-.809Zm3.225-1.169c-.003.233-.327.467-.663.522-.493.099-.607-.02-.383-.426.336-.611 1.06-.706 1.046-.096Zm3.697-2.735c.02.034-.135.401-.38.773-.306.502-.533.586-.693.309-.14-.243.05-.63.393-.829.344-.199.64-.323.68-.253Zm45.156-25.655c-.043.163-.333.377-.634.412-.335.055-.292-.109.087-.327.358-.254.625-.269.547-.085Zm27.492-15.641c-.115.436-.39.595-1.032.596-.731.005-.682-.07.193-.62.722-.418.954-.413.839.024Zm5.07-2.742c.318.232.96.231 1.393.028.467-.224.719-.184.648.088-.072.273-.505.477-1.004.487-1.155.066-2.507-.448-2.026-.727.207-.119.657-.055.989.124Zm2.358-1.64c.1.174.53.204.968.09.439-.115.605-.304.402-.418-.204-.114-.172-.456.058-.773.284-.303.723-.418 1-.254.333.178.49.133.502-.244.018-.287.193-.62.365-.719.206-.12.355-.02.352.213-.003.233.578.683 1.292.965l1.338.57-1.356-.282c-1.157-.257-1.576-.107-2.887.88-1.276.969-1.818 1.143-2.826.985l-1.281-.232.963-.556c.516-.298 1.009-.398 1.11-.224Zm-31.39 19.142c.796.187-.041.485-1.345.452l-1.161-.023 1-.254c.542-.174 1.199-.23 1.505-.175Zm-57.316 33.044c-.19.387-.144.546.097.407.206-.119.558.094.724.46.22.382.169.689-.01.699-.231-.004-.386-.193-.383-.426.003-.233-.186-.401-.472-.421-.608-.019-.604-.807-.053-1.125.24-.139.286.02.097.406Zm80.288-46.261c-.13.49-.009.699.555.882.605.252.59.306-.318.322-.82.01-.969-.088-.865-.703.08-.417.304-.823.491-.977.172-.1.238.094.137.476Zm22.379-12.736c.04.07-.23.318-.608.536-.379.219-.769.259-.869.085-.1-.173.17-.421.608-.536.439-.114.829-.154.869-.085ZM30.728 133.638c.1.174-.13.491-.508.71-.758.437-.812.422-.963-.554-.088-.551.03-.665.588-.571.396.049.782.242.883.415Zm66.906-39.877c.06.104.022.357-.124.581-.112.203-.324.233-.424.06-.12-.209-.048-.481.124-.581.206-.119.384-.129.424-.06Zm-65.578 38.602c.223.148.106.263-.23.317-.76.115-1.003-.068-.521-.346a.754.754 0 0 1 .75.029Zm78.287-45.199c.464.01.352.213-.46.635-.777.403-1.078.438-.868.085.33-.7.468-.779 1.328-.72Zm24.976-13.958c.101.174.132.387.063.426-.103.06-.375-.014-.579-.128-.223-.148-.234-.327-.062-.426.206-.12.458-.08.578.128ZM35.135 131.418c.203.114.146.332-.13.491-.275.159-.493.099-.49-.134.023-.198.081-.416.15-.456.069-.04.287.02.47.099Zm-2.407 1.713c.14.243-.772 1.047-1.03.918-.183-.079-.042-.392.337-.61.324-.234.654-.378.694-.308Zm63.59-36.483c.204.114.235.327.063.427-.207.119-.479.045-.579-.129-.12-.208-.131-.386-.063-.426.104-.06.356-.02.58.128Zm34.059-19.525c.078-.183.301-.035.542.381.24.417.303.843.096.962-.172.1-.444.026-.544-.148a.4.4 0 0 0-.545-.148c-.241.139-.1.382.421.728.684.391.842.347 1.089-.259.227-.64.385-.684 1.098-.402.461.242 1.009.157 1.224-.106.23-.317.58-.427.783-.313.183.08.186.401.019.59-.18.243.155.188.74-.15.983-.521 1.112-.457 1.793.723.455.708.567 1.06.263.773-.383-.426-.704-.426-1.229.016-.505.477-.703.452-.88-.093-.163-.6-.361-.625-1.21.05-.8.601-.978.611-.888.05.156-.921-.684-.945-1.625-.032-.519.531-.84.531-1.313.11-.681-.624-.928-.574-1.39.294-.365.72.374 1.125 1.612.966.691-.076.766-.026.318.232-.289.214-.768.259-.971.145-.258-.129-.539-.059-.631.18a.454.454 0 0 0 .163.599c.237.094.146.332-.13.49-.344.2-.567.051-.644-.32-.023-.358.078-.74.25-.839.206-.12.032-.342-.424-.495-.604-.253-.684-.391-.48-.833.258-.427.218-.496-.241-.416-.335.055-.558-.094-.501-.312.058-.218.476-.367.981-.289.558.094.682.07.329-.144-.332-.178-.24-.416.207-.674.413-.238.623-.59.503-.799-.161-.277-.043-.391.447-.258.395.049.745-.06.768-.259Zm4.757-2.33c.326.644.22.937-.586 1.448-.55.318-1.227.894-1.457 1.212-.327.466-.539.496-.8.045-.2-.347-.452-.386-.593-.074-.161.278-.284.303-.192.065.038-.253.385-.685.812-.978 1.581-1.236 2.086-1.712 2.172-2.04.158-.6.233-.55.644.322Zm-45.197 26.141c-.376.541-.754.759-1.135.655-.327-.089-.166-.366.59-.803 1.033-.596 1.053-.562.545.148Zm34.943-20.22c.475.188.398.371-.202.763-.648.467-.811.423-.687-.158.094-.578.39-.78.889-.605Zm-37.766 22.96c-.086.327-1.419.403-1.599.09-.1-.173.23-.317.748-.293.485.044.9.128.851.203Zm17.864-11.1c-.003.233-.213.585-.419.704-.241.139-.287-.019-.097-.406.413-.794.551-.873.516-.298Zm33.372-18.25c.599.163 1.236.073 1.534-.284.617-.68 2.032-.295 1.633.444-.155.367-.04.486.409.55.539.059.559.094.066.193-.315.09-.662-.034-.768-.296-.051-.248-.535-.292-1.063-.173-.542.174-1.381.15-1.946-.033-.619-.197-1.2-.093-1.588.27-.353.342-.476.367-.295.124.146-.223.144-.546-.06-.66-.644-.321.99-.432 2.078-.135ZM95.147 98.99c.04.069-.23.317-.643.556-.378.218-.7.219-.682-.069.012-.377 1.144-.799 1.325-.487Zm-57.915 33.437c-.044.164-.333.377-.634.412-.335.055-.292-.109.086-.327.359-.253.625-.268.548-.085Zm39.372-22.084c.478.51.43.585-.302.59-.478.045-.865-.148-.882-.415.044-.719.557-.784 1.184-.175Zm5.566-3.63c.54.059.654.178.39.515-.167.189-.13.491.073.605.258.129-.198.531-1.187.963-1.649.721-3.06 2.091-2.47 2.397.149.099-.494.655-1.506 1.286-1.425.869-1.83.964-1.912.503-.057-.337.339-.843.855-1.141.55-.318 1.001-.81 1.004-1.043.018-.287.356-.575.726-.65.932-.214 4.073-3.276 3.225-3.157-.301.035-.43-.029-.258-.128.206-.119.665-.199 1.06-.15Zm-3.22 2.368c.2.347-.44.67-1.59.825-.67.11-.641.001.308-.501.585-.338 1.181-.497 1.281-.324Zm47.849-27.903c.37-.075.791.098.951.376.341.59-.734.794-1.41.259-.527-.436-.478-.51.459-.635Zm10.3-4.652c.037.303.294.431.57.273.309-.18.327-.467.009-.7-.432-.351-.364-.391.358-.253.757.118.763.208.289.897-.396.506-.898.75-1.663.775-1.032.041-1.072-.028-.762-.762.374-.863 1.079-.993 1.199-.23ZM119.178 87.29c-.164.51-.218.496-.292-.109-.097-.406.009-.699.173-.655.163.045.22.382.119.764Zm1.928-1.668c.014.5-.827 1.032-1.253.77-.184-.08.046-.397.493-.655.428-.293.763-.348.76-.115Zm-86.991 51.103c-.003.233.2.347.461.242.64-.322-.76 1.226-1.601 1.757-.482.278-.444.026.136-.957.95-1.612 1.019-1.652 1.004-1.042Zm73.142-41.951c-.043.164-.333.377-.634.412-.335.055-.292-.109.086-.327.359-.253.625-.269.548-.085Zm3.28-1.709c.1.173.063.426-.109.526-.207.119-.548.085-.751-.029-.223-.149-.166-.367.109-.526.31-.179.631-.179.751.029Zm22.021-12.482c.16.277.162.6.025.679-.379.219-1.009-.158-.894-.594.158-.6.548-.64.869-.085Zm8.018-4.63c.175-.332.318-.322.395.05.057.337-.098.704-.373.863-.241.139-.356.575-.245.927.177.546.424.496 1.445-.279 1.159-.854 1.193-.874.395.05-.45.49-1.167.997-1.606 1.112-.493.1-.59.248-.313.412.258.128.221.381-.089.56-.31.179-.347.431-.124.58.258.129.608.02.823-.244.181-.243.53-.352.734-.239.61.342-.689.953-2.131 1-1.031.04-1.327.164-1.333.63a.544.544 0 0 0 .538.615c.341.034.195.257-.39.595-.516.298-.892.839-.835 1.176.176 1.1-.83 1.265-1.431.224-.3-.52-.303-.842-.045-.713.645.321 1.437-.691 1.989-2.675.285-.858.853-2.019 1.304-2.51.562-.695.657-1.166.328-1.577-.369-.48-.375-.57.086-.327.367.158.717.048.878-.23Zm-59.195 34.639c.023.357-.319.878-.835 1.176l-.915.482.58-.982c.74-1.261 1.05-1.439 1.17-.676Zm50.304-28.58c.688.158 1.086-.026 1.565-.627.48-.6.741-.704.921-.392.14.242-.29.768-1.082 1.225-.923.626-1.436.691-2.012.33-.908-.54-.604-.808.608-.536Zm-56.983 33.223c-.12-.208.026-.432.327-.467.794-.134 1.286.877.572 1.15-.33.144-.775.725-.967 1.345-.546 1.517-1.677 2.262-2.06 1.281-.151-.421-.041-.947.263-1.215.476-.367.55-.318.432.352-.084.649-.01.699.461.242.339-.288.454-.724.225-.962-.21-.203-.4-.694-.458-1.031-.082-.461.035-.575.648-.467.505.079.697.015.557-.228Zm2.592-1.312c.122.53-.675.898-1.093.492-.189-.168-.062-.426.302-.59.384-.13.725-.095.79.098Zm26.273-15.447c.101.174.132.387.063.427-.103.059-.375-.015-.579-.128-.223-.149-.234-.327-.062-.427.206-.119.458-.08.578.128Zm26.555-15.516c.37-.075.648.089.645.322.005.644-.503.799-1.084.348-.547-.47-.498-.545.439-.67Zm1.404.762c-.004.233-.213.586-.42.705-.24.139-.286-.02-.097-.407.414-.793.552-.873.517-.298Zm12.721-7.53c-.043.165-.333.378-.634.413-.335.055-.292-.109.086-.327.359-.254.625-.269.548-.085Zm-.793 1.568c.12.209.679.302 1.226.217.671-.11 1.147.079 1.487.668.341.59.309.932-.081.972a.507.507 0 0 1-.616-.43c-.057-.338-.81-.69-1.696-.872-1.063-.172-1.415-.385-1.071-.584.31-.178.651-.144.751.03Zm-70.525 41.874c.298.198.604.253.682.069.077-.183.418-.149.702.104.263.217.619.197.745-.061.16-.278.25-.283.287.02-.055.54-1.414 1.047-2.004.741-.204-.114-.525-.114-.697-.015-.206.12-.14.313.137.476.332.178.18.312-.361.487-.528.119-.777.402-.657.61.12.208.037.303-.127.258-.38-.104.098-2.692.545-2.951.138-.079.484.044.748.262Zm75.168-41.78c.607.02.647.09.131.388-.309.178-.788.223-.991.11-.536-.292-.089-.55.86-.497Zm-71.348 42.119c.223.148.106.262-.23.317-.76.115-1.003-.068-.521-.346a.752.752 0 0 1 .75.029Zm-1.004 1.042c.1.173.028.446-.179.565-.172.1-.34-.034-.338-.267-.016-.268.075-.506.179-.566.069-.039.217.06.338.268Zm-3.706 2.324c.04.069-.1.382-.35.665-.215.263-.373.308-.39.04.006-.466.58-.982.74-.705Zm1.881-.716c.08.139-.046.397-.321.556-.276.159-.665.199-.849.12-.149-.099-.022-.357.356-.576.344-.199.734-.239.814-.1Zm-5.185 3.179c-.043.163-.332.377-.633.412-.336.055-.293-.109.086-.328.358-.253.625-.268.547-.084Zm78.143-38.456c.206-.12.485-.511.571-.838.201-.764 1.11-.78 1.209-.051.123.53-2.206 2.06-2.466 1.609-.08-.14-.266-.54-.466-.887-.286-.575-.252-.595.206-.12.269.308.705.426.946.287Zm.15-1.012a.4.4 0 0 1-.144.546c-.172.1-.444.025-.544-.148a.399.399 0 0 1 .143-.546c.207-.119.425-.06.545.148Zm3.434-.41c.06.104.022.357-.124.58-.112.204-.324.234-.424.06-.121-.208-.049-.48.123-.58.207-.119.385-.129.425-.06Zm-.897 2.738c.2.347.326.644.291.664 0 0-.435-.118-.945-.286-.837-.257-.877-.327-.326-.645a.715.715 0 0 1 .98.267Zm-66.361 38.915c.14.243-.772 1.047-1.03.918-.183-.079-.043-.392.336-.61.324-.233.654-.378.694-.308Zm-2.611 2.71c-.4.739-1.122 1.156-1.342.774-.1-.173.233-.55.714-.828.62-.358.817-.333.628.054Zm69.821-39.757c-.187.71-.835.621-.791-.098-.017-.268.218-.496.485-.511.286.02.407.228.306.61ZM77.41 132.401c-.201.208-.614.447-.86.497-.302.035-.17-.134.312-.412.482-.278.694-.308.548-.085Zm13.945-8.19c.18.312-.752 1.081-1.084.903-.258-.128-.097-.406.281-.625.413-.238.763-.348.803-.278Zm62.234-35.653c.223.148.105.263-.23.317-.76.115-1.003-.068-.521-.346a.755.755 0 0 1 .751.029Zm-1.532 1.162c-.043.163-.333.377-.634.412-.335.055-.292-.109.086-.328.359-.253.625-.268.548-.084Zm-75.322 44.134c.1.174.028.447-.179.566-.172.099-.34-.035-.338-.268-.017-.267.075-.505.179-.565.069-.04.217.059.338.267Zm1.605-.001c.203.114.165.367-.144.545-.31.179-.548.085-.545-.148-.017-.268.075-.506.144-.545.069-.04.321-.001.544.148Zm6.239-2.862c-.043.163-.333.377-.634.412-.335.055-.292-.109.086-.328.359-.253.625-.268.548-.084Zm-2.37 2.015c.1.173.063.426-.109.526-.206.119-.547.085-.75-.029-.224-.149-.167-.367.109-.526.31-.179.63-.179.75.029Zm-3.929 5.83c.733.316.753.351.106.263-.396-.05-1.038-.049-1.373.006-.547.085-.533.03-.086-.228.29-.214.932-.214 1.353-.041Z" clip-rule="evenodd"/></svg>