<svg xmlns="http://www.w3.org/2000/svg" width="282" height="111" fill="none" viewBox="0 0 282 111"><path fill="#000" d="M30.98 64.94c6.93-3.52 11.55-9.24 17.93-13.2-1.65 1.32-2.42 3.74-4.73 4.62.11.88.33 1.65-.77 2.53h.55c-3.52 3.19-7.81 5.61-11.88 8.47-.22 1.21.99 1.54.33 2.2.88.22.55-.77 1.32-.55-.22.44-.33.88-1.1.88 1.87 3.3 2.31 8.14 5.28 10.45.22.77-.77.44-.55 1.32-5.28 2.09-8.25-3.3-9.35-8.47-4.95 2.64-11.77 9.13-19.58 7.37-2.97-.66-7.15-3.41-7.37-6.6-.22-3.3 2.75-7.81 4.62-10.12 4.29-5.17 11.11-11.99 14.85-17.05C13.82 28.09 23.72 4.22 42.31.81c1.65-.33 4.07-.66 6.05-.22 2.53.44 3.41 2.31 5.72 3.52.88 5.83-.99 11-2.97 16.28-7.26 9.9-15.07 19.36-23.65 28.05.99 5.61 2.53 10.89 3.52 16.5ZM47.81 3.89c-6.16-1.65-10.89 2.97-14.85 6.05-4.84 5.28-8.03 12.76-8.58 21.67.66 3.96.55 5.72 1.1 9.68 9.13-8.14 16.94-17.49 22.55-28.93.33-1.43.33-3.19.88-4.4-.55-1.21-.55-2.97-1.1-4.07Zm2.42 7.15c-.88-.11-1.32.22-1.32 1.1.55-.33 1.65-.11 1.32-1.1Zm.88 3.3c-2.09 2.75-2.42 7.48-5.28 9.57.33.22.77.33 1.43.33.33-2.2 2.86-3.52 2.42-5.5.66-.88 1.1 0 1.43-.88-1.54-.44.88-.99.77-1.65-1.21-.22.44-1.76-.77-1.87Zm-25.63 1.1c-.33 0-.88-.11-.77.55.44 0 .66-.22.77-.55Zm-1.1.77c.11.33-.11.66-.22.88h.55c.33-.44.33-.77-.33-.88Zm22.88 0v.55h.55v-.55h-.55Zm-2.53 5.83c.44-.11.55-.55.88-.55 0-.77.44-.88.77-1.1-.22.99 1.32.44 1.1 0-.33-.33-.66-.33-1.1 0-.11-1.32 1.54-2.2.55-3.3-1.54 3.41-3.85 6.16-5.5 9.57.33.22.33.66.88.55-.33-.77 1.21-.77 1.65-1.65-.22 0-.22-.11-.33-.22.77-.44.33-1.87 1.43-2.53.11.66 1.1 0 .77-.55-.33 0-.99.11-1.1-.22Zm-21.45-3.08c.22-.11.55 0 .55-.22-.11 0-.44 0-.55.22Zm23.43 2.2c-.55-.11-.77.22-1.1.33 0 .33.33.33.22.77.77.11.99-.33.88-1.1Zm0 3.3c-.55-.22-1.21.77-.55.88.11-.44.44-.55.55-.88Zm-1.98.88c.22-.11.55-.11.55-.33-.11.11-.44 0-.55.33Zm-.55.55c-.44.44.33.77-.22 1.32.66-.11 1.43-.22 1.32-1.1-.33-.11-.44-.44-1.1-.22Zm-22.55 1.65c0 .22-.22.33-.22.55.44-.11.99 0 .77-.55h-.55Zm21.45.22v.55h.55v-.55h-.55Zm-1.1.55c0 1.21-2.64 2.09-1.1 3.3.55-1.21 1.65-1.65 2.53-2.42-.66-.11-.55-.99-1.43-.88Zm-1.65 3.63c-1.21-.77-2.2 1.54-1.65 2.2 1.1-.33 1.1-1.54 1.65-2.2Zm-2.75 1.65c.22 1.1.22.77 0 1.87.88.11.88-.66 1.1-1.1-.99.44 0-1.21-1.1-.77Zm-2.2 0c-.44-.11-.66.11-.77.55.44 0 .66-.22.77-.55Zm1.1 1.32c-1.1 1.65-2.64 2.97-4.07 4.4.33.66.99-.33 1.1.33-.66.33-.99.88-1.43 1.65-.44 0-.55-.33-1.1-.33.11.88-.88.66-1.32 1.1-.11.55.33.66.22 1.1-.66-.66-1.87.55-1.32 1.1-.11-.33.77-.99.77-.22.22 1.32-1.98.44-2.75 1.1-.11.77.55.88.33 1.87 3.52-2.2 5.61-5.83 8.47-8.47.11-.55-.22-.66-.22-1.1.77-.11 1.87-.33 2.2-1.43-.77.11-.22-.99-.88-1.1Zm-5.17 2.2v.55h.55v-.55h-.55Zm-.33 1.1c-2.31.99-3.41 3.19-4.95 4.95 2.2-1.1 3.52-3.08 4.95-4.95Zm.33 2.2c.22 0 .33 0 .22.33h.55c.44-.77-.88-.88-.77-.33Zm-.88 1.98c.33 0 .33-.11.33-.33.55-.11.44 1.21-.33.88v-.55Zm-2.75 3.3c0 .22-.33.11-.55.22.11-.22.44-.22.55-.22Zm-8.47 4.07c-.44 1.54-1.98 1.87-2.53 3.3 1.21-.44 3.63-2.42 2.53-3.3Zm1.32 2.2v.55h.55v-.55h-.55Zm-1.65 1.65v.55c.22.11.33.22.33.55-.22-.11-.33-.22-.33-.55h-.55c-.22.22-.66.22-.77.55.22.22.77.22.77.55-1.43.33-2.42.77-1.87 2.53-.55-.11-.33-.77-1.1-.55-.44 2.31-2.31 2.2-3.08 3.85-.11.66 1.32-.22.88.77-.44.22-.44.88-1.1.88.44-.44.33-1.32-.55-1.1-.77.88.88 1.1.22 1.65-.11-.22-1.54-.77-1.32.22.55 0 .88.22.77.88-.77.22-.77.22-1.65 0 .11.99-1.98 1.32-.55 2.2-.88 0-1.87.11-2.2.77.88.55.11 1.54-.55 2.2h1.65c.55-1.1.66-2.75 2.2-2.75v-.77c-.11-.11-.44-.11-.55-.33.22.11.55 0 .55.33h.55c1.87-3.41 4.95-5.39 6.93-8.58 1.98-.66 2.09-3.08 4.07-3.52v-1.1c-1.54 0-1.43.88-2.75.77Zm-2.42-.22c-.66 0-1.1.33-1.1 1.1.44.44 1.43-.11 1.1-1.1Zm5.5.77c-4.18 4.73-9.79 10.12-13.2 15.73-.22.44-.33 1.32-.55 1.65-.33.44-1.1.33-1.43.77-.77 1.32-.55 3.52-.55 4.95.99.44 2.09.77 3.63.55 5.94-2.53 11.88-5.17 16.17-9.35-1.32-4.73-2.2-11-4.07-14.3Zm-6.38.88c-1.21-.55-2.2 1.21-2.75 2.42 1.21-.55 1.87-1.65 2.75-2.42Zm3.3.55c-.11-.11-.44-.11-.55-.33.22.11.55 0 .55.33Zm-1.1.55c.22.66-.44.55-.22 1.32-.77 0-.55-1.43.22-1.32Zm-6.6 2.97c.99-.22 1.54-.77 1.65-1.65-.44.66-1.54.66-1.65 1.65Zm31.9-1.32c-.77.22-1.32.55-1.65 1.32 1.1 0 1.54-.55 1.65-1.32Zm.33 1.1c-.22-.11-.22.11-.33.22.33 0 .33-.11.33-.22Zm-1.65.55c-.77 0-1.65.11-1.98.77.88.77 1.43-.55 1.98-.77Zm-30.8.55c-1.87.55-3.19 2.97-3.63 4.07 1.54-1.1 2.64-2.53 3.63-4.07Zm28.27.77c-.44 0-.66.22-.77.55.44 0 .66-.22.77-.55Zm-4.95 6.6c2.09-2.42 4.95-2.86 6.93-4.95-.66 2.75-4.4 3.08-6.93 4.95Zm0-3.52c0 .22-.22.33-.22.55.44-.11.99 0 .77-.55h-.55Zm-1.32 4.62c-.11-.55.44-.55.77-.55-.11.33-.33.55-.77.55Zm1.32.33v-.55h.55v.55h-.55ZM6.56 70.11c-1.65.22-1.76 2.09-2.2 3.63 1.43-.55 1.32-2.53 2.2-3.63Zm-2.53 6.05v.55c.33 0 .33.22.55.33 0-.44.11-.99-.55-.88Zm17.6.33c-.44-.11-.66.11-.77.55.44 0 .66-.22.77-.55Zm124.167-60.06c-.22.99 1.1.44.88 1.43-1.87 1.43-2.97 4.51-3.63 6.27.11-.33 0-.44-.22-.55-.33.33-.22.55.22.55-.77.66-.11 1.21-.55 2.2-.33.88-1.76.55-1.65 1.98-.44 0-.66.44-.55 1.1-.77.66-1.76 1.21-2.2 2.31.44-.44 1.98-.22 1.65.11-.33.11-1.32.88-2.42 1.65 0-.33-.11-.44-.33-.55-.33.33-.22.55.33.55-.11.66-2.09.66-1.43 1.65-1.1.99-2.42 1.54-3.3 3.3-.88.99-1.1 1.43-1.87 2.75-.77-.22.33-.77-.33-1.1-.66.11-.55.99-.55 1.65-.33 0-.22-.44-.55-.55-.55 0-.11 1.21-.22 1.65-.44.33-.66.33-.88-.22-.77.44-.33 2.2-1.65 1.32.11.66.55.88-.22 1.1-.11-.22 0-.55-.33-.55-.66.66-.77 1.76-1.32 2.53-2.53-.77-1.87 1.87-3.63 2.75-.33 0-.22-.55-.55-.55-.33 1.1-.66.66-1.1 1.65-.33-.11-.66-.11-.55-.55-1.1 1.76-2.42 1.87-3.85 3.52-.33 0-.22-.44-.55-.55-1.87 2.53-5.39 3.41-7.92 5.28-.33-.11-.55-.44-.55-.88-.44.11-.33.66-.33 1.1-3.85 1.1-7.15 2.09-12.1 1.65-2.09 2.31-2.2 6.6-4.4 8.8-1.43 7.7-6.6 15.4-4.62 23.1-.33.44-.66.77-1.1 1.1-.99 0-1.32-.66-2.2-.77-.44-1.54-1.43-2.53-1.98-3.85.99-12.43 5.72-21.12 9.35-30.8-.66-2.64-2.75-4.29-2.97-7.15-.44-4.84 3.3-9.46 6.05-11.88-1.87 2.97-4.18 5.61-5.28 9.35 1.43 0 1.65-3.63 2.75-4.95-.99 3.41-.22 6.82.33 11.33 5.83-11.77 10.67-24.75 17.27-36.3-4.07 2.53-8.14 5.83-11.77 9.35-6.93 6.6-13.42 14.63-17.38 23.87-.22.88.33.99.33 1.65-2.64 1.1-3.41-1.87-4.73-2.97.55-7.7 5.39-11.22 8.8-15.95-1.43 3.41-4.29 5.39-5.5 9.02-.22.11-.44.22-.55.55 0 .66.77-.11.55-.55 3.96-4.84 7.59-10.01 12.43-13.97-.44-.44-.88-.66.22-.55 2.86-4.18 7.37-6.49 10.78-10.78.22.11.33.22.22.55 2.31-2.86 6.16-4.07 8.8-6.6 2.42-.99 2.97-3.85 4.4-5.72.77 0 1.32.11 1.65.55.88-.55 1.87-.66 3.08-.33 6.6-2.2 16.5-3.19 23.65 1.1v.33c-.77 1.1 3.3 2.86 4.07 4.95.55 1.43-.22 1.98 0 3.52Zm-15.95 17.6c5.83-5.61 12.32-11.77 12.43-22.22-5.5-7.04-19.8-3.19-25.63.55-8.47 13.75-14.74 28.16-21.45 42.57 3.19.99 5.17-.99 8.03-1.32 8.8-4.07 15.84-9.79 23.1-15.4 1.21 1.43 1.76-3.3 3.52-2.2v-1.98Zm11.88-26.07c1.1.33 2.2.66 2.42 1.87-.99-.44-1.76-1.21-2.42-1.87Zm-32.78 3.3c.44 0 .22.55 0 .77-.44 0-.22-.55 0-.77Zm-6.82 7.7c1.98-1.21 3.96-2.53 5.72-3.85h.33c-.11-.22.11-.33.22-.33v-.55c-.55-.11-.44.44-.55.88-2.09 0-4.4 2.09-5.72 3.85Zm-2.53-1.1c0 .22-.33.22-.55.22 0-.22.33-.22.55-.22Zm.55 2.97c.11-.66 2.31-1.54.88-1.87.22.99-1.76 1.21-.88 1.87Zm-3.3 2.75c.66-.77 2.64-1.76 2.2-2.75-.66.77-2.53 1.87-2.2 2.75Zm44 2.53c-.44-1.54 1.76-3.74.33-3.63.55.33-.55 1.1-.88 1.43.99.66-.66.99-.55 1.87.55 0 .66.33 1.1.33Zm0 2.2c.77-.44 2.42-.99 1.65-1.98 1.43-.33 1.32-2.2 1.98-3.3.44 0 .22-.66.77-.55-1.21 3.3-2.64 6.49-5.5 8.25.11-.55.66-.66.55-1.32.55-.11.66-.55.55-1.1Zm-1.32-3.85h.55v-.55h-.55v.55Zm-1.1 5.5c.44-1.1 2.75-3.3.77-4.18-1.21 1.76-2.53 5.83-4.4 5.28.11 4.4-3.3 5.28-4.62 8.25 2.09-1.1 3.74-4.18 5.5-6.38.77-1.1 1.98-2.75 2.64-3.19l.11.22Zm-51.15-2.2c1.43.99-1.54 1.76-1.65 2.97-.88-1.21 1.54-1.76 1.65-2.97Zm-3.3 3.52c1.1.66-.66 2.75-1.98 2.75.55-.99 1.65-1.43 1.98-2.75Zm46.97 2.53c0 .44 0 .88.55.77 0-.44-.22-.66-.55-.77Zm6.38 1.32c-.66-.11 0-1.1.55-.77-.11.33-.55.44-.55.77Zm-36.08-.77v.55h.55v-.55h-.55Zm32.45 3.85c-.66-.11 0-1.1.55-.88 0 .44-.44.44-.55.88Zm-5.17.77c0-.44-.11-.99.22-1.1.11-1.21-.77 0-1.1 0 .11.55.11 1.21.88 1.1Zm-28.6-1.65c-.33.88-.66 1.76-1.1 2.53.99 0 1.43-2.09 1.1-2.53Zm26.95.33c0 .11-.11.33-.33.22 0-.11.11-.33.33-.22Zm-.33.22c0 .22 0 .33-.22.33 0-.22 0-.33.22-.33Zm6.38 1.43c-.33-.11-.33-.44-.33-.88.88-.55.88.33.33.88Zm-7.15 1.1c.66 0 .66-.66.77-1.1-.88-.33-.33.88-.77 1.1Zm2.97 0c.44-.22.66-.44.88-.88-.66 0-.88.22-.88.88h-.22c-3.08 2.86-6.71 5.28-9.35 8.47-.99.33-2.09.77-2.53 1.65 1.32-.11 2.09-.66 2.53-1.65 3.52-2.53 7.04-4.95 9.57-8.47Zm-16.17 13.42c.77-1.43 2.97-1.54 3.85-2.97-1.54-.22-2.53 2.31-3.3 1.1 1.32-.77 2.2-1.98 3.85-2.53-.11-.88 0-1.21.22-2.2.99.33.11.55.33 1.43.44 0 .66-.22.77-.55.88.22.55-.66.55-1.1.22.11.44.22.88.22.88-.66.88-1.76-.33-.77-.11-.66.11-1.1.55-1.1 1.54.66 2.64-.55 3.08-1.65.22-.11.22-.33.55-.33 0-.44-.11-.99.22-1.1-.11-.33-.44-.44-.55-.77.44-.44 1.65-.22 1.43-1.43-4.4 2.53-6.71 7.26-11.55 9.35-.22.88.66 1.1-.33 1.43.11-.44.11-.77-.22-.88-1.32.88-1.98 2.53-2.75 3.85.66.33 1.1-.77 1.32 0-.44.44-1.54.11-1.32 1.1.77 0 1.21-.55 1.87-.77.11-.66-.11-.77-.22-1.1.77.33.99-1.32 1.32-.55-.11.55-1.43.99-.22 1.32Zm-13.75-12.87c-.66-.11-.88.22-.88.77.77.22.55-.55.88-.77Zm26.07.77c.22 0 .55 0 .55-.22-.22 0-.55 0-.55.22Zm-27.17.33c.11.88-1.76 2.42-.55 2.75 0-.88 1.65-2.64.55-2.75Zm25.3.22v.55h-.55v-.55h.55Zm-23.98 1.43c.66.44.88-.99.33-.88 0 .22-.11.33-.33.33v.55Zm23.1-.55c.55-.11.77.22.88.55-.44-.11-.77.33-.88 0v-.55Zm-.55 1.32c-.22.77-1.54-.11-.77-.55.22.22.22.66.77.55Zm-23.32 0c.22.99-.44 1.1-.33 1.98.88.33.66-1.87.33-1.98Zm-1.65 1.65c.77-.44-.44-.88-.55-.22.22 0 .33.22.55.22Zm-.33.33c-.66 0-.99.33-1.1 1.1.77-.11 1.1-.44 1.1-1.1Zm22.55.55c-.22 0-.33-.55 0-.55v.55Zm-23.1.77c-.44 0-.66.22-.77.55.44 0 .66-.22.77-.55Zm22.55.33c-.11 0-.33-.22 0-.33v.33Zm-25.85 7.15c.33-.55.77-.77.55-1.65 1.1-1.1 1.98-3.74 1.98-4.95-.88 1.32-1.65 2.97-1.98 4.95-.22.33-1.32 1.1-.55 1.65Zm3.63-5.28c.11.77-1.21 1.43-.33 1.98 0-.66 1.43-1.98.33-1.98Zm-1.1 2.53v.55c.22 0 .33.22.55.22 0-.33.11-.55.22-.77h-.77Zm-1.1 2.42c.88.88 1.54-.99.55-1.1.33.88-.44.66-.55 1.1Zm11.22 2.2c1.76-.11 2.75-.99 3.85-1.65-.22-.11-.44-.22-.77-.22.11-.44.44-.44.55-.88-1.1.22-2.2.44-2.53 1.43.88 0 .99-.77 1.98-.55-.88.77-2.31.99-3.08 1.87-.33 0-.77 0-.77.33.33.22.66.22.77-.33Zm.88-1.65c-.66.11-1.98.77-1.1 1.43 0-.77 1.32-.33 1.1-1.43Zm-3.85 1.98c.22-.11.55 0 .55-.33-.22.11-.55 0-.55.33Zm-.33 1.1c.44 0 .77-.22.88-.55-.55 0-.77.22-.88.55Zm-1.87 0c0 1.21 1.65.22 1.65-.33-.88-.22-.99.33-1.65.33Zm-19.03 28.05c1.21-.11.88-1.54.55-2.2 2.97-8.36 5.61-17.05 9.35-24.53 0-.33-.11-.66-.55-.55-3.63 8.58-7.37 17.05-9.35 27.28Zm11-25.3c-.22-.55.88-.99 0-1.1-.11.11-.66.99 0 1.1Zm-2.2 5.72c0-1.65 1.76-2.86 1.1-4.07-.44 1.21-2.31 2.86-1.1 4.07Zm-1.1 2.2c.33-.44 1.1-1.65 0-1.87.44.88-.66 1.65 0 1.87Zm-.55 1.43v-.55h-.55v.55h.55Zm-.55 1.1c.11-.44.44-.55.55-.88h-.77v.55c0 .22 0 .33.22.33Zm-1.1 2.42c.99-.11.77-1.21.88-2.2-.99.11-.55 1.54-.88 2.2Zm-1.65 5.83c.22-1.76 2.42-4.4 1.43-5.5-.22 1.87-2.31 4.29-1.43 5.5Zm-.77 1.1c.77.33.77-1.32 0-.88v.88Zm-.88 2.75c.88 0 1.21-1.65.33-1.65 0 .66-.55.77-.33 1.65Zm70.915-49.06c1.32-3.85 12.21-3.41 8.8 2.97-1.1-.55-1.1-2.09-2.2-2.75-7.92 3.3-10.45 11.88-15.73 17.93.66 1.32-.88 2.75-1.65 3.52-2.31 6.05-5.06 11.77-8.25 17.05-2.97 1.1-3.74-1.87-5.5-2.97 1.21-6.93 2.86-13.64 5.83-19.58 1.32-5.06 3.19-11.88 5.72-16.72 1.32.66 1.87-.66 2.75-1.1 6.71 2.42-.11 10.23-1.32 14.85 2.64-1.54 1.43-5.28 4.62-6.38-.22-1.43 1.87-2.53 2.86-3.85-3.52 7.15-8.25 12.76-10.56 20.9-.33.22-.66.44-.77.88.55 0 .88-.22.77-.88 5.39-8.8 9.35-18.04 16.5-24.42-.44-.77-1.54.22-1.87.55Zm-1.1 1.1c-.66.11-.55-.44-.55-.88.33.11.55.44.55.88Zm-.88.22c-.22.66-.55 1.21-1.1 1.65.22-.77 0-1.87 1.1-1.65Zm-15.62 19.03c.22-.33.99-.11.77-.88h-.77v.88c-.55.55-1.21.99-1.1 2.2 1.1 0 .88-1.43 1.1-2.2Zm-3.08 10.45c.33-2.64 2.75-6.05 1.98-8.03-.66 2.75-2.53 5.5-1.98 8.03Zm-1.1-3.3c.99-.66.88-2.42 1.43-3.63-1.43.55-1.32 2.42-1.43 3.63Zm39.484-35.97c-1.65-.22-2.2-1.76-3.08-2.75-.11-4.73 5.94-6.05 6.38-1.98.22 2.42-1.65 3.52-3.3 4.73Zm10.12 23.1c-.55.44-.77.66-1.65.22.11.99 1.1 1.98 0 2.53 0 .22.55.33.55 0 .77.33-.33.88-.77.77-.44.44-.22 1.32-.55 1.65-1.76 1.54-3.74 2.75-4.4 5.28-5.5 3.41-6.6 12.1-14.63 12.1-.55-.33-1.21-2.09-1.65-.88-2.31-2.09-3.96-3.96-3.85-7.15.22-8.14 7.04-17.82 8.25-25.3 1.21-.22 1.54-1.32 2.53-1.87 1.65.22 3.3.55 4.4 1.32.88 1.43-.44 1.76.55 3.08-3.63 8.47-8.58 16.72-10.23 26.07 9.24-6.49 15.18-16.28 23.98-23.32-.22 2.64-3.08 3.74-2.53 5.5Zm-19.25-2.75c-.22 0-.55 0-.55.22.22 0 .55 0 .55-.22Zm-2.75 11.55c-.44-1.1 0-1.32-.22-2.53.55 0 .33.77 1.1.55-.11-1.21-.99-1.1.22-1.65-.22-.22-.99 0-.77-.77 1.32-.55.44-3.41 1.87-3.85-.33-.77-.33-1.76 0-2.53-2.31 1.87-1.76 6.71-4.07 8.58-1.1 4.29-2.64 6.82-1.65 11.22.88-.55 1.21-.33 1.65-1.1-.11-.33-.88 0-.88-.55 1.1-.33.77-1.65.55-2.75 1.32.44.99-2.31.88-2.42.77-.66-.11-1.87 1.32-2.2Zm20.13-6.93c.33-.33.33-.99-.33-1.1-.33.44-.33 1.1.33 1.1Zm-1.65 1.1c.88.22 1.21-.22 1.1-1.1-.77.11-1.1.44-1.1 1.1Zm-.33 1.1v-.55h-.55v.55h.55Zm-1.32 1.1c.44 0 .88-.11 1.1-.55-.55 0-.44-.66-1.1-.55v1.1Zm2.2-.77c.22 0 .44.33.55 0 0-.33-.55-.33-.55 0Zm-2.75 1.87v-.77h-.88c0 .33.11.55.33.77h.55Zm.77.55c0-.11.11-.33.33-.22-.11-.33-.11-.66-.55-.55 0 .33-.11.77.22.77Zm-3.3 1.1c.66.11.88-.22.88-.77-.66-.11-.88.22-.88.77-1.1.22-1.76.77-1.87 1.98-2.2.55-2.75 2.64-4.18 3.85 1.98-.66 2.86-2.42 4.18-3.85.22-.22.55-.33 1.1-.33 0-.44.11-.88.55-1.1 0 .33.33.22.55.33 0-.44-.33-.44-.33-.88Zm2.2 0v-.55h-.55v.55h.55Zm-17.27 3.08c0 .22-.55.33-.55 0h.55Zm1.65 2.42c.22 0 .55 0 .55-.22-.22 0-.55 0-.55.22Zm6.6 1.43c.33-.22.66-.44.77-.88-.55 0-.88.22-.77.88h-.55v.55c.44.11.44-.22.55-.55Zm-10.45 1.87c0-.22.33-.22.55-.22 0 .22-.33.22-.55.22Zm48.038-19.8c1.21 2.31-1.43 4.62-1.87 6.6h-.55c-1.76 3.63-4.95 5.94-6.93 9.35 1.87-.88 3.85-4.07 5.83-5.83-3.08 4.73-6.6 9.02-10.78 12.65-.77 2.53-3.85 4.62-6.82 5.83-3.19.44-4.18-1.32-6.05-2.2-.44-1.1-.77-2.2-1.65-2.75-.44-2.53-.77-5.39-.88-7.48 3.08-11.22 8.8-21.12 15.73-29.37l2.42-.77c3.19.22 5.83 1.1 6.6 3.85-.11 3.41-2.2 7.04-2.42 10.45-1.54.99-2.86 1.1-4.95.77-.33-2.53-.33-4.73.55-6.6-6.38 7.26-12.87 18.37-13.2 29.7 1.1 0 1.32-.88 2.42-.88 8.69-6.6 15.29-15.29 22.55-23.32Zm-28.82 19.8c2.09-10.67 7.92-18.7 12.65-27.5-.44 0-.66-.11-.88-.33-4.84 8.58-11.99 16.5-11.77 27.83Zm11.55-19.47h.55c-.11-.33 0-.88-.33-.88 0 .33-.44.22-.55.55.22 0 .33 0 .33.33Zm16.5 2.42v-.55h-.55v.55h.55Zm-3.3 3.52c1.32-.66 2.09-1.87 2.75-3.19-1.43.55-1.98 2.09-2.75 3.19-.88.22-1.21 1.1-1.98 1.43.88.66 1.76-.55 1.98-1.43Zm-17.05-.22c.66.44.77-.99.22-.88 0 .22 0 .33-.22.33v.55Zm7.15 11.33c3.3-2.97 7.81-6.16 9.35-9.13-3.41 2.75-6.71 5.61-9.35 9.13Zm-13.53-.33c.77.22.55-.55.88-.88-.66 0-.88.22-.88.88Zm17.05.33c.77.11.55-.66.88-.88-.66-.11-.88.22-.88.88Zm19.814-37.4c-1.65-.22-2.2-1.76-3.08-2.75-.11-4.73 5.94-6.05 6.38-1.98.22 2.42-1.65 3.52-3.3 4.73Zm10.12 23.1c-.55.44-.77.66-1.65.22.11.99 1.1 1.98 0 2.53 0 .22.55.33.55 0 .77.33-.33.88-.77.77-.44.44-.22 1.32-.55 1.65-1.76 1.54-3.74 2.75-4.4 5.28-5.5 3.41-6.6 12.1-14.631 12.1-.55-.33-1.21-2.09-1.65-.88-2.31-2.09-3.96-3.96-3.85-7.15.22-8.14 7.041-17.82 8.251-25.3 1.21-.22 1.54-1.32 2.53-1.87 1.65.22 3.3.55 4.4 1.32.88 1.43-.44 1.76.55 3.08-3.63 8.47-8.58 16.72-10.231 26.07 9.241-6.49 15.181-16.28 23.981-23.32-.22 2.64-3.08 3.74-2.53 5.5Zm-19.25-2.75c-.22 0-.55 0-.55.22.22 0 .55 0 .55-.22Zm-2.751 11.55c-.44-1.1 0-1.32-.22-2.53.55 0 .33.77 1.1.55-.11-1.21-.99-1.1.221-1.65-.221-.22-.991 0-.771-.77 1.321-.55.44-3.41 1.871-3.85-.33-.77-.33-1.76 0-2.53-2.311 1.87-1.761 6.71-4.071 8.58-1.1 4.29-2.64 6.82-1.65 11.22.88-.55 1.21-.33 1.65-1.1-.11-.33-.88 0-.88-.55 1.1-.33.77-1.65.55-2.75 1.32.44.99-2.31.88-2.42.77-.66-.11-1.87 1.32-2.2Zm20.131-6.93c.33-.33.33-.99-.33-1.1-.33.44-.33 1.1.33 1.1Zm-1.65 1.1c.88.22 1.21-.22 1.1-1.1-.77.11-1.1.44-1.1 1.1Zm-.33 1.1v-.55h-.55v.55h.55Zm-1.32 1.1c.439 0 .88-.11 1.1-.55-.55 0-.44-.66-1.1-.55v1.1Zm2.2-.77c.22 0 .44.33.55 0 0-.33-.55-.33-.55 0Zm-2.75 1.87v-.77h-.88c0 .33.11.55.33.77h.55Zm.77.55c0-.11.11-.33.33-.22-.111-.33-.111-.66-.55-.55 0 .33-.11.77.22.77Zm-3.3 1.1c.66.11.88-.22.88-.77-.66-.11-.88.22-.88.77-1.1.22-1.76.77-1.87 1.98-2.2.55-2.75 2.64-4.18 3.85 1.98-.66 2.86-2.42 4.18-3.85.22-.22.55-.33 1.1-.33 0-.44.11-.88.55-1.1 0 .33.33.22.55.33 0-.44-.33-.44-.33-.88Zm2.2 0v-.55h-.55v.55h.55Zm-17.271 3.08c0 .22-.55.33-.55 0h.55Zm1.65 2.42c.22 0 .55 0 .55-.22-.22 0-.55 0-.55.22Zm6.601 1.43c.33-.22.66-.44.77-.88-.55 0-.88.22-.77.88h-.55v.55c.44.11.44-.22.55-.55Zm-10.451 1.87c0-.22.33-.22.55-.22 0 .22-.33.22-.55.22Zm43.309-3.19c4.18-4.4 6.6-10.67 11-14.85-1.54 3.08-2.2 6.93-5.28 8.47-.11 2.31-1.32 3.41-2.2 4.95 1.87-.22 1.87-2.31 3.3-2.97 0 .99-.44 1.65-1.1 2.2 0 .66.55.77.33 1.65-1.98 2.97-3.63 6.27-7.48 7.37-2.09-.44-2.86-2.2-4.62-2.97-.11-1.32-.66-2.2-1.1-3.08.99-8.69 2.86-15.95 5.17-24.2-1.21 0-1.32 2.75-2.42 1.1-.66.22-.11 1.54-.33 2.2-7.7 8.25-10.23 20.02-17.27 28.6-.55.11-1.1-1.21-1.65-.22-.99-1.21-1.87-2.42-3.3-3.63.99-7.04 5.94-14.52 7.92-22.22.55 0 .66-.33 1.1-.33.33-5.17 7.92-14.96 9.35-6.05 3.08-1.32 4.51-4.84 8.58-4.4.88 1.32 2.86 1.76 3.3 3.63-.44 6.6-1.98 12.21-3.85 17.27 0 2.97-.77 4.95-1.98 6.05 1.21.99-.33 2.09.33 3.3 1.76.44.99-2.2 2.75-1.1 0-.44 0-.88-.55-.77Zm-2.2-24.53c0-.55-.22-.88-.88-.77.22-.77 1.21-.66 1.1-1.65-5.94 3.96-10.12 9.79-12.1 17.05v.55h.55c.11-.55-.22-.55-.55-.55.77-1.43 3.85-2.64 2.2-4.73 1.65.55 2.09-1.65 3.3-1.87-.11-1.1 0-1.1-.77-1.65.22-.11.22-.33.55-.33 0 .22.22.33.22.55.88.33.22-.88 1.1-.55-.44-1.21.77-2.42 1.98-2.75-.11-.88.66-1.1-.33-1.32.44-.33.44-1.1.88-1.43v1.1c.66.11.88-.44 1.1-.77-.22-.33-.99-.11-.88-.88.33-.22.66-.22 1.1-.22-.11.22-.22.44-.22.77 1.32.33.44-1.32 1.65-.55Zm-1.1-.55c0-.11 0-.33.22-.22.11.22-.11.22-.22.22Zm0 0c0 .22-.11.33-.33.33 0-.22.11-.33.33-.33Zm-2.75 2.75c0-.11 0-.33.22-.22 0 .11 0 .33-.22.22Zm-.33.33c0-.22.11-.33.33-.33 0 .22-.11.33-.33.33Zm-.22.22c0-.11 0-.33.22-.22 0 .11 0 .33-.22.22Zm-.55.88c0-.55.22-.77.55-.88 0 .55-.22.77-.55.88Zm-.55.55c0-.33.33-.44.55-.55.22.44-.55 1.21-.55.55Zm.55 1.32c.44 0 .99.11 1.1-.22-.33 0-.22-.55-.55-.55-.11.33-.44.44-.55.77Zm-.88 0c-.11.33-.33.55-.77.55.11-.33.33-.55.77-.55Zm-2.42 2.75c.33-.22.11-.99.77-.77.11.55-.22.88-.77.77Zm22 .55c-.11-.55.22-.88.77-.77-.11.33-.44.66-.77.77Zm-.55.88c0-.44.11-.66.22-.88h.33c0 .44-.22.77-.55.88Zm-11.33 1.1c-.33.55-1.65.11-1.65 1.1.88 0 1.54-.33 1.65-1.1Zm-2.42.77c-1.32 0-1.1 1.21-.55 1.98.66-.77.11-.99.55-1.98Zm-1.43 2.53c.11-.77.55-.88-.22-1.1 0 .33-.11.99.22 1.1Zm2.53 0c.55.22 1.21-.77.55-.88-.11.44-.44.44-.55.88Zm.55.55c-.22 0-.55 0-.55.22.22 0 .55 0 .55-.22Zm-14.63 1.87c.55.44.44 0 1.1 0 0-.44-.11-.88-.55-1.1 0 .55-.77.33-.55 1.1Zm12.43 4.4c1.32-.55 1.87-3.41 1.1-4.4.88.22.99-.44 1.1-1.1-.33.11-.77 0-.88.33.44.88-.22 0-1.1 0 .88 1.54.11 3.3-.22 5.17Zm-1.1-4.07c0-.33-.44-.33-.55 0 .33 0 .44.33.55 0Zm-11.88.77c.22.22.77.44.88 0-.22-.22-.77-.44-.88 0Zm12.1 5.83v-.55h-.55v.55h.55Zm6.93.22c.22 0 .55 0 .55-.22-.22 0-.55 0-.55.22Zm2.42-.22c0 .22-.22.33-.22.55.22 0 .33.22.55.22 0-.22.22-.33.22-.55-.22 0-.33-.22-.55-.22Zm-3.3.77v-.55h-.55v.55h.55Zm33.6-12.43c-.33 0-.44-.33-1.1-.22.11.33.55.22.55.55-.77 5.28-3.63 10.67-4.84 16.5-.44 0-.44.33-.88.22-2.31 9.24-6.38 17.16-11.33 24.97-.55-1.87 1.21-3.3 1.98-4.62-1.32-.88-.77.88-1.98.88.88 1.98-1.1 1.43-.99 3.3h-.33c-.11-.22-.22-.33-.55-.22-.44-.77.88-1.76 1.65-2.31-.44-1.21.77-2.86 1.87-3.52-.66-.33.22-2.42 1.43-2.53.11 1.21-.88.99-.33 1.98-.88.11-.77 1.1-.99 1.87 1.21.33 1.1-.88.99-1.87 1.21-1.1 1.65-2.86 2.53-4.73-.22-.66-.66.77-1.1.11.55 1.21-.55 1.87-1.1 2.64 0-1.87 1.21-4.84 2.97-6.6.55.99-.11 1.76-.77 2.2 0-.22-.11-.22-.33-.22 0 .22.11.22.33.22v.55c1.43.22 1.65-2.09 1.32-2.75.77-.55 1.43-1.76 1.1-2.75-.55.11-.55.77-.55 1.43-.22-.11-.44-.33-.77-.33.99-3.63 2.53-6.38 3.3-9.57.44 0 .44.44.77.55 0 .44 0 .77.33.77.44-.33.55-.99.55-1.87-1.1-.44-.11 1.21-.88 1.1-.99-2.42.88-3.41 1.1-6.38.77.33 1.21.33 1.98 0-.11-.88-1.1-.33-1.65-.22.88-3.19 1.65-5.28 2.75-8.47-3.3 5.61-5.17 14.08-8.03 21.67-1.21-1.43 1.87-4.18 1.1-6.05 3.19-7.7 5.17-15.84 7.48-23.98 0-.33-.44-.22-.88-.22-.66-.66.44-.55.33-1.43-1.1.33-.88.77-1.43-.22-.44.55.11 1.65-.22 2.97-1.65 1.21-3.52 3.3-3.52 5.28-1.32.33-.99.99-1.43 1.98-.33.55-1.43 1.1-1.65 1.54-4.07 6.82-7.48 15.07-14.85 17.93-1.43-.55-2.75-.55-2.97-2.75-.22.11-.55 0-.66.33-.33-.66-.33-1.65-1.32-1.76-.44-3.08-.33-5.06 1.1-7.15 2.64-9.79 6.82-17.16 12.65-24.75 4.07-.44 8.14.99 8.8 4.73 2.75-1.43 3.08-5.39 6.05-6.6-.22-.77.33-.77.22-1.43 3.08-.33 3.52 1.87 4.73 1.98 0 .66 0 1.32.22 1.65 1.32 4.29-1.76 9.9-2.75 15.62Zm-5.39-12.65c1.76-1.1 2.31-3.52 3.85-4.95-2.2.88-2.97 2.97-3.85 4.95Zm2.42-.99c-.22 0-.55 0-.55.22.22-.11.55 0 .55-.22Zm2.75 0c-.55.55 0 .88.55.99.11-.55-.11-.99-.55-.99Zm-2.75 2.09c.33-.33.33-.99-.33-1.1-.33.44-.11.88.33 1.1Zm2.75 0c.33 0 .33.22.55.33 0-.44 0-.99-.55-.88v.55Zm-6.6 1.1c-.66.22-1.65 1.54-1.1 1.98 0-.55.88-.22.77-.88-.77-.22.66-.33.33-1.1Zm5.72 2.2c.44 0 .66-2.2-.22-1.87-.22.66-1.1 1.98.22 1.87Zm-11.99-1.32c-.22 0-.66 0-.66.22.22 0 .55 0 .66-.22Zm10.45 0c0 .44-.11.99.44.77.11-.44-.11-.66-.44-.77Zm-22.88 20.9c-.44.44-1.76 2.64-.55 2.97 4.84-5.61 9.24-11.77 13.2-18.37-1.21-.11-1.87.99-2.53 0 .66-1.32 1.32-3.85.33-5.28-1.21 1.98-2.2 4.07-3.85 5.5-1.87 5.28-5.39 9.02-6.6 15.18Zm19.03-20.13c.33 0 .88.11.77-.55h-.55c0 .33-.22.33-.22.55Zm-.66 1.1c0-.33.11-.77-.22-.77-.11.44-.44.44-.55.77h.77Zm5.61 0c0 .33-.11.88.22.88 0-.22 0-.33.22-.22 0-.44 0-.66-.44-.66Zm-6.93 1.65c.66.22 1.65-.66.77-.99.11.66-.99.11-.77.99Zm1.32 0c.88.44 1.65-.77.88-.99.11.66-1.1.11-.88.99Zm5.28.33h.55v-.55h-.55v.55Zm-6.27.77v-.55h-.66v.55h.66Zm6.6 0c-.22.11-.55 0-.66.33.22-.11.55 0 .66-.33Zm-10.01 1.98c.33-.55.44-1.21.88-1.65-.88 0-2.09 1.21-.88 1.65Zm7.48-1.65c-.11.22 0 .55-.33.55.11-.22 0-.55.33-.55Zm2.53 2.42c.11-.33.33.11.77 0 .11-.66-.55-.66-1.1-.77-.44-.77.33-.99-.33-1.43-.22.55-.99 1.43 0 1.65 0-.22.11-.22.33-.22 0 .33 0 .77.33.77Zm-8.03-.99c0-.22 0-.33.33-.33-.11-.33-.11-.66-.66-.55.11.33 0 .77.33.88Zm4.95.99c-.66-.22 0-1.54.22-1.87.55.55-.22 1.1-.22 1.87Zm-11 4.4c1.98-.88 2.31-3.52 3.85-4.95-2.42.55-2.75 3.19-3.85 4.95Zm15.62-4.95c-.22.11-.55.11-.55.33.22-.11.55 0 .55-.33Zm-2.64.33c0 .44-.11.99.44.77.11-.44-.11-.66-.44-.77Zm-2.75 3.08c-1.32 0 .22-1.1 0-1.98.88.22-.11 1.76 0 1.98Zm2.09-1.21c.22 0 .55 0 .66-.22-.22 0-.66 0-.66.22Zm-9.35 1.21c.22-.11.55-.11.66-.33-.22.11-.55 0-.66.33Zm6.6.77c.11-.22.44-.22.66-.33-.11.33-.44.22-.66.33Zm3.41.22c.44.11.66-.11.77-.55-.44 0-.66.22-.77.55Zm-4.73 4.73c-.88-.88 1.43-3.41 1.1-4.73.99.88-.88 3.3-1.1 4.73Zm-10.45-.88c1.1-.33 2.42-1.76 1.32-2.75-.11 1.32-1.32 1.43-1.32 2.75Zm1.32.88c.77.11.77-.55.88-1.1-.88-.22-.44.88-.88 1.1Zm-3.52 1.87c1.21-.11 2.75-2.09 1.65-2.75-.33 1.21-1.32 1.65-1.65 2.75Zm17.38-1.87c0-.33.44-.66 0-.88-.11.33-.55.66 0 .88Zm-1.21.88c.44-.33.66-.77.55-1.43-.88-.33-.33.88-.55 1.43-.77-.33-.44.55-.55.99h.33c.22-.22.33-.55.22-.99Zm-4.07.44c-.66-.11 0-.99.55-.77-.11.33-.44.44-.55.77Zm-.11.33c-.33.22 0 1.1-.44 1.1-.33-.33-.22-.99.44-1.1Zm-20.24 1.1c0-.33.11-.66.22-.88h-.77V59c.22 0 .33.22.55.33Zm7.92.77c.11-.55-.22-.88-.77-.77v.77h.77Zm11.88-.77c-.33 2.2-1.87 5.61-2.75 8.25.22-2.75 1.1-5.83 2.75-8.25Zm3.52 1.65c0-.44.11-.99-.44-.88v.55c.22 0 .22.33.44.33Zm-1.1 1.87c.66.22.55-.33.66-.77h-.66v.77Zm-23.87 3.08h.88c0-.55-.33-.66-.88-.55v.55Zm18.15 2.2c.66.11 0 .99-.22 1.1-.11-.44 0-.88.22-1.1Zm-.55 1.1h.33c-.33 1.87-.99 3.52-1.98 4.62.11-1.98 1.21-2.97 1.65-4.62Zm4.18 1.65V70h-.66c0 .22 0 .33-.22.33v.55h.88Zm-.88.77c0-.33-.11-.55-.55-.55 0 .33 0 .88.33.88 0-.22 0-.33.22-.33Zm-.88 1.65c.44.11.55.44 1.1.33-.22-.44.11-1.43-.77-1.43.11.55-.33.66-.33 1.1Zm-1.87-.77c.44 2.2-1.32 4.73-2.53 6.27.88-2.53 1.76-3.52 2.53-6.27Zm-2.75 1.65c.22 0 .33 0 .22-.33h.33c0 .44 0 .99-.55.88v-.55Zm-4.4 18.37c.66.22.55-.44 1.21-.22-.11.22-.33.44-.44.77.77 1.32-.88.77-.22 1.98-.22 0-.33-.22-.55-.33-.77 2.75-3.08 3.74-3.85 6.38h-.77c-2.42 4.51-9.46 9.13-14.08 4.73-1.54-1.54-1.76-3.41-3.3-5.28-.11-2.31 0-4.95.33-7.48.55 1.1.99-2.2.77-2.97.88.99.22-2.31.77-3.63 1.21.88-.55 2.09.33 3.08 0 2.53.77 6.16-.33 7.7 1.32.55.44-1.1 1.43-.88-.66 2.31-.11 2.86 0 5.28 2.53 3.63 6.82-1.54 8.8-3.63.33.11.22.55.55.55.22-.88 1.43-.88 1.32-2.2.33 0 .22-.22 0-.22.11-.33.44-.33.33-.77.44-.22.44-.44.77 0 4.29-6.05 7.59-13.09 11-20.46.22 3.52-3.52 7.37-4.62 11.33.11.77.44-.44.88-.33.22 1.1-.77.88-.66 1.65h-.44v-.55c-.44.11-.33.55 0 .55-.44 1.98-.88 2.53-1.98 3.3.11-.44-.22-.44-.55-.55-.11.55.22.55.55.55.33 1.1-.66.88-.55 1.65h-.22c0-.22-.11-.44-.33-.55-.33.11-.22.55-.33.88-.22-.11-.22.11-.22.22h-.22c0 .33.22.22.22 0 .22.11.22 0 .22-.22h.33c-.44 1.65-1.54 2.64-2.2 4.07.77.11.88-.22.22 1.1h-.22c0-.33-.11-.55-.55-.55-.55.55-.99 1.1-.77 2.2-1.98-.99-1.21 2.86-3.08 2.75 0 .88 0 1.54.77 1.43.22.88-1.1.33-.77 1.32 2.09.11 3.08-3.3 5.17-4.07-.11-.55 0-1.21-.77-1.1-.44 1.87-2.2 2.42-3.08 3.85-.55-1.76 3.08-3.85 4.18-6.38h.33c.55.77-.55 1.54-.66 2.53.55.77.66-1.1 1.43-.88.77-1.54 2.64-4.29 4.4-5.72-.11-.55-.44-.66-1.1-.55-.44.33-.33 1.32-1.1.55-.11 1.65-.99 4.18-2.97 4.07 1.65-1.65 2.09-4.84 4.62-5.72v.77Zm7.7-17.6c.33.77.55.88.22 1.65-.33 0-.44-.44-.77-.55-.11-.44.33-.55.22-1.1h.33Zm-4.4 6.05c1.1-.11.33-1.98 1.65-1.87-.77.99-.99 2.53-1.65 3.52h-.22c-.33-.99.88-.88.22-1.65Zm-1.1 3.3c-.22-.88.33-1.1.55-1.65h.33c0 .99-.55 1.21-.88 1.65Zm-.22 1.1c-.55.11-.55-1.54.22-1.1-.11.44-.44.55-.22 1.1Zm-.88.55c.44 1.54-1.54 2.64-1.87 4.18-.22-2.09 1.43-2.42 1.54-4.18h.33Zm-3.3 3.85c0-.22-.44-.33-.55 0 .33 0 .44.44.55 0Zm1.1 1.1c-.44 0-.22-.55 0-.77h.33c0 .33-.22.55-.33.77Zm-.88.33c.44.11.22.55 0 .77h-.22c0-.33.11-.55.22-.77Zm-.77 2.2c-.77-.33.33-1.1.55-1.43.22.88-.44.88-.55 1.43Zm4.07-1.1h-.11l.11-.11v.11Zm-5.17.55c0-.22 0-.33.33-.33-.11.22-.11.33-.33.33Zm.33.77c.55.22.55.44.22.88h-.55c.11-.22.33-.44.33-.88Zm-17.71 1.98c.22-.11.55 0 .66-.22-.22 0-.55 0-.66.22Zm15.18.22c-.66-.11-1.1 1.1-.55 1.1 0-.55.77-.33.55-1.1Zm-1.98.55c-.11 0-.22-.22 0-.22v.22Zm-13.42 1.1c-1.32 1.54 1.32-.44 0-.22v.22Zm14.08.33c-.22 0-.55 0-.66.22.22 0 .55 0 .66-.22Zm-12.21 1.1v-.88h-.55c0 .22 0 .33-.22.33v.55h.77Zm13.2-.55c.11-.22.11-.33.33-.33 0 .22 0 .33-.33.33Zm-4.84 2.42c-.55 0-.77.22-.88.55.44.11.66-.11.88-.55Zm.22 3.3c.22.11.22-.11.22-.22-.33-.44-.99-.44-1.32-.88.33 0 1.32-.77.55-.99-.22.22-.55.33-.88.44v2.2c-.22.55-2.09.99-1.32 1.65.55-.66 1.54-.77 2.2-1.32v-.55h.33c-.11-.22 0-.22.22-.33Zm-2.2-1.65c-.22.11-.55.11-.55.33.22-.11.55 0 .55-.33Zm1.1 1.65c.22 0 .33-.22.55-.22v.55c-.22-.11-.55 0-.55-.33Zm.55 1.76c.22-.11.55-.11.55-.33-.22.11-.55 0-.55.33Zm-3.3.44c.22 0 .55 0 .55-.22-.22 0-.55 0-.55.22Z"/></svg>