<svg xmlns="http://www.w3.org/2000/svg" width="53" height="90" fill="none"><path fill="#fff" fill-rule="evenodd" d="M8.017 74.2c-.486.112-1.435.426-2.097.717-1.082.448-1.59.783-2.87 1.97-.42.403-.795 2.754-.552 3.537.066.246-.022.739-.198 1.12-.265.514-.332 1.186-.287 2.753.088 2.306.618 3.739 1.633 4.522.552.425.574.425.861.022.206-.268.316-.26.331.023.022.224.022.492 0 .582-.044.269.375.224.53-.045.088-.134.243-.157.375-.09.133.09.11.224-.066.359-.243.156-.199.179.132.134.243-.022.574.022.729.112.132.112.265.112.265 0 0-.313-.42-.85-.662-.873-.11-.022-.332-.045-.464-.067-.375-.045-.088-.582.287-.582.199 0 .574-.202.817-.426.309-.283.463-.26.463.068 0 .313.089.447.243.335.133-.067.331 0 .442.157.287.47.242.672-.155.604-.464-.089-.662.403-.243.56.155.067.795-.022 1.413-.179.64-.179 1.346-.246 1.59-.179.308.09.507-.022.617-.291.089-.246.332-.56.53-.716.22-.157.353-.426.287-.582-.11-.291.243-.403 1.744-.65.22-.044.684-.425.993-.85.31-.426.729-.851.905-.963.177-.112.905-.806 1.59-1.522 1.037-1.075 1.258-1.456 1.258-2.082 0-.403.088-.896.177-1.052.353-.56.287-1.03-.221-1.791-.265-.426-.574-1.03-.64-1.344-.133-.492-.067-.604.375-.716.309-.067.795-.045 1.104.09.309.112.574.156.574.112 0-.045.242 0 .551.111.861.336.817-.09-.066-.962-1.236-1.21-2.384-1.567-5.077-1.545-1.324.022-2.825-.09-3.642-.291-1.523-.358-2.296-.38-3.576-.09Zm3.775 5.888c1.015.672 1.368.985 1.964 1.657l.42.515-1.126 1.074c-1.17 1.12-1.832 1.366-3.51 1.366-1.302 0-2.03-.336-2.34-1.052-.154-.358-.375-.717-.508-.806-.154-.135-.132-.224.067-.314.132-.044.264-.29.264-.515 0-.223.243-.604.552-.85.31-.246.552-.605.552-.806 0-.515 1.082-1.007 2.009-.918.442.022 1.17.313 1.656.65Zm-2.01 8.642c.067.111-.065.223-.308.223-.265 0-.53 0-.618.023-.089 0-.199-.09-.243-.224-.11-.313.993-.336 1.17-.022Z" clip-rule="evenodd"/><path fill="#fff" d="M3.675 51.924c-.264-1.629.588-4.325 1.115-5.578l.028-.071c.123-.307.226-.597.348-.93.096-.259.203-.544.339-.88.4-1.037 1.16-2.473 2.534-3.917a20.769 20.769 0 0 1 1.588-1.794c.451-.457.895-.876 1.333-1.277 2.532-2.316 5.494-4.165 8.79-5.363 1.975-.698 3.91-1.233 6.27-1.482 2.35-.133 3.706 0 5.48.066l.27-.007c.464-.012.955-.024 1.452-.03 1.284-.015 2.521-.078 3.265-.08.955.015 1.596-.096 2.718-.251.197-.008.383-.021.56-.038 2.312-.5 4.519-1.936 6.19-4.003 1.153-1.45 1.53-2.484 1.3-4.505-.101-1.008-.368-2.279-.35-3.805.036-1.076.234-1.653.322-2.156.274-1.347.183-1.938-.309-2.898a6.521 6.521 0 0 0-.858-.969c.036.088-.088-.005-.227-.078-.664-.378-1.581-.81-2.258-1.172-1.67-.896-3.597-2.073-5.085-3.014-.25-.159-.476-.304-.715-.459a13.294 13.294 0 0 1-.436-.242 7.14 7.14 0 0 1-.265-.16 4.46 4.46 0 0 1-.4-.285c-.099-.08-.206-.172-.332-.3a3.32 3.32 0 0 1-.311-.368c-.067-.095-.094-.126-.21-.33a3.09 3.09 0 0 1-.293-2.256c.148-.68.704-1.371 1.015-1.6.74-.582 1.246-.616 1.45-.667.54-.082.67-.048.87-.041.592.056.784.127 1.061.2.256.076.49.157.776.285.142.064.294.137.51.268.103.065.226.145.386.272.14.117.376.304.658.703.166.243.35.554.478 1.044.153.538.124 1.364-.13 1.953a3.282 3.282 0 0 1-.891 1.24 3.295 3.295 0 0 1-.645.43c-.317.159-.495.21-.687.267-.14.039-.26.065-.373.086-.4.072-.617.082-.854.096a14.13 14.13 0 0 1-1.075.01c-.119-.039-.204-.078-.31-.12-.25-.098-.46-.181-.727-.26-.922-.325-2.162-.401-3.944-.458-.954-.03-2.063-.054-3.376-.106-.847-.032-1.281-.207-1.637-.35a4.498 4.498 0 0 0-.302-.112c-.341-.109-.703.003-1.13.135-.554.17-1.219.378-2.096.184-1.847-.406-3.023-.37-3.882-.216a6.55 6.55 0 0 0-1.064.305c-.262.093-.494.178-.73.23-.772.163-1.845.073-2.65-.036-.644-.096-1.846.262-2.493.71-.254.167-.583.297-.99.518l-.089.049c-.319.181-.524.344-.88.831-.954 1.375-1.558 2.436-2.002 3.152-.126.209-.25.412-.368.61-.25.419-.552.901-.874 1.41-.125.206-.234.401-.323.582-.306.626-.402 1.156-.449 1.801-.41 1.435-.652 3.516-.883 5.505l-.06.54c-.128 1.14-.554 2.219-1.2 2.992-.646.777-1.454 1.186-2.276 1.161-.824-.014-1.603-.518-2.173-1.368-.57-.85-.882-1.986-.884-3.143v-.548C.31 19.633.237 17.5.737 14.834c.282-1.585 1.156-3.479 2.059-4.711.895-1.298 1.785-2.567 2.828-3.886.863-1.046 1.957-2.52 3.904-3.578a12.942 12.942 0 0 1 3.28-1.243c2.016-.71 3.867-.988 5.151-1.112 1.063-.095 1.815.015 2.456.11.113.018.224.035.333.05.28.046.55.078.825.073.192-.003.466-.013.791-.027 1.333-.053 3.617-.154 5.717.065.931.097 2.015.285 3.052.472 1.483.267 2.87.54 3.584.508.902-.04 1.901.047 2.891.201.345.056.642.107.929.147.226.033.45.054.52.065.006.02.086-.03-.361.116a2.5 2.5 0 0 0-.667.378c-.293.177-1.108 1.15-.992 2.245a2.533 2.533 0 0 0 .603 1.495c.164.188.265.263.334.318.263.19.25.153.265.167.004.002-.019-.004-.034-.003-.015 0-.028.007-.001.024.044.014.045.058.44.074.093 0 .234-.005.426-.04.139-.032.577-.1 1.12-.51.242-.179.635-.58.849-1.095.226-.488.248-1.144.207-1.4a2.715 2.715 0 0 0-.383-1.128c-.363-.548-.405-.507-.467-.588-.137-.13-.016-.05.05-.017.084.047.19.112.291.18.218.144.465.323.755.53.492.348 1.109.774 1.998 1.298a20.587 20.587 0 0 1 2.306 1.582c.827.646 1.43 1.117 2.574 1.687.572.314 1.114.553 1.872 1.373.575.617 1.064 1.327 1.37 2.033.25.572.533 1.265.713 2.036.25 1.021.268 2.186.07 3.074-.16.736-.444 1.216-.656 1.564-.067.11-.128.205-.18.29a2.33 2.33 0 0 0-.039.371 7 7 0 0 0 .022.541c.03.06.063.122.098.187.175.33.411.733.594 1.331.288.949.365 2.008.248 3.192-.09.92-.302 1.91-.638 2.982-.225.729-.534 1.53-.91 2.264-.178.352-.37.69-.572 1.008-.386.615-.799 1.156-1.179 1.518-.211.202-.456.316-.7.421l-.003.002-.049.021a17.375 17.375 0 0 1-4.462 3.565c-.14.098-.283.194-.428.287-.704.459-1.438.842-1.91 1.158-.18.122-.474.264-.85.405-.361.17-1.142.507-2.175.793-1.025.285-2.04.455-2.825.604-.46.088-.9 0-1.335-.096-.402-.09-.807-.188-1.248-.166h-.01a5.096 5.096 0 0 0-.662.1c-.209.04-.428.084-.655.11-.214.026-.686-.029-1.291-.094a34.64 34.64 0 0 0-1.24-.115c-.82.066-1.894.151-2.316.242-.195.041-.432.096-.664.157-.181.127-.329.28-.432.46a2.593 2.593 0 0 0-.178.423c-.073.204-.143.414-.267.602-.094.146-.231.233-.343.216a.394.394 0 0 1-.145-.065c-.05-.03-.095-.058-.136-.044-.03.01-.05.049-.078.097-.043.076-.096.174-.215.216-.414.144-.893.293-1.369.457l-.077.027c-.511.176-1.013.383-1.389.6-.42.244-1.081.48-1.74.771-.46.201-.915.426-1.28.661-.356.23-.662.559-.944.883-.166.192-.324.382-.486.553-.19.199-.38.369-.58.49-.08.048-.247.036-.456.022a4.29 4.29 0 0 0-.49-.011c-.389.394-.74.773-1.032 1.127l.01.07v.002c.076.552.301 1.168-.174 1.42-.123.07-.292.08-.445.097-.051.005-.1.011-.145.02a.598.598 0 0 0-.247.237c-.097.184-.1.44-.098.713 0 .384.011.8-.229 1.128l-.052.072c-.172.239-.419.587-.788.901-.34 1.032-.586 2.011-.697 2.939l-.032.33a524.213 524.213 0 0 0-.587 6.89c-.091 1.127-.47 2.209-1.077 3.009C9.554 64.55 8.772 65 7.965 65c-.808 0-1.589-.45-2.196-1.25-.607-.8-.986-1.885-1.072-3.02-.14-1.85-.276-3.708-.378-5.586l-.044-.297a11.01 11.01 0 0 0-.345-1.54 26.18 26.18 0 0 1-.152-.76 16.687 16.687 0 0 1-.103-.623Z"/></svg>