<svg width="84" height="90" viewBox="0 0 84 90" fill="none" xmlns="http://www.w3.org/2000/svg"><path d="M0.651367 15.8073L1.68667 14.9154L9.24318 18.7644L9.32713 18.692L6.63933 10.649L7.67463 9.75712L13.8453 16.9203L13.0339 17.6193L8.34559 12.177L8.27564 12.2372L10.7254 19.6079L9.94195 20.2828L3.01519 16.7688L2.94523 16.8291L7.63351 22.2714L6.82206 22.9705L0.651367 15.8073Z" fill="#9C9C9C"/><path d="M18.2342 14.3928C17.6369 14.7245 17.0484 14.8788 16.4688 14.8557C15.8904 14.8284 15.3519 14.6417 14.8533 14.2954C14.356 13.945 13.931 13.4523 13.5783 12.8174C13.2257 12.1824 13.0306 11.5585 12.993 10.9457C12.9566 10.3287 13.0715 9.76853 13.3376 9.26517C13.6049 8.75763 14.0184 8.34846 14.578 8.03765C14.9009 7.85834 15.2496 7.73508 15.6242 7.66788C15.9987 7.60067 16.3824 7.61642 16.7752 7.71512C17.1665 7.81114 17.5486 8.01431 17.9216 8.32465C18.2947 8.63499 18.6418 9.0794 18.9631 9.65787L19.1872 10.0615L14.4088 12.7153L13.9515 11.8919L17.7614 9.77607C17.5671 9.4263 17.3238 9.15305 17.0315 8.95631C16.7419 8.75808 16.4252 8.65057 16.0814 8.63378C15.7403 8.6155 15.3976 8.70199 15.0532 8.89325C14.6738 9.10394 14.3979 9.38041 14.2253 9.72266C14.054 10.0607 13.9773 10.4202 13.9952 10.801C14.0131 11.1818 14.1169 11.5431 14.3066 11.8848L14.6115 12.4337C14.8715 12.9019 15.1726 13.2539 15.5148 13.4898C15.8583 13.7215 16.2223 13.8414 16.6071 13.8496C16.9903 13.855 17.3743 13.7509 17.759 13.5372C18.0093 13.3982 18.2158 13.2377 18.3788 13.0557C18.5429 12.8695 18.6594 12.664 18.7282 12.4392C18.7955 12.2117 18.8097 11.968 18.7709 11.7079L19.8345 11.4552C19.911 11.821 19.9006 12.1859 19.8034 12.5497C19.7047 12.9108 19.5238 13.2506 19.2607 13.5692C18.9961 13.8852 18.6539 14.1597 18.2342 14.3928Z" fill="#9C9C9C"/><path d="M22.256 12.2586L20.3685 5.42352L21.383 5.14334L21.678 6.21132L21.767 6.18674C21.8086 5.78252 21.9603 5.43572 22.222 5.14633C22.4829 4.85398 22.8358 4.64635 23.2808 4.52347C23.7318 4.39894 24.1353 4.39765 24.4914 4.5196C24.8498 4.63777 25.1638 4.85595 25.4337 5.17415L25.5049 5.15448C25.5824 4.75312 25.7676 4.40027 26.0603 4.09594C26.3522 3.78864 26.7429 3.5674 27.2324 3.43222C27.8435 3.26346 28.3962 3.31676 28.8905 3.59213C29.384 3.86453 29.7417 4.40271 29.9638 5.20666L31.227 9.78117L30.1769 10.0712L28.9136 5.49668C28.7743 4.99235 28.5368 4.67001 28.2011 4.52963C27.8654 4.38926 27.5107 4.37069 27.1369 4.47391C26.6563 4.60663 26.3241 4.85481 26.1404 5.21845C25.9558 5.57913 25.9246 5.98048 26.0466 6.4225L27.2755 10.8724L26.2075 11.1673L24.9148 6.48604C24.8074 6.09741 24.5949 5.81925 24.2772 5.65156C23.9587 5.4809 23.6007 5.45046 23.2032 5.56024C22.9302 5.63561 22.6952 5.77875 22.498 5.98965C22.3038 6.19974 22.1696 6.4539 22.0955 6.75214C22.0236 7.04659 22.0339 7.36143 22.1265 7.69666L23.3062 11.9686L22.256 12.2586Z" fill="#9C9C9C"/><path d="M33.2928 9.49086L32.9968 0.0409471L34.0858 0.00683594L34.195 3.49518L34.2873 3.49229C34.3635 3.36674 34.4693 3.20639 34.6048 3.01123C34.7433 2.81291 34.944 2.63419 35.2069 2.47507C35.4728 2.31279 35.8365 2.22442 36.2979 2.20996C36.8947 2.19127 37.4254 2.32399 37.89 2.60811C38.3546 2.89223 38.7231 3.30407 38.9956 3.84363C39.2681 4.38319 39.416 5.02518 39.4393 5.7696C39.4628 6.52018 39.3555 7.17479 39.1174 7.73341C38.8793 8.28896 38.5388 8.72455 38.0961 9.04018C37.6532 9.35273 37.1365 9.51826 36.5459 9.53676C36.0906 9.55102 35.7237 9.48707 35.4452 9.34492C35.1666 9.19969 34.9505 9.03248 34.7967 8.84331C34.6429 8.65106 34.524 8.49159 34.44 8.3649L34.3108 8.36895L34.3449 9.4579L33.2928 9.49086ZM34.2523 5.91361C34.2691 6.44886 34.3623 6.91859 34.532 7.3228C34.7016 7.72394 34.9408 8.03514 35.2495 8.25641C35.5581 8.4746 35.9308 8.57685 36.3676 8.56317C36.8228 8.54891 37.199 8.41704 37.496 8.16756C37.796 7.91491 38.0165 7.58161 38.1575 7.16767C38.3015 6.75055 38.3656 6.28975 38.3498 5.78526C38.3341 5.28692 38.2432 4.84021 38.0768 4.44513C37.9135 4.04688 37.6743 3.73568 37.3594 3.51153C37.0474 3.2842 36.6608 3.17777 36.1993 3.19222C35.7564 3.2061 35.3877 3.33004 35.0932 3.56404C34.7987 3.79497 34.5808 4.11279 34.4395 4.5175C34.2982 4.91914 34.2358 5.38451 34.2523 5.91361Z" fill="#9C9C9C"/><path d="M44.1032 10.0419C43.4284 9.93494 42.8699 9.6937 42.4278 9.31822C41.9891 8.94019 41.6802 8.46119 41.5011 7.88124C41.3254 7.29873 41.2945 6.64879 41.4082 5.93143C41.522 5.21406 41.7529 4.60253 42.1011 4.09683C42.4528 3.58858 42.8885 3.21829 43.4083 2.98598C43.9317 2.75112 44.5095 2.6838 45.1417 2.78404C45.5065 2.84188 45.8571 2.95978 46.1934 3.13775C46.5298 3.31572 46.8222 3.56463 47.0706 3.88447C47.3196 4.20126 47.4952 4.59681 47.5976 5.07112C47.7001 5.54542 47.6995 6.10934 47.5958 6.76287L47.5236 7.21882L42.1251 6.36292L42.2725 5.43278L46.5767 6.11519C46.6394 5.72003 46.6163 5.35489 46.5074 5.01978C46.4015 4.68516 46.2184 4.40528 45.9581 4.18016C45.7008 3.95552 45.3776 3.81235 44.9885 3.75066C44.5599 3.68271 44.1722 3.73031 43.8254 3.89345C43.4821 4.05403 43.2001 4.28977 42.9794 4.60067C42.7587 4.91157 42.6178 5.26004 42.5566 5.64608L42.4583 6.26617C42.3744 6.79508 42.3945 7.25789 42.5186 7.65461C42.6462 8.04877 42.8589 8.36762 43.1568 8.61117C43.4553 8.85168 43.8218 9.00639 44.2565 9.0753C44.5392 9.12012 44.8008 9.12109 45.0413 9.0782C45.2853 9.03276 45.5037 8.94274 45.6964 8.80814C45.8896 8.6705 46.0511 8.48732 46.1808 8.25861L47.1741 8.71524C47.0088 9.05049 46.7757 9.33138 46.475 9.55791C46.1747 9.7814 45.8227 9.9375 45.4191 10.0262C45.0161 10.1119 44.5774 10.1171 44.1032 10.0419Z" fill="#9C9C9C"/><path d="M48.6161 10.7621L50.7837 4.01064L51.7858 4.33239L51.4584 5.35215L51.5288 5.37473C51.7591 5.08018 52.0688 4.88063 52.458 4.77606C52.8471 4.67149 53.2438 4.68412 53.6482 4.81395C53.7244 4.83841 53.8192 4.87045 53.9325 4.91007C54.0459 4.94969 54.1309 4.98184 54.1876 5.00652L53.8489 6.06144C53.8166 6.04136 53.7403 6.0023 53.6199 5.94427C53.5034 5.88424 53.3763 5.83212 53.2386 5.7879C52.9104 5.68253 52.5952 5.65732 52.2932 5.71225C51.9949 5.7652 51.7325 5.88783 51.5059 6.08014C51.2832 6.27045 51.1229 6.51799 51.0251 6.82274L49.6534 11.0952L48.6161 10.7621Z" fill="#9C9C9C"/><path d="M58.7716 15.6707C58.2354 15.321 57.8481 14.8867 57.6097 14.3675C57.374 13.8501 57.2922 13.2879 57.3646 12.6811C57.4395 12.076 57.677 11.4666 58.077 10.853C58.4804 10.2343 58.9447 9.76732 59.4699 9.45208C59.9977 9.13852 60.5458 8.98524 61.1144 8.99224C61.6856 9.00091 62.2393 9.18006 62.7755 9.52969C63.3118 9.87932 63.6978 10.3129 63.9335 10.8303C64.1719 11.3494 64.2528 11.9129 64.1762 12.5206C64.1022 13.13 63.8635 13.744 63.46 14.3628C63.06 14.9764 62.5969 15.4386 62.0708 15.7496C61.5474 16.0623 61 16.2143 60.4289 16.2056C59.8603 16.1986 59.3078 16.0203 58.7716 15.6707ZM59.3061 14.8508C59.7135 15.1164 60.1167 15.2305 60.5158 15.1932C60.9149 15.1558 61.2886 15.0081 61.6368 14.7502C61.985 14.4922 62.2885 14.1648 62.5474 13.7677C62.8063 13.3707 62.9843 12.9596 63.0815 12.5343C63.1788 12.1091 63.1648 11.705 63.0397 11.3222C62.9146 10.9393 62.6483 10.6151 62.241 10.3495C61.8337 10.0839 61.4296 9.97112 61.0288 10.0111C60.628 10.051 60.2527 10.2012 59.9028 10.4618C59.5529 10.7223 59.2485 11.0511 58.9897 11.4481C58.7308 11.8451 58.5536 12.255 58.458 12.6776C58.3625 13.1003 58.3781 13.5018 58.5049 13.882C58.6317 14.2623 58.8988 14.5853 59.3061 14.8508Z" fill="#9C9C9C"/><path d="M70.0008 15.4358L69.3599 16.1005L66.6082 13.4474L67.2491 12.7827L70.0008 15.4358ZM63.1515 18.682L68.7526 12.8728C69.0345 12.5803 69.3382 12.4029 69.6635 12.3403C69.9889 12.2778 70.3082 12.3035 70.6216 12.4175C70.9349 12.5315 71.2134 12.706 71.4571 12.941C71.6499 13.1268 71.7922 13.294 71.8842 13.4425C71.9761 13.591 72.0392 13.7074 72.0734 13.7917L71.1937 14.2518C71.1667 14.2 71.1273 14.13 71.0756 14.0417C71.0262 13.9555 70.9449 13.858 70.8319 13.749C70.5727 13.4991 70.3225 13.384 70.0813 13.4036C69.8422 13.4254 69.6009 13.5625 69.3574 13.8151L63.9358 19.4382L63.1515 18.682Z" fill="#9C9C9C"/><path d="M75.8972 23.2855L75.1254 23.7921L73.109 20.72L73.8809 20.2134L75.8972 23.2855ZM75.8888 20.1766L76.4866 21.0874L70.8365 24.7959C70.5792 24.9648 70.4107 25.1288 70.331 25.2878C70.2556 25.4478 70.2349 25.6013 70.2688 25.7483C70.307 25.8963 70.37 26.0371 70.4578 26.1709C70.5237 26.2713 70.5829 26.3502 70.6354 26.4078C70.6905 26.4637 70.7346 26.5084 70.7676 26.5419L70.071 27.2642C70.0073 27.2176 69.9276 27.1466 69.8318 27.0512C69.7335 26.9575 69.6286 26.8257 69.5171 26.6559C69.3482 26.3986 69.238 26.1101 69.1866 25.7905C69.1368 25.4735 69.1719 25.1596 69.2919 24.8489C69.4136 24.5407 69.6469 24.2735 69.9916 24.0472L75.8888 20.1766Z" fill="#9C9C9C"/><path d="M75.1424 28.1342L71.201 29.7655L70.7844 28.7588L79.5203 25.1431L79.9369 26.1498L76.7292 27.4774L76.7645 27.5627C77.1665 27.5762 77.5305 27.6953 77.8567 27.9201C78.1869 28.1465 78.4585 28.517 78.6716 29.0317C78.8563 29.4782 78.9286 29.9063 78.8883 30.316C78.8509 30.7245 78.687 31.0971 78.3967 31.4338C78.1104 31.7721 77.6857 32.0578 77.1226 32.2909L72.9594 34.014L72.5428 33.0073L76.6377 31.3124C77.1581 31.097 77.5046 30.7954 77.6772 30.4076C77.8537 30.0214 77.8438 29.5909 77.6472 29.116C77.5107 28.7861 77.3186 28.5192 77.071 28.3152C76.8245 28.1141 76.5365 27.9935 76.2068 27.9534C75.8783 27.9162 75.5235 27.9764 75.1424 28.1342Z" fill="#9C9C9C"/><path d="M73.8403 38.8568C73.7279 38.1828 73.7797 37.5767 73.9957 37.0383C74.2152 36.5025 74.5716 36.0577 75.0649 35.704C75.5617 35.3528 76.1684 35.1175 76.8848 34.998C77.6012 34.8785 78.2544 34.9038 78.8444 35.0737C79.4379 35.2462 79.9272 35.5421 80.3123 35.9615C80.7009 36.3835 80.9479 36.9102 81.0532 37.5416C81.1139 37.9059 81.1132 38.2757 81.051 38.6512C80.9888 39.0266 80.8454 39.3828 80.6208 39.7198C80.3992 40.0563 80.0797 40.3483 79.6623 40.5957C79.2449 40.8432 78.7099 41.0213 78.0572 41.1302L77.6018 41.2061L76.7027 35.8146L77.6317 35.6597L78.3485 39.9583C78.7432 39.8925 79.0821 39.7549 79.3655 39.5454C79.6493 39.3389 79.8567 39.0765 79.9877 38.7583C80.1192 38.4431 80.1526 38.0912 80.0878 37.7026C80.0164 37.2745 79.8484 36.9219 79.5838 36.6447C79.3227 36.3699 79.0097 36.1772 78.6449 36.0664C78.2801 35.9557 77.9049 35.9324 77.5194 35.9967L76.9001 36.1C76.3719 36.1881 75.9393 36.3538 75.6023 36.5972C75.2689 36.8431 75.0339 37.146 74.8974 37.5057C74.7638 37.865 74.7333 38.2617 74.8056 38.6958C74.8527 38.9781 74.9347 39.2265 75.0516 39.441C75.1721 39.6581 75.3266 39.8367 75.5154 39.9768C75.7071 40.1164 75.9321 40.2115 76.1901 40.2621L76.0718 41.3489C75.7014 41.2984 75.3612 41.1663 75.051 40.9528C74.7439 40.7388 74.4843 40.4545 74.2722 40.0999C74.0632 39.7447 73.9193 39.3303 73.8403 38.8568Z" fill="#9C9C9C"/><path d="M79.6869 54.6351C80.0106 54.5887 80.3081 54.505 80.5793 54.3839C80.8531 54.2663 81.096 54.1105 81.3081 53.9165C81.5198 53.7255 81.6958 53.4971 81.8362 53.2311C81.9766 52.9651 82.0763 52.6639 82.1353 52.3274C82.2321 51.7757 82.1777 51.2491 81.972 50.7474C81.7663 50.2457 81.4095 49.8128 80.9016 49.4488C80.3936 49.0847 79.7365 48.8319 78.9301 48.6904C78.1238 48.5489 77.4196 48.5644 76.8175 48.7369C76.2155 48.9093 75.7315 49.2009 75.3657 49.6117C74.9999 50.0225 74.7665 50.5158 74.6655 51.0918C74.5718 51.6253 74.6031 52.1151 74.7592 52.5612C74.9177 53.0109 75.1863 53.3861 75.5647 53.6868C75.9456 53.9911 76.421 54.1933 76.9909 54.2933L76.8575 54.6261L77.349 51.8251L78.3493 52.0006L77.727 55.5473L76.7267 55.3718C75.9598 55.2372 75.3216 54.9565 74.8122 54.5297C74.3022 54.1059 73.9414 53.5801 73.7297 52.9524C73.5205 52.3282 73.4808 51.6463 73.6106 50.9067C73.7552 50.0822 74.0764 49.3917 74.5739 48.8353C75.071 48.282 75.7078 47.8938 76.4843 47.6707C77.2604 47.4506 78.1395 47.4268 79.1216 47.5991C79.8582 47.7284 80.5033 47.9431 81.0568 48.2433C81.6128 48.5471 82.0666 48.9173 82.418 49.3539C82.7695 49.7906 83.0123 50.2769 83.1463 50.8128C83.2804 51.3488 83.295 51.9154 83.1902 52.5125C83.1041 53.0036 82.9495 53.4483 82.7265 53.8466C82.506 54.2485 82.2316 54.5925 81.9033 54.8787C81.5775 55.1683 81.2085 55.3926 80.7963 55.5515C80.3871 55.7109 79.9492 55.7935 79.4827 55.7991L79.6869 54.6351Z" fill="#9C9C9C"/><path d="M81.1474 60.6347L72.2369 57.4735L72.6012 56.4468L81.5116 59.6079L81.1474 60.6347Z" fill="#9C9C9C"/><path d="M69.9502 61.7663C70.2511 61.2013 70.6496 60.7772 71.1457 60.494C71.6403 60.2135 72.1931 60.0825 72.8039 60.101C73.4133 60.1222 74.0412 60.305 74.6877 60.6493C75.3396 60.9966 75.8458 61.4179 76.2061 61.9132C76.565 62.4112 76.7661 62.9437 76.8093 63.5107C76.8511 64.0804 76.7215 64.6477 76.4205 65.2127C76.1196 65.7777 75.7218 66.2005 75.2272 66.481C74.7311 66.7642 74.177 66.8945 73.5649 66.8719C72.9513 66.8519 72.3186 66.6683 71.6667 66.3211C71.0202 65.9767 70.5188 65.5563 70.1627 65.0597C69.805 64.5658 69.6053 64.034 69.5636 63.4643C69.5204 62.8973 69.6492 62.3313 69.9502 61.7663ZM70.814 62.2264C70.5854 62.6556 70.5073 63.0673 70.5797 63.4616C70.6522 63.8559 70.8322 64.2151 71.1199 64.5391C71.4076 64.8632 71.7605 65.1367 72.1789 65.3595C72.5972 65.5823 73.0224 65.7234 73.4546 65.7827C73.8868 65.842 74.288 65.7925 74.6583 65.6341C75.0287 65.4756 75.3281 65.1818 75.5567 64.7526C75.7853 64.3235 75.862 63.911 75.7869 63.5153C75.7117 63.1196 75.5289 62.759 75.2386 62.4334C74.9482 62.1079 74.5938 61.8337 74.1755 61.6109C73.7572 61.3881 73.3333 61.2478 72.9039 61.1899C72.4744 61.132 72.0759 61.183 71.7083 61.3429C71.3407 61.5027 71.0426 61.7973 70.814 62.2264Z" fill="#9C9C9C"/><path d="M67.5111 66.1078L74.6311 72.3283L73.9142 73.1487L71.286 70.8525L71.2252 70.922C71.2653 71.0633 71.3106 71.25 71.3611 71.4822C71.412 71.7187 71.4061 71.9873 71.3435 72.2882C71.2812 72.5934 71.0982 72.9198 70.7945 73.2675C70.4016 73.7171 69.943 74.0152 69.4185 74.1618C68.894 74.3084 68.3414 74.2977 67.7608 74.1297C67.1802 73.9616 66.6094 73.6326 66.0485 73.1425C65.483 72.6485 65.0769 72.124 64.83 71.5692C64.5856 71.0164 64.4986 70.4704 64.5691 69.9313C64.6419 69.3941 64.8728 68.9031 65.2615 68.4581C65.5612 68.1151 65.858 67.89 66.1517 67.783C66.4478 67.678 66.7175 67.6336 66.9607 67.6499C67.2062 67.6683 67.404 67.6898 67.554 67.7146L67.639 67.6173L66.8186 66.9004L67.5111 66.1078ZM69.4764 69.247C69.0731 68.8947 68.6657 68.643 68.2542 68.4919C67.845 68.3428 67.4543 68.3059 67.082 68.3811C66.712 68.4584 66.3833 68.6616 66.0958 68.9908C65.7961 69.3338 65.6364 69.699 65.6167 70.0864C65.5973 70.4781 65.6911 70.8666 65.8981 71.2518C66.1054 71.6413 66.3991 72.0021 66.7793 72.3342C67.1547 72.6622 67.5437 72.8999 67.9463 73.0473C68.3491 73.199 68.7398 73.2359 69.1185 73.158C69.4974 73.0845 69.8387 72.8739 70.1425 72.5262C70.4341 72.1925 70.5945 71.8381 70.6237 71.4632C70.6553 71.0902 70.571 70.7142 70.371 70.3351C70.1732 69.958 69.875 69.5953 69.4764 69.247Z" fill="#9C9C9C"/><path d="M60.3773 72.9931C60.7403 72.7283 61.1196 72.5563 61.5152 72.4771C61.9126 72.4005 62.2936 72.4292 62.6581 72.5632C63.0245 72.6998 63.3437 72.9545 63.6158 73.3275C63.8552 73.6556 63.9847 73.9688 64.0042 74.267C64.0255 74.5677 63.9706 74.8554 63.8396 75.1301C63.7085 75.4047 63.5333 75.6659 63.314 75.9136C63.094 76.1655 62.8637 76.406 62.6231 76.6349C62.3077 76.9336 62.05 77.1731 61.85 77.3533C61.6494 77.5378 61.5202 77.6949 61.4625 77.8246C61.4022 77.9562 61.4238 78.0928 61.5272 78.2345L61.549 78.2644C61.8175 78.6323 62.1268 78.8448 62.4769 78.9017C62.8246 78.9604 63.201 78.842 63.6063 78.5463C64.0264 78.2397 64.2887 77.9073 64.3932 77.5492C64.4976 77.1911 64.5221 76.8722 64.4667 76.5926L65.5197 76.2814C65.6245 76.7383 65.6234 77.1545 65.5163 77.5298C65.4085 77.9094 65.2348 78.2457 64.9951 78.5387C64.7548 78.8359 64.4905 79.0897 64.2021 79.3002C64.0181 79.4344 63.7905 79.5662 63.5192 79.6956C63.2472 79.8293 62.9503 79.9107 62.6286 79.9397C62.3044 79.9705 61.9688 79.9049 61.6219 79.7427C61.275 79.5806 60.9356 79.272 60.6036 78.817L57.8498 75.043L58.7299 74.4008L59.2959 75.1765L59.3407 75.1439C59.3097 74.976 59.312 74.7705 59.3479 74.5272C59.3837 74.2839 59.4809 74.0281 59.6396 73.76C59.7982 73.4918 60.0441 73.2362 60.3773 72.9931ZM60.8199 73.8817C60.4718 74.1356 60.2284 74.4181 60.0895 74.729C59.9481 75.0417 59.8954 75.3506 59.9314 75.6558C59.9649 75.9628 60.0687 76.2356 60.2429 76.4743L60.8306 77.2798C60.8353 77.2079 60.8874 77.107 60.987 76.9772C61.0859 76.8517 61.2074 76.7154 61.3515 76.5683C61.495 76.4255 61.6365 76.2879 61.7762 76.1556C61.9151 76.0275 62.0273 75.9228 62.1127 75.8414C62.3197 75.6447 62.4981 75.4402 62.648 75.228C62.7973 75.02 62.8847 74.8057 62.9104 74.5851C62.9354 74.3687 62.8663 74.1487 62.703 73.9249C62.4799 73.6191 62.1981 73.4704 61.8575 73.4789C61.5163 73.4916 61.1705 73.6259 60.8199 73.8817Z" fill="#9C9C9C"/><path d="M59.7261 84.9286L55.2221 76.6158L56.18 76.0968L60.684 84.4095L59.7261 84.9286Z" fill="#9C9C9C"/><path d="M44.22 89.3736L42.4761 80.0813L43.565 79.877L49.9979 86.2225L50.0886 86.2055L48.7193 78.9096L49.8446 78.6984L51.5885 87.9907L50.4996 88.1951L44.0452 81.8348L43.9544 81.8518L45.3271 89.1659L44.22 89.3736Z" fill="#9C9C9C"/><path d="M37.438 79.8405C38.1194 79.8918 38.6957 80.0865 39.1672 80.4244C39.6354 80.7652 39.9825 81.2173 40.2086 81.7806C40.4314 82.3467 40.5155 82.9919 40.461 83.7162C40.4065 84.4405 40.2264 85.0689 39.9209 85.6014C39.6121 86.1368 39.2082 86.5416 38.7091 86.8157C38.2068 87.0927 37.6365 87.2072 36.9981 87.1591C36.6298 87.1314 36.2708 87.0426 35.921 86.8928C35.5711 86.743 35.2593 86.519 34.9855 86.2206C34.7114 85.9252 34.5039 85.5454 34.363 85.0811C34.222 84.6168 34.1764 84.0547 34.226 83.3949L34.2607 82.9346L39.7112 83.3449L39.6405 84.2841L35.2948 83.9569C35.2648 84.3558 35.3178 84.7178 35.4538 85.0429C35.5867 85.3677 35.7922 85.6316 36.0701 85.8346C36.3449 86.0374 36.6788 86.1536 37.0716 86.1832C37.5043 86.2158 37.8868 86.1365 38.2191 85.9455C38.5481 85.7573 38.8098 85.4993 39.0042 85.1713C39.1987 84.8434 39.3106 84.4845 39.3399 84.0948L39.3871 83.4687C39.4273 82.9347 39.3693 82.4751 39.2131 82.0899C39.0536 81.7075 38.8154 81.4072 38.4985 81.1889C38.1814 80.9736 37.8034 80.8495 37.3646 80.8165C37.0791 80.795 36.8184 80.8155 36.5822 80.8779C36.3427 80.9432 36.1324 81.0508 35.9514 81.2008C35.7701 81.3538 35.6242 81.5496 35.5137 81.7882L34.4863 81.4145C34.6235 81.0669 34.8328 80.7678 35.114 80.5174C35.3949 80.27 35.7329 80.0856 36.1278 79.9641C36.5226 79.8457 36.9593 79.8045 37.438 79.8405Z" fill="#9C9C9C"/><path d="M30.2738 86.0038L29.481 82.7384L27.0198 85.0261L25.8172 84.6649L29.0303 81.9281L27.8574 77.8738L29.06 78.2351L29.8954 81.359L32.314 79.2127L33.5166 79.574L30.3389 82.3213L31.4764 86.365L30.2738 86.0038Z" fill="#9C9C9C"/><path d="M21.1577 77.4897L19.0579 81.1177L18.115 80.5719L21.667 74.4348L22.6099 74.9805L22.0087 76.0194L22.0726 76.0564C22.3968 75.828 22.7739 75.6924 23.204 75.6498C23.6326 75.6098 24.0786 75.7239 24.542 75.9921C24.9256 76.2141 25.218 76.4954 25.4192 76.8358C25.6189 77.179 25.7053 77.5704 25.6784 78.01C25.65 78.4523 25.4847 78.9344 25.1826 79.4565L22.9256 83.3562L21.9826 82.8104L24.2026 78.9747C24.4616 78.5272 24.543 78.0978 24.4468 77.6865C24.3479 77.2737 24.1027 76.954 23.7111 76.7274C23.4767 76.5917 23.2036 76.5136 22.8919 76.4932C22.5774 76.4712 22.266 76.5363 21.9574 76.6885C21.6463 76.8391 21.3797 77.1062 21.1577 77.4897Z" fill="#9C9C9C"/><path d="M12.6809 73.5098L13.5644 74.0138C13.4912 74.172 13.4417 74.3478 13.4161 74.5413C13.3861 74.7347 13.406 74.9395 13.4759 75.1556C13.5458 75.3716 13.6918 75.5927 13.914 75.8189C14.2181 76.1284 14.5429 76.3163 14.8883 76.3825C15.2294 76.4486 15.5087 76.3749 15.726 76.1614C15.9192 75.9716 16.0028 75.7514 15.9767 75.5009C15.9506 75.2504 15.8282 74.9392 15.6096 74.5673L15.0563 73.6353C14.7218 73.0752 14.5587 72.5732 14.5669 72.1293C14.573 71.6875 14.7528 71.293 15.1063 70.9458C15.3961 70.6611 15.7371 70.49 16.1293 70.4325C16.5194 70.3729 16.9259 70.4265 17.3488 70.5935C17.7717 70.7605 18.1762 71.0405 18.5623 71.4334C19.0692 71.9494 19.3767 72.4864 19.4849 73.0445C19.5931 73.6026 19.4763 74.138 19.1344 74.6508L18.2253 74.0943C18.4285 73.7566 18.5022 73.4232 18.4464 73.094C18.3884 72.7627 18.203 72.4379 17.8903 72.1196C17.5344 71.7573 17.175 71.5452 16.8121 71.4832C16.4449 71.4212 16.1526 71.497 15.9352 71.7105C15.7596 71.883 15.6729 72.089 15.6751 72.3284C15.6751 72.57 15.7706 72.8473 15.9615 73.1602L16.5922 74.1973C16.9375 74.7684 17.1017 75.2758 17.0847 75.7197C17.0633 76.1634 16.8781 76.5568 16.529 76.8997C16.2436 77.1801 15.9124 77.348 15.5355 77.4035C15.1563 77.4567 14.7672 77.4054 14.3681 77.2495C13.9669 77.0914 13.5916 76.8345 13.2422 76.4789C12.7504 75.9783 12.4741 75.4775 12.4133 74.9764C12.3503 74.4731 12.4395 73.9842 12.6809 73.5098Z" fill="#9C9C9C"/><path d="M12.6817 62.4511C12.9276 63.0421 13.0028 63.6192 12.9071 64.1823C12.8103 64.7427 12.561 65.2531 12.1593 65.7136C11.7564 66.1713 11.2168 66.5409 10.5406 66.8223C9.85861 67.1061 9.2119 67.2302 8.60041 67.1947C7.98773 67.1563 7.44851 66.974 6.98275 66.6478C6.5158 66.3187 6.15935 65.8587 5.91339 65.2677C5.66744 64.6767 5.59288 64.101 5.68972 63.5407C5.78537 62.9775 6.03607 62.4665 6.44181 62.0076C6.84636 61.5459 7.38961 61.1732 8.07156 60.8894C8.74782 60.608 9.39086 60.487 10.0007 60.5266C10.6093 60.5633 11.1471 60.7462 11.6141 61.0752C12.0799 61.4014 12.4357 61.86 12.6817 62.4511ZM11.7781 62.8271C11.5913 62.3781 11.3225 62.0566 10.9717 61.8626C10.6209 61.6685 10.229 61.58 9.79603 61.5968C9.36303 61.6137 8.92773 61.7131 8.49015 61.8952C8.05257 62.0773 7.6738 62.3166 7.35383 62.6131C7.03386 62.9096 6.81768 63.2513 6.7053 63.6381C6.59291 64.0249 6.63014 64.4427 6.81697 64.8917C7.0038 65.3406 7.27402 65.6615 7.62762 65.8544C7.98123 66.0472 8.37596 66.1347 8.81181 66.1166C9.24767 66.0986 9.68438 65.9985 10.122 65.8164C10.5595 65.6343 10.9369 65.3956 11.254 65.1003C11.5711 64.805 11.7845 64.4645 11.894 64.0789C12.0036 63.6933 11.9649 63.276 11.7781 62.8271Z" fill="#9C9C9C"/><path d="M3.38116 56.0509L4.29139 55.8962L4.93211 59.6645L4.02188 59.8193L3.38116 56.0509ZM10.8206 57.502L2.86513 58.8547C2.46463 58.9228 2.11488 58.8854 1.8159 58.7427C1.51691 58.6 1.27513 58.3898 1.09056 58.1121C0.905985 57.8345 0.785325 57.5287 0.728578 57.195C0.683697 56.931 0.668308 56.712 0.682413 56.5379C0.696517 56.3638 0.714809 56.2327 0.73729 56.1446L1.71835 56.2962C1.70943 56.3539 1.69957 56.4336 1.68877 56.5354C1.67745 56.6341 1.68495 56.7608 1.71126 56.9155C1.77162 57.2705 1.90472 57.5117 2.11056 57.639C2.31588 57.7633 2.59148 57.7961 2.93737 57.7373L10.6379 56.428L10.8206 57.502Z" fill="#9C9C9C"/><path d="M5.72906 40.779L5.49062 41.8988C5.15444 41.8964 4.8468 41.9521 4.56773 42.0657C4.28929 42.1764 4.0423 42.3314 3.82674 42.531C3.60882 42.7269 3.42759 42.9573 3.28306 43.2223C3.13852 43.4873 3.03357 43.7734 2.96819 44.0804C2.84897 44.6403 2.88245 45.1776 3.06862 45.6924C3.25544 46.2042 3.59575 46.6527 4.08957 47.0379C4.58402 47.4201 5.2316 47.6964 6.03231 47.8669C6.83301 48.0374 7.537 48.0488 8.14426 47.9012C8.75217 47.7506 9.24567 47.4797 9.62477 47.0884C10.0045 46.6941 10.254 46.217 10.3732 45.6571C10.4386 45.3501 10.4593 45.0461 10.4352 44.7452C10.4112 44.4443 10.3411 44.1604 10.2249 43.8933C10.1063 43.6226 9.94239 43.3801 9.73318 43.1656C9.5216 42.9475 9.26332 42.7713 8.95834 42.6372L9.19677 41.5174C9.65142 41.7023 10.0417 41.9459 10.3675 42.2481C10.6933 42.5503 10.9519 42.8949 11.1433 43.2818C11.3317 43.668 11.4497 44.0818 11.4973 44.523C11.5456 44.9612 11.5201 45.4136 11.4207 45.8802C11.2528 46.6689 10.9108 47.3292 10.3948 47.8612C9.87871 48.3933 9.22799 48.7597 8.4426 48.9607C7.6572 49.1616 6.77686 49.1582 5.80157 48.9506C4.82627 48.7429 4.02092 48.3873 3.38551 47.8839C2.7501 47.3804 2.30513 46.7806 2.05058 46.0845C1.79603 45.3884 1.75272 44.646 1.92065 43.8573C2.02 43.3908 2.18099 42.9672 2.40361 42.5867C2.62688 42.2031 2.90471 41.8737 3.2371 41.5983C3.56648 41.3223 3.94152 41.1127 4.36221 40.9694C4.77989 40.8255 5.23551 40.762 5.72906 40.779Z" fill="#9C9C9C"/><path d="M12.3082 35.2995L8.63216 33.2852L9.15569 32.3298L15.3743 35.7372L14.8507 36.6926L13.7981 36.1158L13.7626 36.1806C13.9985 36.4994 14.1429 36.8733 14.1956 37.3022C14.2456 37.7297 14.142 38.1783 13.8847 38.6479C13.6717 39.0366 13.3974 39.3354 13.0617 39.5446C12.7233 39.7522 12.3341 39.8478 11.8939 39.8312C11.4511 39.8132 10.9652 39.6592 10.4362 39.3693L6.4848 37.2042L7.00833 36.2488L10.8949 38.3784C11.3484 38.6268 11.7796 38.6982 12.1885 38.5923C12.5989 38.4838 12.9128 38.2312 13.1302 37.8344C13.2603 37.5969 13.332 37.3221 13.3451 37.0099C13.3597 36.695 13.2873 36.3852 13.128 36.0803C12.9702 35.7727 12.6969 35.5125 12.3082 35.2995Z" fill="#9C9C9C"/><path d="M16.5036 34.1401L11.2047 29.4282L11.9041 28.6417L12.7045 29.3534L12.7535 29.2982C12.5772 28.9684 12.5199 28.6045 12.5816 28.2063C12.6433 27.8081 12.8152 27.4503 13.0974 27.1329C13.1506 27.0731 13.2182 26.9994 13.3003 26.9117C13.3823 26.8241 13.4461 26.7593 13.4916 26.7174L14.3196 27.4536C14.2881 27.4751 14.2215 27.5291 14.1198 27.6158C14.0178 27.6981 13.9188 27.7932 13.8226 27.9013C13.5936 28.1589 13.4431 28.437 13.3713 28.7355C13.2991 29.0297 13.3052 29.3192 13.3895 29.6042C13.4735 29.8849 13.6352 30.1315 13.8743 30.3442L17.2276 33.326L16.5036 34.1401Z" fill="#9C9C9C"/><path d="M21.6544 29.6238C21.2886 29.8847 20.9075 30.0526 20.5111 30.1275C20.1128 30.1999 19.7322 30.1671 19.3691 30.0292C19.0043 29.8887 18.6878 29.6306 18.4197 29.2547C18.1838 28.924 18.0577 28.6095 18.0414 28.3111C18.0233 28.0102 18.0813 27.7231 18.2152 27.4499C18.3492 27.1766 18.5272 26.9173 18.7491 26.672C18.9718 26.4224 19.2047 26.1845 19.4478 25.9582C19.7664 25.6628 20.0266 25.4261 20.2285 25.2481C20.4311 25.0658 20.562 24.91 20.6211 24.7809C20.6827 24.65 20.6625 24.5131 20.5607 24.3703L20.5392 24.3403C20.2747 23.9695 19.9677 23.7537 19.6182 23.693C19.2712 23.6306 18.8935 23.745 18.4851 24.0364C18.0617 24.3384 17.7958 24.6679 17.6876 25.0249C17.5793 25.3819 17.5514 25.7005 17.6038 25.9807L16.5475 26.2806C16.4476 25.8226 16.4532 25.4065 16.5643 25.0323C16.6762 24.6539 16.8535 24.3194 17.0962 24.0291C17.3397 23.7344 17.6067 23.4834 17.8974 23.2761C18.0828 23.1438 18.3118 23.0145 18.5845 22.888C18.8579 22.7572 19.1557 22.679 19.4777 22.6535C19.8022 22.6261 20.137 22.6954 20.4822 22.8612C20.8273 23.0271 21.1634 23.3392 21.4905 23.7977L24.2037 27.601L23.3168 28.2338L22.7591 27.4521L22.714 27.4842C22.7432 27.6524 22.7386 27.8579 22.7002 28.1008C22.6618 28.3437 22.5618 28.5984 22.4003 28.8648C22.2388 29.1313 21.9902 29.3843 21.6544 29.6238ZM21.2214 28.7305C21.5721 28.4803 21.8186 28.2005 21.9608 27.8911C22.1056 27.5799 22.1616 27.2716 22.1288 26.966C22.0986 26.6587 21.9977 26.3847 21.8261 26.1442L21.247 25.3324C21.2416 25.4043 21.1884 25.5047 21.0874 25.6334C20.9872 25.7578 20.8642 25.8928 20.7185 26.0383C20.5735 26.1796 20.4305 26.3156 20.2895 26.4465C20.1492 26.5731 20.0359 26.6766 19.9496 26.757C19.7405 26.9515 19.5599 27.1541 19.4077 27.3647C19.2563 27.5711 19.1665 27.7844 19.1385 28.0048C19.1112 28.2209 19.1779 28.4416 19.3388 28.6671C19.5586 28.9753 19.8389 29.127 20.1795 29.1222C20.5208 29.1131 20.8681 28.9825 21.2214 28.7305Z" fill="#9C9C9C"/><path d="M25.9516 18.9114L26.3154 19.76L22.9379 21.208L22.5741 20.3594L25.9516 18.9114ZM22.8891 18.3759L23.8905 17.9466L26.5535 24.1584C26.6748 24.4413 26.8067 24.6358 26.9494 24.7421C27.0937 24.8443 27.2412 24.8916 27.3919 24.8839C27.5443 24.8721 27.694 24.8347 27.8411 24.7717C27.9514 24.7244 28.0395 24.6799 28.1054 24.6383C28.17 24.5938 28.2217 24.5583 28.2605 24.5316L28.8498 25.3438C28.7929 25.3984 28.709 25.4644 28.5983 25.542C28.4888 25.6225 28.3407 25.7027 28.154 25.7827C27.8711 25.904 27.5679 25.962 27.2442 25.9568C26.9233 25.9504 26.6204 25.8609 26.3355 25.6884C26.0534 25.5147 25.8311 25.2383 25.6686 24.8592L22.8891 18.3759Z" fill="#9C9C9C"/><path d="M33.1121 24.7417C32.48 24.8428 31.9013 24.7811 31.376 24.5565C30.8538 24.3315 30.4157 23.9699 30.0618 23.4717C29.7108 22.9731 29.4775 22.3621 29.3618 21.6388C29.2451 20.9095 29.2755 20.2517 29.4529 19.6654C29.6333 19.0786 29.9365 18.5969 30.3624 18.2202C30.7914 17.843 31.322 17.6038 31.9541 17.5027C32.5862 17.4016 33.1634 17.4636 33.6856 17.6886C34.2108 17.9131 34.6492 18.2763 35.0006 18.7779C35.355 19.2791 35.5906 19.8944 35.7073 20.6238C35.823 21.3471 35.7904 22.0006 35.6095 22.5843C35.4316 23.1675 35.1282 23.6478 34.6992 24.0249C34.2732 24.4016 33.7442 24.6405 33.1121 24.7417ZM32.9575 23.7753C33.4376 23.6984 33.813 23.5122 34.0836 23.2164C34.3542 22.9207 34.5319 22.5603 34.6166 22.1354C34.7014 21.7104 34.7063 21.2639 34.6315 20.7959C34.5566 20.3279 34.4124 19.9037 34.1988 19.5233C33.9853 19.1429 33.7035 18.853 33.3537 18.6533C33.0039 18.4537 32.5889 18.3923 32.1087 18.4691C31.6285 18.5459 31.2534 18.7337 30.9833 19.0325C30.7132 19.3313 30.536 19.6947 30.4517 20.1227C30.3675 20.5507 30.3628 20.9987 30.4376 21.4667C30.5125 21.9348 30.6565 22.3574 30.8695 22.7348C31.0826 23.1121 31.3638 23.399 31.7132 23.5956C32.0626 23.7922 32.4773 23.8521 32.9575 23.7753Z" fill="#9C9C9C"/><path d="M37.8827 24.0771L38.5179 17.0147L39.5662 17.109L39.4703 18.1757L39.5438 18.1823C39.704 17.8445 39.9625 17.5819 40.3192 17.3946C40.676 17.2072 41.0659 17.1326 41.4889 17.1706C41.5686 17.1778 41.668 17.1883 41.7873 17.2021C41.9066 17.2159 41.9966 17.2287 42.0574 17.2403L41.9581 18.3438C41.9222 18.3313 41.8391 18.3099 41.7089 18.2797C41.5821 18.2467 41.4467 18.2237 41.3026 18.2107C40.9593 18.1798 40.6463 18.2243 40.3636 18.3441C40.0842 18.4611 39.8551 18.6383 39.6762 18.8756C39.5006 19.1101 39.3984 19.3867 39.3698 19.7055L38.9678 24.1747L37.8827 24.0771Z" fill="#9C9C9C"/><path d="M49.1543 21.1085L48.1383 21.0612C48.1316 20.8869 48.0957 20.7078 48.0306 20.5239C47.9694 20.3379 47.8585 20.1646 47.6981 20.0039C47.5376 19.8432 47.307 19.7127 47.0063 19.6122C46.5948 19.4748 46.2201 19.455 45.8823 19.5531C45.5484 19.6493 45.3332 19.8418 45.2367 20.1308C45.1508 20.3877 45.1765 20.6218 45.3136 20.833C45.4507 21.0443 45.7011 21.2659 46.065 21.4978L46.9814 22.0765C47.534 22.4233 47.9074 22.7963 48.1018 23.1955C48.2972 23.5917 48.3164 24.0248 48.1594 24.4948C48.0307 24.8801 47.8047 25.1875 47.4814 25.417C47.1611 25.6474 46.7746 25.7844 46.322 25.8279C45.8694 25.8714 45.3819 25.8059 44.8594 25.6313C44.1734 25.4022 43.6553 25.0636 43.3053 24.6157C42.9552 24.1678 42.8159 23.6378 42.8873 23.0256L43.9501 23.1081C43.9225 23.5013 44.0085 23.8317 44.2078 24.0995C44.4101 24.3682 44.7228 24.5733 45.1461 24.7147C45.6277 24.8756 46.0443 24.9012 46.3957 24.7914C46.751 24.6797 46.9769 24.4794 47.0734 24.1904C47.1515 23.9569 47.1351 23.734 47.0242 23.5218C46.9144 23.3066 46.7033 23.1031 46.3911 22.9111L45.3579 22.274C44.7907 21.9223 44.4138 21.5449 44.2272 21.1418C44.0445 20.7368 44.0307 20.3023 44.1857 19.8382C44.3125 19.4587 44.5312 19.1586 44.8418 18.9378C45.1553 18.7181 45.5253 18.587 45.9516 18.5444C46.3808 18.5028 46.8318 18.561 47.3047 18.719C47.9703 18.9413 48.444 19.2618 48.726 19.6805C49.0109 20.1002 49.1537 20.5762 49.1543 21.1085Z" fill="#9C9C9C"/><path d="M53.2238 30.8405C52.9159 30.5133 52.6981 30.1583 52.5704 29.7756C52.445 29.3907 52.4261 29.0091 52.5139 28.6308C52.6038 28.2503 52.8169 27.9019 53.1532 27.5856C53.449 27.3072 53.7437 27.1398 54.0372 27.0834C54.3329 27.025 54.6251 27.0437 54.914 27.1395C55.2028 27.2354 55.4837 27.3768 55.7567 27.5636C56.0341 27.7506 56.3012 27.9493 56.5583 28.1596C56.8939 28.4354 57.1635 28.6614 57.3672 28.8374C57.5752 29.0136 57.7471 29.1222 57.883 29.1634C58.0211 29.2068 58.154 29.1684 58.2817 29.0481L58.3086 29.0228C58.6404 28.7107 58.8127 28.3774 58.8257 28.0229C58.8408 27.6706 58.6764 27.3118 58.3327 26.9465C57.9763 26.5677 57.6139 26.3487 57.2456 26.2896C56.8772 26.2305 56.5578 26.2458 56.2873 26.3355L55.8476 25.3293C56.288 25.1685 56.701 25.118 57.0867 25.1776C57.4768 25.2374 57.8321 25.368 58.1525 25.5693C58.4773 25.7708 58.7621 26.0016 59.0067 26.2616C59.1628 26.4275 59.3219 26.637 59.484 26.8901C59.6504 27.1434 59.7681 27.4278 59.8368 27.7434C59.9077 28.0613 59.8842 28.4024 59.7665 28.7668C59.6487 29.1311 59.3847 29.5063 58.9745 29.8922L55.5719 33.0936L54.8254 32.3002L55.5247 31.6422L55.4867 31.6018C55.3241 31.6535 55.1198 31.6766 54.8739 31.6713C54.6281 31.666 54.3622 31.6013 54.0764 31.4772C53.7906 31.3531 53.5064 31.1409 53.2238 30.8405ZM54.0505 30.2909C54.3458 30.6047 54.6563 30.8112 54.982 30.9104C55.3099 31.0118 55.623 31.0257 55.9213 30.9521C56.2218 30.8807 56.4796 30.7437 56.6948 30.5413L57.421 29.858C57.349 29.8623 57.2424 29.8232 57.1013 29.7405C56.9644 29.6579 56.8141 29.5543 56.6502 29.4295C56.4907 29.3049 56.3366 29.1816 56.188 29.0595C56.0436 28.9375 55.9258 28.8392 55.8344 28.7646C55.6135 28.5837 55.3884 28.432 55.1592 28.3097C54.9343 28.1874 54.7108 28.1273 54.4887 28.1292C54.2709 28.1313 54.0611 28.2272 53.8594 28.417C53.5837 28.6764 53.4712 28.9746 53.5219 29.3114C53.5769 29.6484 53.7531 29.9749 54.0505 30.2909Z" fill="#9C9C9C"/><path d="M60.9606 33.997L57.0469 35.6937L56.6136 34.6941L63.1194 31.8737L63.5381 32.8394L62.5215 33.2801L62.5583 33.3648C62.9547 33.374 63.3206 33.4905 63.6557 33.7142C63.9937 33.9367 64.2691 34.2936 64.4821 34.7849C64.6731 35.2254 64.7498 35.65 64.7123 36.0588C64.6777 36.4663 64.518 36.8407 64.2333 37.1822C63.9514 37.5224 63.5338 37.8125 62.9803 38.0524L58.8464 39.8445L58.413 38.8449L62.4792 37.0822C62.9903 36.8606 63.3309 36.5553 63.501 36.1662C63.674 35.776 63.6601 35.3493 63.4593 34.8862C63.321 34.5671 63.1282 34.3119 62.8809 34.1206C62.6348 33.932 62.3478 33.8233 62.02 33.7944C61.6921 33.7654 61.339 33.833 60.9606 33.997Z" fill="#9C9C9C"/><path d="M59.1496 44.3868C59.1374 43.796 59.2759 43.2714 59.565 42.8129C59.8572 42.3544 60.2745 41.9917 60.817 41.725C61.3625 41.4583 62.0106 41.3172 62.7614 41.3017C63.5061 41.2863 64.1549 41.4007 64.7078 41.6448C65.2608 41.8889 65.6912 42.2355 65.9991 42.6848C66.3069 43.134 66.467 43.6571 66.4794 44.254C66.4889 44.7156 66.4195 45.0818 66.2711 45.3527C66.126 45.6266 65.9579 45.8363 65.767 45.9818C65.5792 46.1304 65.4246 46.2459 65.3031 46.3285L65.305 46.4208L68.7944 46.3488L68.8168 47.438L59.3643 47.633L59.3426 46.5807L60.4318 46.5582L60.4292 46.429C60.2983 46.3517 60.1329 46.2412 59.9329 46.0976C59.736 45.9539 59.5578 45.7467 59.3983 45.476C59.2419 45.2052 59.159 44.8422 59.1496 44.3868ZM60.1311 44.5143C60.1401 44.9512 60.2616 45.3181 60.4955 45.615C60.7325 45.9117 61.0557 46.1344 61.4651 46.283C61.8776 46.4314 62.3515 46.5002 62.8869 46.4891C63.4161 46.4782 63.8776 46.3917 64.2714 46.2297C64.6682 46.0676 64.9743 45.8335 65.1896 45.5274C65.408 45.2212 65.5127 44.8465 65.5035 44.4035C65.494 43.9419 65.3676 43.5597 65.1243 43.2569C64.8842 42.9571 64.561 42.7345 64.1547 42.5889C63.7516 42.4464 63.3008 42.3803 62.8024 42.3906C62.2977 42.401 61.8408 42.4874 61.4317 42.6497C61.0257 42.8151 60.7043 43.0526 60.4675 43.3622C60.2338 43.6749 60.1217 44.0589 60.1311 44.5143Z" fill="#9C9C9C"/><path d="M57.6834 53.572L58.3088 52.5475L64.5702 60.4364L63.9544 61.4452L54.0757 59.4827L54.7011 58.4582L62.9664 60.1931L63.0048 60.13L57.6834 53.572ZM60.6049 55.8744L58.0843 60.004L57.2174 59.4749L59.738 55.3453L60.6049 55.8744Z" fill="#9C9C9C"/><path d="M53.1525 60.3117L57.4861 65.9242L56.653 66.5675L55.9984 65.7198L55.94 65.7649C56.0521 66.1216 56.0409 66.4899 55.9065 66.8697C55.7721 67.2496 55.5368 67.5693 55.2006 67.8289C55.1373 67.8778 55.0572 67.9377 54.9603 68.0086C54.8634 68.0795 54.7887 68.1314 54.7363 68.1641L54.0591 67.2871C54.094 67.2719 54.1695 67.2311 54.2855 67.1649C54.401 67.1029 54.516 67.0277 54.6305 66.9393C54.9033 66.7287 55.1027 66.4833 55.2286 66.2033C55.3541 65.9276 55.4018 65.6419 55.3718 65.3463C55.3412 65.0549 55.2281 64.7825 55.0325 64.5292L52.2901 60.9775L53.1525 60.3117Z" fill="#9C9C9C"/><path d="M48.9327 71.0543L48.5574 70.2108L51.9147 68.7169L52.2901 69.5604L48.9327 71.0543ZM52.0022 71.548L51.0068 71.9909L48.2593 65.816C48.1342 65.5349 47.9995 65.3421 47.8554 65.2378C47.7098 65.1376 47.5616 65.0923 47.411 65.1021C47.2589 65.1159 47.1097 65.1553 46.9634 65.2204C46.8538 65.2692 46.7663 65.3148 46.701 65.3574C46.637 65.4027 46.5857 65.439 46.5473 65.4662L45.947 64.6621C46.0032 64.6068 46.0861 64.5395 46.1958 64.4604C46.3042 64.3785 46.4512 64.2963 46.6368 64.2137C46.918 64.0886 47.2204 64.0264 47.5442 64.0272C47.8651 64.0293 48.1692 64.1146 48.4564 64.2832C48.7409 64.4531 48.9669 64.7264 49.1346 65.1032L52.0022 71.548Z" fill="#9C9C9C"/><path d="M44.4995 65.0209L45.8551 71.981L44.7857 72.1893L43.4301 65.2291L44.4995 65.0209ZM45.5372 73.2469C45.7457 73.2063 45.9393 73.2423 46.118 73.3549C46.2936 73.468 46.4009 73.6243 46.4397 73.8237C46.4785 74.023 46.4378 74.2081 46.3174 74.379C46.194 74.5504 46.0281 74.6563 45.8197 74.6969C45.6112 74.7375 45.4192 74.7013 45.2435 74.5881C45.0648 74.4755 44.956 74.3196 44.9172 74.1202C44.8784 73.9208 44.9206 73.7354 45.044 73.564C45.1644 73.3932 45.3288 73.2875 45.5372 73.2469Z" fill="#9C9C9C"/><path d="M35.9875 70.3866L36.9863 70.1943C37.0337 70.3621 37.1106 70.5278 37.217 70.6914C37.3201 70.8578 37.4685 71.0003 37.6622 71.1188C37.8559 71.2374 38.1107 71.3102 38.4265 71.3373C38.8588 71.3745 39.2277 71.3057 39.5331 71.1312C39.8351 70.9594 39.9991 70.7217 40.0252 70.4182C40.0483 70.1483 39.9685 69.9268 39.7857 69.7536C39.6029 69.5803 39.3074 69.4237 38.8993 69.2836L37.8728 68.936C37.2543 68.7285 36.8037 68.4535 36.5211 68.1111C36.2383 67.7717 36.118 67.3552 36.1604 66.8615C36.1952 66.4567 36.3427 66.1049 36.6032 65.806C36.8605 65.5068 37.2041 65.283 37.6338 65.1346C38.0636 64.9862 38.5529 64.9355 39.1018 64.9826C39.8224 65.0445 40.4054 65.2521 40.8507 65.6054C41.2961 65.9587 41.5559 66.4413 41.63 67.0531L40.5776 67.2222C40.5121 66.8335 40.3511 66.5324 40.0945 66.3189C39.8348 66.1051 39.4827 65.9791 39.0381 65.9409C38.5321 65.8975 38.1212 65.9703 37.8053 66.1594C37.4861 66.3513 37.3135 66.5991 37.2874 66.9026C37.2664 67.148 37.3346 67.3608 37.4921 67.5411C37.6493 67.7245 37.9023 67.8728 38.2509 67.9862L39.4046 68.3632C40.0385 68.5721 40.4934 68.8506 40.7693 69.1986C41.0419 69.5494 41.1573 69.9686 41.1154 70.4562C41.0812 70.8548 40.939 71.1978 40.6888 71.4852C40.4356 71.7724 40.1068 71.9866 39.7023 72.128C39.2948 72.2691 38.8427 72.3183 38.3459 72.2757C37.6468 72.2156 37.1111 72.0152 36.7388 71.6743C36.3634 71.3332 36.113 70.904 35.9875 70.3866Z" fill="#9C9C9C"/><path d="M29.1259 69.6629L29.501 68.8193L32.8587 70.3124L32.4836 71.156L29.1259 69.6629ZM30.8147 72.2732L29.8192 71.8305L32.5653 65.655C32.6903 65.3738 32.7433 65.1448 32.7243 64.9679C32.7012 64.7926 32.6356 64.6522 32.5275 64.5469C32.4154 64.4431 32.2862 64.3588 32.14 64.2937C32.0303 64.245 31.9378 64.2106 31.8625 64.1905C31.7859 64.1733 31.7247 64.1596 31.6787 64.1493L31.8739 63.165C31.9527 63.1697 32.0581 63.1863 32.1903 63.2147C32.3237 63.2404 32.4833 63.2945 32.6689 63.377C32.9501 63.502 33.1988 63.6851 33.415 63.926C33.6284 64.1657 33.7686 64.4487 33.8357 64.775C33.9 65.1 33.8484 65.4509 33.6808 65.8277L30.8147 72.2732Z" fill="#9C9C9C"/><path d="M23.417 62.4277L24.2931 62.9443C24.2176 63.1015 24.1657 63.2766 24.1372 63.4697C24.1045 63.6627 24.1215 63.8677 24.1883 64.0847C24.2551 64.3018 24.3979 64.525 24.6168 64.7542C24.9164 65.0681 25.2385 65.2606 25.5829 65.3318C25.9231 65.4028 26.2033 65.3331 26.4237 65.1227C26.6196 64.9357 26.7063 64.7168 26.6838 64.4659C26.6614 64.2151 26.5435 63.9021 26.3301 63.5271L25.7903 62.5873C25.4639 62.0224 25.308 61.5181 25.3226 61.0744C25.3351 60.6328 25.5205 60.2409 25.8789 59.8988C26.1727 59.6183 26.5162 59.4521 26.9092 59.4003C27.3001 59.3462 27.7058 59.4057 28.1263 59.5787C28.5467 59.7517 28.9471 60.0375 29.3275 60.436C29.827 60.9591 30.1268 61.5005 30.227 62.0601C30.3272 62.6197 30.2027 63.1534 29.8535 63.6612L28.9524 63.0917C29.1605 62.7569 29.2389 62.4246 29.1878 62.0947C29.1346 61.7626 28.9539 61.4352 28.6457 61.1124C28.2951 60.7451 27.9388 60.5278 27.5768 60.4606C27.2105 60.3934 26.9171 60.4649 26.6967 60.6753C26.5187 60.8453 26.429 61.05 26.4278 61.2894C26.4244 61.531 26.5159 61.8096 26.7023 62.1252L27.318 63.1713C27.6551 63.7473 27.8119 64.257 27.7886 64.7005C27.7609 65.144 27.57 65.5346 27.2161 65.8725C26.9267 66.1488 26.5931 66.3119 26.2153 66.3619C25.8355 66.4097 25.4471 66.3528 25.0504 66.1912C24.6514 66.0274 24.2799 65.7652 23.9356 65.4045C23.4511 64.897 23.182 64.3922 23.1283 63.8903C23.0725 63.3862 23.1688 62.8986 23.417 62.4277Z" fill="#9C9C9C"/></svg>