<svg xmlns="http://www.w3.org/2000/svg" width="163" height="113" fill="none" viewBox="0 0 163 113"><path fill="#f4793a" d="M70.82 34.022c-.037-.289-.412-.18-.178.032-.226.391-.291-.456-.42.088-.43-.516-1.13-.66-2.121-.767.084-.564.43-.358.59-.724-4.286-1.554-9.278-2.872-14.671-3.274.572.688 1.038.62 1.63 1.262.06.736-.365 1.205-.804 1.831-3.168 1.121-5.879 3.317-8.81 5.142 1.983.707 4.413 1.392 6.8 2.549.78.834 1.902.89 1.978 1.96-1.364-.872-2.577-1.84-3.742-2.298-.183-.08-.355.063-.43.358-.372-.273.181-.412.033-.696-.381-.003-.407-.07-.456.291-.154-.395-.615-.215-.658-.616-.212.235-.45.403-.759.486-.28-.232.324-.24.261-.595-.38-.004-.567.297-.82.623.255.166.479.155.559-.028.077.197.463.313.558-.028.206.527.735.814 1.242.654.226.482 1.256.497 2.1.813-.83.4.698.525.477 1.029-3.795-.684-6.62-2.087-10.45-2.567-1.326.782-2.601 1.697-3.856 2.566.146-.21.009-.27-.128-.33-.127.163.01.224.128.33-3.138 2.172-6.634 4.787-9.105 7.306-.06.137.031.178.037.29 4.068.31 8.392 1.28 12.486 1.658-.009.27.707.256.434.628-1.637-.5-3.603-.872-5.487-.935-2.267-.558-4.745-.882-6.984-.882.245.436 1.228-.061 1.474.374-.353.555-.559.028-1.04.254.312.41 1.333.694 1.575.145.034-.203-.164-.126-.27-.009-.134-.441 1.278-.422 1.346.045.42-.089.785-.42 1.386-.047-.12.274-.236.66-.48.718-.3-.187.239-.169.202-.458-.478-.155-.854-.047-1.209.015 1.407 1.273 2.908.84 4.82 1.461.35-.174.77-.262.96-.944.057.244.226.482.546.622-.192.19-.59-.15-.756.105.011.224.881.606 1.053.463.195.303.839.204 1.117-.056-.134-.441-.696-.032-1.016-.173.034-.203-.235-.212-.398-.339.384-.377 1.348.538 1.706.094.32.14.069.467-.072.787.29-.036.804.408 1.117-.055.362.541.386.115.875.493.688-.572 1.313.74 1.843.154.23.1.28.233.266.39.553-.14 1.458.039 2.184.249 1.84.535 3.775 1.602 5.315 1.95-.327-.252-.52-.555-.715-.86.08-.182.315.03.518.065.032-.696-1.005.05-.775-.723-.399.535-.696-.032-1.254-.005.084-.563.687.302.848-.064.008-.27-.667-.348-.967-.534-.193.189-.359.443-.769.755-.915-.402-1.118-.437-2.1-.813.644-.1 1.651.343 1.932.575.294.075.455-.291.668-.526-1.803-1.119-4.76-1.598-7.17-2.328 3.536.405 8.264 1.826 10.96 4.265-.114.387-.078.676-.04.965.451.09.62.327.723.59-.559.029-.09.453-.25.82-1.06.299-1.032-1.382-2.579-.969-.28-.232-.01-.223.11-.498-.3-.186-.421.088-.568.297-.428-.516-.604.008-1.245-.273.385-.378.96-.07 1.355-.225-6.64-3.407-15.284-3.87-23.198-4.996-.183-.08-.355.062-.43.357-.235-.212-.495-.49-.696-.032-1.762-1.21-6.902-.573-5.16-3.795 1.953-.344 4.009-.424 6.142-.307 1.187-1.335 2.476-2.407 3.689-3.677.137.06.209.146.28.232.232-.28-.042-.4.21-.727.229.1-.003.381.357.43.344-.286-.21-.639.104-.61.319-.351 1.258-.376 1.158-1.02 1.567-.459 2.23-1.97 3.736-2.291.185-.793 1.13-.706 1.482-1.261-1.227-.812-2.067-.143-3.305-1.178-.268-.882.344-2.525 1.7-2.257 1.706.967 3.292.462 5.301 1.235.06-.137.187-.3.07-.407 3.701-2.088 7.11-5.124 10.862-7.08-1.797-1.007-5.944.23-7.767-2.209.341-.778-.27-1.374.346-2.032 3.313 1.782 7.116.83 10.797 1.9-.846.558-2.47-.593-3.519-.07 1.148.122 3.289.843 4.394.564.05-.36-.447.022-.687-.302 2.3-.137 5.69.97 7.74 1.65-.63-.057-.324.24-.302.687-2.175-.518-4.05-.85-6.86-1.537-.138-.06-.527.205-.253.326-.344.286-.626-.439-.864-.27.06.736 1.308.628 1.84.535.607.484 1.892.666 2.582.587.163.126.148.284.266.39.137.06.218-.123.232-.28 1.573 1.018 3.089.427 4.052 1.341.808.027 3.066.855 4.459 1.412-.065-.848-.724-.59-1.04-1.112-.158-.015-.284.148-.43.357.195-.57-.257-.659-.249-.928-.558.028-1.2.62-1.523-.013.15-.59.51.332.559-.028.298-.306-.24-.324-.45-.47 1.954-.344 3.99 1.86 3.715 3.978m-4.61-3.553c-.444-.358-.77-.61-1.237-.543.261-.595.664-.145 1.056.082.385-.377-.22-.37.033-.696.38.004.655.124.915.402-.172.143-.446.023-.695-.032-.161.366.114.487-.073.787m-.377-1.257c-.172.143-.344.286-.619.165l.161-.366c.148.283.137.06.458.2m-5.04-.957c-.702-.144-2.204-1.076-2.632-.227 1.429.354 3.175.356 4.194 1.022.47-.449 1.428.354 1.995.057-.5-.602-1.783-.292-2.35-.868-.252.326-.884-.224-1.208.016m7.485 2.85c.04-.092.178-.032.27.008-.04.092-.178.032-.27-.009m-.383 1.742c.118.107-.009.27-.023.427-.29.037-.61-.104-.925-.133.253-.326.69-.08.948-.294M56.29 28.19c-.318.352.555.353.426.023-.05-.131-.36-.049-.426-.023m-.888.156c.32.141.447-.022.619-.165a.456.456 0 0 0-.55-.241c-.08.183-.074.295-.069.406m-2.61-1.145c.04-.092.06-.138.153-.097.06-.138.12-.275-.129-.33-.014.158-.14.32-.023.427m-2.75 5.891c.23.1.361.05.467-.068-.183-.08-.412-.18-.467.068m-.79.308c.266.39.908-.202.43-.357-.05.36-.33.128-.43.357m-.82.624c.346.206.928-.248.76-.486-.187.3-.727-.21-.76.486m-4.565 3.183c1.699-.51 2.851-1.643 4.126-2.557-1.228.061-1.917 1.506-3.165 1.614-.099.72-1.395.316-.96.943m2.403-.747c.092.04.098.152.169.238.08-.183.18-.412-.068-.467zm2.474 2.451c-.203-.035-.392-.227-.518-.064.077.198.351.319.518.064m-1.535-.237-.1.23.229.1.1-.23zm.458.201c-.309.083-.16.366.028.559.1-.23.09-.453-.028-.559m2.976 1.307c.046.02.097.152-.04.091zm-3.712-1.247c.101-.23-.477-.156-.61-.104.098.151.261.278.51.332zm1.094.37-.1.23.228.1c.126-.163.009-.27-.128-.33m-2.201-.584c-.112.006-.23-.1-.29.037.112-.005.23.1.29-.037m-4.636.859c.274.12.477.155.558-.028-.077-.198-.418-.293-.558.028m-7.155 4.231c1.034-.365 1.997-.816 2.768-1.952l.32.14c1.153-1.131 2.517-1.625 3.669-2.757-4.366 2.233-8.418 5.368-12.117 9.315 1.45-.565 2.371-2.29 3.77-2.987l-.101.229.228.1c.147-.209.01-.269-.128-.33.382-.87 1.748-.87 1.591-1.758m6.383-3.095c.112-.006.644-.1.338-.398l.141-.32c-.24-.324-.542.362-.14.32-.081.183-.62.165-.34.398m-.518-.064c.126-.163.36.05.39-.266-.19-.192-.645.1-.39.266m-.461.18c-.212.234.337.475.32.14.04-.091-.214-.257-.32-.14m-.29.037c-.186.3-.26.595.08.69.12-.275-.023-.447-.08-.69m-.96.943c.24.324.542-.363.293-.417-.055.248-.192.188-.293.417m-.43.358c-.192.188.054.624.22.37-.183-.081.05-.362-.22-.37m-.708.617.1-.229c-.162-.126-.223.011-.329.128zm-1.518.971c.197-.077.258-.214.049-.36-.02.046-.06.137-.178.031l-.1.229zm-1.848 1.1c.137.06.102.264.229.1.04-.09-.123-.217-.23-.1m-1.949 1.33c.183.08.392.226.467-.069l-.229-.1c-.06.137-.152.097-.238.168m.724.59.1-.229-.229-.1c-.04.091-.06.137-.197.077l-.1.229.228.1q.06-.137.198-.077m19.906 9.012c.092.04.23.1.27.009-.092-.04-.23-.1-.27-.009m-5.814-2.553.229.101-.1.229-.23-.1zm4.747 2.248c.06-.137.223-.01.38.004-.06.137-.223.01-.38-.004m-20.876-7.8c.36.05 1.24-.71.823-1.003-.252.326-.628.434-.823 1.004m14.686 5.356c.12-.275.432.135.656.124-.121.275-.433-.135-.656-.124m8.21 3.44c-.184-.08-.361-.049-.467.068.229.1.36.05.467-.068M45.014 53l-.1.229-.229-.1.1-.23zm-.787-.073c.06-.137.178-.031.29-.037-.06.138-.178.032-.29.037m-.457-.2c-.218.122-.442.133-.499-.11.233-.28.224-.011.498.11m1.593.972c.152-.097.284-.149.467-.068-.106.117-.238.168-.467.068m-2.582-.587c-.326-.253-.446.022-.595-.262.172-.143.375-.108.558-.028.08-.183-.234-.212-.068-.467.387.116.246.436.105.757m-1.868-1.094c.055-.249.63.058.326.253l-.229-.1c.04-.092-.005-.112-.097-.153m1.273.832c-.126.163-.36-.049-.43.358-.188-.192.104-.61-.196-.797.258-.214.463.313.626.44m-1.634-.88c-.06.136-.177.03-.289.036.06-.137.178-.031.29-.037M30.05 47.904l.23.1.1-.229-.23-.1zm7.912 3.746c.06-.137.34.095.42-.088.138.06.118.106.078.197l-.1.23c-.23-.101-.17-.239-.398-.339m-7.852-3.01.1-.23-.229-.1-.1.23zm5.032 2.591c.705-.236 1.051-.03 1.935.194-.604.008-1.208.016-1.935-.194m4.72 1.69c-.138-.06-.038-.29.1-.23zm-2.427-1.066c.249.055.366.161.265.39l-.366-.16zm-.421.089c-.33.128-1 .162-1.194-.142.324-.24.762.007 1.194.142m-7.893-2.92.1-.228-.228-.1-.1.228zm5.92 2.436c.255.167.267.39.499.11.423.404-.831.4-.498-.11m-1.991-.437c-.601-.373-.923.36-.708.617.18-.412.547-.251.708-.617m-4.459-1.412c.186-.3.39-.266.11-.498-.121.275-.39.266-.11.498m5.136 1.982c-.248-.055-.492.002-.658.257.34.095.538.018.658-.257m-7.818-2.34c.58.418.776-.151 1.305.136.184-.793-.924-.133-1.305-.136m4.281 1.442-.1.23.228.1.1-.23zm.846.809c.06-.138.121-.275-.128-.33-.015.158-.14.32-.003.381.02-.046.06-.137.131-.051m-6.545-1.509c.38.004.798.296.948-.293-.438-.247-.793-.185-.948.293m42.123-6.517c.875.494 1.27 1.213 1.795 1.88-1.122 2.183-3.22 1.863-4.862 2.617-2.091 1.157-4.52 2.711-6.611 2.995.216.75-1.23.934-1.797 1.231.156.888-.438 1.992-.15 2.829.696.032 1.386-.047 1.974-.39.14.553.259 1.151-.017 1.904-2.192 1.386-3.196-1.676-3.518-3.182-1.211.396-2.366 1.036-3.403 1.782-.27-.01-.037-.29-.22-.37-.441.134-.474.83-1.02 1.081-.118-.106.008-.269-.13-.33-.813.735-1.853.989-2.756 2.176-.79-.565-.92-1.387-.57-2.434 2.67-2.596 6.037-3.302 8.86-5.503.937-2.756 2.531-4.896 3.408-7.514-.332-.364-.402-1.323.282-1.514.733.321 1.024.777 1.69 1.124.33 2.11-1.33 4.276-2.215 6.29 3.132-1.41 6.237-2.886 9.26-4.672m-8.32 4.648c-.055.249-.258.214-.293.417.24.324.496-.383.293-.417m.385.988.1-.23c-.163-.125-.269-.008-.33.13-.162-.127-.268-.01-.328.128l-.23-.1c-.1.228-.049.36.069.466l.16-.366c.112-.006.27.009.33-.129zm-.876-.494c-.091-.04-.229-.1-.269-.009.092.04.23.1.27.01m-.622.546c-.183-.08-.392-.226-.466.069.183.08.36.049.466-.069m-.768.755c.138.06 1.077.036 1.318-.514-.518-.063-.903.314-1.318.514m.486.76.1-.23-.229-.1-.1.229zm-4.045 1.5c.095-.34.39-.265.53-.586-.32-.14-.922.36-.53.586m-1.093-.37c-.111.005-.229-.1-.289.037.112-.006.229.1.29-.037m-.603 1.373c.124-.655 1.475-.5 1-1.035-1.953 1.217-4.823 2.032-6.013 3.749 1.533-1.13 3.24-1.909 4.825-2.906.005.112.03.178.188.192m.35-1.047c-.477-.155-.8.084-1.125.325.53.287.725-.283 1.126-.325m.465 1.678c.132-.051.516-.429.11-.498-.166.255-.39.266-.11.498m-1.721-1.302c-.255-.166-.31.083-.39.266l.229.1zm-1.086.233c-.224.885-1.455.454-1.39 1.301.384-.377 1.784-.581 1.39-1.3m.651 1.378c.092.04.077.198.23.1.06-.136-.17-.237-.23-.1m-.76.486c.113-.005.23.1.29-.037-.112.006-.229-.1-.29.037m-1.742-.383c-.32-.14-.441.134-.567.297.32.14.65.012.567-.297m.746 1.037c.234.213.684-.19.43-.357-.1.229-.381-.003-.43.357m-1.643-.611-.1.228.229.1.1-.228zm1.45.8c.112-.005.23.1.29-.037-.112.006-.229-.1-.29.037m-.1.229c.112-.005.23.1.29-.037-.112.006-.23-.1-.29.037m25.282 3.782c2.065-.35 4.099-.877 5.85-2.128-.2.95-1.093.994-1.649 1.515-.091-.04-.077-.198-.168-.238-.17.635-.772 1.136-1.09.614-.192 1.062-1.666.688-2.277 1.457 1.076.036 1.865-.765 2.864-.926-1.183.954-2.209 1.05-3.326 1.98-.237-.705-1.326-.091-1.935-.195-1.656-1.327-2.077-3.478-.975-5.615-2.65 1.184-5.012 3.206-7.661 4.39-1.189-.03-2.136-.61-2.24-1.365-.275-.12.135-.432.123-.656-.077-.197-.351-.318-.408-.561.183-2.159 2.186-3.737 3.748-5.18 2.806-2.537 7.206-6.339 9.843-6.874 1.15.615 2.764 1.541 2.02 3.235.641.282.589-1.216 1.378-.65.412.18.006.11-.049.36.687.301 1.196.634 1.539 1.221-1.59 3.125-5.3 4.609-6.205 7.542-.092-.04-.097-.151-.189-.192-.448.896-.95 1.167-1.177 2.432.584.038 1.111-.167 1.618-.327.183.08-.029.315.286.344zm-7.777-7.783c-.92.852-1.871 1.527-2.689 2.642.977-.608 2.215-1.812 2.78-2.602.467-.068.791-.308 1.058-.791 1.949-1.33 3.912-2.815 5.886-4.078-2.129.867-4.092 2.353-5.886 4.078l-.137-.06c-.227.391-.73.17-.92.851zm7.544-4.497c-.112.006-.229-.1-.27-.009.092.04.23.1.27.01m2.795 3.958c-.112.005-.229-.1-.27-.01.092.04.23.101.27.01m-4.953 2.576c.559-.901 1.773-.805 2.458-1.87-1.428-.353-2.424 1.667-3.511 1.408.825-.512 1.656-.912 2.378-1.687-.295-.075-.57-.195-.469-.424.39-.266.708-.617.944-1.279-.949.294-2.576.89-2.668 1.724-.209-.147-.315-.03-.518-.064-1.989 1.42-3.95 3.399-5.72 4.697-.196.569-.505.652-.732 1.044.489.378.439-.627.85-.446-.12.275-.343.286-.063.518.375-.108.536-.474.362-.824.091.04.126-.163.31-.083l-.081.184c1.25.385 2.532-1.291 3.586-1.702.112-.006.413.18.498.11.35-.175 1.182-1.448 1.287-.692.206-.346.44-.134.373-.6.197-.078.472.043.716-.014m1.816-3.517c-.404.424.435.628.458.202zm2.835 1.627c-.111.006-.228-.1-.289.037.112-.005.25.055.29-.037m-5.691-2.334c-.53-.287-.72.394-1.069.568.453.09.72-.394 1.069-.568m6.089 2.673a.45.45 0 0 1-.278.26l.366.16c.08-.182.03-.314-.088-.42m-1.853.115c.127-.163.264-.103.39-.266-.046-.02-.137-.06-.051-.132l-.23-.1c-.08.183-.226.392-.109.498m-6.884-1.111c.513-.048 1.699-.51 1.35-1.21-.321.733-.951.675-1.35 1.21m13.03 4.9q-.06.138-.198.078.06-.138.197-.078m-.198.078c-.04.091-.152.097-.31.082.086-.071.147-.209.31-.082m.229.1c.463.313-.597.612-.712.998-.18-.46.577-.566.712-.998m-.539-.018c-1.08 1.218-3.225 1.751-4.795 2.59 1.029-1.35 3.225-1.75 4.795-2.59M66.31 51.81c.235.213.659-.256.47-.448-.146.208-.395.154-.47.448m6.093 2.293c-.163-.126-.27-.01-.33.128l-.137-.06c.005.112-.086.071-.132.051l-.12.275c.208.146.309-.083.39-.266l.228.1zm-2.267 3.92c.794-.69 2.236-2.732 2.724-3.72-1.178 1.067-1.909 2.111-2.724 3.72m-5.116-5.14c.335-.017 1.009-.432.9-.807-.272.372-.75.217-.9.806m2.738 1.474c.313-.463.877-.38 1.19-.843l.137.06c-.379.49-.814.735-1.327.783m2.591.319.08-.183-.228-.101-.08.183zm1.093.37c-.662.638-1.436 1.281-1.142 2.23.173-1.017 1.44-1.662 1.142-2.23M65.51 53.26c-.255-.166-.376.108-.522.317.255.166.375-.108.522-.317m-1.31.245c.347.206.903-.314.531-.587-.14.32-.435.246-.53.587m4.811 1.73c.112-.007.25.054.29-.038-.112.006-.23-.1-.29.037m.354.81c.172-.143.416-.2.562-.409-.234-.212-.796.197-.562.409m-1.012-.554c.228.1.36.049.486-.114-.228-.1-.36-.05-.486.114m-6.012-.237c.547-.251 1.92-1.014 1.662-1.672-.444.514-1.072.949-1.662 1.672m2.446-1.22c.04-.09-.168-.237-.229-.1.138.06.103.264.23.1m3.044 1.774c.112-.005.229.1.29-.037-.112.006-.23-.1-.29.037m-1.51-.663c.214.258-.425.469-.623.546.161-.366.43-.358.622-.546m4.995 2.302c.112-.005.23.1.27.01-.092-.041-.23-.101-.27-.01m2.454 1.624c-.106.117-.237.168-.466.068.106-.117.238-.169.466-.068m-.466.068c-.06.137-.198.077-.253.326-.249-.055.059-.63.253-.326m-11.28-4.406c-.08.183-.227.392-.11.498.132-.052.516-.429.11-.498m2.408 1.603c.06-.137.29-.037.229.1zm-3.02.04c.36.049.977-.61.868-.984-.272.371-.673.414-.868.983m3.02-.04c-.04.092-.06.138-.152.097.04-.091.06-.137.152-.097m-2.486.438c.178-.031.866-.603.362-.824-.023.426-.576.566-.362.824m11.799 4.47c-.112.005-.229-.1-.27-.01.092.041.23.101.27.01m-12.887-3.856c.126-.163.814-.735.361-.824-.023.427-.865.603-.361.824m.578-.073c.112-.006.516-.43.064-.519-.035.204-.247.438-.064.519m-.298.305c.255.167.478.156.558-.027-.203-.035-.489-.379-.558.027m37.277 5.553c.137.06-.075.295.22.37-1.541.525-1.959 2.471-3.53 2.819-.213.234.082.309-.15.589-2.444.839-4.327 3.015-7.207 2.734-.535-.399-.512-.826-1.081-1.02-.865-3.876 3.23-6.61 5.334-9.29-.128-.33-.249-.055-.518-.064-.788.8-1.6 1.155-2.544 1.068.048.512-.195.57-.622.546-.133.924-1.004 1.416-1.811 1.389-.261.595-.574 1.058-1.098.883-1.768 1.79-3.794 2.921-5.748 4.138-.815-.63-1.037-1.493-1.326-2.329.227-.392.236-.661.265-.976 2.927-2.81 5.68-5.97 8.643-8.492.18-.412.049-.36.301-.687-1.254-.004-1.243.22-2.346.99-.137-.06-.077-.197-.28-.232-.232.28-.609 1.262-1.367.875-.685 1.064-1.736 1.094-2.402 2.112-.269-.008-.46.18-.827.02-.703 1.602-2.828 2.089-4.039 3.85-1.169.798-2.261 1.793-3.379 2.722-1.124-.548-.88-1.478-1.357-2.507 1.952-1.71 3.781-3.637 5.79-5.103-1.717 1.922-3.64 3.317-5.383 5.172 1.52-.478 2.668-1.722 3.53-2.818 1.278-.422 1.554-1.175 2.65-2.55.253 1.04.974-1.101 1.622-1.581-.98.116-1.445 1.55-2.419 1.777 2.127-2.233 4.409-4.071 6.69-5.91.386.116.604-.007.924.134.338.475.457 1.074.313 1.775 1.272-.534 2.62-.87 4.118-.922.138.06-.029.315-.11.498.777-.15.378.384 1.054.462.375 2.13-2.4 4.844-4.008 6.268-.14.32-.24.55-.393.646.401-.042.868-.11 1.309-.244.298-.306-.346-.207-.028-.558.721.098 1.358-.606 2.246-.762l-.141.32c-.421.089-.842.177-1.089.615.447-.023 1.117-.056 1.089-.615.98-.116 1.707-.779 2.507-1.356.294.075.512-.048.75-.217-.103-.264-.564-.084-.75.217-.894.044-1.55.794-2.366 1.036.054-.25.257-.215.292-.418-.518-.063-.805.466-1.272.534.348-.667.88-.76 1.433-.9.14-.32.49-.495.598-.12.341.095-.056-.243.201-.457.361.049.175.35.358.43l.301-.687c.33-.129.32.14.595.261.549-1.124 1.519-.971 2.407-1.128.612.597 1.244 1.147 1.05 2.209-2.157 3.421-5.143 5.496-7.03 8.926 3.61-.762 6.523-3.415 10.031-4.442m-5.808-5.553.23.1.1-.228-.23-.1zM78.901 64.71c2.476-2.408 5.469-5.244 8.075-8.195l-.366-.16c-.015.157-.14.32-.003.38-2.66 2.327-5.245 4.36-7.706 7.975m8.063-7.545-.1.229.228.1.1-.229zm.447 8.933c.533-.967 1.041-2 1.883-2.176-.163-.127-.355.062-.32-.141.806-1.339 2.912-2.653 3.255-4.305-.924 1.233-1.66 2.165-2.85 3.008-.33 1.002-1.247 1.473-1.365 2.24-.258.215-1.244 1.093-.603 1.374m-.708-8.338c-.264.103-.359.443.028.558.166-.254.155-.478-.028-.558m1.26 1.482a.57.57 0 0 1 .507-.16c-.1.229-.298.306-.507.16m-1.433-.466c.06-.137-.123-.218-.23-.1.138.06.103.263.23.1m.63 2.297c-.217-.75.942-.405.73-1.044-.08.183-.217.123-.297.306-.785.42-2.407 1.128-2.51 1.737.678-.302 1.3-.848 2.076-.999M96.355 65c.166-.254.948-.293.723-.775-.167.255-.923.36-.723.775m-6.193-2.063c-.595-.261-.416 1.073-.032.696-.118-.107.029-.315.063-.519l.138.06c.358-.443.794-.688 1.12-1.31-.557.029-1.317.515-1.289 1.073m-3.274-1c.34.094 1.35-.337.86-.715-.252.326-.587.343-.86.714m8.576 3.6c.106-.117.258-.214.384-.377-.286-.344-.639.211-.384.377m-5.27-2.423c-.046-.02-.138-.06-.032-.177.092.04.117.106.031.177m.554.353.1-.229-.228-.1-.1.229zm3.69 2.166-.1.23.23.1.1-.23zm.527.668.1-.229-.228-.1-.101.229zm-5.695-1.954c.26.278.542-.363.16-.366zm3.462 2.066c.274.12.523.175.618-.165.198-.078.518.063.659-.257-.346-.207-.564-.084-.659.257-.32-.141-.523-.176-.618.165m1.437.085c.24.323.547-.252.298-.306-.04.091-.06.137-.198.077zm-9.349-3.831c.166-.255.155-.478-.028-.559-.034.204-.378.49.028.559m8.888 4.01c.091.04.228.101.269.01-.092-.04-.23-.101-.27-.01m-9.913-3.914c.28.232.33-.129.527-.206-.229-.1-.406-.069-.527.206m4.246 2.519c.234.212.87-.492.393-.647-.07.407-.293.418-.393.647m3.602 1.745c.269.009.908-.202.728-.663-.278.26-.522.317-.728.663-.34-.095-1.097.01-.937.517.278-.26.736-.06.937-.517m-1.916.633c.32.14.584.038.699-.348-.346-.207-.533.094-.7.348m16.797 1.258c-.17.636.644-.099.357.43-.401.043-.699.349-1.125.325.055-1.122 1.08-1.218 1.837-2.196.178-.032.35-.174.471-.45-.224.012-.396.155-.471.45-.38-.004-.613.277-.819.623-.183-.08-.255-.166-.306-.298-.146.208.145.664-.293.417l.041-.091c-.138-.06-.132.051-.041.091-.808.847-1.596 1.647-2.616 1.855.293-.418.745-.328.96-.944.092.04.152-.097.192-.188-.091-.04-.106.117-.192.189-.85.445-1.707.779-2.506 1.356-.061.138.031.178-.009.27.229.1.212-.235.466-.069-.126.163-.323.24-.43.358-.234-.213-.297-.568-.686-.302-.353.555.538.018.205.527-.967-.534-2.176.355-3.368.706-.014.157.123.218.327.252-.992.766-2.51.865-3.423.955.28.232.835.585 1.316.36-.59.723-2.782-.13-2.818-1.292-3.004 2.613-6.1 6.059-8.666 8.918-.568 1.17-1.24 2.077-1.993 2.675l-1.053-.463c.09-.452.384-.377.499-.763-.3-.187-.338.397-.567.297-.607-.485.167-1.128-.313-1.776.665-1.018 1.382-1.905 2.3-2.376 5.48-8.132 11.543-13.608 17.968-20.78.395-.154 1.001.33 1.345.045 1.145.502.465 1.678.469 2.663-1.321.895-2.908 2.273-3.643 3.697-.55-.24-1.224 1.047-1.857 1.37 1.297-.469 3.057-1.99 4.556-2.915.392.227.507-.16.796-.197.08-.183-.011-.223-.128-.33.197-.076.292-.417.613-.276-.081.183-.238.169-.293.418 1.865-.765 3.673-1.774 5.866-1.794.935.356 1.158 1.218 1.918 2.098-.15.59-.244.93-.543 1.236-.18.413.467-.068.306.299-1.208 2.254-2.621 3.982-4.649 4.62m4.858-6.713c-.009.27-.512.048-.366-.16.106-.118.361.048.366.16m-9.449 7.592c2.706-2.307 5.912-4.012 7.496-7.248.04-.092-.031-.178-.143-.172-5.41 1.502-10.31 4.702-14.5 8.65 2.707.425 4.548-1.279 6.85-1.797-.733.552-1.718.556-2.375 1.305.908-.202 1.713-.667 2.672-.738m3.99-7.968c-.183-.08-.315-.03-.421.088.209.146.366.16.421-.088.117.106.157.014.177-.031-.071-.086-.111.005-.177.03m-.811.354c-.36-.05-.644.1-.896.425.36.05.664-.145.896-.425.092.04.112-.006.198-.077-.137-.06-.158-.015-.198.077m-.915-.402c.183.08-.009.269-.141.32l-.137-.06c.06-.137.192-.189.278-.26m1.498 1.313c.101-.229.135-.432-.074-.578-.054.249-.352.555.074.578m-1.214-.096.229.1c-.131.052-.238.17-.292.418.254.166.375-.108.521-.317l-.229-.1c.132-.052.258-.215.339-.398l-.138-.06c-.126.163-.406-.07-.43.357-.071-.086-.111.006-.131.051.071.086.111-.005.131-.051m-1.313-.74.138.06c-.161.366-.476.337-.668.526-.24-.324.41-.312.53-.586m.627.438c-.207.347-1.086.234-.9.807.175-.524 1.354-.225.9-.806m-.732 1.044c-.157-.014-.71.126-.43.358.101-.229.381.003.43-.358.387.116.613-.276.851-.445-.315-.029-.619.165-.851.445m-.149.59c.24.324.541-.363.338-.397-.126.163-.284.148-.338.397m-.907-.671c-.207.346-1.257.376-.783.912.11-.498.937-.517.783-.912m.425.897c.195.303.502-.272.298-.306-.086.071-.106.117-.197.077zm-.988.385c-.137-.06-.077-.198-.26-.278-.166.255-.201.458-.018.538.06-.137.192-.189.278-.26m-1.016-.173c-.335.017-.639.21-.891.537.386.115.716-.013.891-.537.163.126.269.009.329-.129-.111.006-.223.012-.329.129m.326.252-.161.367c.072.085.143.171.281.232.12-.275-.043-.401-.12-.599m-.792 1.182c.01-.27.439-.627.033-.696-.212.234-.527.206-.399.535zm-.623-.82c-.06.137-.303.194-.14.32.06-.137.283-.148.14-.32m-.012.65c-.315-.03-.648.48-.17.635.035-.203.399-.535.17-.635m4.258 1.87c.209.145-.241.549-.476.336.095-.34.375-.108.476-.337m-5.764-1.549c-.207.347-.465.561-.769.755.392.227.528-.205.797-.196.016.335-.522.317-.242.55.218-.124.805-.466.631-.816-.1.229-.232.28-.39.266.267-.484.714-.506.96-.944-.483-.267-.535.475-.987.385m4.944 2.171c.035-.203.167-.254.253-.326l.091.04c-.055.25-.186.3-.344.286m2.679.74c.548 1.114-1.365 1.366-2.095 1.537.754-.597 1.55-.794 2.095-1.538m-3.616-.223c.207-.346.542-.363.8-.577l.137.06c-.298.306-.602.5-.937.517m-3.33-2.117c-.02.046-.06.137-.131.051l-.1.23c.194.303.48-.226.231-.28m4.543 3.086c.203.035.143.172.326.253-.238.168-.378.489-.796.196.12-.274.324-.24.47-.449m-6.55-2.493c-.267.484-.648.48-.823 1.004.458.201-.055.249-.11.498.739.433.333-.51.891-.537-.214-.258-.521.317-.498-.11.172-.142.998-.654.54-.855m.26.278-.1.229.274.12.1-.228zm-3.554 1.006c.41-.311 1.28-.803 1.201-1.493-.353.555-.88.76-1.201 1.493-.77.263-1.551 1.667-2.314 2.534-.874.872-2.075 1.492-2.09 2.523 1.46-1.708 3.016-3.263 4.404-5.057m8.304 3.1c.101-.229.298-.306.507-.16a.57.57 0 0 1-.507.16m-2.646-1.435c-.227.392.257.659.443.359-.229-.1-.214-.258-.443-.359m1.438 1.45c-.784-.453-.966.833-1.775.313.776-.15 1.3-.848 2.153-.802-.074.295-.329.129-.378.49m-5.896-1.496c.359-.443.717-.886 1.23-.934-.318-.522-1.375.27-1.23.934m6.952 1.578c.04-.092.061-.137.152-.097-.04.092-.06.137-.152.097m-.521.317c.049-.36.329-.128.43-.357l.091.04c-.12.275-.344.286-.521.317m-2.558-1.014.2-.457-.366-.161c-.186.3-.307.575.166.618m2.38 1.046c.02-.046.061-.138.178-.032-.066.026-.106.118-.178.032m-.152.097c.041-.092.061-.138.152-.097-.04.091-.06.137-.152.097m-.177.03c.02-.045.06-.136.177-.03-.065.025-.106.117-.177.03m-5.703-.318c.692.413 1.807-.136 2.526-.53-.94.025-1.755.267-2.526.53m3.41.568c.142.172.022.447-.013.65-.295-.075-.527.205-.848.065.299-.306.762.006.86-.715m-5.543-.686c.387.115.957-.562.823-1.004-.298.306-.622.547-.823 1.004m2.115.656c.092.04.275.12.315.029-.091-.04-.229-.1-.315-.03m-3.566-.583.1-.229-.183-.08-.1.229zm-.149 1.955c.298-.306.84-.669.443-1.007-.147.209-.637.704-.443 1.007m-.605-1.358c-.218.123-1.078.838-.5.764-.26-.278.786-.42.5-.764m-1.078 3.077c-.01-.224.522-.317.242-.55-.112.006-.516.43-.241.55m-2.104.44c.02-.045.455-.29.2-.457-.085.072-.52.317-.2.458m19.865 2.442c4.943-1.434 8.885-5.437 13.802-6.937-.748.71-1.183.955-1.972 1.756-.044-.894-.776.15-.759.486-.635-.17-1.3-.025-1.664.307-.04.091.008.604-.032.695-.287.53-1.074.457-1.112 1.041-.423-.404-.533.094-.828.019-.014.157.037.29.22.37-.578.073-.347.666-.988.385-.12.275.043.4-.164.747-.32-.14-.524-.175-.696-.032.79.564-1.149.751-1.542 1.398-1.971.882-3.474 3.061-6.235 2.013-1.656-1.328-1.257-4.102-.797-5.647.958-1.436 1.471-2.357 2.363-3.767 1.548-1.287 2.725-3.719 4.665-4.779.437.247-.253.326.028.559.466-.068.189-.681.442-1.008-.378-.384-.216.616-.659.257.327-.62 1.075-1.33 1.427-1.011.728-.664 1.533-1.13 2.113-2.076-.473-.044-.591.723-1.089.614.849-.938 1.846-1.592 2.74-2.51-.014.157.057.243.129.33.249.054.266-.484.47-.45.06-.137-.123-.218-.261-.278.061-.137.238-.169.293-.418.141-.32.441-.134.659-.256 1.164-1.782 3.431-3.463 5.437-4.548.675.078.732.321 1.333.694-.055.25-.221.504.119.599-.175.523-.198.95-.505 1.525-6.173 4.607-11.035 9.462-16.373 15.528-.517 1.302-2.601 3.063-2.019 4.848.472.043.867-.111 1.314-.133.203.034.015-.158.141-.32m4.859-12.064-.1.229.229.1.1-.229zm-6.783 9.854c1.296-1.833 2.255-4.142 4.235-5.294.388-.758.38-1.362 1.041-1.126.075-.295.018-.539.27-.865.266.39.146-.209.47-.449.092.04.051.132.189.192.455-.291.731-1.044 1.161-1.4-.584-.039-1.312.624-1.35 1.208-.492.003-.962.451-.909 1.076a.7.7 0 0 0-.28-.233c-1.311 1.992-4.277 4.02-4.827 6.891m5.201-8.364c-.232.28-.553.14-.708.617.366.16 1.054-.41.708-.617m7.717 5.68.101-.228-.229-.1-.101.228zm-2.168.96c.183.08.314.03.421-.088-.184-.08-.315-.03-.421.088l-.138-.06c-.232.28-.578.073-.759.486-.309.082-.69.079-.851.445.386.115.599-.12.851-.445.412.18.69-.08.897-.426m-6.748-2.416.1-.23-.229-.1-.1.23zm-.619.165c.137.06.097.152.189.192.08-.183.181-.412-.088-.42zm4.333 3.813c.452.09 1.197-.239 1.088-.614-.349.174-.77.263-1.088.614m-1.262 1.63c.266.39.833.093 1.085-.233-.183-.08-.123-.217-.326-.252-.186.3-.521.317-.759.486m-6.723-1.477-.101.23.229.1.1-.23zm-.362.825c.26.278.561-.41.161-.367zm23.68 1.44c.293-.418.909-1.075 1.651-1.023-.273.372-.597.612-1.089.614-.08.183.103.264.088.421-.98.99-2.186 1.498-3.289 2.27-.31.082-.189-.193-.398-.339-.588 1.216-1.793.85-2.556 1.718-.289.036-.797 1.07-1.277.422-.07.406-.009.269-.262.595-1.835.45-3.356.929-5.445.34-2.492-1.913-1.904-6.734 1.087-8.697 1.083-.726 2.064-1.715 3.05-2.593a33 33 0 0 0 2.627-1.632c-.994.274-1.859.877-2.627 1.632-.553.14-.957.563-1.407.966l-.092-.04c2.563-2.48 5.448-4.325 8.878-4.676.827.854 1.719 1.683 1.775 2.8-.425.469-.695 1.333-1.093 1.868-3.175 1.883-5.955 4.484-9.955 4.64-.564-.084-.358-.43-.724-.591-.954 1.055-2.07 2.477-1.84 3.943.784.453 1.48.485 2.012.392 3.637-.697 7.328-3.009 10.593-3.978-.012-.223.029-.315.278-.26.04-.092.06-.137.152-.097-.021.046-.061.137-.152.097.89.336 1.899-.968 2.796-1.394-1.057 2.158-3.876 1.739-5.484 3.163.478.155 1.552-.302 2.306-.9.229.101.168.239.397.339m-1.086-7.849c-2.764.698-5.726 2.346-7.661 4.39 2.248-1.141 5.164-1.937 6.938-3.615l-.1.23c.426.022 1.423-.632 1.061-1.173-.156.478-.388.758-.769.754.09-.452.416-.2.531-.586m-2.879-1.154c-.126.163-.284.148-.39.265.189.193.625-.053.39-.265m-.43.357c-.229-.1-.361-.05-.487.114.229.1.361.049.487-.114m2.586 1.572c.04-.091.101-.229.192-.189-.04.092-.1.23-.192.19m.727.21c-.06.137-.186.3-.049.36q.06-.136.198-.076c.014-.158.054-.25-.149-.284m-4.828-1.191c.478.155.679-.303.988-.386-.432-.135-.736.06-.988.386m3.988 1.86c.189.192.639-.211.41-.312a2 2 0 0 0-.41.312m-5.912.408c-.086.071-.476.337-.221.503.04-.091.475-.337.221-.503m8.3 4.353c-.04.092-.06.138-.132.052.02-.046.06-.138.132-.052m-.132.052q-.06.137-.197.077c.02-.046.106-.118.197-.077m-8.997-3.513c-.549-.241-1.103.771-.634 1.196-.165-.619.25-.819.634-1.196m-1.413-.512.137.06c-.267.484-.571.678-.92.853-.088-.421.53-.587.783-.913m-.783.913c-.086.071-.101.229-.238.168.086-.071.101-.229.238-.168m-.238.168c-.069.407-.272.372-.393.647-.183-.08-.212.234-.467.068.227-.392.542-.363.769-.755zm.546.622c-.049.361-.719.394-.453.784.226-.392 1.598-.281.823-1.004-.101.23.082.31.088.421-.157-.014-.192.189-.329.129.04-.092.1-.23-.129-.33m3.501 7.325c2.183-1.116 4.815-1.763 6.56-3.126-2.377.813-4.698 1.869-7.018 2.925-.341-.094-.65-.012-.836.288.335-.016.65.013.836-.288zm4.149-2.983c-.346-.207-.933.136-.759.485.232-.28.573-.185.759-.485m-1.177.193-.14.32c.286.344.587-.343.14-.32m-7.826-2.945c.04-.091.283-.148.14-.32-.106.117-.349.174-.14.32m-.286-.344c-.04.092-.284.149-.141.32.106-.116.35-.173.141-.32m7.931 3.7c-.203-.034-.366-.16-.441.135.184.08.315.029.441-.134m-8.534-2.326c.055-.25.587-.343.261-.595.011.223-.521.317-.261.595m4.084 5.997.1-.229-.229-.1-.1.229zm-.788-.072c.183.08.315.029.421-.088-.183-.08-.315-.03-.421.088"/><path fill="#f4793a" fill-rule="evenodd" d="M81.879 86.58c-.051-.025-3.468-1.265-7.585-2.752l-7.766-2.808-.778-.272c-.286-.096-2.486-.896-4.919-1.782-2.406-.88-5.9-2.15-7.764-2.83a1346 1346 0 0 1-9.056-3.315 900 900 0 0 1-3.622-1.332c-.853-.316-1.785-.654-2.07-.756a164 164 0 0 1-1.943-.694c-.336-.124-.336-.127.005-.034q.353.096.081-.003a3.3 3.3 0 0 0-.47-.137 7 7 0 0 1-.754-.245c-.465-.173-.567-.226-.483-.247q.111-.022-.258-.1c-.423-.086-1.252-.378-1.685-.588a3.3 3.3 0 0 0-.674-.239 2.4 2.4 0 0 1-.519-.18 4.4 4.4 0 0 0-.594-.226c-.287-.09-.364-.12-.231-.099.106.016.056-.018-.073-.065-.155-.056-.287-.09-.288-.074-.005.037-1.067-.348-1.476-.533a7 7 0 0 0-.777-.282 13 13 0 0 1-.728-.236 647 647 0 0 0-4.577-1.7c-.414-.15-.724-.27-.723-.28.003-.018-1.73-.66-3.155-1.168-.57-.204-.723-.273-.716-.328l.009-.068-.527-.118a8 8 0 0 1-1.25-.397c-.386-.152-.798-.319-.926-.378-.102-.052-.62-.241-1.087-.4-.571-.192-.881-.31-.878-.334.003-.019-.177-.1-.384-.173-.207-.075-.39-.124-.393-.106q-.005.038-.388-.143c-.204-.095-.304-.163-.198-.145.133.022.21.05.26.093.074.053.306.14.723.27.365.114.701.235.777.276.177.102 2.456.917 2.461.88.002-.013.185.04.392.114s.386.155.384.174.23.108.516.198c.313.1.936.31 1.429.48.7.245.906.329.9.366-.004.04.047.062.207.087.238.04 1.09.372 1.393.539.127.068.204.096.208.068s.627.186 2.465.85c1.372.495 2.38.87 2.3.857-.159-.025.645.254 1.142.397.183.05.312.102.309.124s.333.152.904.347c.492.17.907.322.905.335-.002.012.177.096.409.188.206.084.336.127.26.084s.006-.043.215.013c.289.074.392.118.514.22.097.09.2.136.358.16.185.038.393.11.908.317.49.198.697.272.7.25.002-.018.236.06.519.174.258.103.906.332 1.426.5.702.229.986.334 1.267.467.255.127.41.183.673.248.263.062.314.087.179.084-.216-.01.146.123.698.257.5.118.914.267 1.502.545.255.121.46.205.463.186.005-.04 4.226 1.478 4.454 1.605.127.065.205.093.208.069.003-.022.135.006.29.062.13.046.18.077.1.068-.08-.01.023.03.231.096.234.074.418.118.42.102.002-.012.184.047.416.143.231.093.517.186.676.217.185.034.21.05.074.056-.164.012.195.17.513.222.106.02.263.069.39.124.308.137 5.332 1.943 5.646 2.03.157.047.468.158.699.254.335.133.414.155.34.096-.074-.055-.41-.188-.98-.387-.467-.16-.932-.338-1.007-.38a13 13 0 0 0-.849-.357c-.541-.21-.724-.27-.728-.233q-.007.047-.705-.207l-.725-.264.65.208c.6.192.6.19.082 0a8 8 0 0 1-.72-.294 3.5 3.5 0 0 0-.596-.217 12 12 0 0 1-.83-.288c-.335-.137-.335-.13-.03.024.279.149.278.155-.059.034-.233-.083-.463-.192-.536-.25-.124-.09-.356-.183-1.03-.416-.468-.16-.959-.347-1.034-.393-.127-.068-.36-.152-.829-.294-.417-.128-.728-.236-.83-.292-.101-.052-1.446-.548-3.026-1.115a189 189 0 0 1-3.751-1.38c-1.005-.399-2.176-.777-1.951-.629.049.04-.006.04-.135-.006-.155-.056-.256-.114-.253-.14.004-.03-.253-.138-.823-.34l-12.792-4.605-11.963-4.307-.973-.443a33 33 0 0 0-1.102-.489c-.077-.028-.128-.056-.075-.05.028-.006-.048-.043-.204-.099-.129-.046-.256-.108-.254-.127.002-.015.107.013.235.069.128.059.183.056.109-.003s.011-.087.17-.065c.214.028.217.01-.015-.083s-.204-.102.112-.028c.526.124.837.23.571.192-.106-.018-.08-.003.05.031.605.146-.194-.383-1.048-.69-.466-.167-.71-.377-.367-.306.158.035.214.025.112-.024a.8.8 0 0 1-.249-.173c-.068-.1.848.152 1.125.31q.15.092.39.133.516.091-.144-.145a4 4 0 0 1-.564-.248c-.1-.062-.434-.204-.718-.316-.413-.158-.514-.22-.525-.337.009-.07.12-.092.275-.037.13.047.157.047.08.01-.254-.124.33-.024.743.124.777.28.296.022-.48-.263a3 3 0 0 1-.41-.182c-.201-.121.358-.25.752-.157.184.044 1.403.465 3.01 1.035 1.502.536 2.851 1.004 3.008 1.051.157.043.286.093.283.111-.002.019.308.137.75.285.415.137.829.295.904.341.101.056-.005.034-.238-.05-.233-.083-.338-.105-.263-.062.303.17.85.338 1.2.37.268.021.425.065.68.183.23.105.334.142.337.12.002-.018.573.177 1.505.515.802.294 1.684.604 1.944.688.469.146.47.143.06-.046-.23-.109-.692-.31-1-.44-.411-.173-.536-.257-.548-.368-.017-.08.07-.12.174-.09.105.029.136-.002.064-.077l-.119-.126 1.345.502c1.24.465 1.344.499 1.196.387-.196-.157.765.165 1.325.444.255.126.303.17.148.114-.182-.065-.313-.1-.315-.084s.204.1.464.186c.234.078.571.192.753.257.155.053.495.152.706.199.236.059.419.115.416.133-.005.037.566.235.804.279.105.025.492.177.903.356.384.174.642.273.54.217-.151-.084-.046-.059.265.05.26.093 1.296.462 2.28.809 1.996.706 2.724.942 2.733.877.007-.059.266.038.671.254.28.146.331.164.336.127.01-.077-1.302-.62-1.302-.62l4.128 1.198c.203.109.357.174.359.155s.187.022.395.087c.261.08.39.136.333.149-.054.003.047.058.177.102.156.052.235.068.185.037-.073-.062.16.025.724.266.565.242 1.814.642 1.821.586.004-.024-.1-.065-.336-.12-.262-.069-.366-.109-.362-.14.004-.025.24.031.5.118.442.143.569.214.453.266-.03.019.1.075.36.155.208.065.467.161.568.217.075.046.54.22 1.033.39.494.168.907.326.982.375.075.05.257.109.494.158.396.081.839.22.573.18-.08-.01-.03.022.126.078.155.055.262.068.214.022-.047-.06.162 0 .914.263.597.208.932.335.852.325-.105-.021-.057.022.097.087.154.068.232.093.209.068-.05-.03.055-.009.185.031.156.053.257.112.278.155.022.04.095.108.195.167.253.142.672.254.498.133-.074-.055.032-.037.29.056.234.084.412.17.409.198-.003.025.124.084.282.128.156.046.388.136.49.195.126.068.537.238.95.393.595.223.752.266.785.226.093-.089.584.097.93.35.024.025.385.168.773.307.389.14.62.233.541.22-.08-.012-.004.028.152.084.181.065.236.062.162.006-.075-.056-.149-.108-.148-.114a10 10 0 0 0-.648-.23c-.467-.158-.596-.21-.488-.207.243.01 1.073.291 1.947.66.54.226.953.384 1.24.465.34.102.52.176.747.303.253.143.226.143-.085.031-.207-.074-.39-.127-.392-.112-.005.04.716.329.902.357.106.021.262.071.416.136.231.102 4.007 1.5 5.095 1.887.311.108.569.214.567.226-.006.05 1.055.437 1.812.66.965.289.966.282.086-.037a107 107 0 0 1-1.37-.508 13 13 0 0 0-.935-.32c-.184-.049-.364-.12-.438-.176-.1-.068.136 0 .81.233.52.177.985.35 1.035.381s.23.102.439.167c.182.056.596.214.904.344.385.164.644.257.88.316.263.069.392.118.516.202.075.052.02.055-.11.009-.155-.056-.26-.08-.262-.065s.462.2 1.057.42c.93.345 1.087.394 1.303.404.134.006.37.068.499.124.205.09.176.1-.035.056-.395-.084-.141.043.688.34.647.236.832.27.37.069-.128-.056-.254-.13-.225-.14.003-.027.055-.009.129.047.075.05.307.14.541.214.261.08.364.124.232.099-.24-.04.274.18 1.386.591.492.18 1.397.518 1.991.74.595.22 1.166.42 1.245.432s.314.09.52.176c.283.115.336.124.237.05-.199-.14.32.047.622.223.2.12.252.14.388.14.215.012.708.186.7.247-.004.025-.11.01-.265-.046-.13-.047-.261-.078-.264-.06-.002.016.127.069.258.106.156.047.259.093.256.115-.005.034.047.052.233.083.107.013.445.121.703.22.362.137.493.17.447.106-.018-.065.007-.056.286.093.229.12.41.192.749.291.287.08.443.137.44.158-.002.016.23.105.516.198.39.128.493.171.385.168-.134-.01.072.074 1.004.409 1.32.474 1.294.468.919.232q-.225-.145.105.022c.203.105.46.21.566.236.131.034.129.052.02.046-.135 0-.11.015.179.09.21.052.47.142.571.192.128.059.13.05.028-.006-.226-.133.784.223 1.011.353q.113.07-.159-.025c-.207-.074-.209-.062.045.068.28.145.332.164.544.195.133.019.473.118.732.211.285.102.52.174.522.155.002-.015.133.016.263.062q.272.096-.008.062c-.16-.022-.242-.019-.216-.01.18.075 1.732.651 3.18 1.184.984.36 1.632.583 1.739.598.318.056.243.004-.173-.127-.21-.061-.316-.077-.215-.021s.024.03-.207-.072c-.461-.204-1.6-.613-1.813-.65a1.8 1.8 0 0 1-.436-.19c-.226-.139-.148-.114 1.457.466 1.58.57 1.734.632 1.675.669-.058.034.173.13 1.516.644.852.325 1.68.632 1.81.67.13.037.39.136.593.232.256.117.49.2.881.316.313.093.547.173.544.192-.002.015.54.232 1.237.495a42 42 0 0 1 1.496.589c.179.08.491.18.885.276a5.4 5.4 0 0 1 1.066.35c.256.115.695.288.928.372.284.102.106.013-.433-.217-.616-.263-1.029-.421-1.343-.514a8 8 0 0 1-1.059-.4 8 8 0 0 0-.826-.322c-.105-.022-.13-.037-.024-.022.08.01-.02-.049-.278-.151-.387-.152-.387-.155.08.01.285.102.671.256.85.343.28.133.332.152.181.065-.252-.148.058-.03.543.201.306.15.461.208.749.282.289.075.496.152.853.323.281.133.693.3.978.396.26.087.44.164.411.18-.111.015.356.176.545.183q.162.008-.152-.08c-.183-.053-.208-.066-.101-.053.159.028.365.105.827.306.718.32 1.313.536 1.475.543.08.006.155.052.149.102.019.061.145.139.404.232.207.074.386.151.384.17-.002.016.696.279 1.629.607 1.192.422 1.608.558 1.612.524.003-.025.214.025.448.103.364.12.414.152.279.145-.135-.006-.084.022.255.127.286.09.44.155.437.18-.004.027.202.111.644.26.546.18.572.183.267.031-.204-.099-.383-.186-.382-.192.001-.003.881.313 1.968.707 1.373.496 2.07.759 2.325.886.357.173.33.17-.293-.04-.442-.146-.726-.258-.826-.323-.173-.127-1.365-.548-1.373-.486-.003.024-.108 0-.263-.066-.128-.055-.258-.096-.26-.08-.005.034.279.145.721.288.105.03.158.037.108.006-.073-.065.677.211.854.313.302.174 1.601.61 2.077.7.397.078.579.134.99.31.257.11.722.286.982.37.312.102.492.176.489.2-.005.035.15.094.723.273.677.214 2.101.732 3.288 1.193.284.112.904.344 1.37.512.466.17.801.303.721.29-.079-.015.127.066.439.171.883.298 1.317.505.97.462-.267-.035-.217-.004.477.29.437.186.901.366 1.006.394.131.037.31.114.36.152q.149.102.155.055c.029-.015.16.025.365.115.154.068.67.266 1.084.418.44.158 1.345.496 2.017.75.981.372 1.212.471 1.104.471q-.161-.011.151.086c.183.056.522.162.756.233.235.074.596.214.774.304.204.096.746.306 1.213.47.648.227.828.301.72.295-.134-.007.253.139.777.285.182.053.361.136.434.201.098.084.044.077-.213-.028q-.348-.14-.237-.056c.15.102 1.661.78 2.741 1.229.385.161.693.301.691.313-.002.016.205.093.465.177.39.124.39.127.023.034a4 4 0 0 0-.583-.109 1.7 1.7 0 0 1-.445-.121 5 5 0 0 0-.596-.208c-.315-.08-.625-.195-4.713-1.695-1.139-.415-2.115-.21-2.115-.21s-4.951-1.735-4.961-1.664c-.011.083.167.173 1.399.709.77.334 1.514.656 1.617.697.489.201-.222.042-1.212-.268-.86-.269-2.208-.744-6.325-2.228-2.9-1.044-5.257-1.884-5.259-1.872-.002.019.484.242.767.353.078.028.31.121.516.208.205.084.566.23.772.31.309.127.309.13-.028.009-.233-.08-.496-.149-.578-.143-.192.021-1.515-.437-6.925-2.402-4.711-1.713-5.903-2.129-5.16-1.8.231.102.254.13.097.09-.262-.075-.29-.063-.172.067-.001.012.895.412 1.947.867 1.258.545 1.897.84 1.79.83-.081-.003-.136.006-.138.015-.007.056-1.697-.5-3.327-1.094-1.708-.623-2.903-1.023-3.194-1.076-.266-.04-2.99-.98-7.16-2.47-2.332-.83-4.224-1.5-4.225-1.49-.001.008-1.375-.475-3.06-1.073-5.181-1.844-8.965-3.18-9.303-3.288a4 4 0 0 1-.39-.136m-10.99-4.285c.544.195.985.341.988.323.002-.016-.074-.06-.177-.1-1.758-.656-10.535-3.826-12.04-4.344-.233-.08-.39-.124-.314-.08.075.043.256.11.387.148.13.037.648.226 1.138.421.67.264.904.344.907.32.003-.022.131.034.282.12.177.103.383.186.566.233.184.05.781.25 1.35.462.57.207 1.166.412 1.297.446.315.084 1.583.548 1.863.681.28.137.645.258.442.146-.227-.13.933.332 1.444.573q.344.169.62.236c.157.037.703.22 1.247.415m-4.457-1.58c.001-.01-.1-.062-.255-.127-.128-.056-.258-.096-.26-.08-.003.018.125.08.254.126.156.056.26.087.26.08m-10.317-3.836c.128.059.232.09.235.071.004-.03-1.492-.62-1.728-.678-.079-.019.149.105.454.26.56.272.613.29.697.266.056-.012.214.025.342.08m1.997.694c-.173-.127-.717-.325-.75-.273-.005.031-.084.013-.158-.037a1.5 1.5 0 0 0-.332-.16c-.285-.103-.556-.103-.379-.004.176.102 1.717.554 1.619.474m15.318 5.605c.006-.043-.457-.238-.77-.328-.157-.043-.212-.04-.136.003.202.111.901.362.906.325m30.487 10.279c-.1-.062-.201-.12-.252-.14-.052-.018-.107-.015-.11.01-.003.024.097.083.253.139.129.046.184.043.109-.01M8.883 58.422c.004-.031-.095-.105-.249-.17-.153-.069-.261-.072-.269-.016-.007.055.092.126.25.17.156.046.264.047.268.016m14.762 5.302c.002-.016-.177-.1-.357-.174q-.387-.157-.237-.055c.15.102.588.272.594.229m-6.47-2.355c.006-.05-.64-.291-.983-.369-.29-.065-.213-.031.331.164.363.13.65.22.651.205m2.719.973a4 4 0 0 0-.41-.18c-.156-.056-.184-.05-.108-.006.075.046.28.133.41.18.156.055.183.052.108.006m1.07-.104c-.334-.136-.359-.154-.1-.062.234.081.133.025-.253-.136-.565-.241-.669-.275-.961-.322-.266-.038-.242-.016.248.176.31.121.802.298 1.062.381q.52.174.005-.037M10.895 58.6a3 3 0 0 0-.47-.145c-.237-.053-.211-.04.154.07.26.085.392.113.315.075m5.256 1.89c.055-.005-.124-.086-.435-.198-.544-.195-.912-.285-.631-.149.255.124.931.344 1.066.348m2.796 1.01c.262.07.369.085.188.02-.492-.177-1.118-.366-1.122-.335-.006.04.358.164.934.316m4.092 1.47c.081.003.032-.037-.097-.084-.156-.056-.262-.071-.265-.046s.045.064.097.083.158.034.265.047m4.038 1.465c.002-.015-.1-.068-.255-.123-.13-.047-.26-.078-.263-.062-.002.018.126.077.255.123.156.056.26.08.263.062M8.872 57.881a5 5 0 0 0-.491-.18c-.209-.064-.132-.027.153.075.284.105.44.152.338.105m20.798 7.453c.002-.015-.203-.105-.436-.189-.389-.14-.415-.142-.082.003.487.214.513.223.518.186m-22.2-8.553c.005-.034-.694-.288-.88-.32-.053-.006.1.065.385.168.259.096.493.17.496.152m1.035.387c.003-.025-.487-.217-.62-.242-.08-.012.023.037.23.112.207.074.39.133.39.13m8.21 2.947a5 5 0 0 0-.492-.18c-.209-.065-.132-.028.153.074.284.106.44.152.338.106m1.46.44c.265.044.374.044.244-.003-.207-.074-.846-.164-.851-.121-.003.022.023.028.607.124m117.678 42.262a5 5 0 0 0-.492-.18c-.208-.065-.132-.028.153.075.285.105.441.152.339.105M17.51 60.252c-.075-.053-.154-.072-.158-.038-.03.025.045.072.124.087.08.019.109 0 .034-.05m9.348 3.365c.261.075.21.044-.228-.127q-1.006-.395-.626-.186c.176.105.383.183.854.313m7.174 2.572c.08.01-.023-.03-.232-.096-.469-.146-.55-.152-.187-.022.156.056.339.109.419.118M20.18 61.185c.002-.016-.047-.05-.1-.069a2 2 0 0 0-.288-.07c-.08-.01-.03.02.1.067.155.056.286.09.288.072m2.561.942-.537-.245c-.384-.176-.462-.201-.467-.158-.004.03.2.124.563.254.31.111.492.173.441.149m2.101.731c.002-.015-.1-.068-.255-.124-.13-.046-.26-.077-.263-.062-.002.019.126.077.255.124.155.056.26.08.263.062m93.674 33.206c.08.01-.024-.031-.232-.096-.469-.146-.549-.152-.187-.022.156.056.338.108.419.118m3.966 1.388c.082-.006.031-.025-.181-.062-.265-.053-.29-.062-.285-.102.004-.031-.074-.062-.206-.087a6 6 0 0 1-.576-.152c-.209-.065-.054-.003.361.14.441.155.832.27.887.263m-16.505-6.064a4 4 0 0 0-.411-.18c-.206-.083-.31-.117-.234-.07.151.086.642.275.645.25M40.892 67.844c.954.372 1.166.409.396.078-.565-.239-1.657-.595-1.976-.642-.159-.031-.082 0 .258.099.261.075.831.276 1.322.465m2.023.7a10 10 0 0 1-.382-.185 1 1 0 0 0-.313-.096c-.081 0 .072.07.382.185.285.106.415.146.313.096m-8.823-3.231a1 1 0 0 0-.309-.127 9 9 0 0 1-.394-.094c-.106-.025.023.028.308.127.312.109.47.15.395.094m17.31 5.929c.003-.025-.125-.084-.256-.121-.157-.043-.212-.04-.136.003.227.127.384.173.391.118m-5.433-1.999c.001-.012-.125-.08-.254-.136-.153-.068-.176-.1-.096-.09.106.016.055-.006-.102-.05-.445-.126-.406-.006.06.161.207.075.39.127.392.115" clip-rule="evenodd"/><path fill="#f4793a" fill-rule="evenodd" d="M80.451 21.275c.049.025 3.356 1.224 7.34 2.661 4.01 1.446 7.367 2.66 7.517 2.713.126.045.477.167.754.262.277.092 2.406.865 4.76 1.723 2.328.852 5.71 2.081 7.513 2.738a1064 1064 0 0 1 8.762 3.212c1.102.402 2.679.985 3.504 1.292s1.727.634 2.003.732c1.054.37 1.531.54 1.881.67.325.12.325.123-.007.04-.229-.06-.257-.054-.081.008.15.054.378.12.457.126.079.009.407.11.732.231.45.169.547.223.462.254q-.111.032.25.096c.413.072 1.217.352 1.633.566.195.1.371.163.652.23.231.051.406.114.503.171s.346.151.574.221q.418.125.222.099c-.104-.01-.057.025.068.07.151.054.278.084.281.066.008-.043 1.035.328 1.429.515.172.085.472.193.751.273.254.072.557.165.707.222 1.525.576 3.9 1.465 4.427 1.653.401.144.7.262.698.273-.004.022 1.672.644 3.052 1.134.551.198.699.266.688.33l-.014.08.515.1c.412.082.715.176 1.214.373.373.15.771.314.894.374.097.054.598.237 1.051.387.554.183.853.298.848.327-.003.022.169.102.37.174s.379.117.382.095q.008-.044.376.138c.196.097.29.17.186.155-.13-.016-.205-.043-.25-.09-.071-.055-.296-.14-.701-.262-.354-.107-.68-.224-.752-.265-.168-.106-2.375-.892-2.383-.849-.002.015-.18-.034-.381-.106-.2-.071-.373-.152-.369-.174s-.221-.11-.499-.194a61 61 0 0 1-1.385-.457c-.678-.235-.877-.318-.869-.36.008-.048-.042-.07-.198-.087-.235-.03-1.057-.355-1.347-.528-.121-.07-.196-.097-.202-.064-.005.032-.609-.172-2.388-.813-1.328-.479-2.303-.843-2.225-.835.157.018-.623-.249-1.106-.38-.178-.044-.302-.097-.298-.122s-.32-.153-.873-.34c-.478-.162-.878-.31-.876-.324s-.169-.099-.393-.19c-.199-.083-.325-.124-.252-.08.072.046-.009.051-.213.001-.282-.066-.381-.11-.495-.219a.5.5 0 0 0-.345-.162c-.181-.03-.382-.098-.879-.303-.472-.196-.673-.267-.677-.242-.004.022-.231-.052-.504-.165-.249-.1-.876-.321-1.381-.479-.681-.217-.957-.32-1.226-.454a2.2 2.2 0 0 0-.651-.24c-.257-.054-.305-.08-.171-.085.213-.004-.137-.133-.676-.25-.488-.101-.889-.245-1.453-.527-.245-.122-.444-.205-.448-.183-.008.047-4.093-1.42-4.31-1.55-.122-.067-.197-.094-.202-.065-.005.025-.134.002-.284-.052-.125-.045-.173-.077-.094-.072s-.021-.034-.223-.095c-.228-.07-.408-.107-.411-.09-.002.015-.179-.04-.402-.136a3.6 3.6 0 0 0-.657-.204c-.181-.027-.205-.043-.069-.06.164-.025-.182-.183-.494-.222a1.6 1.6 0 0 1-.38-.117c-.295-.136-5.158-1.88-5.464-1.959a7 7 0 0 1-.677-.246c-.323-.13-.399-.15-.33-.087.069.059.393.19.946.38.452.154.901.327.974.372s.443.204.817.353c.523.207.7.262.708.22q.009-.056.685.19l.701.256-.631-.196c-.581-.18-.582-.177-.081.006.3.111.623.246.695.29.097.058.322.143.576.21.228.067.606.194.804.277.323.135.324.127.032-.03-.266-.154-.265-.16.061-.044.225.08.446.19.515.253.117.095.341.187.994.41.453.154.927.335.999.384.121.07.346.15.803.283.405.118.707.222.803.28.097.054 1.398.535 2.928 1.082 1.529.547 3.156 1.145 3.629 1.337.97.393 2.106.75 1.894.593-.046-.043.008-.047.133-.002.15.054.246.115.241.144-.006.036.242.144.794.338l12.382 4.446 11.58 4.16.935.445c.492.237.985.463 1.06.49s.124.056.071.052c-.028.01.045.047.196.1.125.046.247.109.244.13-.003.018-.106-.007-.229-.062-.123-.06-.177-.052-.108.01.069.064-.018.102-.175.088-.21-.018-.213.004.01.095.224.092.195.105-.113.04-.513-.107-.816-.208-.554-.183.104.014.08-.002-.047-.032-.591-.127.165.43.993.727.451.161.678.388.342.33-.154-.03-.21-.015-.112.035a.7.7 0 0 1 .235.184c.061.11-.832-.117-1.096-.281a.9.9 0 0 0-.378-.127q-.506-.069.133.158c.175.063.447.183.543.248.095.065.417.207.691.316.399.154.494.22.498.355-.014.082-.126.115-.277.061q-.188-.064-.079-.005c.245.126-.328.051-.729-.092-.752-.27-.292-.005.459.271.126.045.298.126.395.183.191.126-.373.315-.759.235-.179-.038-1.361-.442-2.916-.99a130 130 0 0 0-2.914-1.009c-.153-.039-.278-.087-.274-.11.004-.02-.296-.136-.724-.277-.403-.13-.803-.284-.874-.332-.097-.058.006-.04.232.04.226.081.329.1.257.054-.289-.176-.821-.332-1.165-.344a1.4 1.4 0 0 1-.663-.164c-.222-.106-.322-.142-.326-.117-.004.022-.557-.165-1.459-.492a60 60 0 0 0-1.883-.662c-.455-.136-.456-.132-.063.058.221.11.666.311.963.44.396.173.514.26.519.389.011.092-.078.144-.18.116-.102-.025-.135.013-.069.094l.109.138-1.3-.488c-1.199-.452-1.3-.484-1.161-.366.184.17-.748-.137-1.285-.42-.244-.13-.289-.177-.138-.123.175.063.303.093.306.075s-.196-.1-.448-.183a32 32 0 0 1-.729-.246 7 7 0 0 0-.687-.18c-.231-.053-.408-.105-.405-.126.008-.044-.545-.234-.779-.268-.102-.021-.476-.17-.871-.35-.369-.174-.619-.27-.522-.213.145.086.042.065-.259-.04-.251-.09-1.255-.444-2.208-.778-1.933-.68-2.64-.902-2.653-.827-.011.069-.261-.024-.649-.247-.267-.15-.317-.168-.325-.124-.015.09 1.25.627 1.25.627l-4.015-1.1c-.194-.111-.343-.176-.346-.154-.004.021-.184-.013-.387-.074-.253-.075-.377-.13-.32-.149.054-.007-.042-.065-.168-.106-.151-.05-.229-.062-.181-.03.068.066-.157-.018-.701-.259-.544-.24-1.757-.617-1.768-.552-.005.03.095.069.326.117.256.06.355.1.349.136-.005.03-.236-.02-.488-.102-.429-.134-.55-.208-.432-.276.031-.024-.092-.08-.346-.155a3.3 3.3 0 0 1-.549-.212c-.071-.048-.521-.217-.999-.38-.478-.16-.877-.314-.948-.367s-.248-.107-.48-.148c-.388-.066-.818-.197-.557-.169.079.006.032-.027-.119-.08-.15-.054-.255-.062-.211-.011.042.065-.161.011-.89-.242-.577-.2-.902-.323-.823-.318.103.018.058-.029-.091-.093-.148-.069-.223-.092-.201-.065.047.033-.056.015-.183-.023-.151-.05-.247-.111-.265-.16a.5.5 0 0 0-.182-.18c-.241-.148-.649-.248-.485-.12.07.06-.034.045-.285-.044-.226-.081-.397-.17-.391-.202.005-.029-.118-.088-.271-.127a2.3 2.3 0 0 1-.473-.192c-.121-.07-.518-.24-.918-.39-.574-.217-.727-.257-.762-.208-.099.11-.573-.07-.9-.34-.022-.028-.37-.168-.746-.303s-.6-.226-.522-.217c.079.01.006-.032-.145-.086-.175-.063-.23-.056-.16.004s.14.115.139.122c-.001.008.274.106.627.22.453.152.577.204.47.207-.24.006-1.045-.263-1.887-.63-.521-.224-.92-.378-1.2-.451a2.6 2.6 0 0 1-.72-.3c-.241-.148-.214-.15.087-.042.2.072.378.12.381.102.008-.047-.688-.33-.871-.35a2 2 0 0 1-.404-.129c-.221-.102-3.874-1.46-4.927-1.832-.302-.104-.55-.209-.547-.223.01-.058-1.017-.433-1.754-.639-.938-.267-.94-.26-.088.05.401.143.976.36 1.326.493s.752.269.905.305c.18.044.353.114.423.174.094.072-.135.009-.788-.213-.504-.169-.953-.338-1.001-.37a2.2 2.2 0 0 0-.425-.163 10 10 0 0 1-.873-.336c-.371-.164-.622-.253-.853-.305-.255-.06-.38-.11-.498-.198-.07-.055-.016-.063.11-.018.15.054.253.076.256.057s-.445-.2-1.02-.414c-.9-.334-1.052-.38-1.266-.377a1.4 1.4 0 0 1-.487-.109c-.197-.09-.168-.102.038-.067.387.07.143-.06-.659-.346-.626-.228-.808-.255-.363-.054.123.056.243.133.215.146-.006.032-.056.014-.126-.045-.07-.052-.295-.14-.523-.21-.253-.075-.352-.118-.222-.099.234.03-.26-.189-1.336-.589a245 245 0 0 1-1.926-.72c-.575-.213-1.128-.403-1.206-.412a2.6 2.6 0 0 1-.503-.169c-.274-.113-.326-.12-.233-.04.188.147-.314-.033-.601-.216-.192-.126-.242-.144-.377-.135-.212 0-.69-.166-.677-.238.005-.03.11-.019.26.035.125.045.254.072.257.05.004-.018-.12-.07-.248-.104-.152-.043-.25-.09-.246-.115.007-.04-.043-.058-.226-.08-.105-.008-.433-.11-.683-.207-.35-.133-.477-.163-.437-.09.014.073-.01.064-.277-.089a2.8 2.8 0 0 0-.723-.285c-.28-.074-.43-.127-.426-.153.003-.018-.221-.106-.499-.194-.378-.12-.478-.163-.37-.167.132.002-.067-.08-.969-.404-1.279-.457-1.253-.452-.896-.205q.213.153-.103-.018a2.7 2.7 0 0 0-.546-.234c-.127-.03-.124-.052-.017-.052.134-.01.11-.025-.17-.092a3 3 0 0 1-.555-.183c-.123-.059-.125-.048-.028.01.216.138-.763-.205-.98-.34-.071-.048-.019-.045.157.018.2.072.203.058-.04-.075-.267-.15-.318-.168-.527-.189-.13-.012-.461-.104-.712-.193-.275-.099-.504-.165-.507-.144-.003.018-.132-.008-.257-.053q-.264-.093.012-.072c.157.014.239.005.214-.004-.174-.074-1.674-.634-3.076-1.15-.951-.349-1.58-.562-1.685-.573-.311-.043-.241.013.164.135.203.057.307.068.21.01-.096-.057-.02-.034.202.069.444.204 1.547.6 1.755.628.103.017.275.098.42.188.214.146.138.122-1.415-.437-1.529-.551-1.678-.612-1.617-.66.06-.043-.162-.138-1.46-.64-.823-.318-1.624-.616-1.751-.65a4 4 0 0 1-.573-.228 4.7 4.7 0 0 0-.852-.305c-.305-.086-.531-.163-.528-.185.004-.018-.519-.232-1.193-.488a32 32 0 0 1-1.444-.578c-.173-.081-.476-.174-.86-.258a4.3 4.3 0 0 1-1.035-.332c-.246-.115-.67-.286-.895-.366-.276-.1-.105-.007.415.22.593.263.993.417 1.297.503.305.083.63.206 1.024.39.321.145.67.285.798.316.103.017.127.034.022.023-.079-.005.017.056.266.157.374.149.373.152-.079-.006a9 9 0 0 1-.82-.34c-.27-.134-.32-.152-.175-.062.24.155-.06.04-.525-.195a2.7 2.7 0 0 0-.725-.275 3.4 3.4 0 0 1-.824-.314c-.27-.135-.667-.3-.944-.392-.252-.082-.425-.16-.395-.18.11-.025-.342-.179-.53-.173q-.159.001.146.082c.178.049.203.061.098.054-.156-.02-.356-.096-.8-.298-.691-.32-1.267-.53-1.427-.525-.08-.002-.151-.05-.142-.108-.014-.07-.133-.152-.384-.241-.2-.072-.374-.15-.37-.17.003-.019-.671-.276-1.575-.591-1.154-.406-1.558-.535-1.565-.495-.005.029-.21-.014-.437-.088-.353-.114-.4-.147-.267-.149s.085-.03-.244-.13c-.279-.084-.427-.148-.422-.177.005-.033-.193-.115-.621-.257-.53-.17-.556-.172-.263-.017.195.1.367.188.365.196 0 .003-.853-.302-1.905-.682-1.328-.48-2.003-.736-2.247-.866-.342-.176-.316-.174.288.027.43.138.703.248.798.316.163.135 1.318.54 1.33.468.005-.029.108-.007.256.057.124.056.25.094.253.076.007-.04-.267-.15-.696-.284-.102-.029-.154-.032-.107 0 .068.07-.658-.197-.826-.303-.288-.18-1.547-.596-2.014-.667a3.2 3.2 0 0 1-.961-.29c-.248-.108-.697-.28-.95-.36-.303-.096-.476-.17-.471-.199.007-.04-.143-.097-.7-.265-.657-.201-2.035-.702-3.181-1.154-.274-.11-.874-.336-1.325-.497-.45-.165-.774-.296-.696-.288.078.013-.122-.066-.424-.167-.856-.283-1.272-.493-.93-.467.262.021.214-.011-.454-.304-.421-.185-.87-.36-.972-.386a1.3 1.3 0 0 1-.347-.15q-.141-.109-.15-.054c-.03.02-.157-.018-.354-.108a22 22 0 0 0-1.047-.41c-.427-.152-1.302-.48-1.951-.728-.949-.362-1.172-.461-1.064-.469q.16 0-.144-.09l-.735-.216a5 5 0 0 1-.747-.298c-.196-.098-.72-.304-1.171-.462-.628-.217-.802-.29-.695-.29.133-.003-.242-.145-.751-.277-.178-.048-.35-.133-.418-.203-.091-.09-.038-.087.21.018q.335.136.231.048c-.141-.108-1.594-.79-2.636-1.234-.371-.16-.667-.3-.664-.315.003-.018-.197-.093-.45-.172-.379-.117-.378-.12-.02-.038.205.047.464.086.57.085.107 0 .311.054.434.11.148.068.4.154.578.199.307.071.608.183 4.563 1.636 1.101.402 2.085.096 2.085.096s4.796 1.666 4.81 1.583c.017-.098-.153-.19-1.339-.724a116 116 0 0 0-1.557-.696c-.472-.199.224-.065 1.185.225.835.253 2.14.709 6.125 2.142 2.807 1.009 5.09 1.818 5.093 1.804.003-.022-.464-.247-.738-.356a12 12 0 0 1-.497-.205 61 61 0 0 0-.746-.305c-.298-.126-.297-.13.029-.013.226.077.482.138.564.125.193-.038 1.474.402 6.71 2.302 4.558 1.658 5.714 2.056 4.998 1.727-.221-.102-.243-.133-.09-.097.255.068.284.052.176-.09.002-.015-.86-.415-1.874-.87-1.21-.544-1.825-.84-1.719-.837.08-.002.136-.017.138-.027.011-.066 1.65.46 3.228 1.036 1.653.603 2.812.983 3.097 1.024.261.028 2.901.927 6.939 2.364 2.257.8 4.09 1.444 4.091 1.434s1.332.453 2.963 1.03c5.017 1.776 8.682 3.06 9.01 3.162.153.043.328.106.377.131m10.615 4.2c-.526-.187-.955-.326-.959-.304-.003.018.07.063.17.102 1.699.64 10.194 3.702 11.652 4.197.227.078.38.117.307.072a1.8 1.8 0 0 0-.374-.145 16 16 0 0 1-1.1-.41c-.648-.258-.874-.335-.88-.306-.003.025-.127-.03-.271-.12a1.8 1.8 0 0 0-.546-.23 19 19 0 0 1-1.308-.442c-.551-.2-1.13-.396-1.257-.427-.307-.075-1.533-.525-1.803-.66-.269-.138-.622-.253-.429-.138.217.135-.903-.32-1.393-.564a2.4 2.4 0 0 0-.6-.23c-.153-.032-.682-.206-1.209-.394m4.316 1.522c-.002.011.095.065.244.13.123.055.25.093.253.075.004-.022-.119-.085-.244-.13-.15-.053-.252-.082-.253-.075m9.978 3.728c-.123-.06-.225-.088-.228-.067-.007.037 1.438.615 1.668.666.077.017-.14-.111-.433-.27-.538-.276-.588-.294-.673-.26-.057.019-.211-.014-.334-.07m-1.935-.666c.163.135.689.327.726.264.007-.036.084-.02.155.032.045.043.192.119.317.164.276.098.545.08.377-.023-.168-.106-1.667-.523-1.575-.437m-14.821-5.43c-.009.05.437.245.742.327.153.04.207.032.135-.013-.193-.115-.87-.357-.877-.314m-29.56-9.788c.096.064.192.125.242.143s.104.01.11-.018c.004-.029-.092-.09-.242-.144-.125-.045-.18-.037-.11.019m91.933 33.988c-.006.036.086.115.235.18.148.069.255.065.266 0s-.082-.14-.235-.18c-.152-.043-.26-.036-.266 0m-14.29-5.117c-.003.018.169.103.343.176q.372.156.231.049c-.141-.108-.565-.276-.574-.225m6.262 2.279c-.01.058.615.293.949.359.283.055.209.021-.317-.167-.351-.126-.629-.21-.632-.192m-2.633-.938c.072.045.269.134.395.18.15.053.178.044.106-.001a2.4 2.4 0 0 0-.395-.18c-.15-.053-.178-.048-.106 0m-1.071.195c.323.134.346.154.095.065-.226-.078-.129-.02.242.14.544.24.645.273.932.306.262.025.239.002-.234-.187a18 18 0 0 0-1.028-.368q-.504-.165-.007.044m9.748 3.515c.073.038.276.098.455.136.232.045.208.032-.147-.072-.252-.079-.381-.102-.308-.064m-5.089-1.825c-.055.01.118.092.418.2.527.188.886.267.617.128-.245-.126-.901-.334-1.035-.328m-2.706-.976c-.256-.06-.36-.072-.185-.009.477.17 1.085.346 1.091.31.008-.047-.344-.165-.906-.301m-3.961-1.418c-.08.002-.034.046.091.09.15.054.255.065.26.036s-.041-.072-.091-.09a1.2 1.2 0 0 0-.26-.036m-3.908-1.417c-.003.018.094.072.244.126.126.044.254.071.257.053.004-.021-.119-.08-.244-.125-.151-.054-.253-.076-.257-.054m17.621 6.328c.073.038.298.122.475.174.203.061.129.024-.146-.075-.276-.102-.428-.145-.329-.099m-20.134-7.19c-.003.019.194.109.42.19.376.134.402.136.081-.01-.469-.214-.494-.223-.501-.18m21.449 8.37c-.007.04.669.285.851.308.053.004-.094-.068-.37-.167-.25-.093-.478-.163-.481-.142m-1-.377c-.005.028.468.217.598.236.078.01-.02-.041-.22-.113a5 5 0 0 0-.378-.123m-7.947-2.844c.073.037.298.122.475.174.203.06.129.023-.146-.076-.276-.102-.428-.145-.329-.098m-1.42-.409c-.261-.032-.369-.025-.243.02.2.072.829.132.837.082.004-.026-.021-.03-.594-.102M27.982 6.218c.074.038.299.122.476.174.202.061.13.024-.147-.075-.275-.102-.427-.145-.329-.099m114.555 41.093c.07.055.148.071.154.032.032-.031-.039-.08-.117-.092-.077-.016-.108.007-.037.06m-9.048-3.25c-.255-.068-.207-.036.217.131q.97.388.609.172c-.168-.11-.368-.185-.826-.303m-6.945-2.481c-.079-.006.02.034.223.095.455.136.535.138.184.012a2 2 0 0 0-.407-.107m13.406 4.835c-.003.018.044.054.094.072.075.027.204.054.282.063.079.005.031-.027-.094-.072-.15-.054-.278-.084-.282-.063m-2.478-.913c.05.021.296.14.517.246.369.178.444.201.453.15.006-.035-.191-.129-.542-.254-.3-.108-.477-.167-.428-.142m-2.035-.702c-.003.019.094.073.245.126.125.045.254.072.257.054.003-.022-.119-.081-.245-.126-.15-.054-.253-.075-.257-.053M44.728 12.84c-.078-.005.021.034.224.095.455.136.535.138.184.012a2 2 0 0 0-.408-.107m-3.842-1.333c-.082.013-.032.03.176.06.259.042.284.05.276.098-.006.036.068.066.198.086.104.014.36.075.562.136.202.06.053 0-.35-.136-.426-.15-.807-.255-.862-.244m15.968 5.879c-.001.007.171.088.395.18.199.082.3.114.228.066-.144-.09-.618-.275-.623-.246m62.992 22.755c-.922-.364-1.13-.392-.388-.062.545.237 1.604.574 1.918.606.155.025.081-.005-.249-.097a16 16 0 0 1-1.281-.447m-1.96-.67c.123.059.294.147.367.188a.8.8 0 0 0 .304.09c.08-.006-.067-.078-.367-.189-.275-.102-.402-.14-.304-.09m8.536 3.13c.071.053.22.118.298.127.078.012.258.05.385.08.103.021-.021-.03-.297-.126-.302-.104-.455-.14-.386-.08m-16.776-5.665c-.005.029.118.088.245.122.153.04.208.032.136-.013-.217-.131-.37-.174-.381-.11m5.256 1.938c-.003.014.118.084.242.14.148.068.169.103.09.097-.105-.01-.055.011.098.05.432.117.402-.02-.049-.181-.201-.072-.379-.12-.381-.106" clip-rule="evenodd"/><path fill="#f4793a" fill-rule="evenodd" d="M22.717 28.85c-.014.02-.531 1.452-1.15 3.179l-1.166 3.258c-.02.054-.07.207-.11.328a127 127 0 0 1-.742 2.062c-.37 1.008-.902 2.473-1.187 3.253a243 243 0 0 1-1.399 3.792c-.174.477-.43 1.158-.565 1.515a49 49 0 0 0-.318.867c-.155.458-.228.665-.285.816-.052.141-.055.14-.03-.008q.023-.153-.018-.04a.6.6 0 0 0-.04.203c.002.037-.036.181-.089.322-.075.194-.104.234-.138.19q-.038-.058-.044.107c-.005.188-.121.538-.235.71a.6.6 0 0 0-.097.284.44.44 0 0 1-.07.219.8.8 0 0 0-.1.247q-.045.184-.05.094c-.004-.048-.026-.03-.045.024-.023.065-.03.123-.017.126.035.009-.125.454-.22.62-.045.071-.09.201-.119.325a2 2 0 0 1-.084.31c-.257.658-.65 1.684-.73 1.912-.061.174-.116.302-.124.3-.018-.005-.291.72-.5 1.319-.084.239-.118.301-.17.288l-.062-.016-.014.233a1.5 1.5 0 0 1-.138.534c-.07.16-.148.33-.178.381-.03.04-.11.257-.17.455-.073.242-.125.371-.147.365-.018-.004-.059.068-.09.155-.03.087-.043.167-.025.172q.034.009-.06.162c-.051.082-.095.118-.097.07-.004-.06.008-.093.038-.109.035-.026.072-.124.116-.302.04-.156.09-.297.112-.327.061-.067.396-1.025.362-1.034-.012-.003.004-.082.034-.169s.072-.16.09-.155c.016.005.056-.092.087-.215.035-.133.115-.397.183-.605.097-.295.137-.38.17-.371.038.01.048-.011.043-.084-.005-.108.144-.461.241-.579q.061-.075.025-.088c-.026-.007.058-.27.333-1.041.206-.576.367-.997.37-.96.005.072.115-.268.157-.482.012-.08.037-.133.057-.128s.079-.134.154-.375c.067-.208.132-.382.143-.379s.055-.068.098-.164c.04-.085.056-.14.03-.111s-.04-.01-.026-.102c.016-.126.037-.168.108-.21.064-.03.088-.072.082-.144.001-.083.029-.17.126-.383.092-.201.123-.288.103-.294-.017-.004.012-.103.065-.22.047-.106.14-.38.2-.601.083-.299.128-.418.2-.53.069-.1.092-.166.104-.281.01-.116.024-.137.044-.072.03.102.086-.049.11-.292.018-.22.08-.395.228-.63.064-.102.103-.186.086-.19-.037-.01.59-1.782.665-1.87.036-.05.047-.082.025-.088-.02-.005-.018-.064.005-.13.019-.054.038-.073.044-.036s.023-.005.046-.094c.025-.1.032-.182.018-.186-.011-.002.01-.08.056-.175a.9.9 0 0 0 .077-.289c-.002-.083.007-.093.037-.026.04.082.119-.064.11-.208a.4.4 0 0 1 .044-.167c.069-.125.815-2.234.838-2.37.015-.068.06-.198.107-.293.061-.139.067-.173.027-.147-.037.026-.099.164-.177.405-.064.197-.141.39-.167.42a2.4 2.4 0 0 0-.172.347c-.095.224-.116.302-.082.31q.044.012-.063.305l-.11.303.073-.277c.068-.256.065-.256-.015-.04-.048.13-.113.268-.138.297a.6.6 0 0 0-.091.25c-.023.1-.075.265-.114.35-.065.137-.059.139.027.018.085-.108.09-.107.041.035a.5.5 0 0 1-.132.215c-.059.044-.102.14-.193.424-.063.198-.145.402-.173.43-.04.05-.074.148-.12.35-.042.178-.085.31-.117.349-.03.04-.24.602-.474 1.265a34 34 0 0 1-.585 1.57c-.183.415-.319.914-.224.832.027-.017.037.01.018.064-.024.065-.059.103-.082.097-.028-.007-.08.098-.162.338l-1.905 5.37-1.783 5.02-.228.393a6 6 0 0 0-.247.446c-.012.033-.028.052-.032.028-.01-.015-.03.015-.053.08-.02.055-.053.106-.07.101-.014-.003-.007-.05.02-.101.03-.052.018-.079-.022-.053-.04.025-.08-.021-.088-.094-.012-.098-.029-.103-.072-.007s-.056.08-.045-.059c.02-.232.06-.364.073-.242.002.048.012.038.02-.02.025-.265-.312.028-.438.386-.07.196-.216.277-.212.124.004-.07-.014-.099-.041-.058a.23.23 0 0 1-.113.09c-.077.015-.011-.383.082-.49q.058-.056.052-.164-.009-.234-.105.044a.8.8 0 0 1-.125.228 1.3 1.3 0 0 0-.158.292c-.07.172-.108.21-.212.194-.065-.017-.104-.074-.081-.14.019-.054.014-.067-.006-.036-.067.101-.08-.163-.018-.337.115-.327-.032-.14-.153.186a.6.6 0 0 1-.092.166c-.074.076-.288-.217-.273-.391.007-.081.173-.596.405-1.272.219-.631.404-1.2.419-1.268.011-.068.033-.122.05-.117s.07-.125.126-.312c.05-.177.12-.349.148-.377.033-.04.031.008-.003.106-.035.098-.036.145-.01.116a.7.7 0 0 0 .122-.514.35.35 0 0 1 .046-.297c.054-.093.07-.136.05-.141-.018-.005.058-.246.2-.637.124-.336.248-.707.278-.818.05-.2.046-.202-.052-.037-.057.092-.158.28-.22.406-.085.168-.138.213-.236.2-.07-.006-.12-.055-.111-.1.006-.046-.027-.066-.081-.045l-.093.036.216-.561c.201-.518.214-.562.14-.51-.108.067.014-.34.166-.562.07-.1.1-.117.078-.051-.027.076-.035.133-.02.137.014.003.053-.081.085-.192.03-.099.073-.242.1-.318.02-.066.05-.212.055-.306.012-.104.03-.182.047-.178.034.01.113-.232.11-.34.004-.046.073-.206.163-.372.089-.155.133-.263.1-.224-.048.06-.044.013-.001-.119.038-.108.189-.544.329-.959.286-.84.37-1.15.311-1.165-.054-.014-.013-.122.111-.28.082-.11.09-.131.056-.14-.072-.018-.33.52-.33.52l.355-1.783c.062-.079.094-.142.076-.146-.017-.005-.013-.087.01-.176.026-.112.054-.164.075-.135.012.027.045-.012.061-.067.02-.066.02-.102.001-.083-.043.025-.005-.072.113-.303s.26-.763.209-.776c-.023-.006-.041.036-.05.14-.016.116-.034.158-.062.15-.023-.005-.014-.11.018-.22.051-.188.093-.237.16-.172.022.018.05-.035.077-.146a.8.8 0 0 1 .096-.236c.028-.029.103-.223.17-.431.064-.209.134-.38.166-.408.031-.028.052-.105.055-.211.004-.177.052-.367.062-.245.006.037.025.018.048-.047.023-.066.015-.115-.018-.1-.045.012-.029-.078.077-.395.082-.252.138-.392.144-.355-.001.047.029.032.06-.032.035-.062.044-.095.026-.088-.02.019-.018-.028-.005-.084.02-.066.055-.105.09-.107a.2.2 0 0 0 .117-.065c.084-.097.11-.28.033-.217-.037.026-.04-.022 0-.13.034-.099.08-.17.106-.163.023.006.053-.046.065-.114a.5.5 0 0 1 .09-.202c.04-.05.12-.218.187-.39.097-.248.109-.317.067-.34-.097-.06-.015-.264.152-.387.018-.007.083-.157.14-.32s.101-.259.104-.222c.003.036.026.006.049-.059.027-.076.014-.103-.023-.077s-.071.053-.077.051a2 2 0 0 0-.093.273c-.06.198-.085.25-.101.2-.034-.116.074-.468.253-.825.109-.221.179-.393.201-.518a.6.6 0 0 1 .143-.307c.084-.097.088-.084.042.046-.03.088-.046.167-.032.17.037.01.17-.288.163-.373a.5.5 0 0 1 .05-.177c.052-.093.648-1.672.806-2.13.044-.13.093-.236.105-.233.045.011.208-.433.277-.76.09-.415.085-.416-.049-.047-.061.174-.158.422-.217.572-.06.151-.115.327-.124.395-.012.08-.045.155-.082.18-.044.037-.024-.064.067-.35.068-.22.143-.413.162-.432a.5.5 0 0 0 .074-.183c.018-.078.088-.25.151-.376a1.1 1.1 0 0 0 .13-.37c.016-.114.038-.168.091-.214.035-.026.047 0 .028.055-.023.065-.027.111-.013.115s.1-.187.195-.436c.146-.39.163-.456.134-.559a.36.36 0 0 1 .024-.219c.046-.083.059-.068.057.027-.007.176.063.075.186-.273.098-.27.097-.354-.004-.167-.027.053-.072.1-.085.085-.026-.007-.018-.028.019-.054.031-.028.071-.124.097-.224.027-.112.048-.154.05-.095.005.109.113-.1.289-.566.075-.205.221-.583.318-.831.094-.249.172-.49.17-.526a.6.6 0 0 1 .068-.22c.053-.116.052-.14.003-.105-.09.071-.014-.146.092-.261.073-.076.08-.098.057-.163-.026-.102.044-.31.1-.295.024.006.028.055.005.12-.019.054-.024.112-.007.117.015.003.04-.05.05-.106.015-.067.038-.109.058-.104.032.009.04-.013.035-.098-.008-.049.03-.193.075-.3.06-.151.067-.208.017-.198-.056-.002-.052-.013.033-.122a.66.66 0 0 0 .131-.31c.023-.125.046-.19.065-.185.015.004.055-.093.088-.214.047-.166.068-.208.084-.157.015.063.054-.021.192-.413.195-.555.194-.543.049-.403q-.091.084 0-.047a.6.6 0 0 0 .113-.232c.008-.057.025-.053.038-.002.024.066.034.056.05-.07a.7.7 0 0 1 .073-.242c.03-.052.022-.054-.01-.015-.08.086.063-.34.14-.426q.046-.042.006.072c-.03.087-.02.09.053-.01.082-.109.09-.13.08-.228a1 1 0 0 1 .063-.316c.042-.12.065-.22.048-.225-.015-.004-.01-.062.01-.116q.038-.115.057.015c.008.073.025.113.029.102.035-.074.282-.722.508-1.328.152-.412.239-.686.234-.734-.005-.144-.04-.117-.083.06-.02.09-.015.14.017.1.033-.039.024-.005-.027.088-.104.187-.272.666-.269.761 0 .048-.042.12-.093.178-.086.085-.078.051.163-.622.236-.663.265-.727.309-.692.04.034.087-.06.314-.619.144-.354.275-.7.286-.756a.9.9 0 0 1 .105-.246c.061-.103.096-.2.13-.37.03-.135.061-.233.078-.229.014.004.115-.22.23-.51.11-.28.23-.558.268-.62.04-.072.075-.205.093-.378.02-.209.045-.297.129-.454.058-.103.137-.285.172-.382.042-.12-.008-.05-.12.17-.129.252-.198.424-.227.559a1.5 1.5 0 0 1-.175.441 1.5 1.5 0 0 0-.145.342c-.001.047-.01.057-.015.008-.006-.037-.041.001-.088.108-.069.16-.072.16-.006-.037.042-.12.114-.28.161-.35.07-.112.078-.134.027-.076-.09.095-.038-.034.086-.227a.63.63 0 0 0 .123-.313.8.8 0 0 1 .14-.355c.071-.112.15-.282.186-.403.032-.11.07-.183.09-.166.033.056.096-.142.069-.232q-.02-.076-.046.06c-.015.079-.022.089-.03.04-.002-.072.031-.159.132-.346.161-.29.252-.54.23-.617-.009-.038.02-.066.065-.055.053.002.1-.045.139-.154.03-.087.068-.16.086-.155.014.003.129-.287.261-.68.17-.502.22-.679.19-.687-.024-.006-.016-.099.013-.198.045-.155.064-.173.082-.11.018.064.034.045.07-.1.03-.123.062-.186.085-.18.026.007.065-.078.122-.265.066-.232.064-.245-.02-.124-.053.081-.1.152-.105.15-.003 0 .127-.37.291-.826.206-.575.321-.866.39-.967.094-.142.096-.13.016.135-.054.188-.105.305-.146.342-.084.061-.254.563-.197.578.023.006.019.052-.013.115-.028.052-.041.108-.027.112.031.008.082-.11.133-.298.01-.045.006-.07-.013-.05-.046.023.071-.291.132-.358.103-.116.27-.666.267-.88a.75.75 0 0 1 .106-.424 3 3 0 0 0 .16-.41c.037-.133.072-.206.095-.2.032.008.057-.057.119-.302.074-.29.29-.886.498-1.378.05-.118.151-.376.22-.572.072-.195.134-.334.136-.297 0 .035.037-.05.077-.182.113-.374.224-.548.245-.388.016.123.035.104.179-.18.09-.177.17-.37.178-.416.01-.057.048-.13.073-.147q.066-.054.023-.065c-.019-.017-.005-.073.04-.156.034-.063.122-.277.186-.45.065-.185.211-.563.322-.843.163-.409.212-.503.23-.45q.02.074.052-.058l.077-.325c.026-.1.088-.25.138-.32a3 3 0 0 0 .211-.503c.09-.273.126-.347.139-.296.018.064.081-.098.12-.325.016-.08.06-.151.106-.175.058-.032.062-.008.012.098q-.064.143-.009.105c.066-.054.412-.665.627-1.108.077-.158.149-.282.16-.279.015.004.048-.082.078-.193.043-.167.046-.166.026-.005a1 1 0 0 0 .005.262.33.33 0 0 1-.031.193.9.9 0 0 0-.083.252c-.017.138-.066.268-.7 1.978-.175.478.18.985.18.985s-.694 2.086-.628 2.103c.077.02.127-.05.393-.55.167-.314.326-.617.344-.66.096-.2.078.116-.028.54-.092.367-.283.935-.898 2.662-.432 1.218-.775 2.209-.764 2.212.017.004.133-.192.184-.309a3 3 0 0 1 .096-.212c.04-.085.107-.234.144-.32.06-.126.063-.125.013.016-.032.099-.047.213-.027.254.053.097-.129.655-.95 2.923-.717 1.974-.882 2.477-.717 2.176.052-.094.073-.1.064-.031-.021.113-.005.129.091.094.011.003.214-.36.44-.788.27-.511.423-.769.433-.719.011.039.03.067.038.07.051.013-.152.731-.402 1.414-.262.716-.412 1.223-.409 1.354.01.122-.358 1.272-.97 3.025-.339.98-.61 1.776-.602 1.778s-.186.58-.43 1.29c-.751 2.178-1.291 3.77-1.33 3.915a.7.7 0 0 1-.054.164m-1.933 4.555c.08-.229.135-.417.118-.421-.015-.004-.04.025-.059.068-.283.734-1.6 4.416-1.802 5.052-.032.098-.043.167-.018.138a.4.4 0 0 0 .067-.161c.01-.057.09-.274.18-.476.12-.277.15-.376.128-.382-.02-.005.008-.057.06-.115a.43.43 0 0 0 .11-.233c.012-.08.089-.333.179-.57.087-.239.166-.491.174-.549.02-.137.217-.667.288-.78.073-.111.118-.266.053-.187-.077.086.136-.393.264-.597a.6.6 0 0 0 .103-.258c.006-.07.075-.301.155-.53m-.642 1.874c-.008-.002-.038.038-.07.101-.027.052-.04.108-.026.112.017.004.05-.046.07-.1.022-.066.032-.111.026-.113m-1.646 4.31c.03-.052.04-.097.023-.101-.029-.008-.296.611-.308.715-.003.035.068-.053.154-.174.147-.223.155-.244.118-.29-.02-.029-.015-.098.013-.15m.275-.843c-.084.061-.167.29-.114.315.029.007.026.042-.006.07a.3.3 0 0 0-.087.131c-.042.12.005.25.064.183.06-.068.198-.732.143-.699m2.363-6.414c-.04-.01-.134.18-.16.315-.012.068 0 .095.026.066.065-.078.169-.372.134-.38m3.913-12.919a.4.4 0 0 0-.08.098c-.008.022.004.049.027.055s.058-.033.08-.098c.02-.055.008-.081-.027-.055M10.152 59.16c-.029-.008-.079.027-.11.09-.034.063-.018.114.033.127.051.014.098-.022.11-.09.014-.068-.005-.12-.034-.127m2.187-6.198c-.014-.004-.058.068-.093.142q-.075.158-.01.104c.067-.054.143-.236.103-.246m-.987 2.711c-.045-.012-.15.258-.16.41-.007.128.01.097.09-.131.054-.153.085-.275.07-.279m.4-1.142a.7.7 0 0 0-.09.166c-.023.065-.012.08.013.051a.6.6 0 0 0 .09-.167q.032-.096-.013-.05m-.28-.536c-.065.138-.077.147-.039.038.032-.099 0-.06-.078.098-.119.23-.131.275-.122.408.013.122.028.114.115-.089.055-.128.127-.335.157-.446q.066-.22-.034-.009M9.96 58.22a.6.6 0 0 0-.049.2c-.006.106 0 .096.037-.061.03-.111.032-.17.012-.14m.781-2.207c-.015-.028-.056.044-.102.175-.08.228-.097.39-.024.279.067-.102.147-.39.126-.454m.42-1.173c.015-.115.01-.164-.016-.088-.073.207-.134.476-.105.483.037.01.085-.144.12-.395m.605-1.719c-.01-.038-.039-.022-.058.033-.023.065-.018.114.005.12s.05-.011.058-.033a.3.3 0 0 0-.005-.12m.613-1.693c-.015-.003-.044.037-.067.102-.02.054-.024.112-.01.116.017.004.048-.047.067-.101.023-.066.027-.112.01-.117M9.667 59.07a1 1 0 0 0-.076.206c-.022.09-.002.059.04-.06.045-.12.06-.187.036-.146m3.066-8.735c-.014-.004-.059.08-.093.177-.058.163-.056.176.017.04.107-.198.11-.209.076-.217m-3.812 9.22c-.032-.009-.138.284-.133.368.003.025.04-.037.083-.156.041-.108.067-.209.05-.213m.167-.432c-.022-.006-.11.197-.109.256.003.037.03-.004.06-.09a1 1 0 0 0 .05-.166m1.216-3.448a1 1 0 0 0-.076.206c-.022.09-.002.059.04-.06.045-.12.06-.187.035-.146m.14-.628c-.007-.12-.026-.173-.045-.118-.03.087 0 .38.04.39.02.005.02-.007.005-.272M27.88 5.634a1 1 0 0 0-.076.206c-.022.09-.002.059.04-.06.045-.12.06-.187.035-.146m-17.593 49.68c-.034.027-.037.062-.006.07.028.019.057-.01.057-.045.003-.035-.02-.052-.05-.025m1.393-3.923c.021-.114.002-.095-.075.087q-.18.417-.057.27c.063-.067.097-.153.132-.357m1.059-3.014c-.006-.037-.024.006-.046.095-.05.201-.04.239.013.087a.5.5 0 0 0 .033-.182m-2.08 5.811c-.014-.004-.036.015-.043.036a.4.4 0 0 0-.014.127c.005.037.025.019.044-.036.023-.065.03-.122.013-.127m.4-1.071c-.01.02-.072.124-.126.216-.092.155-.1.188-.06.198.028.008.076-.075.13-.227.045-.13.07-.208.056-.187m.29-.886c-.014-.004-.043.036-.066.101-.02.054-.024.112-.01.116.017.005.047-.047.067-.101.023-.065.027-.112.01-.116m13.487-39.41c-.006-.037-.024.006-.046.095-.049.201-.04.24.013.087a.5.5 0 0 0 .033-.181m.555-1.671c-.02-.041-.027-.02-.024.076-.001.119-.005.13-.042.12-.029-.007-.043.025-.042.084.002.048-.014.163-.036.252s.007.025.062-.15c.063-.186.097-.355.082-.383m-2.568 6.906a.8.8 0 0 0-.09.167c-.04.085-.052.129-.023.1.052-.057.136-.26.113-.267m-9.796 27.3c.167-.397.163-.492 0-.179-.116.231-.245.696-.231.842 0 .071.014.04.043-.107.022-.113.103-.353.188-.557m.276-.855c-.03.051-.078.122-.1.152a.2.2 0 0 0-.032.134c.014.04.051-.022.1-.152.045-.119.058-.175.032-.134m-1.365 3.694c-.031.027-.062.09-.06.126 0 .036-.007.117-.014.175-.004.046.02-.007.06-.127.043-.132.052-.2.014-.174m2.306-7.319c-.022-.006-.053.046-.064.102-.011.069.001.095.027.066.074-.087.089-.155.037-.168m-.847 2.273c-.012-.003-.05.046-.079.098-.034.063-.058.068-.063.031-.005-.048-.016-.027-.027.04-.037.193.065.196.134 0 .03-.087.046-.166.035-.17" clip-rule="evenodd"/><path fill="#f4793a" fill-rule="evenodd" d="M135.82 80.808c.014-.021.547-1.499 1.185-3.28.641-1.792 1.18-3.293 1.204-3.36l.112-.338c.038-.125.383-1.076.766-2.128.383-1.039.931-2.55 1.224-3.355a262 262 0 0 1 1.443-3.91c.18-.492.444-1.195.583-1.563s.284-.771.328-.894c.16-.473.235-.686.294-.842.054-.145.057-.145.032.008q-.025.158.017.041a.6.6 0 0 0 .042-.21 1.4 1.4 0 0 1 .091-.33c.077-.201.108-.242.143-.196q.04.06.046-.111c.004-.195.125-.555.242-.733a.6.6 0 0 0 .1-.292.45.45 0 0 1 .073-.226.9.9 0 0 0 .103-.255q.045-.191.05-.097c.005.05.027.031.047-.025.024-.067.032-.126.017-.13-.035-.01.13-.468.228-.639.046-.073.093-.208.122-.335.025-.116.06-.254.087-.32.265-.679.67-1.737.753-1.972.063-.18.119-.312.128-.31.018.005.3-.742.515-1.36.087-.246.122-.31.175-.297l.065.017.014-.241a1.5 1.5 0 0 1 .143-.55c.071-.166.152-.341.183-.394.031-.041.113-.265.175-.469.076-.25.129-.383.152-.377.018.005.06-.07.092-.16s.045-.172.027-.176q-.037-.009.062-.168c.052-.084.098-.121.1-.072.003.062-.009.096-.04.112-.035.028-.074.128-.12.312-.04.16-.092.307-.115.337-.063.07-.408 1.057-.373 1.066.012.004-.004.085-.036.175-.031.09-.074.164-.091.16s-.059.095-.091.221c-.036.138-.119.41-.188.624-.101.305-.142.392-.177.383-.038-.01-.049.012-.043.087.005.111-.149.476-.249.597-.04.05-.052.084-.026.09.027.008-.059.28-.343 1.075-.212.594-.378 1.028-.381.99-.006-.075-.12.276-.162.497-.013.082-.039.137-.06.132s-.08.138-.159.387c-.069.215-.135.393-.147.39s-.057.071-.101.17c-.041.087-.058.144-.031.114s.041.01.027.105c-.017.13-.039.174-.111.216-.066.032-.091.075-.085.15-.001.085-.03.175-.13.394-.095.208-.127.298-.106.303.017.005-.012.107-.068.228-.048.11-.144.39-.205.62-.086.308-.133.43-.206.546a.54.54 0 0 0-.108.29c-.011.12-.024.14-.046.074-.03-.105-.088.05-.112.302-.02.227-.083.407-.236.649-.066.105-.106.192-.088.197.038.01-.61 1.837-.686 1.928-.038.051-.05.085-.026.09.021.006.018.067-.005.134-.02.056-.04.076-.046.037-.005-.038-.024.006-.047.098-.027.104-.034.187-.019.191.012.003-.01.083-.057.181a.9.9 0 0 0-.08.298q.005.13-.038.027c-.041-.084-.123.066-.114.215a.4.4 0 0 1-.045.172c-.071.128-.841 2.304-.865 2.444a1.7 1.7 0 0 1-.109.303c-.064.142-.07.177-.028.151.038-.026.101-.17.182-.417.066-.204.145-.403.172-.433a2.4 2.4 0 0 0 .178-.358c.097-.232.119-.312.084-.321q-.046-.012.065-.314l.114-.313-.075.287c-.071.263-.068.263.014.04.051-.134.117-.276.143-.306a.65.65 0 0 0 .094-.257c.024-.104.077-.274.118-.361.066-.142.06-.144-.028-.02-.088.112-.094.11-.043-.035.036-.101.095-.196.136-.222.061-.046.106-.144.2-.438.065-.203.149-.414.178-.443.041-.051.076-.152.124-.36.043-.185.087-.32.121-.36.03-.042.248-.622.489-1.306s.51-1.41.602-1.619c.19-.428.33-.943.232-.858-.028.017-.038-.01-.018-.066.023-.067.06-.107.083-.1.03.007.084-.101.168-.349l1.965-5.538 1.838-5.179.236-.404c.126-.212.243-.427.255-.46s.029-.054.033-.029c.01.015.031-.016.055-.083.019-.056.054-.109.072-.104.014.003.007.05-.021.105-.032.053-.019.08.022.054s.082.021.091.097c.013.101.03.106.075.007.044-.099.058-.083.045.06-.02.24-.061.377-.075.25-.002-.049-.011-.039-.019.02-.027.275.32-.027.451-.397.071-.202.222-.286.218-.128-.003.073.015.102.043.06a.24.24 0 0 1 .116-.092c.079-.016.012.394-.085.504q-.058.06-.053.17.01.24.109-.045a.8.8 0 0 1 .128-.236 1.4 1.4 0 0 0 .164-.3c.072-.178.111-.217.218-.202.067.018.108.077.084.145-.02.056-.015.07.006.038.069-.105.082.168.018.347-.118.337.033.143.158-.192a.7.7 0 0 1 .095-.17c.076-.08.297.223.282.402-.007.084-.178.615-.418 1.312a31 31 0 0 0-.432 1.308c-.012.07-.035.126-.052.121-.018-.005-.071.129-.13.322-.051.182-.123.36-.153.388-.033.04-.032-.008.004-.109.035-.1.036-.15.01-.12-.104.12-.16.363-.126.53.028.13.016.2-.047.307-.056.095-.072.14-.052.145.018.005-.06.254-.205.657-.129.346-.257.73-.288.844-.051.207-.048.208.054.038.059-.095.162-.288.227-.418.087-.174.142-.22.243-.207.072.006.125.057.115.103-.007.047.027.068.083.046l.096-.036-.223.578c-.207.534-.22.58-.144.526.111-.07-.014.351-.172.58-.072.104-.103.12-.079.053.027-.079.035-.138.021-.142s-.056.084-.089.198c-.03.102-.075.25-.103.328-.021.068-.052.22-.057.316-.012.107-.031.188-.048.183-.036-.01-.117.24-.114.35-.004.048-.075.213-.168.385-.092.16-.137.27-.104.23.051-.06.047-.012.002.123-.04.112-.195.561-.339.99-.296.865-.383 1.185-.321 1.201.056.015.013.126-.115.289-.084.113-.092.135-.057.144.074.02.34-.536.34-.536l-.366 1.839c-.064.081-.097.146-.079.15s.014.09-.009.182c-.028.115-.057.169-.078.139-.013-.028-.046.013-.063.07-.021.067-.021.104-.001.085.044-.026.005.075-.117.312-.122.238-.268.788-.215.801.024.006.042-.038.052-.145.016-.119.034-.163.064-.155.023.006.014.114-.02.227-.052.195-.095.245-.165.178-.022-.018-.051.036-.079.15a.8.8 0 0 1-.098.245c-.03.029-.107.23-.176.444-.066.215-.139.392-.171.42-.032.029-.054.109-.057.218-.004.183-.053.378-.064.253-.006-.038-.025-.019-.049.049-.024.067-.016.118.018.102.046-.012.029.081-.079.408-.085.26-.143.404-.148.366.001-.05-.031-.033-.063.032-.036.065-.045.099-.026.092.02-.02.019.029.005.086-.021.069-.058.108-.094.11a.2.2 0 0 0-.12.068c-.086.1-.114.288-.034.224.039-.027.041.022.001.134-.036.101-.084.174-.11.168-.024-.006-.055.047-.067.117a.6.6 0 0 1-.093.209 2.2 2.2 0 0 0-.193.402c-.1.256-.112.326-.069.35.1.062.016.273-.157.4-.019.007-.086.161-.145.33-.059.168-.104.266-.107.229s-.026-.007-.05.06c-.028.079-.015.107.023.08.039-.027.074-.055.08-.053s.049-.122.096-.281c.062-.204.088-.259.104-.206.035.12-.076.482-.261.85-.112.229-.184.406-.207.534a.64.64 0 0 1-.147.317c-.087.1-.092.087-.044-.048.031-.09.047-.17.033-.175-.039-.01-.176.298-.168.385a.5.5 0 0 1-.052.183c-.053.096-.668 1.724-.831 2.196-.045.135-.096.244-.108.241-.047-.012-.215.447-.286.783-.093.429-.087.43.05.05.064-.18.163-.435.225-.59a2.4 2.4 0 0 0 .127-.409c.013-.082.047-.159.085-.186.045-.037.024.068-.07.362-.07.226-.147.427-.167.446a.6.6 0 0 0-.076.188c-.018.081-.091.259-.156.389a1.1 1.1 0 0 0-.134.38c-.016.12-.039.174-.094.222-.035.027-.048 0-.028-.057.024-.067.028-.115.013-.119s-.104.194-.2.45c-.152.402-.169.47-.139.576a.38.38 0 0 1-.025.226c-.047.086-.06.07-.058-.027.006-.182-.066-.078-.192.281-.102.28-.1.366.003.172.029-.054.075-.103.089-.087.026.007.018.03-.02.056-.032.028-.074.128-.101.231-.027.115-.049.158-.05.097-.006-.112-.117.105-.299.584-.078.212-.228.602-.328.857-.096.257-.178.505-.175.543a.6.6 0 0 1-.07.226c-.055.12-.054.145-.003.11.093-.074.014.15-.095.269-.076.078-.084.1-.059.168.027.105-.045.319-.104.304-.024-.007-.029-.057-.005-.124.02-.056.025-.116.007-.12-.014-.004-.04.05-.051.109-.015.07-.039.112-.06.106-.032-.008-.04.015-.036.101.008.051-.032.2-.077.31-.061.156-.069.216-.017.204.057.003.053.014-.035.126a.7.7 0 0 0-.135.32c-.023.129-.047.196-.067.19-.015-.003-.056.096-.091.222-.048.171-.069.215-.086.162-.015-.066-.056.022-.198.426-.202.572-.201.56-.05.415q.094-.086-.001.049a.6.6 0 0 0-.117.239c-.008.059-.026.054-.039.002-.024-.068-.034-.058-.051.072a.7.7 0 0 1-.076.25c-.031.053-.022.055.011.015.083-.089-.065.35-.145.44q-.046.044-.006-.075c.032-.09.02-.093-.055.01-.084.113-.092.135-.083.236.007.063-.024.214-.063.326-.044.123-.068.227-.05.232.015.004.01.064-.01.12q-.04.118-.059-.016c-.009-.075-.026-.116-.03-.105a49 49 0 0 0-.525 1.37c-.156.424-.246.707-.241.757.005.148.041.12.086-.063.02-.093.016-.143-.018-.103-.033.04-.024.006.029-.09.106-.193.28-.687.276-.785.002-.05.044-.124.097-.183.089-.088.08-.053-.168.641-.244.684-.274.75-.319.713-.042-.035-.09.063-.325.639a11 11 0 0 0-.294.78 1 1 0 0 1-.108.254 1.1 1.1 0 0 0-.135.381c-.03.14-.062.24-.08.236-.015-.003-.118.227-.237.527a8 8 0 0 1-.276.638 1.1 1.1 0 0 0-.096.391 1.05 1.05 0 0 1-.133.468c-.06.107-.142.294-.178.395-.043.123.008.05.123-.177.134-.26.206-.436.235-.576.027-.14.085-.284.18-.455a1.6 1.6 0 0 0 .15-.353c.001-.048.011-.058.016-.008.006.038.042-.001.09-.111.071-.165.074-.165.006.038a2 2 0 0 1-.166.361c-.072.116-.08.138-.027.079.092-.099.039.034-.089.234a.64.64 0 0 0-.127.322.8.8 0 0 1-.145.366c-.073.116-.154.291-.191.416-.034.114-.073.19-.093.172-.034-.058-.099.145-.071.238q.021.08.047-.06c.016-.082.023-.093.031-.042.002.074-.032.163-.136.357-.166.3-.26.557-.237.636.009.039-.021.068-.068.056-.054-.002-.103.047-.142.159-.032.09-.071.165-.089.16-.015-.003-.133.297-.27.702-.176.517-.227.7-.195.708.024.006.016.102-.014.205-.047.159-.066.178-.085.112-.018-.066-.035-.045-.072.104-.031.127-.064.192-.087.186-.027-.007-.067.08-.126.273-.068.24-.066.252.02.128.055-.084.103-.157.109-.156.003 0-.132.382-.301.853-.212.593-.331.893-.402.997-.097.146-.099.134-.016-.139.056-.193.108-.314.15-.353.087-.063.263-.58.204-.595-.024-.006-.02-.054.013-.12.029-.053.042-.11.028-.115-.033-.008-.085.113-.137.308-.01.046-.006.071.013.052.047-.024-.073.3-.136.369-.106.12-.278.687-.275.908a.8.8 0 0 1-.109.437 3 3 0 0 0-.165.422c-.039.137-.075.213-.099.207-.032-.008-.059.058-.122.311-.077.298-.3.914-.514 1.421-.053.122-.156.388-.227.59-.075.202-.138.344-.141.307.001-.037-.037.051-.079.188-.116.385-.231.564-.253.399-.016-.126-.036-.107-.184.185a2.7 2.7 0 0 0-.183.43.3.3 0 0 1-.076.152q-.067.056-.024.067c.02.017.006.075-.04.161a5 5 0 0 0-.193.464c-.067.191-.217.58-.332.869-.168.422-.218.519-.238.465q-.019-.079-.053.06l-.079.334a1.3 1.3 0 0 1-.142.33c-.052.085-.15.317-.218.519-.093.282-.13.358-.143.306-.019-.066-.084.101-.125.335-.016.082-.061.155-.108.18-.06.034-.064.008-.013-.101q.067-.148.009-.108c-.067.056-.424.686-.646 1.143-.08.163-.154.29-.166.287-.014-.003-.049.086-.08.2-.044.172-.047.171-.027.005a1 1 0 0 0-.004-.27.33.33 0 0 1 .032-.2 1 1 0 0 0 .085-.259c.018-.143.068-.277.722-2.041.18-.492-.187-1.015-.187-1.015s.717-2.152.649-2.17c-.079-.02-.131.052-.406.568-.171.323-.336.636-.355.68-.098.207-.08-.119.029-.556.095-.379.292-.964.927-2.746.446-1.256.799-2.278.788-2.281-.018-.005-.137.197-.19.318a3 3 0 0 1-.099.22c-.041.087-.111.24-.148.328-.062.13-.065.13-.014-.016.033-.101.049-.22.028-.262-.054-.1.133-.675.979-3.014.741-2.036.911-2.555.74-2.245-.053.097-.075.104-.066.032.022-.116.006-.133-.094-.097-.011-.003-.22.371-.453.813-.279.527-.437.793-.447.741-.012-.04-.03-.069-.039-.071-.053-.014.157-.755.415-1.46.269-.738.425-1.26.421-1.396-.01-.125.37-1.312 1-3.12.35-1.01.63-1.831.621-1.834-.009-.002.192-.599.443-1.33.776-2.246 1.333-3.89 1.373-4.038a.7.7 0 0 1 .056-.17m1.993-4.699c-.083.236-.139.43-.121.434.015.004.041-.026.06-.07.292-.757 1.65-4.555 1.859-5.21.033-.102.045-.173.018-.143a.4.4 0 0 0-.068.166 4 4 0 0 1-.186.49c-.123.287-.156.389-.132.395.02.005-.008.059-.061.119a.45.45 0 0 0-.114.24 4.4 4.4 0 0 1-.185.588c-.09.246-.172.507-.18.566a4.3 4.3 0 0 1-.296.804c-.076.115-.123.275-.056.194.08-.09-.139.404-.271.615a.6.6 0 0 0-.107.266c-.006.072-.077.31-.16.546m.662-1.934c.009.003.04-.038.072-.103.029-.054.043-.112.028-.116-.018-.004-.052.048-.072.104-.024.067-.034.114-.028.115m1.698-4.444c-.031.053-.041.1-.023.104.029.008.305-.63.317-.738.003-.036-.07.055-.159.18-.152.23-.16.252-.122.298.022.03.016.102-.013.156m-.284.87c.087-.064.173-.299.118-.325-.029-.008-.026-.044.006-.072a.3.3 0 0 0 .09-.136c.043-.124-.005-.258-.065-.188-.063.07-.206.754-.149.72m-2.437 6.614c.041.01.139-.184.166-.324.012-.07-.001-.098-.028-.068-.067.08-.173.383-.138.392m-4.036 13.325a.4.4 0 0 0 .084-.1c.008-.023-.005-.051-.029-.057-.023-.006-.059.033-.083.1-.02.057-.007.084.028.057m15.364-40.994c.029.008.08-.028.113-.093.035-.064.019-.117-.034-.131s-.101.023-.113.093c-.015.07.004.124.034.131m-2.257 6.393c.015.004.06-.07.097-.146q.077-.164.009-.108c-.068.056-.147.243-.106.254m1.018-2.797c.047.013.155-.266.165-.422.008-.133-.01-.1-.093.135-.055.157-.087.284-.072.287m-.412 1.179a.7.7 0 0 0 .093-.172c.023-.067.012-.082-.014-.052a.6.6 0 0 0-.093.172c-.023.067-.016.081.014.052m.29.552c.066-.142.079-.151.039-.039-.033.102.001.062.081-.101.122-.238.135-.284.125-.42-.013-.127-.029-.118-.119.091a5 5 0 0 0-.162.46q-.067.228.036.009m1.558-4.358a.6.6 0 0 0 .051-.207c.006-.109-.001-.098-.039.063-.03.115-.032.175-.012.144m-.805 2.276c.015.029.058-.046.105-.18.083-.236.1-.403.024-.288-.069.105-.151.401-.129.468m-.433 1.21c-.016.118-.011.169.016.09.075-.213.138-.49.108-.498-.038-.01-.087.148-.124.408m-.625 1.772c.012.04.04.023.06-.033.024-.067.019-.118-.005-.124-.023-.006-.052.011-.059.034a.3.3 0 0 0 .004.123m-.631 1.746c.014.004.045-.037.069-.104.019-.056.024-.116.01-.12-.018-.005-.049.048-.069.105-.024.067-.028.115-.01.12m2.797-7.88a1 1 0 0 0 .078-.213c.023-.092.002-.06-.042.063-.046.123-.061.192-.036.15m-3.163 9.01c.014.003.061-.083.096-.184.06-.168.058-.18-.017-.04-.111.203-.115.215-.079.224m3.932-9.51c.032.009.142-.293.137-.38-.003-.025-.042.038-.085.161-.043.112-.07.215-.052.22m-.173.445c.024.007.114-.203.113-.264-.003-.038-.031.004-.062.094-.032.09-.054.17-.051.17m-1.253 3.556a1 1 0 0 0 .078-.212c.023-.092.002-.06-.041.063-.047.122-.062.192-.037.15m-.145.648c.007.124.027.178.047.122.031-.09 0-.391-.041-.402-.021-.005-.022.007-.006.28m-17.983 50.964a1 1 0 0 0 .078-.212c.023-.092.002-.061-.041.062-.047.123-.062.192-.037.15m18.145-51.24c.035-.028.038-.064.006-.072-.029-.02-.058.01-.058.046-.003.036.019.054.052.026m-1.437 4.047c-.021.116-.002.097.077-.09q.185-.43.06-.28c-.066.07-.101.158-.137.37m-1.092 3.107c.006.039.025-.006.048-.098.05-.207.041-.246-.014-.089a.5.5 0 0 0-.034.187m2.145-5.993c.015.004.037-.015.045-.037a.4.4 0 0 0 .014-.131c-.006-.038-.025-.02-.045.037-.024.067-.032.126-.014.131m-.412 1.105c.011-.022.074-.128.13-.223.095-.16.103-.194.062-.205-.029-.007-.078.078-.134.235-.047.135-.072.214-.058.193m-.3.914c.015.004.045-.037.069-.105.02-.056.025-.116.01-.12-.017-.004-.049.05-.069.105-.023.067-.027.115-.01.12m-13.91 40.647c.006.038.025-.006.047-.098.051-.207.042-.246-.013-.09a.5.5 0 0 0-.034.188m-.572 1.724c.02.042.028.02.024-.079.002-.122.006-.133.044-.123.029.007.044-.026.043-.087-.002-.05.014-.168.037-.26s-.007-.026-.064.155c-.064.191-.1.366-.084.394m2.648-7.123a.8.8 0 0 0 .093-.172c.041-.088.053-.133.024-.104-.053.06-.14.27-.117.276m10.104-28.156c-.172.408-.169.506 0 .183.119-.239.253-.718.239-.868 0-.074-.015-.04-.046.11a4 4 0 0 1-.193.574m-.284.88c.031-.053.079-.126.103-.156.027-.03.041-.1.033-.139-.015-.04-.053.023-.104.157-.046.123-.06.18-.032.139m1.407-3.81c.032-.028.065-.093.062-.13 0-.037.007-.12.015-.18.004-.048-.022.007-.062.131-.045.136-.054.207-.015.18m-2.379 7.55c.024.005.055-.048.066-.106.012-.07 0-.098-.027-.069-.077.09-.092.16-.039.174m.875-2.345c.011.003.052-.048.08-.102.036-.064.06-.07.066-.032.005.05.016.029.028-.041.038-.199-.067-.201-.139 0-.031.09-.047.172-.035.175" clip-rule="evenodd"/></svg>